<?xml version="1.0" encoding="utf-8"?>
<!-- Generator: Adobe Illustrator 26.5.2, SVG Export Plug-In . SVG Version: 6.00 Build 0)  -->
<svg version="1.1" id="Layer_1" xmlns="http://www.w3.org/2000/svg" xmlns:xlink="http://www.w3.org/1999/xlink" x="0px" y="0px"
	 viewBox="0 0 2036.16 1118.74" style="enable-background:new 0 0 2036.16 1118.74;" xml:space="preserve">
<style type="text/css">
	.st0{fill:#FFFFFF;stroke:#040405;stroke-width:1.9244;stroke-miterlimit:10;}
	.st1{fill:#FFFFFF;stroke:#040405;stroke-width:2;stroke-miterlimit:10;}
</style>
<g>
	<path class="st0" d="M16.75,14.7h182.67v129.42H93.32v144.81h98.71v129.42H93.32v242.56H16.75V14.7z"/>
	<path class="st0" d="M239.54,14.7h189.58v129.42H316.11v123.99H422.2v129.42H316.11V531.5h120.85l-6.92,129.42H239.54V14.7z"/>
	<path class="st0" d="M477.55,14.7h105.63c32.29,0,57.58,14.48,75.88,43.44c18.29,28.96,27.45,69.39,27.45,121.28
		c0,60.95-15.53,107.11-46.59,138.48c17.83,13.89,31.67,34.25,41.52,61.09c9.84,26.85,14.76,57.47,14.76,91.86
		c0,59.14-9.92,105.6-29.75,139.38c-19.83,33.8-47.59,50.68-83.26,50.68H477.55V14.7z M575.34,133.27h-26.75v136.66h27.68
		c23.99,0,35.98-22.92,35.98-68.78C612.24,155.9,599.94,133.27,575.34,133.27z M621.93,461.81c0-54.3-14.3-81.46-42.9-81.46h-30.44
		v162.01h29.98c13.84,0,24.52-6.93,32.06-20.82C618.16,507.67,621.93,487.76,621.93,461.81z"/>
	<path class="st0" d="M737.71,14.7h103.33c36.59,0,64.81,17.65,84.64,52.95c19.83,35.3,29.75,85.23,29.75,149.79
		c0,73.62-15.07,130.03-45.21,169.25l57.66,274.23H886.7l-44.74-231.7c-3.69,0.61-7.08,0.9-10.15,0.9h-21.22v230.79h-72.88V14.7z
		 M882.09,221.06c0-56.71-14.92-85.08-44.74-85.08h-26.75v171.96h25.83C866.87,307.95,882.09,278.98,882.09,221.06z"/>
	<path class="st0" d="M997.86,422.89V14.7h77.03v419.95c0,36.2,3.15,62.9,9.46,80.1c6.3,17.2,16.22,25.79,29.75,25.79
		c13.53,0,23.37-8.6,29.52-25.79c6.15-17.2,9.23-43.9,9.23-80.1V14.7h77.49v408.19c0,82.67-10,145.72-29.98,189.16
		c-19.99,43.44-48.74,65.17-86.26,65.17c-37.83,0-66.65-21.72-86.49-65.17C1007.78,568.61,997.86,505.56,997.86,422.89z"/>
	<path class="st0" d="M1421.78,526.97h-83.95l-15.22,133.95h-75.19l87.64-646.22h94.1l85.34,646.22h-77.96L1421.78,526.97z
		 M1380.26,139.6l-29.52,266.99h58.58L1380.26,139.6z"/>
	<path class="st0" d="M1546.31,14.7h103.33c36.59,0,64.81,17.65,84.64,52.95c19.83,35.3,29.75,85.23,29.75,149.79
		c0,73.62-15.07,130.03-45.21,169.25l57.66,274.23h-81.18l-44.74-231.7c-3.69,0.61-7.08,0.9-10.15,0.9h-21.22v230.79h-72.88V14.7z
		 M1690.69,221.06c0-56.71-14.92-85.08-44.74-85.08h-26.75v171.96h25.83C1675.47,307.95,1690.69,278.98,1690.69,221.06z"/>
	<path class="st0" d="M1860.9,411.12L1775.57,14.7h83.03l42.44,265.18l42.9-265.18h80.26l-85.8,400.94v245.27h-77.5V411.12z"/>
</g>
<g>
	<path class="st1" d="M930.52,846.26c0-206.52,24.98-309.79,74.95-309.79c35.42,0,55.97,49.68,61.67,149.01l-44.91,13.33
		c-1.26-19.86-3.43-34.24-6.48-43.13c-3.06-8.88-7.33-13.33-12.81-13.33c-7.38,0-13.12,10.2-17.23,30.59
		c-4.11,20.39-6.7,54.11-7.75,101.17l-0.32,13.33c4.63-13.06,10.17-23.39,16.6-30.98c6.43-7.57,13.01-11.37,19.76-11.37
		c17.28,0,30.88,15.43,40.79,46.27c9.91,30.86,14.86,72.94,14.86,126.27c0,58.56-6.12,104.83-18.34,138.82
		c-12.23,33.99-28.99,50.98-50.28,50.98c-24.25,0-42.06-21.04-53.44-63.13C936.21,1002.21,930.52,936.19,930.52,846.26z
		 M1001.99,842.34c-14.97,0-22.45,26.15-22.45,78.43c0,26.15,1.84,46.27,5.53,60.39c3.69,14.12,9.12,21.18,16.29,21.18
		c14.33,0,21.5-27.45,21.5-82.35C1022.86,868.22,1015.9,842.34,1001.99,842.34z"/>
	<path class="st1" d="M1086.11,796.85h86.65v123.13h-86.65V796.85z"/>
	<path class="st1" d="M1158.84,551.38h133.45v101.17c-15.18,73.72-27.41,146.14-36.68,217.24c-9.28,71.11-16.02,145.62-20.24,223.52
		h-51.86c4-69.53,10.8-140.78,20.4-213.71c9.59-72.94,21.66-145.21,36.21-216.85h-81.27V551.38z"/>
	<path class="st1" d="M1404.24,930.18c0-44.43-8.12-66.66-24.35-66.66h-14.23v-97.25h14.86c6.53,0,11.65-5.49,15.34-16.47
		c3.69-10.98,5.53-25.88,5.53-44.7c0-18.3-1.69-32.8-5.06-43.53c-3.38-10.71-8.01-16.08-13.91-16.08
		c-12.65,0-20.03,23.8-22.14,71.37l-44.59-12.55c1.68-53.33,8.7-94.63,21.03-123.91c12.33-29.28,28.62-43.92,48.86-43.92
		c12.65,0,23.82,6.27,33.52,18.82c9.69,12.55,17.28,30.07,22.77,52.55c5.48,22.49,8.22,48.37,8.22,77.64
		c0,53.33-9.38,93.33-28.14,119.99c10.33,10.46,18.34,27.33,24.03,50.59c5.69,23.27,8.54,50.58,8.54,81.96
		c0,32.94-3,62.23-9.01,87.84c-6.01,25.62-14.28,45.62-24.82,60c-10.54,14.37-22.88,21.57-37,21.57
		c-45.96,0-69.25-63.78-69.89-191.36h45.85c0.63,54.9,8.43,82.35,23.4,82.35C1397.17,998.41,1404.24,975.66,1404.24,930.18z"/>
	<path class="st1" d="M1470.33,823.52c0-99.33,5.8-172.01,17.39-218.03c11.59-46,29.83-69.02,54.71-69.02
		c24.45,0,42.38,22.74,53.76,68.23c11.38,45.49,17.08,117.38,17.08,215.67c0,99.34-5.8,172.02-17.39,218.03
		c-11.6,46.01-29.94,69.02-55.02,69.02c-24.25,0-42.06-22.87-53.44-68.62C1476.02,993.05,1470.33,921.29,1470.33,823.52z
		 M1522.51,718.03c-1.26,24.84-1.9,59.48-1.9,103.92c0,43.92,0.63,78.43,1.9,103.52s3.42,42.88,6.48,53.33
		c3.05,10.46,7.22,15.69,12.49,15.69c5.48,0,9.75-5.22,12.81-15.69c3.05-10.45,5.27-28.23,6.64-53.33
		c1.37-25.1,2.06-59.6,2.06-103.52c0-44.43-0.63-79.08-1.9-103.92c-1.26-24.83-3.43-42.47-6.48-52.94
		c-3.06-10.45-7.33-15.68-12.81-15.68c-5.27,0-9.49,5.23-12.65,15.68C1525.98,675.56,1523.77,693.21,1522.51,718.03z"/>
	<path class="st1" d="M1640.46,533.34h66.72c24.67,0,43.96,16.35,57.87,49.02c13.92,32.68,20.87,78.04,20.87,136.07
		c0,38.7-3.22,72.15-9.65,100.39c-6.43,28.23-15.5,50.07-27.2,65.49c-11.7,15.43-25.56,23.14-41.58,23.14h-16.13v185.87h-50.91
		V533.34z M1737.54,719.99c0-50.71-10.23-76.07-30.67-76.07h-15.5v152.93h15.5C1727.32,796.85,1737.54,771.24,1737.54,719.99z"/>
	<path class="st1" d="M1812.49,533.34h62.61l39.21,385.86l38.9-385.86h62.61v559.97h-48.07V741.17l-37.32,352.14h-34.47
		l-36.68-349.78v349.78h-46.8V533.34z"/>
</g>
<g>
	<path class="st1" d="M7.67,1012.79c10.14-19.89,20.42-40.57,30.83-62.05c10.41-21.47,19.75-41.36,28.02-59.7
		c11.47-25.14,20.48-46.86,27.02-65.19c6.54-18.32,11.14-35.47,13.81-51.45c2.67-15.97,4-32.33,4-49.09
		c0-43.46-7.34-65.19-22.02-65.19c-7.74,0-13.68,5.77-17.81,17.28c-4.14,11.52-7.27,30.9-9.41,58.12L3.27,722.16
		c3.2-54.98,12.67-97.52,28.42-127.64c15.74-30.11,36.29-45.16,61.65-45.16c24.82,0,44.5,14.8,59.05,44.38
		c14.54,29.59,21.82,69.51,21.82,119.79c0,34.04-3.47,66.25-10.41,96.61c-6.94,30.38-18.82,65.19-35.63,104.47
		c-5.87,13.62-11.75,26.84-17.61,39.67c-5.87,12.84-12.41,26.58-19.62,41.24h88.87l-6,111.54H7.67V1012.79z"/>
	<path class="st1" d="M317.92,943.67c0-44.5-10.28-66.77-30.82-66.77h-18.01v-97.4h18.82c8.27,0,14.74-5.5,19.42-16.5
		c4.67-11,7.01-25.92,7.01-44.77c0-18.32-2.14-32.86-6.41-43.59c-4.27-10.73-10.15-16.1-17.61-16.1
		c-16.01,0-25.36,23.83-28.02,71.48l-56.45-12.57c2.13-53.41,11.01-94.77,26.62-124.1c15.61-29.32,36.23-43.99,61.85-43.99
		c16.01,0,30.16,6.28,42.43,18.85c12.27,12.57,21.88,30.12,28.82,52.63c6.94,22.52,10.41,48.44,10.41,77.76
		c0,53.41-11.88,93.47-35.63,120.18c13.07,10.48,23.22,27.37,30.42,50.66c7.21,23.31,10.81,50.66,10.81,82.08
		c0,32.99-3.8,62.32-11.41,87.97c-7.61,25.66-18.08,45.69-31.43,60.09c-13.35,14.4-28.96,21.6-46.84,21.6
		c-58.18,0-87.67-63.88-88.47-191.66h58.05c0.8,54.98,10.67,82.47,29.62,82.47C308.98,1012,317.92,989.23,317.92,943.67z"/>
	<path class="st1" d="M416.8,546.22h89.67c31.76,0,56.25,15.32,73.46,45.95c17.21,30.63,25.82,73.97,25.82,130
		c0,63.89-13.08,112.85-39.23,146.88l50.04,238h-70.46l-38.83-201.08c-3.2,0.53-6.14,0.79-8.81,0.79h-18.42v200.3H416.8V546.22z
		 M542.1,725.31c0-49.21-12.95-73.83-38.83-73.83h-23.22v149.24h22.42C528.89,800.71,542.1,775.58,542.1,725.31z"/>
	<path class="st1" d="M647.38,546.22h86.47c39.76,0,69.92,23.44,90.47,70.3c20.55,46.87,30.82,115.6,30.82,206.19
		c0,90.07-10.61,159.98-31.83,209.72c-21.22,49.75-51.31,74.62-90.27,74.62h-85.67V546.22z M785.9,825.06
		c0-106.82-16.01-160.24-48.04-160.24h-24.42v323.61h23.22C769.48,988.44,785.9,933.99,785.9,825.06z"/>
</g>
</svg>
