<?xml version="1.0" encoding="utf-8"?>
<!-- Generator: Adobe Illustrator 26.5.2, SVG Export Plug-In . SVG Version: 6.00 Build 0)  -->
<svg version="1.1" id="Layer_1" xmlns="http://www.w3.org/2000/svg" xmlns:xlink="http://www.w3.org/1999/xlink" x="0px" y="0px"
	 viewBox="0 0 2617.75 710.93" style="enable-background:new 0 0 2617.75 710.93;" xml:space="preserve">
<style type="text/css">
	.st0{fill:#FFFFFF;stroke:#040405;stroke-width:1.849;stroke-miterlimit:10;}
	.st1{fill:#FFFFFF;stroke:#040405;stroke-width:1.9217;stroke-miterlimit:10;}
	.st2{fill:#FFFFFF;stroke:#000000;stroke-width:2;}
</style>
<g>
	<path class="st2" d="M37.55,14.26h234v84.5H135.64v94.55H262.1v84.5H135.64v158.37H37.55V14.26z"/>
	<path class="st2" d="M322.96,14.26h242.87v84.5H421.05v80.96h135.91v84.5H421.05v87.46h154.82l-8.86,84.5H322.96V14.26z"/>
	<path class="st2" d="M627.86,14.26h135.32c41.36,0,73.76,9.45,97.21,28.36c23.43,18.91,35.16,45.31,35.16,79.18
		c0,39.79-19.9,69.93-59.68,90.41c22.84,9.07,40.57,22.36,53.18,39.89c12.6,17.53,18.91,37.52,18.91,59.98
		c0,38.61-12.71,68.94-38.11,91c-25.41,22.07-60.97,33.09-106.66,33.09H627.86V14.26z M753.14,91.67h-34.27v89.23h35.46
		c30.73,0,46.09-14.97,46.09-44.91C800.41,106.44,784.65,91.67,753.14,91.67z M812.82,306.17c0-35.46-18.32-53.18-54.96-53.18h-39
		v105.77h38.41c17.73,0,31.41-4.52,41.07-13.59C807.99,336.11,812.82,323.11,812.82,306.17z"/>
	<path class="st2" d="M961.14,14.26h132.37c46.88,0,83.02,11.52,108.43,34.57c25.41,23.05,38.11,55.65,38.11,97.8
		c0,48.07-19.31,84.9-57.91,110.5l73.86,179.05h-104l-57.32-151.27c-4.73,0.4-9.07,0.59-13,0.59h-27.18v150.68h-93.37V14.26z
		 M1146.1,148.99c0-37.02-19.11-55.55-57.32-55.55h-34.27v112.27h33.09C1126.6,205.72,1146.1,186.81,1146.1,148.99z"/>
	<path class="st2" d="M1294.41,280.76V14.26h98.68v274.19c0,23.64,4.04,41.07,12.11,52.3c8.07,11.23,20.77,16.84,38.11,16.84
		c17.33,0,29.93-5.61,37.82-16.84c7.88-11.23,11.82-28.66,11.82-52.3V14.26h99.27v266.5c0,53.98-12.81,95.14-38.41,123.5
		c-25.61,28.36-62.44,42.55-110.5,42.55c-48.46,0-85.39-14.18-110.8-42.55C1307.11,375.9,1294.41,334.74,1294.41,280.76z"/>
	<path class="st2" d="M1837.46,348.72h-107.55l-19.5,87.46h-96.32l112.27-421.91h120.55l109.32,421.91h-99.86L1837.46,348.72z
		 M1784.28,95.8l-37.82,174.32h75.05L1784.28,95.8z"/>
	<path class="st2" d="M1997,14.26h132.37c46.88,0,83.02,11.52,108.43,34.57c25.41,23.05,38.11,55.65,38.11,97.8
		c0,48.07-19.31,84.9-57.91,110.5l73.86,179.05h-104l-57.32-151.27c-4.73,0.4-9.07,0.59-13,0.59h-27.18v150.68H1997V14.26z
		 M2181.96,148.99c0-37.02-19.11-55.55-57.32-55.55h-34.27v112.27h33.09C2162.46,205.72,2181.96,186.81,2181.96,148.99z"/>
	<path class="st2" d="M2400,273.08L2290.68,14.26h106.37l54.36,173.14l54.96-173.14h102.82l-109.91,261.78v160.14H2400V273.08z"/>
</g>
<g>
	<path class="st2" d="M9.74,634.3c10.99-10.99,22.13-22.42,33.41-34.28c11.28-11.86,21.41-22.85,30.38-32.98
		c12.43-13.89,22.2-25.89,29.29-36.02c7.09-10.12,12.08-19.59,14.97-28.42c2.89-8.82,4.34-17.86,4.34-27.12
		c0-24.01-7.96-36.02-23.87-36.02c-8.39,0-14.83,3.19-19.31,9.55c-4.49,6.37-7.89,17.07-10.2,32.11l-63.79-7.38
		c3.47-30.38,13.74-53.88,30.81-70.51c17.07-16.63,39.34-24.95,66.83-24.95c26.9,0,48.23,8.18,64.01,24.52
		c15.76,16.35,23.65,38.4,23.65,66.17c0,18.81-3.76,36.6-11.28,53.37c-7.53,16.78-20.4,36.02-38.62,57.71
		c-6.37,7.53-12.73,14.83-19.09,21.91c-6.37,7.09-13.45,14.69-21.26,22.78h96.33l-6.51,61.62H9.74V634.3z"/>
	<path class="st2" d="M346.04,596.11c0-24.58-11.14-36.88-33.41-36.88H293.1v-53.81h20.39c8.96,0,15.98-3.04,21.05-9.11
		c5.06-6.08,7.59-14.32,7.59-24.73c0-10.12-2.32-18.15-6.94-24.08c-4.63-5.93-11-8.9-19.09-8.9c-17.36,0-27.49,13.17-30.38,39.49
		l-61.18-6.94c2.31-29.51,11.93-52.36,28.86-68.56c16.92-16.2,39.27-24.3,67.04-24.3c17.36,0,32.69,3.47,46,10.41
		c13.3,6.94,23.72,16.64,31.24,29.07c7.52,12.44,11.28,26.76,11.28,42.96c0,29.51-12.88,51.64-38.62,66.39
		c14.17,5.79,25.17,15.12,32.98,27.99c7.81,12.88,11.72,27.99,11.72,45.35c0,18.23-4.12,34.43-12.37,48.6
		c-8.25,14.18-19.6,25.24-34.06,33.2c-14.47,7.95-31.39,11.93-50.77,11.93c-63.07,0-95.03-35.29-95.9-105.88h62.92
		c0.87,30.38,11.57,45.56,32.11,45.56C336.34,633.86,346.04,621.28,346.04,596.11z"/>
	<path class="st2" d="M453.22,376.54h97.2c34.42,0,60.97,8.46,79.63,25.39s27.99,40.86,27.99,71.82c0,35.3-14.18,62.34-42.53,81.15
		l54.24,131.48h-76.37l-42.09-111.09c-3.47,0.29-6.66,0.43-9.55,0.43h-19.96v110.65h-68.56V376.54z M589.04,475.48
		c0-27.19-14.04-40.79-42.09-40.79h-25.17v82.45h24.3C574.72,517.13,589.04,503.25,589.04,475.48z"/>
	<path class="st2" d="M703.16,376.54h93.73c43.1,0,75.79,12.95,98.07,38.84c22.27,25.89,33.41,63.86,33.41,113.91
		c0,49.76-11.5,88.38-34.5,115.86c-23,27.49-55.62,41.22-97.85,41.22h-92.86V376.54z M853.3,530.59c0-59.02-17.36-88.52-52.07-88.52
		h-26.47v178.78h25.17C835.51,620.84,853.3,590.76,853.3,530.59z"/>
	<path class="st2" d="M988.69,549.68c0-114.27,34.28-171.4,102.84-171.4c48.6,0,76.81,27.49,84.62,82.45l-61.62,7.38
		c-1.74-10.99-4.71-18.94-8.9-23.87c-4.2-4.92-10.06-7.38-17.57-7.38c-10.13,0-18.01,5.64-23.65,16.92
		c-5.64,11.28-9.19,29.94-10.63,55.98l-0.43,7.38c6.36-7.23,13.95-12.94,22.78-17.14c8.82-4.19,17.86-6.29,27.12-6.29
		c23.72,0,42.38,8.54,55.98,25.6c13.59,17.07,20.39,40.36,20.39,69.86c0,32.4-8.39,58-25.17,76.81
		c-16.78,18.81-39.78,28.21-69,28.21c-33.27,0-57.71-11.64-73.33-34.93C996.5,635.96,988.69,599.44,988.69,549.68z M1086.75,547.51
		c-20.54,0-30.81,14.47-30.81,43.39c0,14.47,2.53,25.6,7.59,33.41c5.06,7.81,12.51,11.72,22.35,11.72
		c19.67,0,29.51-15.19,29.51-45.56C1115.39,561.83,1105.85,547.51,1086.75,547.51z"/>
	<path class="st2" d="M1215.2,504.12h169.23v64.66H1215.2V504.12z"/>
	<path class="st2" d="M1382.26,386.52h183.12v55.98c-20.83,40.79-37.61,80.86-50.34,120.2c-12.73,39.35-21.99,80.57-27.77,123.67
		h-71.17c5.49-38.47,14.82-77.89,27.99-118.25c13.16-40.36,29.72-80.35,49.69-119.98h-111.52V386.52z"/>
	<path class="st2" d="M1748.5,596.11c0-24.58-11.14-36.88-33.41-36.88h-19.53v-53.81h20.39c8.96,0,15.98-3.04,21.05-9.11
		c5.06-6.08,7.59-14.32,7.59-24.73c0-10.12-2.32-18.15-6.94-24.08c-4.63-5.93-11-8.9-19.09-8.9c-17.36,0-27.49,13.17-30.38,39.49
		l-61.18-6.94c2.31-29.51,11.93-52.36,28.86-68.56c16.92-16.2,39.27-24.3,67.04-24.3c17.36,0,32.69,3.47,46,10.41
		c13.3,6.94,23.72,16.64,31.24,29.07c7.52,12.44,11.28,26.76,11.28,42.96c0,29.51-12.88,51.64-38.62,66.39
		c14.17,5.79,25.17,15.12,32.98,27.99c7.81,12.88,11.72,27.99,11.72,45.35c0,18.23-4.12,34.43-12.37,48.6
		c-8.25,14.18-19.6,25.24-34.06,33.2c-14.47,7.95-31.39,11.93-50.77,11.93c-63.07,0-95.03-35.29-95.9-105.88h62.92
		c0.87,30.38,11.57,45.56,32.11,45.56C1738.81,633.86,1748.5,621.28,1748.5,596.11z"/>
	<path class="st2" d="M1839.2,537.09c0-54.96,7.95-95.17,23.87-120.63c15.91-25.45,40.93-38.19,75.07-38.19
		c33.56,0,58.15,12.58,73.77,37.75c15.62,25.17,23.43,64.95,23.43,119.33c0,54.97-7.96,95.18-23.87,120.63
		c-15.91,25.46-41.08,38.19-75.5,38.19c-33.27,0-57.71-12.65-73.33-37.97C1847.01,630.9,1839.2,591.19,1839.2,537.09z
		 M1910.8,478.73c-1.74,13.74-2.6,32.91-2.6,57.5c0,24.3,0.87,43.39,2.6,57.28c1.74,13.89,4.7,23.72,8.9,29.51
		c4.19,5.79,9.91,8.68,17.14,8.68c7.52,0,13.38-2.89,17.57-8.68c4.19-5.78,7.23-15.62,9.11-29.51c1.88-13.89,2.82-32.98,2.82-57.28
		c0-24.58-0.87-43.75-2.6-57.5c-1.74-13.74-4.71-23.5-8.9-29.29c-4.2-5.78-10.06-8.68-17.57-8.68c-7.23,0-13.02,2.9-17.36,8.68
		C1915.57,455.23,1912.53,464.99,1910.8,478.73z"/>
	<path class="st2" d="M2072.65,376.54h91.56c33.85,0,60.32,9.04,79.41,27.12c19.09,18.08,28.64,43.18,28.64,75.29
		c0,21.41-4.41,39.92-13.24,55.54c-8.83,15.62-21.26,27.7-37.32,36.23c-16.06,8.54-35.08,12.8-57.06,12.8h-22.13v102.84h-69.86
		V376.54z M2205.87,479.82c0-28.06-14.04-42.09-42.09-42.09h-21.26v84.62h21.26C2191.84,522.34,2205.87,508.17,2205.87,479.82z"/>
	<path class="st2" d="M2308.71,376.54h85.92l53.81,213.5l53.37-213.5h85.92v309.83h-65.96V491.53l-51.21,194.84h-47.3l-50.34-193.54
		v193.54h-64.22V376.54z"/>
</g>
</svg>
