<?xml version="1.0" encoding="utf-8"?>
<!-- Generator: Adobe Illustrator 26.5.2, SVG Export Plug-In . SVG Version: 6.00 Build 0)  -->
<svg version="1.1" xmlns="http://www.w3.org/2000/svg" xmlns:xlink="http://www.w3.org/1999/xlink" x="0px" y="0px"
	 viewBox="0 0 380.19 40.08" style="enable-background:new 0 0 380.19 40.08;" xml:space="preserve">
<style type="text/css">
	.st0{fill:none;stroke:#000000;stroke-width:6;stroke-miterlimit:10;}
	.st1{fill:#FFFFFF;stroke:#000000;stroke-width:6;stroke-miterlimit:10;}
	.st2{fill:#FFFFFF;stroke:#160B2E;stroke-width:2;stroke-miterlimit:10;}
	.st3{fill:none;stroke:#160B2E;stroke-width:2;stroke-miterlimit:10;}
	.st4{fill:#FFFFFF;}
	.st5{fill:#1D110D;}
	.st6{fill:#0E082E;}
	.st7{fill:none;stroke:#000000;stroke-width:2;stroke-miterlimit:10;}
	
		.st8{clip-path:url(#SVGID_00000058589997066923911840000016625942184869358752_);fill:#FFFFFF;stroke:#000000;stroke-width:6;stroke-miterlimit:10;}
	
		.st9{clip-path:url(#SVGID_00000058589997066923911840000016625942184869358752_);fill:none;stroke:#000000;stroke-width:6;stroke-miterlimit:10;}
	.st10{clip-path:url(#SVGID_00000106116524047085771960000007286747764685290942_);}
	.st11{clip-path:url(#SVGID_00000026164377459361759510000005461415922512358298_);}
	.st12{clip-path:url(#SVGID_00000016040305480108122050000005116400308066903211_);}
	.st13{clip-path:url(#SVGID_00000008110826735101644450000009542498374408818108_);}
	.st14{fill:url(#SVGID_00000118386977950918936390000010633774997753568136_);}
	.st15{fill:url(#SVGID_00000019642860999286763310000001755395875640638853_);}
	.st16{fill:url(#SVGID_00000042722520655741817840000004398665164377328540_);}
	.st17{stroke:#000000;stroke-width:0.6043;stroke-miterlimit:10;}
</style>
<g id="bottom_text">
</g>
<g id="below_archs">
</g>
<g id="files">
</g>
<g id="whiteblock_out__x2B_dots">
</g>
<g id="text_x2B_squiggle">
</g>
<g id="folded_file">
</g>
<g id="opening_reception">
	<g>
		<path class="st17" d="M2.45,20.57c0-5.14,1.01-9.06,3.02-11.74s4.97-4.02,8.86-4.02c3.84,0,6.73,1.31,8.69,3.92
			s2.94,6.48,2.94,11.59c0,5.14-1,9.06-3,11.74c-2,2.68-4.95,4.02-8.84,4.02c-3.84,0-6.74-1.31-8.72-3.92
			C3.43,29.55,2.45,25.69,2.45,20.57z M9.75,20.49c0,3.31,0.35,5.69,1.04,7.13c0.7,1.45,1.83,2.17,3.42,2.17s2.73-0.73,3.44-2.19
			c0.71-1.46,1.06-3.86,1.06-7.19c0-3.31-0.35-5.69-1.04-7.13s-1.83-2.17-3.42-2.17c-1.58,0-2.73,0.73-3.44,2.19
			C10.1,14.75,9.75,17.15,9.75,20.49z"/>
		<path class="st17" d="M30.22,5.56h8.8c3.25,0,5.8,0.87,7.63,2.61s2.75,4.15,2.75,7.23c0,2.06-0.42,3.84-1.27,5.34
			c-0.85,1.5-2.04,2.66-3.59,3.48c-1.54,0.82-3.37,1.23-5.48,1.23h-2.13v9.88h-6.71V5.56z M43.02,15.48c0-2.7-1.35-4.04-4.04-4.04
			h-2.04v8.13h2.04C41.67,19.57,43.02,18.21,43.02,15.48z"/>
		<path class="st17" d="M52.91,5.56h17.14v5.96H59.83v5.71h9.59v5.96h-9.59v6.17h10.93l-0.63,5.96H52.91V5.56z"/>
		<path class="st17" d="M74.42,5.56h6.34l8.09,17.22V5.56h6.42v29.77h-6.38l-8.05-17.14v17.14h-6.42V5.56z"/>
		<path class="st17" d="M100.53,5.56h6.96v29.77h-6.96V5.56z"/>
		<path class="st17" d="M112.75,5.56h6.34l8.09,17.22V5.56h6.42v29.77h-6.38l-8.05-17.14v17.14h-6.42V5.56z"/>
		<path class="st17" d="M137.77,20.57c0-3.14,0.4-5.89,1.21-8.26c0.81-2.36,2.08-4.2,3.84-5.53c1.75-1.32,4.03-1.98,6.84-1.98
			c5.98,0,9.4,3.17,10.26,9.51l-7.01,0.75c-0.45-2.72-1.61-4.09-3.5-4.09c-1.22,0-2.16,0.43-2.79,1.29c-0.64,0.86-1.07,2-1.29,3.42
			s-0.33,2.98-0.33,4.67c0,3.28,0.42,5.69,1.27,7.24c0.85,1.54,2.17,2.31,3.98,2.31c1.31,0,2.42-0.29,3.34-0.88V24.2h-3.63v-5.42
			h10.09v14.05c-1.45,1.08-3.04,1.9-4.77,2.44c-1.74,0.54-3.55,0.81-5.44,0.81c-3.95,0-6.94-1.31-8.99-3.92
			C138.79,29.55,137.77,25.69,137.77,20.57z"/>
		<path class="st17" d="M178.97,5.56h9.34c3.31,0,5.86,0.81,7.65,2.44c1.79,1.63,2.69,3.93,2.69,6.9c0,3.39-1.36,5.99-4.09,7.8
			l5.21,12.64h-7.34l-4.04-10.68c-0.33,0.03-0.64,0.04-0.92,0.04h-1.92v10.63h-6.59V5.56z M192.02,15.07c0-2.61-1.35-3.92-4.04-3.92
			h-2.42v7.92h2.33C190.64,19.07,192.02,17.74,192.02,15.07z"/>
		<path class="st17" d="M202.99,5.56h17.14v5.96h-10.22v5.71h9.59v5.96h-9.59v6.17h10.93l-0.63,5.96h-17.22V5.56z"/>
		<path class="st17" d="M223.42,20.61c0-5.14,0.99-9.06,2.98-11.76c1.99-2.7,4.83-4.04,8.53-4.04c2.95,0,5.3,0.95,7.07,2.86
			c1.76,1.9,2.87,4.71,3.32,8.4l-6.92,0.79c-0.25-2.06-0.65-3.53-1.19-4.42s-1.34-1.33-2.4-1.33c-1.42,0-2.45,0.74-3.11,2.21
			c-0.65,1.47-0.98,3.84-0.98,7.09c0,3.22,0.34,5.59,1.02,7.11c0.68,1.52,1.74,2.27,3.19,2.27c1.14,0,2.01-0.47,2.63-1.42
			c0.61-0.95,0.99-2.4,1.13-4.38h6.84c-0.19,3.86-1.23,6.85-3.11,8.95c-1.88,2.1-4.46,3.15-7.74,3.15c-3.67,0-6.46-1.31-8.38-3.94
			C224.38,29.52,223.42,25.67,223.42,20.61z"/>
		<path class="st17" d="M248.94,5.56h17.14v5.96h-10.22v5.71h9.59v5.96h-9.59v6.17h10.93l-0.63,5.96h-17.22V5.56z"/>
		<path class="st17" d="M270.46,5.56h8.8c3.25,0,5.8,0.87,7.63,2.61s2.75,4.15,2.75,7.23c0,2.06-0.42,3.84-1.27,5.34
			c-0.85,1.5-2.04,2.66-3.59,3.48c-1.54,0.82-3.37,1.23-5.48,1.23h-2.13v9.88h-6.71V5.56z M283.26,15.48c0-2.7-1.35-4.04-4.04-4.04
			h-2.04v8.13h2.04C281.91,19.57,283.26,18.21,283.26,15.48z"/>
		<path class="st17" d="M298.11,11.81h-6.42V5.56h19.89v6.25h-6.46v23.52h-7.01V11.81z"/>
		<path class="st17" d="M314.66,5.56h6.96v29.77h-6.96V5.56z"/>
		<path class="st17" d="M325.8,20.57c0-5.14,1.01-9.06,3.02-11.74s4.97-4.02,8.86-4.02c3.84,0,6.73,1.31,8.69,3.92
			s2.94,6.48,2.94,11.59c0,5.14-1,9.06-3,11.74c-2,2.68-4.95,4.02-8.84,4.02c-3.84,0-6.74-1.31-8.72-3.92
			C326.78,29.55,325.8,25.69,325.8,20.57z M333.09,20.49c0,3.31,0.35,5.69,1.04,7.13c0.7,1.45,1.83,2.17,3.42,2.17
			s2.73-0.73,3.44-2.19c0.71-1.46,1.06-3.86,1.06-7.19c0-3.31-0.35-5.69-1.04-7.13s-1.83-2.17-3.42-2.17
			c-1.58,0-2.73,0.73-3.44,2.19C333.45,14.75,333.09,17.15,333.09,20.49z"/>
		<path class="st17" d="M353.57,5.56h6.34L368,22.78V5.56h6.42v29.77h-6.38l-8.05-17.14v17.14h-6.42V5.56z"/>
	</g>
</g>
</svg>
