<svg version="1.1" id="Layer_1" xmlns="http://www.w3.org/2000/svg" xmlns:xlink="http://www.w3.org/1999/xlink" x="0px" y="0px" width="100%" height="100%" viewBox="0 0 1808.202 531" style="enable-background:new 0 0 1808.202 531;" xml:space="preserve" preserveAspectRatio="none">
<style type="text/css">
	.st0{fill:#FFFFFF;stroke:#000000;stroke-width:3px;stroke-miterlimit:10;vector-effect:non-scaling-stroke;}
</style>
<g>
	<path class="st0" d="M69.223,313.801c-21.936-11.66-37.975-29.75-48.125-54.25S5.873,201.341,5.873,158.4
		c0-47.6,7.814-85.4,23.449-113.4c15.63-28,36.98-42,64.051-42c25.664,0,45.379,12.491,59.149,37.45
		c13.765,24.971,22.165,63.591,25.2,115.851l-65.8,12.6c-1.636-21.459-3.91-36.159-6.825-44.1c-2.92-7.93-7.646-11.9-14.175-11.9
		c-5.835,0-10.325,3.5-13.476,10.5c-3.149,7-4.725,16.8-4.725,29.4c0,12.6,1.4,22.17,4.2,28.699c2.8,6.541,7.465,11.441,14,14.7
		l25.55,14c23.564,13.07,40.479,31.62,50.75,55.65c10.265,24.04,15.4,56.821,15.4,98.35c0,51.799-7.761,92.049-23.275,120.75
		C143.827,513.65,121.952,528,93.723,528c-57.635,0-87.85-58.559-90.65-175.699h67.2c0.93,23.34,3.38,40.141,7.351,50.4
		c3.965,10.27,9.8,15.4,17.5,15.4c6.529,0,11.604-3.852,15.225-11.551c3.615-7.699,5.425-18.551,5.425-32.551
		c0-12.129-1.521-21.809-4.55-29.049c-3.035-7.23-7.82-12.709-14.35-16.451L69.223,313.801z"/>
	<path class="st0" d="M326.819,515.4V320.101h-49V515.4h-68.601V15.601h68.601v178.5h49v-178.5h68.6V515.4H326.819z"/>
	<path class="st0" d="M528.766,528c-33.37,0-58.57-21.93-75.6-65.799c-17.035-43.859-25.55-108.5-25.55-193.9
		c0-86.801,8.689-152.71,26.074-197.75C471.071,25.521,496.681,3,530.516,3c33.365,0,58.565,21.941,75.601,65.801
		c17.029,43.87,25.55,108.5,25.55,193.899c0,86.799-8.695,152.721-26.075,197.75C588.206,505.492,562.596,528,528.766,528z
		 M529.466,404.101c11.2,0,19.189-10.609,23.975-31.852c4.78-21.229,7.176-57.049,7.176-107.449c0-49.93-2.336-85.4-7-106.4
		c-4.671-21-12.601-31.5-23.801-31.5c-11.199,0-19.195,10.62-23.975,31.85c-4.785,21.241-7.175,57.051-7.175,107.45
		c0,49.94,2.329,85.401,7,106.401C510.331,393.601,518.266,404.101,529.466,404.101z"/>
	<path class="st0" d="M809.112,515.4l-24.5-286.299l-24.5,286.299h-71.399L641.112,15.601h70l19.95,314.299l25.55-312.2h57.75
		l25.2,312.2l19.95-314.299h68.6l-47.6,499.799H809.112z"/>
	<path class="st0" d="M1102.409,528c-33.37,0-58.57-21.93-75.6-65.799c-17.035-43.859-25.55-108.5-25.55-193.9
		c0-86.801,8.689-152.71,26.074-197.75C1044.713,25.521,1070.324,3,1104.159,3c33.365,0,58.565,21.941,75.601,65.801
		c17.029,43.87,25.55,108.5,25.55,193.899c0,86.799-8.695,152.721-26.075,197.75C1161.849,505.492,1136.239,528,1102.409,528z
		 M1103.109,404.101c11.2,0,19.189-10.609,23.975-31.852c4.78-21.229,7.176-57.049,7.176-107.449c0-49.93-2.336-85.4-7-106.4
		c-4.671-21-12.601-31.5-23.801-31.5c-11.199,0-19.195,10.62-23.975,31.85c-4.785,21.241-7.175,57.051-7.175,107.45
		c0,49.94,2.329,85.401,7,106.401C1083.974,393.601,1091.909,404.101,1103.109,404.101z"/>
	<path class="st0" d="M1237.503,515.4V15.601h79.8c28,0,49.99,15.29,65.976,45.85c15.979,30.57,23.975,72.45,23.975,125.65
		c0,34.07-3.62,64.05-10.85,89.95c-7.235,25.899-17.62,46.199-31.15,60.9c-13.535,14.699-29.399,22.049-47.6,22.049h-14.351v155.4
		H1237.503z M1317.303,245.2c19.13,0,28.7-19.13,28.7-57.399c0-38.26-9.57-57.4-28.7-57.4h-14v114.8H1317.303z"/>
	<path class="st0" d="M1434.902,515.4V15.601h151.55v116.2h-83.649v73.5h78.399V321.5h-78.399v77.701h89.25l-5.25,116.199H1434.902z
		"/>
	<path class="st0" d="M1744.301,515.4l-60.2-251.299V515.4h-63V15.601h60.9l60.2,251.3v-251.3h63V515.4H1744.301z"/>
</g>
</svg>