<svg version="1.1" id="Layer_1" xmlns="http://www.w3.org/2000/svg" xmlns:xlink="http://www.w3.org/1999/xlink" x="0px" y="0px" viewBox="0 0 1000 800" style="enable-background:new 0 0 1000 800;" xml:space="preserve">
<g>
	<path d="M484.671,1.687l1.399-4.477c0,0,2.658-1.539,4.757,0.56s0,3.638,0,3.638S486.632,3.721,484.671,1.687z"/>
	<path d="M439.102,1.687l1.399-4.477c0,0,2.658-1.539,4.757,0.56s0,3.638,0,3.638S441.063,3.721,439.102,1.687z"/>
	<path d="M386.817,47.137l1.399-4.477c0,0,2.658-1.539,4.757,0.56s0,3.638,0,3.638S388.778,49.171,386.817,47.137z"/>
	<path d="M341.247,47.137l1.399-4.477c0,0,2.658-1.539,4.757,0.56s0,3.638,0,3.638S343.208,49.171,341.247,47.137z"/>
	<path d="M313.92,23.264l1.399-4.477c0,0,2.658-1.539,4.757,0.56s0,3.638,0,3.638S315.881,25.298,313.92,23.264z"/>
	<path d="M377.696,6.891l1.399-4.477c0,0,2.658-1.539,4.757,0.56s0,3.638,0,3.638S379.658,8.925,377.696,6.891z"/>
	<path d="M315.951,72.736l1.399-4.477c0,0,2.658-1.539,4.757,0.56s0,3.638,0,3.638S317.912,74.77,315.951,72.736z"/>
	<path d="M270.382,72.736l1.399-4.477c0,0,2.658-1.539,4.757,0.56s0,3.638,0,3.638S272.343,74.77,270.382,72.736z"/>
	<path d="M342.9,53.138l1.399-4.477c0,0,2.658-1.539,4.757,0.56s0,3.638,0,3.638S344.861,55.172,342.9,53.138z"/>
	<path d="M306.83,32.49l1.399-4.477c0,0,2.658-1.539,4.757,0.56s0,3.638,0,3.638S308.792,34.524,306.83,32.49z"/>
	<path d="M220.363,69.141l1.399-4.477c0,0,2.658-1.539,4.757,0.56s0,3.638,0,3.638S222.324,71.175,220.363,69.141z"/>
	<path d="M174.794,69.141l1.399-4.477c0,0,2.658-1.539,4.757,0.56s0,3.638,0,3.638S176.755,71.175,174.794,69.141z"/>
	<path d="M147.467,45.267l1.399-4.477c0,0,2.658-1.539,4.757,0.56s0,3.638,0,3.638S149.428,47.301,147.467,45.267z"/>
	<path d="M245.966,48.196l1.399-4.477c0,0,2.658-1.539,4.757,0.56s0,3.638,0,3.638S247.927,50.23,245.966,48.196z"/>
	<path d="M211.243,28.894l1.399-4.477c0,0,2.658-1.539,4.757,0.56s0,3.638,0,3.638S213.205,30.928,211.243,28.894z"/>
	<path d="M127.937,87.634l1.399-4.477c0,0,2.658-1.539,4.757,0.56s0,3.638,0,3.638S129.898,89.668,127.937,87.634z"/>
	<path d="M82.368,87.634l1.399-4.477c0,0,2.658-1.539,4.757,0.56s0,3.638,0,3.638S84.329,89.668,82.368,87.634z"/>
	<path d="M55.041,63.76l1.399-4.477c0,0,2.658-1.539,4.757,0.56s0,3.638,0,3.638S57.002,65.794,55.041,63.76z"/>
	<path d="M153.54,66.689l1.399-4.477c0,0,2.658-1.539,4.757,0.56s0,3.638,0,3.638S155.501,68.723,153.54,66.689z"/>
	<path d="M118.816,47.387l1.399-4.477c0,0,2.658-1.539,4.757,0.56s0,3.638,0,3.638S120.778,49.421,118.816,47.387z"/>
	<path d="M33.251,116.797l1.399-4.477c0,0,2.658-1.539,4.757,0.56s0,3.638,0,3.638S35.212,118.831,33.251,116.797z"/>
	<path d="M58.854,95.852l1.399-4.477c0,0,2.658-1.539,4.757,0.56s0,3.638,0,3.638S60.815,97.886,58.854,95.852z"/>
	<path d="M24.13,76.55l1.399-4.477c0,0,2.658-1.539,4.757,0.56s0,3.638,0,3.638S26.092,78.584,24.13,76.55z"/>
	<path d="M14.876,109.698l1.399-4.477c0,0,2.658-1.539,4.757,0.56s0,3.638,0,3.638S16.837,111.732,14.876,109.698z"/>
	<path d="M-2.301,63.693l1.399-4.477c0,0,2.658-1.539,4.757,0.56s0,3.638,0,3.638S-0.34,65.727-2.301,63.693z"/>
	<path d="M23.302,42.748l1.399-4.477c0,0,2.658-1.539,4.757,0.56s0,3.638,0,3.638S25.263,44.782,23.302,42.748z"/>
	<path d="M58.727,141.922l1.399-4.477c0,0,2.658-1.539,4.757,0.56c2.099,2.099,0,3.638,0,3.638S60.688,143.956,58.727,141.922z"/>
	<path d="M13.158,141.922l1.399-4.477c0,0,2.658-1.539,4.757,0.56s0,3.638,0,3.638S15.119,143.956,13.158,141.922z"/>
	<path d="M84.33,120.977l1.399-4.477c0,0,2.658-1.539,4.757,0.56s0,3.638,0,3.638S86.291,123.011,84.33,120.977z"/>
	<path d="M49.606,101.675l1.399-4.477c0,0,2.658-1.539,4.757,0.56s0,3.638,0,3.638S51.568,103.709,49.606,101.675z"/>
	<path d="M116.64,155.873l1.399-4.477c0,0,2.658-1.539,4.757,0.56s0,3.638,0,3.638S118.601,157.907,116.64,155.873z"/>
	<path d="M71.071,155.873l1.399-4.477c0,0,2.658-1.539,4.757,0.56s0,3.638,0,3.638S73.032,157.907,71.071,155.873z"/>
	<path d="M43.744,131.999l1.399-4.477c0,0,2.658-1.539,4.757,0.56s0,3.638,0,3.638S45.705,134.033,43.744,131.999z"/>
	<path d="M142.243,134.928l1.399-4.477c0,0,2.658-1.539,4.757,0.56s0,3.638,0,3.638S144.204,136.962,142.243,134.928z"/>
	<path d="M107.519,115.626l1.399-4.477c0,0,2.658-1.539,4.757,0.56s0,3.638,0,3.638S109.481,117.66,107.519,115.626z"/>
	<path d="M167.807,143.395l1.399-4.477c0,0,2.658-1.539,4.757,0.56s0,3.638,0,3.638S169.768,145.429,167.807,143.395z"/>
	<path d="M122.238,143.395l1.399-4.477c0,0,2.658-1.539,4.757,0.56c2.099,2.099,0,3.638,0,3.638S124.199,145.429,122.238,143.395z"
		/>
	<path d="M94.911,119.521l1.399-4.477c0,0,2.658-1.539,4.757,0.56s0,3.638,0,3.638S96.872,121.555,94.911,119.521z"/>
	<path d="M193.41,122.45l1.399-4.477c0,0,2.658-1.539,4.757,0.56s0,3.638,0,3.638S195.371,124.484,193.41,122.45z"/>
	<path d="M158.686,103.148l1.399-4.477c0,0,2.658-1.539,4.757,0.56s0,3.638,0,3.638S160.648,105.182,158.686,103.148z"/>
	<path d="M185.865,95.284l1.399-4.477c0,0,2.658-1.539,4.757,0.56s0,3.638,0,3.638S187.826,97.318,185.865,95.284z"/>
	<path d="M140.296,95.284l1.399-4.477c0,0,2.658-1.539,4.757,0.56s0,3.638,0,3.638S142.257,97.318,140.296,95.284z"/>
	<path d="M112.969,71.411l1.399-4.477c0,0,2.658-1.539,4.757,0.56s0,3.638,0,3.638S114.93,73.445,112.969,71.411z"/>
	<path d="M211.468,74.34l1.399-4.477c0,0,2.658-1.539,4.757,0.56s0,3.638,0,3.638S213.429,76.374,211.468,74.34z"/>
	<path d="M176.744,55.038l1.399-4.477c0,0,2.658-1.539,4.757,0.56s0,3.638,0,3.638S178.706,57.072,176.744,55.038z"/>
	<path d="M205.472,120.592l1.399-4.477c0,0,2.658-1.539,4.757,0.56s0,3.638,0,3.638S207.433,122.626,205.472,120.592z"/>
	<path d="M159.903,120.592l1.399-4.477c0,0,2.658-1.539,4.757,0.56s0,3.638,0,3.638S161.864,122.626,159.903,120.592z"/>
	<path d="M231.075,99.647l1.399-4.477c0,0,2.658-1.539,4.757,0.56s0,3.638,0,3.638S233.036,101.681,231.075,99.647z"/>
	<path d="M196.352,80.345l1.399-4.477c0,0,2.658-1.539,4.757,0.56s0,3.638,0,3.638S198.314,82.379,196.352,80.345z"/>
	<path d="M175.569,38.537l1.399-4.477c0,0,2.658-1.539,4.757,0.56s0,3.638,0,3.638S177.53,40.571,175.569,38.537z"/>
	<path d="M129.999,38.537l1.399-4.477c0,0,2.658-1.539,4.757,0.56s0,3.638,0,3.638S131.96,40.571,129.999,38.537z"/>
	<path d="M102.672,14.663l1.399-4.477c0,0,2.658-1.539,4.757,0.56s0,3.638,0,3.638S104.633,16.697,102.672,14.663z"/>
	<path d="M201.172,17.592l1.399-4.477c0,0,2.658-1.539,4.757,0.56s0,3.638,0,3.638S203.133,19.626,201.172,17.592z"/>
	<path d="M59.951,0.884l1.399-4.477c0,0,2.658-1.539,4.757,0.56s0,3.638,0,3.638S61.912,2.918,59.951,0.884z"/>
	<path d="M14.382,0.884l1.399-4.477c0,0,2.658-1.539,4.757,0.56s0,3.638,0,3.638S16.343,2.918,14.382,0.884z"/>
	<path d="M85.18,23.897l1.399-4.477c0,0,2.658-1.539,4.757,0.56s0,3.638,0,3.638S87.141,25.931,85.18,23.897z"/>
	<path d="M110.783,2.952l1.399-4.477c0,0,2.658-1.539,4.757,0.56s0,3.638,0,3.638S112.744,4.986,110.783,2.952z"/>
	<path d="M182.846,7.127l1.399-4.477c0,0,2.658-1.539,4.757,0.56s0,3.638,0,3.638S184.807,9.161,182.846,7.127z"/>
	<path d="M137.277,7.127l1.399-4.477c0,0,2.658-1.539,4.757,0.56s0,3.638,0,3.638S139.238,9.161,137.277,7.127z"/>
	<path d="M269.037,25.751l1.399-4.477c0,0,2.658-1.539,4.757,0.56s0,3.638,0,3.638S270.998,27.785,269.037,25.751z"/>
	<path d="M241.71,1.877l1.399-4.477c0,0,2.658-1.539,4.757,0.56s0,3.638,0,3.638S243.671,3.911,241.71,1.877z"/>
	<path d="M340.209,4.806l1.399-4.477c0,0,2.658-1.539,4.757,0.56s0,3.638,0,3.638S342.17,6.84,340.209,4.806z"/>
	<path d="M383.404,10.764l1.399-4.477c0,0,2.658-1.539,4.757,0.56s0,3.638,0,3.638S385.365,12.798,383.404,10.764z"/>
	<path d="M337.835,10.764l1.399-4.477c0,0,2.658-1.539,4.757,0.56s0,3.638,0,3.638S339.796,12.798,337.835,10.764z"/>
	<path d="M423.504,67.064l1.399-4.477c0,0,2.658-1.539,4.757,0.56c2.099,2.099,0,3.638,0,3.638S425.465,69.098,423.504,67.064z"/>
	<path d="M377.935,67.064l1.399-4.477c0,0,2.658-1.539,4.757,0.56c2.099,2.099,0,3.638,0,3.638S379.896,69.098,377.935,67.064z"/>
	<path d="M350.608,43.19l1.399-4.477c0,0,2.658-1.539,4.757,0.56s0,3.638,0,3.638S352.569,45.224,350.608,43.19z"/>
	<path d="M449.107,46.119l1.399-4.477c0,0,2.658-1.539,4.757,0.56s0,3.638,0,3.638S451.068,48.153,449.107,46.119z"/>
	<path d="M414.384,26.817l1.399-4.477c0,0,2.658-1.539,4.757,0.56s0,3.638,0,3.638S416.346,28.851,414.384,26.817z"/>
	<path d="M430.888,26.695l1.399-4.477c0,0,2.658-1.539,4.757,0.56s0,3.638,0,3.638S432.849,28.729,430.888,26.695z"/>
	<path d="M357.992,2.821l1.399-4.477c0,0,2.658-1.539,4.757,0.56s0,3.638,0,3.638S359.953,4.855,357.992,2.821z"/>
	<path d="M456.491,5.75l1.399-4.477c0,0,2.658-1.539,4.757,0.56s0,3.638,0,3.638S458.452,7.784,456.491,5.75z"/>
	<path d="M395.696,119.589l1.399-4.477c0,0,2.658-1.539,4.757,0.56s0,3.638,0,3.638S397.657,121.623,395.696,119.589z"/>
	<path d="M350.126,119.589l1.399-4.477c0,0,2.658-1.539,4.757,0.56s0,3.638,0,3.638S352.087,121.623,350.126,119.589z"/>
	<path d="M322.8,95.715l1.399-4.477c0,0,2.658-1.539,4.757,0.56s0,3.638,0,3.638S324.761,97.749,322.8,95.715z"/>
	<path d="M421.299,98.644l1.399-4.477c0,0,2.658-1.539,4.757,0.56s0,3.638,0,3.638S423.26,100.678,421.299,98.644z"/>
	<path d="M386.575,79.342l1.399-4.477c0,0,2.658-1.539,4.757,0.56s0,3.638,0,3.638S388.537,81.376,386.575,79.342z"/>
	<path d="M325.435,163.233l1.399-4.477c0,0,2.658-1.539,4.757,0.56s0,3.638,0,3.638S327.396,165.267,325.435,163.233z"/>
	<path d="M279.865,163.233l1.399-4.477c0,0,2.658-1.539,4.757,0.56s0,3.638,0,3.638S281.826,165.267,279.865,163.233z"/>
	<path d="M252.538,139.359l1.399-4.477c0,0,2.658-1.539,4.757,0.56s0,3.638,0,3.638S254.499,141.393,252.538,139.359z"/>
	<path d="M351.038,142.288l1.399-4.477c0,0,2.658-1.539,4.757,0.56s0,3.638,0,3.638S352.999,144.322,351.038,142.288z"/>
	<path d="M316.314,122.986l1.399-4.477c0,0,2.658-1.539,4.757,0.56s0,3.638,0,3.638S318.276,125.02,316.314,122.986z"/>
	<path d="M234.79,148.745l1.399-4.477c0,0,2.658-1.539,4.757,0.56s0,3.638,0,3.638S236.751,150.779,234.79,148.745z"/>
	<path d="M189.221,148.745l1.399-4.477c0,0,2.658-1.539,4.757,0.56s0,3.638,0,3.638S191.182,150.779,189.221,148.745z"/>
	<path d="M260.393,127.8l1.399-4.477c0,0,2.658-1.539,4.757,0.56s0,3.638,0,3.638S262.354,129.834,260.393,127.8z"/>
	<path d="M225.669,108.499l1.399-4.477c0,0,2.658-1.539,4.757,0.56s0,3.638,0,3.638S227.631,110.533,225.669,108.499z"/>
	<path d="M250.647,108.219l1.399-4.477c0,0,2.658-1.539,4.757,0.56s0,3.638,0,3.638S252.608,110.253,250.647,108.219z"/>
	<path d="M205.078,108.219l1.399-4.477c0,0,2.658-1.539,4.757,0.56s0,3.638,0,3.638S207.039,110.253,205.078,108.219z"/>
	<path d="M177.751,84.346l1.399-4.477c0,0,2.658-1.539,4.757,0.56s0,3.638,0,3.638S179.712,86.38,177.751,84.346z"/>
	<path d="M276.25,87.275l1.399-4.477c0,0,2.658-1.539,4.757,0.56s0,3.638,0,3.638S278.211,89.309,276.25,87.275z"/>
	<path d="M241.526,67.973l1.399-4.477c0,0,2.658-1.539,4.757,0.56s0,3.638,0,3.638S243.488,70.007,241.526,67.973z"/>
	<path d="M568.7,96.455l1.399-4.477c0,0,2.658-1.539,4.757,0.56s0,3.638,0,3.638S570.661,98.489,568.7,96.455z"/>
	<path d="M523.131,96.455l1.399-4.477c0,0,2.658-1.539,4.757,0.56s0,3.638,0,3.638S525.092,98.489,523.131,96.455z"/>
	<path d="M495.804,72.581l1.399-4.477c0,0,2.658-1.539,4.757,0.56s0,3.638,0,3.638S497.765,74.615,495.804,72.581z"/>
	<path d="M594.303,75.51l1.399-4.477c0,0,2.658-1.539,4.757,0.56s0,3.638,0,3.638S596.264,77.544,594.303,75.51z"/>
	<path d="M559.579,56.208l1.399-4.477c0,0,2.658-1.539,4.757,0.56s0,3.638,0,3.638S561.541,58.242,559.579,56.208z"/>
	<path d="M650.382,116.097l1.399-4.477c0,0,2.658-1.539,4.757,0.56s0,3.638,0,3.638S652.343,118.131,650.382,116.097z"/>
	<path d="M604.812,116.097l1.399-4.477c0,0,2.658-1.539,4.757,0.56s0,3.638,0,3.638S606.773,118.131,604.812,116.097z"/>
	<path d="M577.486,92.223l1.399-4.477c0,0,2.658-1.539,4.757,0.56s0,3.638,0,3.638S579.447,94.257,577.486,92.223z"/>
	<path d="M675.985,95.152l1.399-4.477c0,0,2.658-1.539,4.757,0.56s0,3.638,0,3.638S677.946,97.186,675.985,95.152z"/>
	<path d="M641.261,75.85l1.399-4.477c0,0,2.658-1.539,4.757,0.56s0,3.638,0,3.638S643.223,77.884,641.261,75.85z"/>
	<path d="M681.718,118.875l1.399-4.477c0,0,2.658-1.539,4.757,0.56s0,3.638,0,3.638S683.679,120.909,681.718,118.875z"/>
	<path d="M654.391,95.001l1.399-4.477c0,0,2.658-1.539,4.757,0.56s0,3.638,0,3.638S656.352,97.035,654.391,95.001z"/>
	<path d="M752.89,97.93l1.399-4.477c0,0,2.658-1.539,4.757,0.56s0,3.638,0,3.638S754.851,99.964,752.89,97.93z"/>
	<path d="M718.167,78.628l1.399-4.477c0,0,2.658-1.539,4.757,0.56s0,3.638,0,3.638S720.129,80.662,718.167,78.628z"/>
	<path d="M734.82,111.478l1.399-4.477c0,0,2.658-1.539,4.757,0.56s0,3.638,0,3.638S736.781,113.512,734.82,111.478z"/>
	<path d="M707.493,87.604l1.399-4.477c0,0,2.658-1.539,4.757,0.56s0,3.638,0,3.638S709.454,89.638,707.493,87.604z"/>
	<path d="M805.992,90.533l1.399-4.477c0,0,2.658-1.539,4.757,0.56s0,3.638,0,3.638S807.953,92.567,805.992,90.533z"/>
	<path d="M771.268,71.231l1.399-4.477c0,0,2.658-1.539,4.757,0.56s0,3.638,0,3.638S773.23,73.265,771.268,71.231z"/>
	<path d="M780.011,158.141l1.399-4.477c0,0,2.658-1.539,4.757,0.56s0,3.638,0,3.638S781.972,160.175,780.011,158.141z"/>
	<path d="M707.115,134.267l1.399-4.477c0,0,2.658-1.539,4.757,0.56s0,3.638,0,3.638S709.076,136.301,707.115,134.267z"/>
	<path d="M805.614,137.196l1.399-4.477c0,0,2.658-1.539,4.757,0.56s0,3.638,0,3.638S807.575,139.23,805.614,137.196z"/>
	<path d="M770.89,117.894l1.399-4.477c0,0,2.658-1.539,4.757,0.56s0,3.638,0,3.638S772.852,119.928,770.89,117.894z"/>
	<path d="M708.786,245.481l1.399-4.477c0,0,2.658-1.539,4.757,0.56s0,3.638,0,3.638S710.747,247.515,708.786,245.481z"/>
	<path d="M663.217,245.481l1.399-4.477c0,0,2.658-1.539,4.757,0.56s0,3.638,0,3.638S665.178,247.515,663.217,245.481z"/>
	<path d="M635.89,221.607l1.399-4.477c0,0,2.658-1.539,4.757,0.56s0,3.638,0,3.638S637.851,223.641,635.89,221.607z"/>
	<path d="M734.389,224.536l1.399-4.477c0,0,2.658-1.539,4.757,0.56s0,3.638,0,3.638S736.35,226.57,734.389,224.536z"/>
	<path d="M699.665,205.234l1.399-4.477c0,0,2.658-1.539,4.757,0.56s0,3.638,0,3.638S701.627,207.268,699.665,205.234z"/>
	<path d="M798.072,266.416l1.399-4.477c0,0,2.658-1.539,4.757,0.56s0,3.638,0,3.638S800.033,268.45,798.072,266.416z"/>
	<path d="M752.503,266.416l1.399-4.477c0,0,2.658-1.539,4.757,0.56s0,3.638,0,3.638S754.464,268.45,752.503,266.416z"/>
	<path d="M725.176,242.542l1.399-4.477c0,0,2.658-1.539,4.757,0.56s0,3.638,0,3.638S727.137,244.576,725.176,242.542z"/>
	<path d="M823.675,245.471l1.399-4.477c0,0,2.658-1.539,4.757,0.56s0,3.638,0,3.638S825.636,247.505,823.675,245.471z"/>
	<path d="M788.951,226.169l1.399-4.477c0,0,2.658-1.539,4.757,0.56s0,3.638,0,3.638S790.913,228.203,788.951,226.169z"/>
	<path d="M922.793,255.264l1.399-4.477c0,0,2.658-1.539,4.757,0.56s0,3.638,0,3.638S924.754,257.298,922.793,255.264z"/>
	<path d="M877.224,255.264l1.399-4.477c0,0,2.658-1.539,4.757,0.56s0,3.638,0,3.638S879.185,257.298,877.224,255.264z"/>
	<path d="M849.897,231.391l1.399-4.477c0,0,2.658-1.539,4.757,0.56s0,3.638,0,3.638S851.858,233.425,849.897,231.391z"/>
	<path d="M948.396,234.32l1.399-4.477c0,0,2.658-1.539,4.757,0.56s0,3.638,0,3.638S950.357,236.354,948.396,234.32z"/>
	<path d="M913.672,215.018l1.399-4.477c0,0,2.658-1.539,4.757,0.56s0,3.638,0,3.638S915.634,217.052,913.672,215.018z"/>
	<path d="M909.681,157.638l1.399-4.477c0,0,2.658-1.539,4.757,0.56s0,3.638,0,3.638S911.642,159.672,909.681,157.638z"/>
	<path d="M973.456,141.265l1.399-4.477c0,0,2.658-1.539,4.757,0.56s0,3.638,0,3.638S975.418,143.299,973.456,141.265z"/>
	<path d="M808.199,72.461l1.399-4.477c0,0,2.658-1.539,4.757,0.56s0,3.638,0,3.638S810.16,74.495,808.199,72.461z"/>
	<path d="M762.63,72.461l1.399-4.477c0,0,2.658-1.539,4.757,0.56s0,3.638,0,3.638S764.591,74.495,762.63,72.461z"/>
	<path d="M735.303,48.588l1.399-4.477c0,0,2.658-1.539,4.757,0.56s0,3.638,0,3.638S737.264,50.622,735.303,48.588z"/>
	<path d="M833.802,51.517l1.399-4.477c0,0,2.658-1.539,4.757,0.56s0,3.638,0,3.638S835.763,53.551,833.802,51.517z"/>
	<path d="M799.078,32.215l1.399-4.477c0,0,2.658-1.539,4.757,0.56s0,3.638,0,3.638S801.04,34.249,799.078,32.215z"/>
	<path d="M618.315,64.205l1.399-4.477c0,0,2.658-1.539,4.757,0.56s0,3.638,0,3.638S620.276,66.239,618.315,64.205z"/>
	<path d="M572.745,64.205l1.399-4.477c0,0,2.658-1.539,4.757,0.56s0,3.638,0,3.638S574.706,66.239,572.745,64.205z"/>
	<path d="M545.418,40.332l1.399-4.477c0,0,2.658-1.539,4.757,0.56s0,3.638,0,3.638S547.379,42.366,545.418,40.332z"/>
	<path d="M643.917,43.261l1.399-4.477c0,0,2.658-1.539,4.757,0.56s0,3.638,0,3.638S645.878,45.295,643.917,43.261z"/>
	<path d="M609.194,23.959l1.399-4.477c0,0,2.658-1.539,4.757,0.56s0,3.638,0,3.638S611.156,25.993,609.194,23.959z"/>
	<path d="M530.971,103.54l1.399-4.477c0,0,2.658-1.539,4.757,0.56s0,3.638,0,3.638S532.932,105.574,530.971,103.54z"/>
	<path d="M485.402,103.54l1.399-4.477c0,0,2.658-1.539,4.757,0.56s0,3.638,0,3.638S487.363,105.574,485.402,103.54z"/>
	<path d="M458.075,79.666l1.399-4.477c0,0,2.658-1.539,4.757,0.56s0,3.638,0,3.638S460.036,81.7,458.075,79.666z"/>
	<path d="M556.574,82.595l1.399-4.477c0,0,2.658-1.539,4.757,0.56s0,3.638,0,3.638S558.535,84.629,556.574,82.595z"/>
	<path d="M521.85,63.293l1.399-4.477c0,0,2.658-1.539,4.757,0.56s0,3.638,0,3.638S523.812,65.327,521.85,63.293z"/>
	<path d="M466.088,151.699l1.399-4.477c0,0,2.658-1.539,4.757,0.56s0,3.638,0,3.638S468.049,153.733,466.088,151.699z"/>
	<path d="M420.519,151.699l1.399-4.477c0,0,2.658-1.539,4.757,0.56s0,3.638,0,3.638S422.48,153.733,420.519,151.699z"/>
	<path d="M393.192,127.825l1.399-4.477c0,0,2.658-1.539,4.757,0.56s0,3.638,0,3.638S395.153,129.859,393.192,127.825z"/>
	<path d="M491.691,130.754l1.399-4.477c0,0,2.658-1.539,4.757,0.56s0,3.638,0,3.638S493.652,132.788,491.691,130.754z"/>
	<path d="M456.968,111.452l1.399-4.477c0,0,2.658-1.539,4.757,0.56s0,3.638,0,3.638S458.93,113.486,456.968,111.452z"/>
	<path d="M436.668,191.012l1.399-4.477c0,0,2.658-1.539,4.757,0.56s0,3.638,0,3.638S438.629,193.046,436.668,191.012z"/>
	<path d="M391.099,191.012l1.399-4.477c0,0,2.658-1.539,4.757,0.56s0,3.638,0,3.638S393.06,193.046,391.099,191.012z"/>
	<path d="M363.772,167.138l1.399-4.477c0,0,2.658-1.539,4.757,0.56s0,3.638,0,3.638S365.733,169.172,363.772,167.138z"/>
	<path d="M462.271,170.067l1.399-4.477c0,0,2.658-1.539,4.757,0.56s0,3.638,0,3.638S464.232,172.101,462.271,170.067z"/>
	<path d="M427.547,150.765l1.399-4.477c0,0,2.658-1.539,4.757,0.56s0,3.638,0,3.638S429.509,152.799,427.547,150.765z"/>
	<path d="M475.743,229.612l1.399-4.477c0,0,2.658-1.539,4.757,0.56s0,3.638,0,3.638S477.704,231.646,475.743,229.612z"/>
	<path d="M430.174,229.612l1.399-4.477c0,0,2.658-1.539,4.757,0.56s0,3.638,0,3.638S432.135,231.646,430.174,229.612z"/>
	<path d="M402.847,205.738l1.399-4.477c0,0,2.658-1.539,4.757,0.56s0,3.638,0,3.638S404.808,207.772,402.847,205.738z"/>
	<path d="M501.346,208.667l1.399-4.477c0,0,2.658-1.539,4.757,0.56s0,3.638,0,3.638S503.307,210.701,501.346,208.667z"/>
	<path d="M466.622,189.365l1.399-4.477c0,0,2.658-1.539,4.757,0.56s0,3.638,0,3.638S468.584,191.399,466.622,189.365z"/>
	<path d="M644.258,236.391l1.399-4.477c0,0,2.658-1.539,4.757,0.56s0,3.638,0,3.638S646.219,238.425,644.258,236.391z"/>
	<path d="M598.689,236.391l1.399-4.477c0,0,2.658-1.539,4.757,0.56s0,3.638,0,3.638S600.65,238.425,598.689,236.391z"/>
	<path d="M571.362,212.517l1.399-4.477c0,0,2.658-1.539,4.757,0.56s0,3.638,0,3.638S573.323,214.551,571.362,212.517z"/>
	<path d="M669.861,215.446l1.399-4.477c0,0,2.658-1.539,4.757,0.56s0,3.638,0,3.638S671.822,217.48,669.861,215.446z"/>
	<path d="M635.138,196.144l1.399-4.477c0,0,2.658-1.539,4.757,0.56s0,3.638,0,3.638S637.1,198.178,635.138,196.144z"/>
	<path d="M731.261,215.259l1.399-4.477c0,0,2.658-1.539,4.757,0.56s0,3.638,0,3.638S733.222,217.293,731.261,215.259z"/>
	<path d="M685.692,215.259l1.399-4.477c0,0,2.658-1.539,4.757,0.56s0,3.638,0,3.638S687.653,217.293,685.692,215.259z"/>
	<path d="M658.365,191.385l1.399-4.477c0,0,2.658-1.539,4.757,0.56s0,3.638,0,3.638S660.326,193.419,658.365,191.385z"/>
	<path d="M756.864,194.314l1.399-4.477c0,0,2.658-1.539,4.757,0.56s0,3.638,0,3.638S758.825,196.348,756.864,194.314z"/>
	<path d="M722.14,175.012l1.399-4.477c0,0,2.658-1.539,4.757,0.56s0,3.638,0,3.638S724.102,177.046,722.14,175.012z"/>
	<path d="M738.725,156.934l1.399-4.477c0,0,2.658-1.539,4.757,0.56s0,3.638,0,3.638S740.686,158.968,738.725,156.934z"/>
	<path d="M693.156,156.934l1.399-4.477c0,0,2.658-1.539,4.757,0.56s0,3.638,0,3.638S695.117,158.968,693.156,156.934z"/>
	<path d="M665.829,133.06l1.399-4.477c0,0,2.658-1.539,4.757,0.56s0,3.638,0,3.638S667.79,135.094,665.829,133.06z"/>
	<path d="M764.328,135.989l1.399-4.477c0,0,2.658-1.539,4.757,0.56s0,3.638,0,3.638S766.289,138.023,764.328,135.989z"/>
	<path d="M729.604,116.687l1.399-4.477c0,0,2.658-1.539,4.757,0.56s0,3.638,0,3.638S731.566,118.721,729.604,116.687z"/>
	<path d="M702.369,77.331l1.399-4.477c0,0,2.658-1.539,4.757,0.56s0,3.638,0,3.638S704.33,79.365,702.369,77.331z"/>
	<path d="M656.8,77.331l1.399-4.477c0,0,2.658-1.539,4.757,0.56s0,3.638,0,3.638S658.761,79.365,656.8,77.331z"/>
	<path d="M629.473,53.457l1.399-4.477c0,0,2.658-1.539,4.757,0.56s0,3.638,0,3.638S631.434,55.491,629.473,53.457z"/>
	<path d="M727.972,56.386l1.399-4.477c0,0,2.658-1.539,4.757,0.56s0,3.638,0,3.638S729.933,58.42,727.972,56.386z"/>
	<path d="M693.248,37.084l1.399-4.477c0,0,2.658-1.539,4.757,0.56s0,3.638,0,3.638S695.21,39.118,693.248,37.084z"/>
	<path d="M723.976,44.783l1.399-4.477c0,0,2.658-1.539,4.757,0.56s0,3.638,0,3.638S725.937,46.817,723.976,44.783z"/>
	<path d="M678.407,44.783l1.399-4.477c0,0,2.658-1.539,4.757,0.56s0,3.638,0,3.638S680.368,46.817,678.407,44.783z"/>
	<path d="M651.08,20.909l1.399-4.477c0,0,2.658-1.539,4.757,0.56s0,3.638,0,3.638S653.041,22.943,651.08,20.909z"/>
	<path d="M749.579,23.838l1.399-4.477c0,0,2.658-1.539,4.757,0.56s0,3.638,0,3.638S751.54,25.872,749.579,23.838z"/>
	<path d="M714.855,4.536l1.399-4.477c0,0,2.658-1.539,4.757,0.56s0,3.638,0,3.638S716.817,6.57,714.855,4.536z"/>
	<path d="M847.014,22.894l1.399-4.477c0,0,2.658-1.539,4.757,0.56s0,3.638,0,3.638S848.975,24.928,847.014,22.894z"/>
	<path d="M801.445,22.894l1.399-4.477c0,0,2.658-1.539,4.757,0.56s0,3.638,0,3.638S803.406,24.928,801.445,22.894z"/>
	<path d="M872.617,1.949l1.399-4.477c0,0,2.658-1.539,4.757,0.56s0,3.638,0,3.638S874.578,3.983,872.617,1.949z"/>
	<path d="M633.022,158.865l1.399-4.477c0,0,2.658-1.539,4.757,0.56s0,3.638,0,3.638S634.983,160.899,633.022,158.865z"/>
	<path d="M587.453,158.865l1.399-4.477c0,0,2.658-1.539,4.757,0.56s0,3.638,0,3.638S589.414,160.899,587.453,158.865z"/>
	<path d="M560.126,134.991l1.399-4.477c0,0,2.658-1.539,4.757,0.56s0,3.638,0,3.638S562.087,137.025,560.126,134.991z"/>
	<path d="M658.625,137.92l1.399-4.477c0,0,2.658-1.539,4.757,0.56s0,3.638,0,3.638S660.586,139.954,658.625,137.92z"/>
	<path d="M623.901,118.618l1.399-4.477c0,0,2.658-1.539,4.757,0.56s0,3.638,0,3.638S625.863,120.652,623.901,118.618z"/>
	<path d="M549.095,213.889l1.399-4.477c0,0,2.658-1.539,4.757,0.56s0,3.638,0,3.638S551.056,215.923,549.095,213.889z"/>
	<path d="M503.526,213.889l1.399-4.477c0,0,2.658-1.539,4.757,0.56s0,3.638,0,3.638S505.487,215.923,503.526,213.889z"/>
	<path d="M476.199,190.016l1.399-4.477c0,0,2.658-1.539,4.757,0.56s0,3.638,0,3.638S478.16,192.05,476.199,190.016z"/>
	<path d="M574.698,192.945l1.399-4.477c0,0,2.658-1.539,4.757,0.56s0,3.638,0,3.638S576.659,194.979,574.698,192.945z"/>
	<path d="M539.975,173.643l1.399-4.477c0,0,2.658-1.539,4.757,0.56s0,3.638,0,3.638S541.937,175.677,539.975,173.643z"/>
	<path d="M539.912,260.799l1.399-4.477c0,0,2.658-1.539,4.757,0.56c2.099,2.099,0,3.638,0,3.638S541.873,262.833,539.912,260.799z"
		/>
	<path d="M494.343,260.799l1.399-4.477c0,0,2.658-1.539,4.757,0.56c2.099,2.099,0,3.638,0,3.638S496.304,262.833,494.343,260.799z"
		/>
	<path d="M467.016,236.925l1.399-4.477c0,0,2.658-1.539,4.757,0.56s0,3.638,0,3.638S468.977,238.959,467.016,236.925z"/>
	<path d="M565.515,239.854l1.399-4.477c0,0,2.658-1.539,4.757,0.56s0,3.638,0,3.638S567.476,241.888,565.515,239.854z"/>
	<path d="M530.791,220.552l1.399-4.477c0,0,2.658-1.539,4.757,0.56s0,3.638,0,3.638S532.753,222.586,530.791,220.552z"/>
	<path d="M760.777,286.974l1.399-4.477c0,0,2.658-1.539,4.757,0.56s0,3.638,0,3.638S762.738,289.008,760.777,286.974z"/>
	<path d="M715.208,286.974l1.399-4.477c0,0,2.658-1.539,4.757,0.56s0,3.638,0,3.638S717.169,289.008,715.208,286.974z"/>
	<path d="M687.881,263.1l1.399-4.477c0,0,2.658-1.539,4.757,0.56s0,3.638,0,3.638S689.842,265.134,687.881,263.1z"/>
	<path d="M786.38,266.029l1.399-4.477c0,0,2.658-1.539,4.757,0.56s0,3.638,0,3.638S788.341,268.063,786.38,266.029z"/>
	<path d="M751.656,246.727l1.399-4.477c0,0,2.658-1.539,4.757,0.56s0,3.638,0,3.638S753.618,248.761,751.656,246.727z"/>
	<path d="M962.143,221.243l1.399-4.477c0,0,2.658-1.539,4.757,0.56s0,3.638,0,3.638S964.104,223.277,962.143,221.243z"/>
	<path d="M916.573,221.243l1.399-4.477c0,0,2.658-1.539,4.757,0.56s0,3.638,0,3.638S918.534,223.277,916.573,221.243z"/>
	<path d="M889.246,197.369l1.399-4.477c0,0,2.658-1.539,4.757,0.56s0,3.638,0,3.638S891.207,199.403,889.246,197.369z"/>
	<path d="M987.746,200.298l1.399-4.477c0,0,2.658-1.539,4.757,0.56s0,3.638,0,3.638S989.707,202.332,987.746,200.298z"/>
	<path d="M953.022,180.996l1.399-4.477c0,0,2.658-1.539,4.757,0.56s0,3.638,0,3.638S954.984,183.03,953.022,180.996z"/>
	<path d="M982.315,139.725l1.399-4.477c0,0,2.658-1.539,4.757,0.56s0,3.638,0,3.638S984.276,141.759,982.315,139.725z"/>
	<path d="M954.988,115.851l1.399-4.477c0,0,2.658-1.539,4.757,0.56s0,3.638,0,3.638S956.949,117.885,954.988,115.851z"/>
	<path d="M971.475,51.501l1.399-4.477c0,0,2.658-1.539,4.757,0.56s0,3.638,0,3.638S973.436,53.535,971.475,51.501z"/>
	<path d="M988.247,183.723l1.399-4.477c0,0,2.658-1.539,4.757,0.56s0,3.638,0,3.638S990.208,185.757,988.247,183.723z"/>
	<path d="M960.92,159.849l1.399-4.477c0,0,2.658-1.539,4.757,0.56s0,3.638,0,3.638S962.881,161.883,960.92,159.849z"/>
	<path d="M930.288,145.513l1.399-4.477c0,0,2.658-1.539,4.757,0.56s0,3.638,0,3.638S932.249,147.547,930.288,145.513z"/>
	<path d="M884.719,145.513l1.399-4.477c0,0,2.658-1.539,4.757,0.56s0,3.638,0,3.638S886.68,147.547,884.719,145.513z"/>
	<path d="M857.392,121.639l1.399-4.477c0,0,2.658-1.539,4.757,0.56s0,3.638,0,3.638S859.353,123.673,857.392,121.639z"/>
	<path d="M955.891,124.568l1.399-4.477c0,0,2.658-1.539,4.757,0.56s0,3.638,0,3.638S957.852,126.602,955.891,124.568z"/>
	<path d="M921.167,105.266l1.399-4.477c0,0,2.658-1.539,4.757,0.56s0,3.638,0,3.638S923.129,107.3,921.167,105.266z"/>
	<path d="M868.746,134.354l1.399-4.477c0,0,2.658-1.539,4.757,0.56s0,3.638,0,3.638S870.707,136.388,868.746,134.354z"/>
	<path d="M823.177,134.354l1.399-4.477c0,0,2.658-1.539,4.757,0.56s0,3.638,0,3.638S825.138,136.388,823.177,134.354z"/>
	<path d="M795.85,110.48l1.399-4.477c0,0,2.658-1.539,4.757,0.56s0,3.638,0,3.638S797.811,112.514,795.85,110.48z"/>
	<path d="M894.349,113.409l1.399-4.477c0,0,2.658-1.539,4.757,0.56s0,3.638,0,3.638S896.31,115.443,894.349,113.409z"/>
	<path d="M859.625,94.107l1.399-4.477c0,0,2.658-1.539,4.757,0.56s0,3.638,0,3.638S861.587,96.141,859.625,94.107z"/>
	<path d="M909.919,199.325l1.399-4.477c0,0,2.658-1.539,4.757,0.56s0,3.638,0,3.638S911.88,201.359,909.919,199.325z"/>
	<path d="M864.35,199.325l1.399-4.477c0,0,2.658-1.539,4.757,0.56s0,3.638,0,3.638S866.311,201.359,864.35,199.325z"/>
	<path d="M837.023,175.451l1.399-4.477c0,0,2.658-1.539,4.757,0.56s0,3.638,0,3.638S838.984,177.485,837.023,175.451z"/>
	<path d="M935.522,178.38l1.399-4.477c0,0,2.658-1.539,4.757,0.56s0,3.638,0,3.638S937.483,180.414,935.522,178.38z"/>
	<path d="M900.799,159.079l1.399-4.477c0,0,2.658-1.539,4.757,0.56s0,3.638,0,3.638S902.761,161.113,900.799,159.079z"/>
	<path d="M949.478,173.543l1.399-4.477c0,0,2.658-1.539,4.757,0.56s0,3.638,0,3.638S951.439,175.577,949.478,173.543z"/>
	<path d="M903.909,173.543l1.399-4.477c0,0,2.658-1.539,4.757,0.56s0,3.638,0,3.638S905.87,175.577,903.909,173.543z"/>
	<path d="M876.582,149.67l1.399-4.477c0,0,2.658-1.539,4.757,0.56s0,3.638,0,3.638S878.543,151.704,876.582,149.67z"/>
	<path d="M975.081,152.599l1.399-4.477c0,0,2.658-1.539,4.757,0.56s0,3.638,0,3.638S977.042,154.633,975.081,152.599z"/>
	<path d="M940.357,133.297l1.399-4.477c0,0,2.658-1.539,4.757,0.56c2.099,2.099,0,3.638,0,3.638S942.319,135.331,940.357,133.297z"
		/>
	<path d="M931.333,106.405l1.399-4.477c0,0,2.658-1.539,4.757,0.56s0,3.638,0,3.638S933.294,108.439,931.333,106.405z"/>
	<path d="M885.764,106.405l1.399-4.477c0,0,2.658-1.539,4.757,0.56s0,3.638,0,3.638S887.725,108.439,885.764,106.405z"/>
	<path d="M858.437,82.531l1.399-4.477c0,0,2.658-1.539,4.757,0.56s0,3.638,0,3.638S860.398,84.565,858.437,82.531z"/>
	<path d="M956.936,85.46l1.399-4.477c0,0,2.658-1.539,4.757,0.56s0,3.638,0,3.638S958.897,87.494,956.936,85.46z"/>
	<path d="M922.212,66.158l1.399-4.477c0,0,2.658-1.539,4.757,0.56s0,3.638,0,3.638S924.174,68.192,922.212,66.158z"/>
	<path d="M989.607,60.755l1.399-4.477c0,0,2.658-1.539,4.757,0.56s0,3.638,0,3.638S991.568,62.789,989.607,60.755z"/>
	<path d="M944.038,60.755l1.399-4.477c0,0,2.658-1.539,4.757,0.56s0,3.638,0,3.638S945.999,62.789,944.038,60.755z"/>
	<path d="M916.711,36.881l1.399-4.477c0,0,2.658-1.539,4.757,0.56s0,3.638,0,3.638S918.672,38.915,916.711,36.881z"/>
	<path d="M980.486,20.508l1.399-4.477c0,0,2.658-1.539,4.757,0.56s0,3.638,0,3.638S982.448,22.542,980.486,20.508z"/>
	<path d="M968.083,88.924l1.399-4.477c0,0,2.658-1.539,4.757,0.56s0,3.638,0,3.638S970.044,90.958,968.083,88.924z"/>
	<path d="M956.556,17.914l1.399-4.477c0,0,2.658-1.539,4.757,0.56s0,3.638,0,3.638S958.517,19.948,956.556,17.914z"/>
	<path d="M910.987,17.914l1.399-4.477c0,0,2.658-1.539,4.757,0.56s0,3.638,0,3.638S912.948,19.948,910.987,17.914z"/>
	<path d="M455.957,50.918l1.399-4.477c0,0,2.658-1.539,4.757,0.56s0,3.638,0,3.638S457.918,52.952,455.957,50.918z"/>
	<path d="M410.388,50.918l1.399-4.477c0,0,2.658-1.539,4.757,0.56s0,3.638,0,3.638S412.349,52.952,410.388,50.918z"/>
	<path d="M383.061,27.044l1.399-4.477c0,0,2.658-1.539,4.757,0.56s0,3.638,0,3.638S385.022,29.078,383.061,27.044z"/>
	<path d="M446.836,10.672l1.399-4.477c0,0,2.658-1.539,4.757,0.56s0,3.638,0,3.638S448.798,12.706,446.836,10.672z"/>
	<path d="M245.293,32.034l1.399-4.477c0,0,2.658-1.539,4.757,0.56s0,3.638,0,3.638S247.254,34.068,245.293,32.034z"/>
	<path d="M199.724,32.034l1.399-4.477c0,0,2.658-1.539,4.757,0.56s0,3.638,0,3.638S201.685,34.068,199.724,32.034z"/>
	<path d="M172.397,8.16l1.399-4.477c0,0,2.658-1.539,4.757,0.56s0,3.638,0,3.638S174.358,10.194,172.397,8.16z"/>
	<path d="M270.896,11.089l1.399-4.477c0,0,2.658-1.539,4.757,0.56s0,3.638,0,3.638S272.857,13.123,270.896,11.089z"/>
	<path d="M62.398,119.97l1.399-4.477c0,0,2.658-1.539,4.757,0.56s0,3.638,0,3.638S64.359,122.004,62.398,119.97z"/>
	<path d="M35.071,96.096l1.399-4.477c0,0,2.658-1.539,4.757,0.56s0,3.638,0,3.638S37.032,98.13,35.071,96.096z"/>
	<path d="M133.57,99.025l1.399-4.477c0,0,2.658-1.539,4.757,0.56s0,3.638,0,3.638S135.531,101.059,133.57,99.025z"/>
	<path d="M98.846,79.723l1.399-4.477c0,0,2.658-1.539,4.757,0.56s0,3.638,0,3.638S100.808,81.757,98.846,79.723z"/>
	<path d="M26.005,206.813l1.399-4.477c0,0,2.658-1.539,4.757,0.56s0,3.638,0,3.638S27.966,208.847,26.005,206.813z"/>
	<path d="M51.608,185.868l1.399-4.477c0,0,2.658-1.539,4.757,0.56s0,3.638,0,3.638S53.569,187.902,51.608,185.868z"/>
	<path d="M16.884,166.566l1.399-4.477c0,0,2.658-1.539,4.757,0.56s0,3.638,0,3.638S18.846,168.6,16.884,166.566z"/>
	<path d="M262.771,456.914l1.399-4.477c0,0,2.658-1.539,4.757,0.56s0,3.638,0,3.638S264.732,458.948,262.771,456.914z"/>
	<path d="M217.202,456.914l1.399-4.477c0,0,2.658-1.539,4.757,0.56s0,3.638,0,3.638S219.163,458.948,217.202,456.914z"/>
	<path d="M189.875,433.04l1.399-4.477c0,0,2.658-1.539,4.757,0.56s0,3.638,0,3.638S191.836,435.074,189.875,433.04z"/>
	<path d="M288.374,435.969l1.399-4.477c0,0,2.658-1.539,4.757,0.56s0,3.638,0,3.638S290.335,438.003,288.374,435.969z"/>
	<path d="M253.65,416.667l1.399-4.477c0,0,2.658-1.539,4.757,0.56s0,3.638,0,3.638S255.613,418.701,253.65,416.667z"/>
	<path d="M415.328,396.141l1.399-4.477c0,0,2.658-1.539,4.757,0.56s0,3.638,0,3.638S417.289,398.175,415.328,396.141z"/>
	<path d="M369.759,396.141l1.399-4.477c0,0,2.658-1.539,4.757,0.56s0,3.638,0,3.638S371.72,398.175,369.759,396.141z"/>
	<path d="M342.432,372.267l1.399-4.477c0,0,2.658-1.539,4.757,0.56s0,3.638,0,3.638S344.393,374.301,342.432,372.267z"/>
	<path d="M440.931,375.196l1.399-4.477c0,0,2.658-1.539,4.757,0.56s0,3.638,0,3.638S442.892,377.23,440.931,375.196z"/>
	<path d="M406.207,355.894l1.399-4.477c0,0,2.658-1.539,4.757,0.56s0,3.638,0,3.638S408.169,357.928,406.207,355.894z"/>
	<path d="M484.753,362.912l1.399-4.477c0,0,2.658-1.539,4.757,0.56s0,3.638,0,3.638S486.714,364.946,484.753,362.912z"/>
	<path d="M439.184,362.912l1.399-4.477c0,0,2.658-1.539,4.757,0.56s0,3.638,0,3.638S441.145,364.946,439.184,362.912z"/>
	<path d="M411.857,339.038l1.399-4.477c0,0,2.658-1.539,4.757,0.56s0,3.638,0,3.638S413.818,341.072,411.857,339.038z"/>
	<path d="M510.356,341.967l1.399-4.477c0,0,2.658-1.539,4.757,0.56s0,3.638,0,3.638S512.317,344.001,510.356,341.967z"/>
	<path d="M543.092,354.945l1.399-4.477c0,0,2.658-1.539,4.757,0.56s0,3.638,0,3.638S545.053,356.979,543.092,354.945z"/>
	<path d="M497.523,354.945l1.399-4.477c0,0,2.658-1.539,4.757,0.56s0,3.638,0,3.638S499.484,356.979,497.523,354.945z"/>
	<path d="M470.196,331.071l1.399-4.477c0,0,2.658-1.539,4.757,0.56s0,3.638,0,3.638S472.157,333.105,470.196,331.071z"/>
	<path d="M568.695,334l1.399-4.477c0,0,2.658-1.539,4.757,0.56s0,3.638,0,3.638S570.656,336.034,568.695,334z"/>
	<path d="M533.971,314.698l1.399-4.477c0,0,2.658-1.539,4.757,0.56s0,3.638,0,3.638S535.933,316.732,533.971,314.698z"/>
	<path d="M987.116,459.827l1.399-4.477c0,0,2.658-1.539,4.757,0.56s0,3.638,0,3.638S989.077,461.861,987.116,459.827z"/>
	<path d="M966.609,483.983l1.399-4.477c0,0,2.658-1.539,4.757,0.56s0,3.638,0,3.638S968.57,486.017,966.609,483.983z"/>
	<path d="M987.406,432.957l1.399-4.477c0,0,2.658-1.539,4.757,0.56s0,3.638,0,3.638S989.367,434.991,987.406,432.957z"/>
	<path d="M966.9,457.113l1.399-4.477c0,0,2.658-1.539,4.757,0.56s0,3.638,0,3.638S968.861,459.147,966.9,457.113z"/>
	<path d="M931.399,401.951l1.399-4.477c0,0,2.658-1.539,4.757,0.56s0,3.638,0,3.638S933.36,403.985,931.399,401.951z"/>
	<path d="M910.893,426.106l1.399-4.477c0,0,2.658-1.539,4.757,0.56s0,3.638,0,3.638S912.854,428.14,910.893,426.106z"/>
	<path d="M964.956,430.977l1.399-4.477c0,0,2.658-1.539,4.757,0.56s0,3.638,0,3.638S966.917,433.011,964.956,430.977z"/>
	<path d="M815.945,366.901l1.399-4.477c0,0,2.658-1.539,4.757,0.56s0,3.638,0,3.638S817.906,368.935,815.945,366.901z"/>
	<path d="M795.439,391.056l1.399-4.477c0,0,2.658-1.539,4.757,0.56s0,3.638,0,3.638S797.4,393.09,795.439,391.056z"/>
	<path d="M849.502,395.927l1.399-4.477c0,0,2.658-1.539,4.757,0.56s0,3.638,0,3.638S851.463,397.961,849.502,395.927z"/>
	<path d="M698.708,389.483l1.399-4.477c0,0,2.658-1.539,4.757,0.56s0,3.638,0,3.638S700.669,391.517,698.708,389.483z"/>
	<path d="M678.202,413.638l1.399-4.477c0,0,2.658-1.539,4.757,0.56s0,3.638,0,3.638S680.163,415.672,678.202,413.638z"/>
	<path d="M732.265,418.509l1.399-4.477c0,0,2.658-1.539,4.757,0.56s0,3.638,0,3.638S734.226,420.543,732.265,418.509z"/>
	<path d="M590.921,434.141l1.399-4.477c0,0,2.658-1.539,4.757,0.56s0,3.638,0,3.638S592.882,436.175,590.921,434.141z"/>
	<path d="M570.415,458.296l1.399-4.477c0,0,2.658-1.539,4.757,0.56s0,3.638,0,3.638S572.376,460.33,570.415,458.296z"/>
	<path d="M624.478,463.167l1.399-4.477c0,0,2.658-1.539,4.757,0.56s0,3.638,0,3.638S626.439,465.201,624.478,463.167z"/>
	<path d="M550.972,495.168l1.399-4.477c0,0,2.658-1.539,4.757,0.56s0,3.638,0,3.638S552.933,497.202,550.972,495.168z"/>
	<path d="M530.465,519.324l1.399-4.477c0,0,2.658-1.539,4.757,0.56s0,3.638,0,3.638S532.426,521.358,530.465,519.324z"/>
	<path d="M584.529,524.194l1.399-4.477c0,0,2.658-1.539,4.757,0.56s0,3.638,0,3.638S586.49,526.228,584.529,524.194z"/>
	<path d="M741.935,525.382l1.399-4.477c0,0,2.658-1.539,4.757,0.56s0,3.638,0,3.638S743.896,527.416,741.935,525.382z"/>
	<path d="M721.429,549.537l1.399-4.477c0,0,2.658-1.539,4.757,0.56s0,3.638,0,3.638S723.39,551.571,721.429,549.537z"/>
	<path d="M775.492,554.408l1.399-4.477c0,0,2.658-1.539,4.757,0.56s0,3.638,0,3.638S777.453,556.442,775.492,554.408z"/>
	<path d="M954.021,445.64l1.399-4.477c0,0,2.658-1.539,4.757,0.56s0,3.638,0,3.638S955.982,447.674,954.021,445.64z"/>
	<path d="M933.514,469.795l1.399-4.477c0,0,2.658-1.539,4.757,0.56s0,3.638,0,3.638S935.475,471.829,933.514,469.795z"/>
	<path d="M987.578,474.666l1.399-4.477c0,0,2.658-1.539,4.757,0.56s0,3.638,0,3.638S989.539,476.7,987.578,474.666z"/>
	<path d="M978.455,315.202l1.399-4.477c0,0,2.658-1.539,4.757,0.56s0,3.638,0,3.638S980.416,317.236,978.455,315.202z"/>
	<path d="M930.107,253.082l1.399-4.477c0,0,2.658-1.539,4.757,0.56s0,3.638,0,3.638S932.068,255.116,930.107,253.082z"/>
	<path d="M909.601,277.237L911,272.76c0,0,2.658-1.539,4.757,0.56s0,3.638,0,3.638S911.562,279.271,909.601,277.237z"/>
	<path d="M963.664,282.108l1.399-4.477c0,0,2.658-1.539,4.757,0.56s0,3.638,0,3.638S965.625,284.142,963.664,282.108z"/>
	<path d="M799.9,259.857l1.399-4.477c0,0,2.658-1.539,4.757,0.56s0,3.638,0,3.638S801.861,261.891,799.9,259.857z"/>
	<path d="M779.393,284.012l1.399-4.477c0,0,2.658-1.539,4.757,0.56s0,3.638,0,3.638S781.354,286.046,779.393,284.012z"/>
	<path d="M833.457,288.883l1.399-4.477c0,0,2.658-1.539,4.757,0.56s0,3.638,0,3.638S835.418,290.917,833.457,288.883z"/>
	<path d="M693.975,278.697l1.399-4.477c0,0,2.658-1.539,4.757,0.56s0,3.638,0,3.638S695.936,280.731,693.975,278.697z"/>
	<path d="M673.468,302.852l1.399-4.477c0,0,2.658-1.539,4.757,0.56s0,3.638,0,3.638S675.429,304.886,673.468,302.852z"/>
	<path d="M727.532,307.723l1.399-4.477c0,0,2.658-1.539,4.757,0.56s0,3.638,0,3.638S729.493,309.757,727.532,307.723z"/>
	<path d="M697.427,341.575l1.399-4.477c0,0,2.658-1.539,4.757,0.56s0,3.638,0,3.638S699.388,343.609,697.427,341.575z"/>
	<path d="M676.921,365.731l1.399-4.477c0,0,2.658-1.539,4.757,0.56s0,3.638,0,3.638S678.882,367.765,676.921,365.731z"/>
	<path d="M730.984,370.601l1.399-4.477c0,0,2.658-1.539,4.757,0.56s0,3.638,0,3.638S732.945,372.635,730.984,370.601z"/>
	<path d="M785.387,405.739l1.399-4.477c0,0,2.658-1.539,4.757,0.56s0,3.638,0,3.638S787.348,407.773,785.387,405.739z"/>
	<path d="M764.881,429.894l1.399-4.477c0,0,2.658-1.539,4.757,0.56s0,3.638,0,3.638S766.842,431.928,764.881,429.894z"/>
	<path d="M818.945,434.765l1.399-4.477c0,0,2.658-1.539,4.757,0.56s0,3.638,0,3.638S820.906,436.799,818.945,434.765z"/>
	<path d="M873.445,483.345l1.399-4.477c0,0,2.658-1.539,4.757,0.56s0,3.638,0,3.638S875.406,485.379,873.445,483.345z"/>
	<path d="M852.939,507.5l1.399-4.477c0,0,2.658-1.539,4.757,0.56s0,3.638,0,3.638S854.9,509.535,852.939,507.5z"/>
	<path d="M907.003,512.371l1.399-4.477c0,0,2.658-1.539,4.757,0.56s0,3.638,0,3.638S908.964,514.405,907.003,512.371z"/>
	<path d="M826.703,471.706l1.399-4.477c0,0,2.658-1.539,4.757,0.56s0,3.638,0,3.638S828.664,473.74,826.703,471.706z"/>
	<path d="M806.196,495.862l1.399-4.477c0,0,2.658-1.539,4.757,0.56s0,3.638,0,3.638S808.157,497.896,806.196,495.862z"/>
	<path d="M860.26,500.732l1.399-4.477c0,0,2.658-1.539,4.757,0.56s0,3.638,0,3.638S862.221,502.766,860.26,500.732z"/>
	<path d="M831.956,431.638l1.399-4.477c0,0,2.658-1.539,4.757,0.56s0,3.638,0,3.638S833.917,433.672,831.956,431.638z"/>
	<path d="M886.02,436.508l1.399-4.477c0,0,2.658-1.539,4.757,0.56s0,3.638,0,3.638S887.981,438.542,886.02,436.508z"/>
	<path d="M876.826,377.792l1.399-4.477c0,0,2.658-1.539,4.757,0.56s0,3.638,0,3.638S878.787,379.826,876.826,377.792z"/>
	<path d="M856.319,401.947l1.399-4.477c0,0,2.658-1.539,4.757,0.56s0,3.638,0,3.638S858.28,403.981,856.319,401.947z"/>
	<path d="M910.383,406.818l1.399-4.477c0,0,2.658-1.539,4.757,0.56s0,3.638,0,3.638S912.344,408.852,910.383,406.818z"/>
	<path d="M957.086,363.855l1.399-4.477c0,0,2.658-1.539,4.757,0.56s0,3.638,0,3.638S959.047,365.889,957.086,363.855z"/>
	<path d="M936.579,388.011l1.399-4.477c0,0,2.658-1.539,4.757,0.56s0,3.638,0,3.638S938.54,390.045,936.579,388.011z"/>
	<path d="M990.643,392.881l1.399-4.477c0,0,2.658-1.539,4.757,0.56s0,3.638,0,3.638S992.604,394.915,990.643,392.881z"/>
	<path d="M984.138,367.014l1.399-4.477c0,0,2.658-1.539,4.757,0.56s0,3.638,0,3.638S986.099,369.048,984.138,367.014z"/>
	<path d="M963.632,391.169l1.399-4.477c0,0,2.658-1.539,4.757,0.56s0,3.638,0,3.638S965.593,393.203,963.632,391.169z"/>
	<path d="M971.521,395.393l1.399-4.477c0,0,2.658-1.539,4.757,0.56s0,3.638,0,3.638S973.482,397.427,971.521,395.393z"/>
	<path d="M951.015,419.549l1.399-4.477c0,0,2.658-1.539,4.757,0.56s0,3.638,0,3.638S952.976,421.583,951.015,419.549z"/>
	<path d="M820.061,433.083l1.399-4.477c0,0,2.658-1.539,4.757,0.56s0,3.638,0,3.638S822.022,435.117,820.061,433.083z"/>
	<path d="M799.555,457.239l1.399-4.477c0,0,2.658-1.539,4.757,0.56s0,3.638,0,3.638S801.516,459.273,799.555,457.239z"/>
	<path d="M853.618,462.109l1.399-4.477c0,0,2.658-1.539,4.757,0.56s0,3.638,0,3.638S855.579,464.143,853.618,462.109z"/>
	<path d="M739.986,425.764l1.399-4.477c0,0,2.658-1.539,4.757,0.56s0,3.638,0,3.638S741.947,427.798,739.986,425.764z"/>
	<path d="M719.479,449.919l1.399-4.477c0,0,2.658-1.539,4.757,0.56s0,3.638,0,3.638S721.44,451.953,719.479,449.919z"/>
	<path d="M773.543,454.79l1.399-4.477c0,0,2.658-1.539,4.757,0.56s0,3.638,0,3.638S775.504,456.824,773.543,454.79z"/>
	<path d="M650.171,414.353l1.399-4.477c0,0,2.658-1.539,4.757,0.56s0,3.638,0,3.638S652.132,416.387,650.171,414.353z"/>
	<path d="M629.664,438.508l1.399-4.477c0,0,2.658-1.539,4.757,0.56s0,3.638,0,3.638S631.625,440.542,629.664,438.508z"/>
	<path d="M683.728,443.379l1.399-4.477c0,0,2.658-1.539,4.757,0.56s0,3.638,0,3.638S685.689,445.413,683.728,443.379z"/>
	<path d="M519.383,378.844l1.399-4.477c0,0,2.658-1.539,4.757,0.56s0,3.638,0,3.638S521.344,380.878,519.383,378.844z"/>
	<path d="M498.876,403l1.399-4.477c0,0,2.658-1.539,4.757,0.56s0,3.638,0,3.638S500.837,405.034,498.876,403z"/>
	<path d="M438.965,297.404l1.399-4.477c0,0,2.658-1.539,4.757,0.56s0,3.638,0,3.638S440.926,299.438,438.965,297.404z"/>
	<path d="M418.458,321.559l1.399-4.477c0,0,2.658-1.539,4.757,0.56s0,3.638,0,3.638S420.419,323.593,418.458,321.559z"/>
	<path d="M382.843,250.92l1.399-4.477c0,0,2.658-1.539,4.757,0.56s0,3.638,0,3.638S384.804,252.954,382.843,250.92z"/>
	<path d="M362.336,275.075l1.399-4.477c0,0,2.658-1.539,4.757,0.56s0,3.638,0,3.638S364.297,277.109,362.336,275.075z"/>
	<path d="M416.4,279.946l1.399-4.477c0,0,2.658-1.539,4.757,0.56s0,3.638,0,3.638S418.361,281.98,416.4,279.946z"/>
	<path d="M313.36,226.441l1.399-4.477c0,0,2.658-1.539,4.757,0.56s0,3.638,0,3.638S315.321,228.475,313.36,226.441z"/>
	<path d="M292.854,250.596l1.399-4.477c0,0,2.658-1.539,4.757,0.56s0,3.638,0,3.638S294.815,252.63,292.854,250.596z"/>
	<path d="M346.917,255.467l1.399-4.477c0,0,2.658-1.539,4.757,0.56s0,3.638,0,3.638S348.878,257.501,346.917,255.467z"/>
	<path d="M180.781,239.211l1.399-4.477c0,0,2.658-1.539,4.757,0.56s0,3.638,0,3.638S182.742,241.245,180.781,239.211z"/>
	<path d="M214.338,268.237l1.399-4.477c0,0,2.658-1.539,4.757,0.56s0,3.638,0,3.638S216.299,270.271,214.338,268.237z"/>
	<path d="M124.541,260.041l1.399-4.477c0,0,2.658-1.539,4.757,0.56s0,3.638,0,3.638S126.502,262.075,124.541,260.041z"/>
	<path d="M104.034,284.196l1.399-4.477c0,0,2.658-1.539,4.757,0.56s0,3.638,0,3.638S105.995,286.23,104.034,284.196z"/>
	<path d="M158.098,289.067l1.399-4.477c0,0,2.658-1.539,4.757,0.56s0,3.638,0,3.638S160.059,291.101,158.098,289.067z"/>
	<path d="M120.845,328.791l1.399-4.477c0,0,2.658-1.539,4.757,0.56s0,3.638,0,3.638S122.806,330.825,120.845,328.791z"/>
	<path d="M100.338,352.946l1.399-4.477c0,0,2.658-1.539,4.757,0.56s0,3.638,0,3.638S102.299,354.98,100.338,352.946z"/>
	<path d="M154.402,357.817l1.399-4.477c0,0,2.658-1.539,4.757,0.56s0,3.638,0,3.638S156.363,359.851,154.402,357.817z"/>
	<path d="M202.456,389.449l1.399-4.477c0,0,2.658-1.539,4.757,0.56s0,3.638,0,3.638S204.417,391.483,202.456,389.449z"/>
	<path d="M181.95,413.604l1.399-4.477c0,0,2.658-1.539,4.757,0.56s0,3.638,0,3.638S183.911,415.638,181.95,413.604z"/>
	<path d="M236.013,418.475l1.399-4.477c0,0,2.658-1.539,4.757,0.56s0,3.638,0,3.638S237.974,420.509,236.013,418.475z"/>
	<path d="M438.415,465.989l1.399-4.477c0,0,2.658-1.539,4.757,0.56s0,3.638,0,3.638S440.376,468.023,438.415,465.989z"/>
	<path d="M417.908,490.144l1.399-4.477c0,0,2.658-1.539,4.757,0.56s0,3.638,0,3.638S419.869,492.178,417.908,490.144z"/>
	<path d="M471.972,495.015l1.399-4.477c0,0,2.658-1.539,4.757,0.56s0,3.638,0,3.638S473.933,497.049,471.972,495.015z"/>
	<path d="M463.027,459.268l1.399-4.477c0,0,2.658-1.539,4.757,0.56s0,3.638,0,3.638S464.988,461.302,463.027,459.268z"/>
	<path d="M442.52,483.423l1.399-4.477c0,0,2.658-1.539,4.757,0.56s0,3.638,0,3.638S444.481,485.457,442.52,483.423z"/>
	<path d="M496.584,488.294l1.399-4.477c0,0,2.658-1.539,4.757,0.56s0,3.638,0,3.638S498.545,490.328,496.584,488.294z"/>
	<path d="M330.054,404.02l1.399-4.477c0,0,2.658-1.539,4.757,0.56s0,3.638,0,3.638S332.015,406.054,330.054,404.02z"/>
	<path d="M309.548,428.175l1.399-4.477c0,0,2.658-1.539,4.757,0.56s0,3.638,0,3.638S311.509,430.209,309.548,428.175z"/>
	<path d="M363.611,433.046l1.399-4.477c0,0,2.658-1.539,4.757,0.56s0,3.638,0,3.638S365.572,435.08,363.611,433.046z"/>
	<path d="M164.372,328.089l1.399-4.477c0,0,2.658-1.539,4.757,0.56s0,3.638,0,3.638S166.333,330.123,164.372,328.089z"/>
	<path d="M143.865,352.244l1.399-4.477c0,0,2.658-1.539,4.757,0.56s0,3.638,0,3.638S145.826,354.278,143.865,352.244z"/>
	<path d="M197.929,357.115l1.399-4.477c0,0,2.658-1.539,4.757,0.56s0,3.638,0,3.638S199.89,359.149,197.929,357.115z"/>
	<path d="M68.405,311.268l1.399-4.477c0,0,2.658-1.539,4.757,0.56s0,3.638,0,3.638S70.366,313.302,68.405,311.268z"/>
	<path d="M47.898,335.423l1.399-4.477c0,0,2.658-1.539,4.757,0.56s0,3.638,0,3.638S49.859,337.457,47.898,335.423z"/>
	<path d="M101.962,340.294l1.399-4.477c0,0,2.658-1.539,4.757,0.56s0,3.638,0,3.638S103.923,342.328,101.962,340.294z"/>
	<path d="M9.539,388.777l1.399-4.477c0,0,2.658-1.539,4.757,0.56s0,3.638,0,3.638S11.5,390.811,9.539,388.777z"/>
	<path d="M47.683,555.831l1.399-4.477c0,0,2.658-1.539,4.757,0.56s0,3.638,0,3.638S49.644,557.865,47.683,555.831z"/>
	<path d="M27.177,579.987l1.399-4.477c0,0,2.658-1.539,4.757,0.56s0,3.638,0,3.638S29.138,582.021,27.177,579.987z"/>
	<path d="M81.241,584.857l1.399-4.477c0,0,2.658-1.539,4.757,0.56s0,3.638,0,3.638S83.202,586.891,81.241,584.857z"/>
	<path d="M200.71,555.198l1.399-4.477c0,0,2.658-1.539,4.757,0.56s0,3.638,0,3.638S202.671,557.232,200.71,555.198z"/>
	<path d="M180.204,579.353l1.399-4.477c0,0,2.658-1.539,4.757,0.56s0,3.638,0,3.638S182.165,581.387,180.204,579.353z"/>
	<path d="M234.267,584.224l1.399-4.477c0,0,2.658-1.539,4.757,0.56s0,3.638,0,3.638S236.228,586.258,234.267,584.224z"/>
	<path d="M132.475,510.93l1.399-4.477c0,0,2.658-1.539,4.757,0.56s0,3.638,0,3.638S134.436,512.964,132.475,510.93z"/>
	<path d="M111.968,535.085l1.399-4.477c0,0,2.658-1.539,4.757,0.56s0,3.638,0,3.638S113.929,537.119,111.968,535.085z"/>
	<path d="M166.032,539.956l1.399-4.477c0,0,2.658-1.539,4.757,0.56s0,3.638,0,3.638S167.993,541.99,166.032,539.956z"/>
	<path d="M12.535,488.702l1.399-4.477c0,0,2.658-1.539,4.757,0.56s0,3.638,0,3.638S14.496,490.736,12.535,488.702z"/>
	<path d="M41.19,511.003l1.399-4.477c0,0,2.658-1.539,4.757,0.56s0,3.638,0,3.638S43.151,513.037,41.19,511.003z"/>
	<path d="M20.684,535.159l1.399-4.477c0,0,2.658-1.539,4.757,0.56s0,3.638,0,3.638S22.645,537.193,20.684,535.159z"/>
	<path d="M74.747,540.029l1.399-4.477c0,0,2.658-1.539,4.757,0.56s0,3.638,0,3.638S76.708,542.063,74.747,540.029z"/>
	<path d="M99.211,527.18l1.399-4.477c0,0,2.658-1.539,4.757,0.56s0,3.638,0,3.638S101.172,529.214,99.211,527.18z"/>
	<path d="M78.705,551.335l1.399-4.477c0,0,2.658-1.539,4.757,0.56s0,3.638,0,3.638S80.666,553.369,78.705,551.335z"/>
	<path d="M132.769,556.206l1.399-4.477c0,0,2.658-1.539,4.757,0.56s0,3.638,0,3.638S134.73,558.24,132.769,556.206z"/>
	<path d="M99.144,465.88l1.399-4.477c0,0,2.658-1.539,4.757,0.56s0,3.638,0,3.638S101.105,467.914,99.144,465.88z"/>
	<path d="M78.637,490.035l1.399-4.477c0,0,2.658-1.539,4.757,0.56s0,3.638,0,3.638S80.598,492.069,78.637,490.035z"/>
	<path d="M132.701,494.906l1.399-4.477c0,0,2.658-1.539,4.757,0.56s0,3.638,0,3.638S134.662,496.94,132.701,494.906z"/>
	<path d="M209.029,454.767l1.399-4.477c0,0,2.658-1.539,4.757,0.56s0,3.638,0,3.638S210.99,456.801,209.029,454.767z"/>
	<path d="M188.522,478.923l1.399-4.477c0,0,2.658-1.539,4.757,0.56s0,3.638,0,3.638S190.483,480.957,188.522,478.923z"/>
	<path d="M242.586,483.793l1.399-4.477c0,0,2.658-1.539,4.757,0.56s0,3.638,0,3.638S244.547,485.827,242.586,483.793z"/>
	<path d="M303.194,438.807l1.399-4.477c0,0,2.658-1.539,4.757,0.56s0,3.638,0,3.638S305.155,440.841,303.194,438.807z"/>
	<path d="M282.688,462.963l1.399-4.477c0,0,2.658-1.539,4.757,0.56s0,3.638,0,3.638S284.649,464.997,282.688,462.963z"/>
	<path d="M336.752,467.833l1.399-4.477c0,0,2.658-1.539,4.757,0.56s0,3.638,0,3.638S338.713,469.867,336.752,467.833z"/>
	<path d="M381.831,437.726l1.399-4.477c0,0,2.658-1.539,4.757,0.56s0,3.638,0,3.638S383.792,439.76,381.831,437.726z"/>
	<path d="M361.325,461.882l1.399-4.477c0,0,2.658-1.539,4.757,0.56s0,3.638,0,3.638S363.286,463.916,361.325,461.882z"/>
	<path d="M415.388,466.752l1.399-4.477c0,0,2.658-1.539,4.757,0.56s0,3.638,0,3.638S417.349,468.786,415.388,466.752z"/>
	<path d="M389.509,486.897l1.399-4.477c0,0,2.658-1.539,4.757,0.56s0,3.638,0,3.638S391.47,488.931,389.509,486.897z"/>
	<path d="M369.002,511.053l1.399-4.477c0,0,2.658-1.539,4.757,0.56s0,3.638,0,3.638S370.963,513.087,369.002,511.053z"/>
	<path d="M423.066,515.923l1.399-4.477c0,0,2.658-1.539,4.757,0.56c2.099,2.099,0,3.638,0,3.638S425.027,517.957,423.066,515.923z"
		/>
	<path d="M282.041,535.688l1.399-4.477c0,0,2.658-1.539,4.757,0.56s0,3.638,0,3.638S284.002,537.722,282.041,535.688z"/>
	<path d="M261.535,559.844l1.399-4.477c0,0,2.658-1.539,4.757,0.56s0,3.638,0,3.638S263.496,561.878,261.535,559.844z"/>
	<path d="M315.598,564.714l1.399-4.477c0,0,2.658-1.539,4.757,0.56s0,3.638,0,3.638S317.559,566.748,315.598,564.714z"/>
	<path d="M183.99,524.513l1.399-4.477c0,0,2.658-1.539,4.757,0.56s0,3.638,0,3.638S185.951,526.547,183.99,524.513z"/>
	<path d="M163.483,548.669l1.399-4.477c0,0,2.658-1.539,4.757,0.56s0,3.638,0,3.638S165.444,550.703,163.483,548.669z"/>
	<path d="M217.547,553.539l1.399-4.477c0,0,2.658-1.539,4.757,0.56s0,3.638,0,3.638S219.508,555.573,217.547,553.539z"/>
	<path d="M149.887,485.242l1.399-4.477c0,0,2.658-1.539,4.757,0.56s0,3.638,0,3.638S151.848,487.276,149.887,485.242z"/>
	<path d="M183.444,514.268l1.399-4.477c0,0,2.658-1.539,4.757,0.56c2.099,2.099,0,3.638,0,3.638S185.405,516.302,183.444,514.268z"
		/>
	<path d="M241.677,455.171l1.399-4.477c0,0,2.658-1.539,4.757,0.56s0,3.638,0,3.638S243.638,457.206,241.677,455.171z"/>
	<path d="M221.171,479.327l1.399-4.477c0,0,2.658-1.539,4.757,0.56s0,3.638,0,3.638S223.132,481.361,221.171,479.327z"/>
	<path d="M275.235,484.198l1.399-4.477c0,0,2.658-1.539,4.757,0.56s0,3.638,0,3.638S277.196,486.232,275.235,484.198z"/>
	<path d="M345.953,366.831l1.399-4.477c0,0,2.658-1.539,4.757,0.56s0,3.638,0,3.638S347.914,368.865,345.953,366.831z"/>
	<path d="M325.446,390.986l1.399-4.477c0,0,2.658-1.539,4.757,0.56s0,3.638,0,3.638S327.407,393.02,325.446,390.986z"/>
	<path d="M379.51,395.857l1.399-4.477c0,0,2.658-1.539,4.757,0.56s0,3.638,0,3.638S381.471,397.891,379.51,395.857z"/>
	<path d="M343.531,329.414l1.399-4.477c0,0,2.658-1.539,4.757,0.56s0,3.638,0,3.638S345.492,331.448,343.531,329.414z"/>
	<path d="M323.025,353.57l1.399-4.477c0,0,2.658-1.539,4.757,0.56s0,3.638,0,3.638S324.986,355.604,323.025,353.57z"/>
	<path d="M377.088,358.44l1.399-4.477c0,0,2.658-1.539,4.757,0.56s0,3.638,0,3.638S379.049,360.474,377.088,358.44z"/>
	<path d="M277.487,300.622l1.399-4.477c0,0,2.658-1.539,4.757,0.56s0,3.638,0,3.638S279.448,302.656,277.487,300.622z"/>
	<path d="M256.981,324.778l1.399-4.477c0,0,2.658-1.539,4.757,0.56s0,3.638,0,3.638S258.942,326.812,256.981,324.778z"/>
	<path d="M311.044,329.648l1.399-4.477c0,0,2.658-1.539,4.757,0.56s0,3.638,0,3.638S313.005,331.682,311.044,329.648z"/>
	<path d="M135.347,359.516l1.399-4.477c0,0,2.658-1.539,4.757,0.56s0,3.638,0,3.638S137.308,361.55,135.347,359.516z"/>
	<path d="M114.841,383.672l1.399-4.477c0,0,2.658-1.539,4.757,0.56s0,3.638,0,3.638S116.802,385.706,114.841,383.672z"/>
	<path d="M168.904,388.542l1.399-4.477c0,0,2.658-1.539,4.757,0.56s0,3.638,0,3.638S170.865,390.576,168.904,388.542z"/>
	<path d="M39.377,377.431l1.399-4.477c0,0,2.658-1.539,4.757,0.56s0,3.638,0,3.638S41.338,379.465,39.377,377.431z"/>
	<path d="M18.87,401.587l1.399-4.477c0,0,2.658-1.539,4.757,0.56s0,3.638,0,3.638S20.831,403.621,18.87,401.587z"/>
	<path d="M72.934,406.457l1.399-4.477c0,0,2.658-1.539,4.757,0.56s0,3.638,0,3.638S74.895,408.491,72.934,406.457z"/>
	<path d="M22.109,408.798l1.399-4.477c0,0,2.658-1.539,4.757,0.56s0,3.638,0,3.638S24.07,410.832,22.109,408.798z"/>
	<path d="M1.602,432.954l1.399-4.477c0,0,2.658-1.539,4.757,0.56s0,3.638,0,3.638S3.563,434.988,1.602,432.954z"/>
	<path d="M55.666,437.824l1.399-4.477c0,0,2.658-1.539,4.757,0.56s0,3.638,0,3.638S57.627,439.858,55.666,437.824z"/>
	<path d="M112.609,167.179l1.399-4.477c0,0,2.658-1.539,4.757,0.56s0,3.638,0,3.638S114.57,169.213,112.609,167.179z"/>
	<path d="M92.102,191.335l1.399-4.477c0,0,2.658-1.539,4.757,0.56s0,3.638,0,3.638S94.063,193.369,92.102,191.335z"/>
	<path d="M146.166,196.205l1.399-4.477c0,0,2.658-1.539,4.757,0.56s0,3.638,0,3.638S148.127,198.239,146.166,196.205z"/>
	<path d="M286.625,194.275l1.399-4.477c0,0,2.658-1.539,4.757,0.56s0,3.638,0,3.638S288.586,196.31,286.625,194.275z"/>
	<path d="M266.118,218.431l1.399-4.477c0,0,2.658-1.539,4.757,0.56s0,3.638,0,3.638S268.079,220.465,266.118,218.431z"/>
	<path d="M320.182,223.301l1.399-4.477c0,0,2.658-1.539,4.757,0.56s0,3.638,0,3.638S322.143,225.336,320.182,223.301z"/>
	<path d="M253.722,220.43l1.399-4.477c0,0,2.658-1.539,4.757,0.56s0,3.638,0,3.638S255.683,222.464,253.722,220.43z"/>
	<path d="M233.215,244.585l1.399-4.477c0,0,2.658-1.539,4.757,0.56s0,3.638,0,3.638S235.176,246.619,233.215,244.585z"/>
	<path d="M101.755,275.973l1.399-4.477c0,0,2.658-1.539,4.757,0.56s0,3.638,0,3.638S103.716,278.007,101.755,275.973z"/>
	<path d="M81.248,300.128l1.399-4.477c0,0,2.658-1.539,4.757,0.56s0,3.638,0,3.638S83.209,302.162,81.248,300.128z"/>
	<path d="M135.312,304.999l1.399-4.477c0,0,2.658-1.539,4.757,0.56s0,3.638,0,3.638S137.273,307.033,135.312,304.999z"/>
	<path d="M41.137,318.451l1.399-4.477c0,0,2.658-1.539,4.757,0.56s0,3.638,0,3.638S43.098,320.485,41.137,318.451z"/>
	<path d="M20.631,342.606l1.399-4.477c0,0,2.658-1.539,4.757,0.56s0,3.638,0,3.638S22.592,344.64,20.631,342.606z"/>
	<path d="M74.695,347.477L76.094,343c0,0,2.658-1.539,4.757,0.56s0,3.638,0,3.638S76.656,349.511,74.695,347.477z"/>
	<path d="M96.147,368.227l1.399-4.477c0,0,2.658-1.539,4.757,0.56s0,3.638,0,3.638S98.108,370.261,96.147,368.227z"/>
	<path d="M75.64,392.382l1.399-4.477c0,0,2.658-1.539,4.757,0.56s0,3.638,0,3.638S77.601,394.416,75.64,392.382z"/>
	<path d="M129.704,397.253l1.399-4.477c0,0,2.658-1.539,4.757,0.56s0,3.638,0,3.638S131.665,399.287,129.704,397.253z"/>
	<path d="M156.363,296.758l1.399-4.477c0,0,2.658-1.539,4.757,0.56s0,3.638,0,3.638S158.324,298.792,156.363,296.758z"/>
	<path d="M135.857,320.913l1.399-4.477c0,0,2.658-1.539,4.757,0.56s0,3.638,0,3.638S137.818,322.947,135.857,320.913z"/>
	<path d="M189.92,325.784l1.399-4.477c0,0,2.658-1.539,4.757,0.56s0,3.638,0,3.638S191.881,327.818,189.92,325.784z"/>
	<path d="M82.162,236.697l1.399-4.477c0,0,2.658-1.539,4.757,0.56s0,3.638,0,3.638S84.123,238.731,82.162,236.697z"/>
	<path d="M61.558,262.197l1.399-4.477c0,0,2.658-1.539,4.757,0.56s0,3.638,0,3.638S63.519,264.231,61.558,262.197z"/>
	<path d="M115.719,265.723l1.399-4.477c0,0,2.658-1.539,4.757,0.56s0,3.638,0,3.638S117.68,267.757,115.719,265.723z"/>
	<path d="M24.456,227.033l1.399-4.477c0,0,2.658-1.539,4.757,0.56s0,3.638,0,3.638S26.417,229.067,24.456,227.033z"/>
	<path d="M3.95,251.188l1.399-4.477c0,0,2.658-1.539,4.757,0.56s0,3.638,0,3.638S5.911,253.222,3.95,251.188z"/>
	<path d="M58.013,256.059l1.399-4.477c0,0,2.658-1.539,4.757,0.56s0,3.638,0,3.638S59.974,258.093,58.013,256.059z"/>
	<path d="M10.463,259.268l1.399-4.477c0,0,2.658-1.539,4.757,0.56s0,3.638,0,3.638S12.424,261.302,10.463,259.268z"/>
	<path d="M156.341,265.574l1.399-4.477c0,0,2.658-1.539,4.757,0.56s0,3.638,0,3.638S158.302,267.608,156.341,265.574z"/>
	<path d="M135.835,289.729l1.399-4.477c0,0,2.658-1.539,4.757,0.56s0,3.638,0,3.638S137.796,291.763,135.835,289.729z"/>
	<path d="M189.898,294.6l1.399-4.477c0,0,2.658-1.539,4.757,0.56s0,3.638,0,3.638S191.859,296.634,189.898,294.6z"/>
	<path d="M299.726,255.249l1.399-4.477c0,0,2.658-1.539,4.757,0.56s0,3.638,0,3.638S301.687,257.283,299.726,255.249z"/>
	<path d="M279.22,279.404l1.399-4.477c0,0,2.658-1.539,4.757,0.56s0,3.638,0,3.638S281.181,281.438,279.22,279.404z"/>
	<path d="M333.284,284.275l1.399-4.477c0,0,2.658-1.539,4.757,0.56s0,3.638,0,3.638S335.245,286.309,333.284,284.275z"/>
	<path d="M277.275,249.743l1.399-4.477c0,0,2.658-1.539,4.757,0.56s0,3.638,0,3.638S279.236,251.777,277.275,249.743z"/>
	<path d="M256.768,273.899l1.399-4.477c0,0,2.658-1.539,4.757,0.56s0,3.638,0,3.638S258.729,275.933,256.768,273.899z"/>
	<path d="M310.832,278.769l1.399-4.477c0,0,2.658-1.539,4.757,0.56s0,3.638,0,3.638S312.793,280.803,310.832,278.769z"/>
	<path d="M195.96,309.322l1.399-4.477c0,0,2.658-1.539,4.757,0.56s0,3.638,0,3.638S197.921,311.356,195.96,309.322z"/>
	<path d="M175.453,333.478l1.399-4.477c0,0,2.658-1.539,4.757,0.56s0,3.638,0,3.638S177.414,335.512,175.453,333.478z"/>
	<path d="M229.517,338.348l1.399-4.477c0,0,2.658-1.539,4.757,0.56s0,3.638,0,3.638S231.478,340.382,229.517,338.348z"/>
	<path d="M231.42,344.287l1.399-4.477c0,0,2.658-1.539,4.757,0.56s0,3.638,0,3.638S233.381,346.321,231.42,344.287z"/>
	<path d="M210.913,368.442l1.399-4.477c0,0,2.658-1.539,4.757,0.56s0,3.638,0,3.638S212.874,370.476,210.913,368.442z"/>
	<path d="M264.977,373.313l1.399-4.477c0,0,2.658-1.539,4.757,0.56s0,3.638,0,3.638S266.938,375.347,264.977,373.313z"/>
	<path d="M308.205,360.264l1.399-4.477c0,0,2.658-1.539,4.757,0.56s0,3.638,0,3.638S310.166,362.298,308.205,360.264z"/>
	<path d="M287.699,384.42l1.399-4.477c0,0,2.658-1.539,4.757,0.56s0,3.638,0,3.638S289.66,386.454,287.699,384.42z"/>
	<path d="M341.763,389.29l1.399-4.477c0,0,2.658-1.539,4.757,0.56s0,3.638,0,3.638S343.724,391.324,341.763,389.29z"/>
	<path d="M263.664,390.255l1.399-4.477c0,0,2.658-1.539,4.757,0.56s0,3.638,0,3.638S265.625,392.289,263.664,390.255z"/>
	<path d="M243.158,414.411l1.399-4.477c0,0,2.658-1.539,4.757,0.56s0,3.638,0,3.638S245.119,416.445,243.158,414.411z"/>
	<path d="M297.221,419.281l1.399-4.477c0,0,2.658-1.539,4.757,0.56s0,3.638,0,3.638S299.182,421.315,297.221,419.281z"/>
	<path d="M162.01,427.507l1.399-4.477c0,0,2.658-1.539,4.757,0.56s0,3.638,0,3.638S163.971,429.541,162.01,427.507z"/>
	<path d="M141.504,451.663l1.399-4.477c0,0,2.658-1.539,4.757,0.56s0,3.638,0,3.638S143.465,453.697,141.504,451.663z"/>
	<path d="M195.567,456.533l1.399-4.477c0,0,2.658-1.539,4.757,0.56s0,3.638,0,3.638S197.528,458.567,195.567,456.533z"/>
	<path d="M434.104,429.663l1.399-4.477c0,0,2.658-1.539,4.757,0.56s0,3.638,0,3.638S436.065,431.697,434.104,429.663z"/>
	<path d="M413.597,453.818l1.399-4.477c0,0,2.658-1.539,4.757,0.56s0,3.638,0,3.638S415.558,455.852,413.597,453.818z"/>
	<path d="M608.838,468.503l1.399-4.477c0,0,2.658-1.539,4.757,0.56s0,3.638,0,3.638S610.799,470.537,608.838,468.503z"/>
	<path d="M662.901,473.374l1.399-4.477c0,0,2.658-1.539,4.757,0.56s0,3.638,0,3.638S664.862,475.408,662.901,473.374z"/>
	<path d="M545.408,470.707l1.399-4.477c0,0,2.658-1.539,4.757,0.56s0,3.638,0,3.638S547.369,472.741,545.408,470.707z"/>
	<path d="M524.902,494.863l1.399-4.477c0,0,2.658-1.539,4.757,0.56s0,3.638,0,3.638S526.863,496.897,524.902,494.863z"/>
	<path d="M578.965,499.733l1.399-4.477c0,0,2.658-1.539,4.757,0.56s0,3.638,0,3.638S580.926,501.767,578.965,499.733z"/>
	<path d="M409.117,570.298l1.399-4.477c0,0,2.658-1.539,4.757,0.56s0,3.638,0,3.638S411.078,572.332,409.117,570.298z"/>
	<path d="M388.61,594.453l1.399-4.477c0,0,2.658-1.539,4.757,0.56s0,3.638,0,3.638S390.571,596.487,388.61,594.453z"/>
	<path d="M442.674,599.324l1.399-4.477c0,0,2.658-1.539,4.757,0.56s0,3.638,0,3.638S444.635,601.358,442.674,599.324z"/>
	<path d="M651.057,514.494l1.399-4.477c0,0,2.658-1.539,4.757,0.56s0,3.638,0,3.638S653.018,516.528,651.057,514.494z"/>
	<path d="M630.551,538.65l1.399-4.477c0,0,2.658-1.539,4.757,0.56s0,3.638,0,3.638S632.512,540.684,630.551,538.65z"/>
	<path d="M684.614,543.52l1.399-4.477c0,0,2.658-1.539,4.757,0.56s0,3.638,0,3.638S686.575,545.554,684.614,543.52z"/>
	<path d="M886.743,429.127l1.399-4.477c0,0,2.658-1.539,4.757,0.56s0,3.638,0,3.638S888.704,431.161,886.743,429.127z"/>
	<path d="M866.237,453.283l1.399-4.477c0,0,2.658-1.539,4.757,0.56s0,3.638,0,3.638S868.198,455.317,866.237,453.283z"/>
	<path d="M920.301,458.153l1.399-4.477c0,0,2.658-1.539,4.757,0.56s0,3.638,0,3.638S922.262,460.187,920.301,458.153z"/>
	<path d="M613.875,417.168l1.399-4.477c0,0,2.658-1.539,4.757,0.56s0,3.638,0,3.638S615.836,419.202,613.875,417.168z"/>
	<path d="M593.368,441.324l1.399-4.477c0,0,2.658-1.539,4.757,0.56s0,3.638,0,3.638S595.329,443.358,593.368,441.324z"/>
	<path d="M647.432,446.194l1.399-4.477c0,0,2.658-1.539,4.757,0.56s0,3.638,0,3.638S649.393,448.228,647.432,446.194z"/>
	<path d="M328.054,476.918l1.399-4.477c0,0,2.658-1.539,4.757,0.56s0,3.638,0,3.638S330.015,478.952,328.054,476.918z"/>
	<path d="M307.548,501.074l1.399-4.477c0,0,2.658-1.539,4.757,0.56s0,3.638,0,3.638S309.509,503.108,307.548,501.074z"/>
	<path d="M361.612,505.944l1.399-4.477c0,0,2.658-1.539,4.757,0.56s0,3.638,0,3.638S363.573,507.978,361.612,505.944z"/>
	<path d="M435.089,546.243l1.399-4.477c0,0,2.658-1.539,4.757,0.56s0,3.638,0,3.638S437.05,548.277,435.089,546.243z"/>
	<path d="M468.646,575.269l1.399-4.477c0,0,2.658-1.539,4.757,0.56s0,3.638,0,3.638S470.607,577.303,468.646,575.269z"/>
	<path d="M843.635,367.255l1.399-4.477c0,0,2.658-1.539,4.757,0.56s0,3.638,0,3.638S845.596,369.289,843.635,367.255z"/>
	<path d="M823.128,391.41l1.399-4.477c0,0,2.658-1.539,4.757,0.56s0,3.638,0,3.638S825.089,393.444,823.128,391.41z"/>
	<path d="M877.192,396.281l1.399-4.477c0,0,2.658-1.539,4.757,0.56s0,3.638,0,3.638S879.153,398.315,877.192,396.281z"/>
	<path d="M872.016,323.573l1.399-4.477c0,0,2.658-1.539,4.757,0.56s0,3.638,0,3.638S873.977,325.607,872.016,323.573z"/>
	<path d="M851.51,347.728l1.399-4.477c0,0,2.658-1.539,4.757,0.56s0,3.638,0,3.638S853.471,349.762,851.51,347.728z"/>
	<path d="M905.573,352.599l1.399-4.477c0,0,2.658-1.539,4.757,0.56s0,3.638,0,3.638S907.534,354.633,905.573,352.599z"/>
	<path d="M900.897,300.931l1.399-4.477c0,0,2.658-1.539,4.757,0.56s0,3.638,0,3.638S902.858,302.965,900.897,300.931z"/>
	<path d="M880.39,325.087l1.399-4.477c0,0,2.658-1.539,4.757,0.56s0,3.638,0,3.638S882.351,327.121,880.39,325.087z"/>
	<path d="M934.454,329.957l1.399-4.477c0,0,2.658-1.539,4.757,0.56s0,3.638,0,3.638S936.415,331.991,934.454,329.957z"/>
	<path d="M745.593,338.987l1.399-4.477c0,0,2.658-1.539,4.757,0.56s0,3.638,0,3.638S747.554,341.021,745.593,338.987z"/>
	<path d="M725.086,363.142l1.399-4.477c0,0,2.658-1.539,4.757,0.56s0,3.638,0,3.638S727.047,365.176,725.086,363.142z"/>
	<path d="M779.15,368.013l1.399-4.477c0,0,2.658-1.539,4.757,0.56s0,3.638,0,3.638S781.111,370.047,779.15,368.013z"/>
	<path d="M563.125,302.099l1.399-4.477c0,0,2.658-1.539,4.757,0.56s0,3.638,0,3.638S565.086,304.133,563.125,302.099z"/>
	<path d="M542.618,326.255l1.399-4.477c0,0,2.658-1.539,4.757,0.56s0,3.638,0,3.638S544.579,328.289,542.618,326.255z"/>
	<path d="M596.682,331.125l1.399-4.477c0,0,2.658-1.539,4.757,0.56s0,3.638,0,3.638S598.643,333.159,596.682,331.125z"/>
	<path d="M382.415,281.401l1.399-4.477c0,0,2.658-1.539,4.757,0.56s0,3.638,0,3.638S384.376,283.435,382.415,281.401z"/>
	<path d="M361.909,305.556l1.399-4.477c0,0,2.658-1.539,4.757,0.56s0,3.638,0,3.638S363.87,307.59,361.909,305.556z"/>
	<path d="M415.972,310.427l1.399-4.477c0,0,2.658-1.539,4.757,0.56s0,3.638,0,3.638S417.933,312.461,415.972,310.427z"/>
	<path d="M494.202,298.764l1.399-4.477c0,0,2.658-1.539,4.757,0.56s0,3.638,0,3.638S496.163,300.798,494.202,298.764z"/>
	<path d="M527.76,327.79l1.399-4.477c0,0,2.658-1.539,4.757,0.56s0,3.638,0,3.638S529.721,329.824,527.76,327.79z"/>
	<path d="M661.599,316.538l1.399-4.477c0,0,2.658-1.539,4.757,0.56s0,3.638,0,3.638S663.56,318.572,661.599,316.538z"/>
	<path d="M641.093,340.693l1.399-4.477c0,0,2.658-1.539,4.757,0.56s0,3.638,0,3.638S643.054,342.727,641.093,340.693z"/>
	<path d="M635.31,328.827l1.399-4.477c0,0,2.658-1.539,4.757,0.56s0,3.638,0,3.638S637.271,330.861,635.31,328.827z"/>
	<path d="M668.867,357.853l1.399-4.477c0,0,2.658-1.539,4.757,0.56s0,3.638,0,3.638S670.828,359.887,668.867,357.853z"/>
	<path d="M594.116,367.345l1.399-4.477c0,0,2.658-1.539,4.757,0.56s0,3.638,0,3.638S596.077,369.379,594.116,367.345z"/>
	<path d="M573.61,391.5l1.399-4.477c0,0,2.658-1.539,4.757,0.56s0,3.638,0,3.638S575.571,393.534,573.61,391.5z"/>
	<path d="M627.673,396.371l1.399-4.477c0,0,2.658-1.539,4.757,0.56s0,3.638,0,3.638S629.634,398.405,627.673,396.371z"/>
	<path d="M631.658,373.512l1.399-4.477c0,0,2.658-1.539,4.757,0.56s0,3.638,0,3.638S633.619,375.546,631.658,373.512z"/>
	<path d="M611.152,397.667l1.399-4.477c0,0,2.658-1.539,4.757,0.56s0,3.638,0,3.638S613.113,399.701,611.152,397.667z"/>
	<path d="M665.215,402.538l1.399-4.477c0,0,2.658-1.539,4.757,0.56s0,3.638,0,3.638S667.176,404.572,665.215,402.538z"/>
	<path d="M975.99,576.999l1.399-4.477c0,0,2.658-1.539,4.757,0.56s0,3.638,0,3.638S977.951,579.033,975.99,576.999z"/>
	<path d="M983.738,609.621l1.399-4.477c0,0,2.658-1.539,4.757,0.56s0,3.638,0,3.638S985.699,611.655,983.738,609.621z"/>
	<path d="M804.099,668.885l1.399-4.477c0,0,2.658-1.539,4.757,0.56s0,3.638,0,3.638S806.06,670.919,804.099,668.885z"/>
	<path d="M712.134,665.427l1.399-4.477c0,0,2.658-1.539,4.757,0.56s0,3.638,0,3.638S714.095,667.461,712.134,665.427z"/>
	<path d="M662.062,651.607l1.399-4.477c0,0,2.658-1.539,4.757,0.56s0,3.638,0,3.638S664.023,653.641,662.062,651.607z"/>
	<path d="M760.161,633.567l1.399-4.477c0,0,2.658-1.539,4.757,0.56s0,3.638,0,3.638S762.122,635.601,760.161,633.567z"/>
	<path d="M910.86,610.374l1.399-4.477c0,0,2.658-1.539,4.757,0.56s0,3.638,0,3.638S912.821,612.408,910.86,610.374z"/>
	<path d="M930.612,590.192l1.399-4.477c0,0,2.658-1.539,4.757,0.56s0,3.638,0,3.638S932.573,592.226,930.612,590.192z"/>
	<path d="M851.697,581.253l1.399-4.477c0,0,2.658-1.539,4.757,0.56s0,3.638,0,3.638S853.658,583.287,851.697,581.253z"/>
	<path d="M680.538,631.465l1.399-4.477c0,0,2.658-1.539,4.757,0.56s0,3.638,0,3.638S682.499,633.499,680.538,631.465z"/>
	<path d="M692.608,681.822l1.399-4.477c0,0,2.658-1.539,4.757,0.56s0,3.638,0,3.638S694.569,683.856,692.608,681.822z"/>
	<path d="M853.92,696.82l1.399-4.477c0,0,2.658-1.539,4.757,0.56s0,3.638,0,3.638S855.881,698.854,853.92,696.82z"/>
	<path d="M896.882,626.662l1.399-4.477c0,0,2.658-1.539,4.757,0.56s0,3.638,0,3.638S898.843,628.696,896.882,626.662z"/>
	<path d="M880.782,567.776l1.399-4.477c0,0,2.658-1.539,4.757,0.56s0,3.638,0,3.638S882.743,569.81,880.782,567.776z"/>
	<path d="M727.51,541.449l1.399-4.477c0,0,2.658-1.539,4.757,0.56s0,3.638,0,3.638S729.471,543.483,727.51,541.449z"/>
	<path d="M585.878,598.684l1.399-4.477c0,0,2.658-1.539,4.757,0.56s0,3.638,0,3.638S587.839,600.718,585.878,598.684z"/>
	<path d="M589.44,648.718l1.399-4.477c0,0,2.658-1.539,4.757,0.56s0,3.638,0,3.638S591.401,650.752,589.44,648.718z"/>
	<path d="M721.594,699.435l1.399-4.477c0,0,2.658-1.539,4.757,0.56s0,3.638,0,3.638S723.555,701.469,721.594,699.435z"/>
	<path d="M794.103,662.653l1.399-4.477c0,0,2.658-1.539,4.757,0.56s0,3.638,0,3.638S796.064,664.687,794.103,662.653z"/>
	<path d="M744.02,622.504l1.399-4.477c0,0,2.658-1.539,4.757,0.56s0,3.638,0,3.638S745.981,624.538,744.02,622.504z"/>
	<path d="M555.345,660.086l1.399-4.477c0,0,2.658-1.539,4.757,0.56s0,3.638,0,3.638S557.306,662.12,555.345,660.086z"/>
	<path d="M526.827,707.271l1.399-4.477c0,0,2.658-1.539,4.757,0.56s0,3.638,0,3.638S528.788,709.305,526.827,707.271z"/>
	<path d="M715.759,709.025l1.399-4.477c0,0,2.658-1.539,4.757,0.56s0,3.638,0,3.638S717.72,711.059,715.759,709.025z"/>
	<path d="M797.339,643.313l1.399-4.477c0,0,2.658-1.539,4.757,0.56s0,3.638,0,3.638S799.3,645.347,797.339,643.313z"/>
	<path d="M812.481,592.371l1.399-4.477c0,0,2.658-1.539,4.757,0.56s0,3.638,0,3.638S814.442,594.405,812.481,592.371z"/>
	<path d="M764.842,577.491l1.399-4.477c0,0,2.658-1.539,4.757,0.56s0,3.638,0,3.638S766.803,579.525,764.842,577.491z"/>
	<path d="M527.609,602.067l1.399-4.477c0,0,2.658-1.539,4.757,0.56s0,3.638,0,3.638S529.57,604.101,527.609,602.067z"/>
	<path d="M368.044,634.79l1.399-4.477c0,0,2.658-1.539,4.757,0.56s0,3.638,0,3.638S370.005,636.824,368.044,634.79z"/>
	<path d="M312.266,648.618l1.399-4.477c0,0,2.658-1.539,4.757,0.56s0,3.638,0,3.638S314.227,650.652,312.266,648.618z"/>
	<path d="M359.578,624.779l1.399-4.477c0,0,2.658-1.539,4.757,0.56s0,3.638,0,3.638S361.539,626.813,359.578,624.779z"/>
	<path d="M468.009,566.832l1.399-4.477c0,0,2.658-1.539,4.757,0.56s0,3.638,0,3.638S469.97,568.866,468.009,566.832z"/>
	<path d="M473.161,536.134l1.399-4.477c0,0,2.658-1.539,4.757,0.56s0,3.638,0,3.638S475.122,538.168,473.161,536.134z"/>
	<path d="M447.071,522.55l1.399-4.477c0,0,2.658-1.539,4.757,0.56s0,3.638,0,3.638S449.032,524.584,447.071,522.55z"/>
	<path d="M311.825,572.25l1.399-4.477c0,0,2.658-1.539,4.757,0.56s0,3.638,0,3.638S313.786,574.284,311.825,572.25z"/>
	<path d="M343.544,619.163l1.399-4.477c0,0,2.658-1.539,4.757,0.56s0,3.638,0,3.638S345.505,621.197,343.544,619.163z"/>
	<path d="M573.379,591.553l1.399-4.477c0,0,2.658-1.539,4.757,0.56s0,3.638,0,3.638S575.34,593.587,573.379,591.553z"/>
	<path d="M583.453,571.798l1.399-4.477c0,0,2.658-1.539,4.757,0.56s0,3.638,0,3.638S585.414,573.832,583.453,571.798z"/>
	<path d="M293,597.599l1.399-4.477c0,0,2.658-1.539,4.757,0.56s0,3.638,0,3.638S294.961,599.633,293,597.599z"/>
	<path d="M165.819,641.082l1.399-4.477c0,0,2.658-1.539,4.757,0.56s0,3.638,0,3.638S167.78,643.116,165.819,641.082z"/>
	<path d="M219.89,674.629l1.399-4.477c0,0,2.658-1.539,4.757,0.56s0,3.638,0,3.638S221.851,676.663,219.89,674.629z"/>
	<path d="M286.884,633.187l1.399-4.477c0,0,2.658-1.539,4.757,0.56s0,3.638,0,3.638S288.845,635.221,286.884,633.187z"/>
	<path d="M182.63,573.202l1.399-4.477c0,0,2.658-1.539,4.757,0.56s0,3.638,0,3.638S184.591,575.236,182.63,573.202z"/>
	<path d="M30.203,565.128l1.399-4.477c0,0,2.658-1.539,4.757,0.56s0,3.638,0,3.638S32.164,567.162,30.203,565.128z"/>
	<path d="M68.33,622l1.399-4.477c0,0,2.658-1.539,4.757,0.56s0,3.638,0,3.638S70.291,624.034,68.33,622z"/>
	<path d="M157.527,645.721l1.399-4.477c0,0,2.658-1.539,4.757,0.56s0,3.638,0,3.638S159.488,647.755,157.527,645.721z"/>
	<path d="M131.026,592.028l1.399-4.477c0,0,2.658-1.539,4.757,0.56s0,3.638,0,3.638S132.987,594.062,131.026,592.028z"/>
	<path d="M44.358,734.357l1.399-4.477c0,0,2.658-1.539,4.757,0.56s0,3.638,0,3.638S46.319,736.391,44.358,734.357z"/>
	<path d="M100.324,704.584l1.399-4.477c0,0,2.658-1.539,4.757,0.56s0,3.638,0,3.638S102.285,706.618,100.324,704.584z"/>
	<path d="M2.55,683.252l1.399-4.477c0,0,2.658-1.539,4.757,0.56s0,3.638,0,3.638S4.511,685.286,2.55,683.252z"/>
	<path d="M148.076,784.909l1.399-4.477c0,0,2.658-1.539,4.757,0.56s0,3.638,0,3.638S150.037,786.943,148.076,784.909z"/>
	<path d="M95.911,776.731l1.399-4.477c0,0,2.658-1.539,4.757,0.56s0,3.638,0,3.638S97.872,778.765,95.911,776.731z"/>
	<path d="M565.372,781.232l1.399-4.477c0,0,2.658-1.539,4.757,0.56s0,3.638,0,3.638S567.333,783.266,565.372,781.232z"/>
	<path d="M539.15,731.08l1.399-4.477c0,0,2.658-1.539,4.757,0.56s0,3.638,0,3.638S541.111,733.114,539.15,731.08z"/>
	<path d="M323.93,791.242l1.399-4.477c0,0,2.658-1.539,4.757,0.56s0,3.638,0,3.638S325.891,793.276,323.93,791.242z"/>
	<path d="M450.443,767.296l1.399-4.477c0,0,2.658-1.539,4.757,0.56s0,3.638,0,3.638S452.404,769.33,450.443,767.296z"/>
	<path d="M302.769,752.896l1.399-4.477c0,0,2.658-1.539,4.757,0.56s0,3.638,0,3.638S304.73,754.93,302.769,752.896z"/>
	<path d="M613.197,779.406l1.399-4.477c0,0,2.658-1.539,4.757,0.56s0,3.638,0,3.638S615.158,781.44,613.197,779.406z"/>
	<path d="M592.184,792.038l1.399-4.477c0,0,2.658-1.539,4.757,0.56s0,3.638,0,3.638S594.145,794.072,592.184,792.038z"/>
	<path d="M868.667,776.587l1.399-4.477c0,0,2.658-1.539,4.757,0.56s0,3.638,0,3.638S870.628,778.621,868.667,776.587z"/>
	<path d="M977.567,761.304l1.399-4.477c0,0,2.658-1.539,4.757,0.56s0,3.638,0,3.638S979.528,763.338,977.567,761.304z"/>
	<path d="M811.401,692.738l1.399-4.477c0,0,2.658-1.539,4.757,0.56s0,3.638,0,3.638S813.362,694.772,811.401,692.738z"/>
	<path d="M823.972,646.529l1.399-4.477c0,0,2.658-1.539,4.757,0.56s0,3.638,0,3.638S825.933,648.563,823.972,646.529z"/>
	<path d="M793.154,498.553l1.399-4.477c0,0,2.658-1.539,4.757,0.56s0,3.638,0,3.638S795.115,500.587,793.154,498.553z"/>
	<path d="M779.395,545.643l1.399-4.477c0,0,2.658-1.539,4.757,0.56s0,3.638,0,3.638S781.356,547.677,779.395,545.643z"/>
	<path d="M903.676,416.645l1.399-4.477c0,0,2.658-1.539,4.757,0.56s0,3.638,0,3.638S905.637,418.679,903.676,416.645z"/>
	<path d="M709.715,559.663l1.399-4.477c0,0,2.658-1.539,4.757,0.56s0,3.638,0,3.638S711.676,561.697,709.715,559.663z"/>
	<path d="M935.132,491.864l1.399-4.477c0,0,2.658-1.539,4.757,0.56s0,3.638,0,3.638S937.093,493.898,935.132,491.864z"/>
	<path d="M867.18,367.487l1.399-4.477c0,0,2.658-1.539,4.757,0.56s0,3.638,0,3.638S869.141,369.521,867.18,367.487z"/>
	<path d="M780.36,469.239l1.399-4.477c0,0,2.658-1.539,4.757,0.56s0,3.638,0,3.638S782.321,471.273,780.36,469.239z"/>
	<path d="M954.255,340.697l1.399-4.477c0,0,2.658-1.539,4.757,0.56s0,3.638,0,3.638S956.216,342.731,954.255,340.697z"/>
	<path d="M838.704,330.039l1.399-4.477c0,0,2.658-1.539,4.757,0.56s0,3.638,0,3.638S840.665,332.073,838.704,330.039z"/>
	<path d="M893.68,294.534l1.399-4.477c0,0,2.658-1.539,4.757,0.56s0,3.638,0,3.638S895.641,296.568,893.68,294.534z"/>
	<path d="M689.085,477.066l1.399-4.477c0,0,2.658-1.539,4.757,0.56s0,3.638,0,3.638S691.046,479.1,689.085,477.066z"/>
	<path d="M796.368,361.36l1.399-4.477c0,0,2.658-1.539,4.757,0.56s0,3.638,0,3.638S798.329,363.394,796.368,361.36z"/>
	<path d="M628.256,510.291l1.399-4.477c0,0,2.658-1.539,4.757,0.56s0,3.638,0,3.638S630.217,512.325,628.256,510.291z"/>
	<path d="M875.959,309.463l1.399-4.477c0,0,2.658-1.539,4.757,0.56s0,3.638,0,3.638S877.92,311.497,875.959,309.463z"/>
	<path d="M711.004,427.938l1.399-4.477c0,0,2.658-1.539,4.757,0.56s0,3.638,0,3.638S712.965,429.972,711.004,427.938z"/>
	<path d="M726.828,326.514l1.399-4.477c0,0,2.658-1.539,4.757,0.56s0,3.638,0,3.638S728.789,328.548,726.828,326.514z"/>
	<path d="M576.544,367.084l1.399-4.477c0,0,2.658-1.539,4.757,0.56s0,3.638,0,3.638S578.505,369.118,576.544,367.084z"/>
	<path d="M669.716,279.866l1.399-4.477c0,0,2.658-1.539,4.757,0.56s0,3.638,0,3.638S671.677,281.9,669.716,279.866z"/>
	<path d="M497.936,356.35l1.399-4.477c0,0,2.658-1.539,4.757,0.56s0,3.638,0,3.638S499.897,358.384,497.936,356.35z"/>
	<path d="M588.315,295.226l1.399-4.477c0,0,2.658-1.539,4.757,0.56s0,3.638,0,3.638S590.276,297.26,588.315,295.226z"/>
	<path d="M652.818,233.816l1.399-4.477c0,0,2.658-1.539,4.757,0.56s0,3.638,0,3.638S654.779,235.85,652.818,233.816z"/>
	<path d="M613.503,350.292l1.399-4.477c0,0,2.658-1.539,4.757,0.56s0,3.638,0,3.638S615.464,352.326,613.503,350.292z"/>
	<path d="M606.863,315.043l1.399-4.477c0,0,2.658-1.539,4.757,0.56s0,3.638,0,3.638S608.824,317.077,606.863,315.043z"/>
	<path d="M259.434,533.393l1.399-4.477c0,0,2.658-1.539,4.757,0.56s0,3.638,0,3.638S261.395,535.427,259.434,533.393z"/>
	<path d="M449.416,279.365l1.399-4.477c0,0,2.658-1.539,4.757,0.56s0,3.638,0,3.638S451.377,281.399,449.416,279.365z"/>
	<path d="M266.907,476.748l1.399-4.477c0,0,2.658-1.539,4.757,0.56s0,3.638,0,3.638S268.868,478.782,266.907,476.748z"/>
	<path d="M369.682,290.025l1.399-4.477c0,0,2.658-1.539,4.757,0.56s0,3.638,0,3.638S371.643,292.059,369.682,290.025z"/>
	<path d="M244.651,392.293l1.399-4.477c0,0,2.658-1.539,4.757,0.56s0,3.638,0,3.638S246.612,394.327,244.651,392.293z"/>
	<path d="M370.005,267.314l1.399-4.477c0,0,2.658-1.539,4.757,0.56s0,3.638,0,3.638S371.966,269.348,370.005,267.314z"/>
	<path d="M292.873,339.526l1.399-4.477c0,0,2.658-1.539,4.757,0.56s0,3.638,0,3.638S294.834,341.56,292.873,339.526z"/>
	<path d="M399.123,199.142l1.399-4.477c0,0,2.658-1.539,4.757,0.56s0,3.638,0,3.638S401.084,201.176,399.123,199.142z"/>
	<path d="M137.601,320.567L139,316.09c0,0,2.658-1.539,4.757,0.56s0,3.638,0,3.638S139.562,322.601,137.601,320.567z"/>
	<path d="M217.314,295.94l1.399-4.477c0,0,2.658-1.539,4.757,0.56s0,3.638,0,3.638S219.275,297.974,217.314,295.94z"/>
	<path d="M71.439,367.454l1.399-4.477c0,0,2.658-1.539,4.757,0.56s0,3.638,0,3.638S73.4,369.488,71.439,367.454z"/>
	<path d="M17.617,382.285l1.399-4.477c0,0,2.658-1.539,4.757,0.56s0,3.638,0,3.638S19.578,384.319,17.617,382.285z"/>
	<path d="M328.709,189.52l1.399-4.477c0,0,2.658-1.539,4.757,0.56s0,3.638,0,3.638S330.67,191.554,328.709,189.52z"/>
	<path d="M130.248,204.36l1.399-4.477c0,0,2.658-1.539,4.757,0.56s0,3.638,0,3.638S132.209,206.394,130.248,204.36z"/>
	<path d="M72.83,211.477L74.229,207c0,0,2.658-1.539,4.757,0.56s0,3.638,0,3.638S74.791,213.511,72.83,211.477z"/>
	<path d="M185.704,156.713l1.399-4.477c0,0,2.658-1.539,4.757,0.56s0,3.638,0,3.638S187.665,158.747,185.704,156.713z"/>
	<path d="M49.157,197.55l1.399-4.477c0,0,2.658-1.539,4.757,0.56s0,3.638,0,3.638S51.118,199.584,49.157,197.55z"/>
	<path d="M139.808,165.418l1.399-4.477c0,0,2.658-1.539,4.757,0.56s0,3.638,0,3.638S141.769,167.452,139.808,165.418z"/>
	<path d="M226.087,219.54l1.399-4.477c0,0,2.658-1.539,4.757,0.56s0,3.638,0,3.638S228.048,221.574,226.087,219.54z"/>
	<path d="M255.542,161.86l1.399-4.477c0,0,2.658-1.539,4.757,0.56s0,3.638,0,3.638S257.503,163.894,255.542,161.86z"/>
	<path d="M24.915,369.08l1.399-4.477c0,0,2.658-1.539,4.757,0.56s0,3.638,0,3.638S26.876,371.114,24.915,369.08z"/>
	<path d="M283.571,227.547l1.399-4.477c0,0,2.658-1.539,4.757,0.56s0,3.638,0,3.638S285.532,229.581,283.571,227.547z"/>
	<path d="M488.717,249.504l1.399-4.477c0,0,2.658-1.539,4.757,0.56s0,3.638,0,3.638S490.678,251.538,488.717,249.504z"/>
	<path d="M171.499,413.337l1.399-4.477c0,0,2.658-1.539,4.757,0.56s0,3.638,0,3.638S173.46,415.371,171.499,413.337z"/>
	<path d="M83.631,467.41l1.399-4.477c0,0,2.658-1.539,4.757,0.56s0,3.638,0,3.638S85.592,469.444,83.631,467.41z"/>
	<path d="M428.041,378.362l1.399-4.477c0,0,2.658-1.539,4.757,0.56s0,3.638,0,3.638S430.002,380.396,428.041,378.362z"/>
	<path d="M291.644,505.083l1.399-4.477c0,0,2.658-1.539,4.757,0.56s0,3.638,0,3.638S293.605,507.117,291.644,505.083z"/>
	<path d="M566.749,418.782l1.399-4.477c0,0,2.658-1.539,4.757,0.56s0,3.638,0,3.638S568.71,420.816,566.749,418.782z"/>
	<path d="M353.32,545.258l1.399-4.477c0,0,2.658-1.539,4.757,0.56s0,3.638,0,3.638S355.281,547.292,353.32,545.258z"/>
	<path d="M738.415,460.281l1.399-4.477c0,0,2.658-1.539,4.757,0.56s0,3.638,0,3.638S740.376,462.315,738.415,460.281z"/>
	<path d="M553.051,579.344l1.399-4.477c0,0,2.658-1.539,4.757,0.56s0,3.638,0,3.638S555.012,581.378,553.051,579.344z"/>
	<path d="M789.146,463.595l1.399-4.477c0,0,2.658-1.539,4.757,0.56s0,3.638,0,3.638S791.107,465.629,789.146,463.595z"/>
	<path d="M372.769,530.972l1.399-4.477c0,0,2.658-1.539,4.757,0.56s0,3.638,0,3.638S374.73,533.006,372.769,530.972z"/>
	<path d="M741.177,408.033l1.399-4.477c0,0,2.658-1.539,4.757,0.56s0,3.638,0,3.638S743.138,410.067,741.177,408.033z"/>
	<path d="M371.958,518.093l1.399-4.477c0,0,2.658-1.539,4.757,0.56s0,3.638,0,3.638S373.919,520.127,371.958,518.093z"/>
	<path d="M841.239,405.075l1.399-4.477c0,0,2.658-1.539,4.757,0.56s0,3.638,0,3.638S843.2,407.109,841.239,405.075z"/>
	<path d="M570.678,577.949l1.399-4.477c0,0,2.658-1.539,4.757,0.56s0,3.638,0,3.638S572.639,579.983,570.678,577.949z"/>
	<path d="M910.903,579.865l1.399-4.477c0,0,2.658-1.539,4.757,0.56s0,3.638,0,3.638S912.864,581.899,910.903,579.865z"/>
	<path d="M858.861,358.041l1.399-4.477c0,0,2.658-1.539,4.757,0.56s0,3.638,0,3.638S860.822,360.075,858.861,358.041z"/>
	<path d="M554.807,403.587l1.399-4.477c0,0,2.658-1.539,4.757,0.56s0,3.638,0,3.638S556.768,405.621,554.807,403.587z"/>
	<path d="M540.571,619.967l1.399-4.477c0,0,2.658-1.539,4.757,0.56s0,3.638,0,3.638S542.532,622.001,540.571,619.967z"/>
	<path d="M666.137,302.675l1.399-4.477c0,0,2.658-1.539,4.757,0.56s0,3.638,0,3.638S668.098,304.709,666.137,302.675z"/>
	<path d="M545.572,293.509l1.399-4.477c0,0,2.658-1.539,4.757,0.56s0,3.638,0,3.638S547.533,295.543,545.572,293.509z"/>
	<path d="M768.384,4.051l1.399-4.477c0,0,2.658-1.539,4.757,0.56s0,3.638,0,3.638S770.345,6.085,768.384,4.051z"/>
	<path d="M236.721,116.733l1.399-4.477c0,0,2.658-1.539,4.757,0.56s0,3.638,0,3.638S238.682,118.767,236.721,116.733z"/>
	<path d="M216.214,140.889l1.399-4.477c0,0,2.658-1.539,4.757,0.56s0,3.638,0,3.638S218.175,142.923,216.214,140.889z"/>
	<path d="M270.278,145.759l1.399-4.477c0,0,2.658-1.539,4.757,0.56s0,3.638,0,3.638S272.239,147.793,270.278,145.759z"/>
	<path d="M547.554,14.929l1.399-4.477c0,0,2.658-1.539,4.757,0.56s0,3.638,0,3.638S549.515,16.963,547.554,14.929z"/>
	<path d="M601.618,19.799l1.399-4.477c0,0,2.658-1.539,4.757,0.56s0,3.638,0,3.638S603.579,21.833,601.618,19.799z"/>
	<path d="M344.792,114.381l1.399-4.477c0,0,2.658-1.539,4.757,0.56s0,3.638,0,3.638S346.753,116.415,344.792,114.381z"/>
	<path d="M325.797,139.226l1.399-4.477c0,0,2.658-1.539,4.757,0.56s0,3.638,0,3.638S327.758,141.26,325.797,139.226z"/>
	<path d="M379.861,144.097l1.399-4.477c0,0,2.658-1.539,4.757,0.56s0,3.638,0,3.638S381.822,146.131,379.861,144.097z"/>
	<path d="M441.466,57.482l1.399-4.477c0,0,2.658-1.539,4.757,0.56s0,3.638,0,3.638S443.427,59.516,441.466,57.482z"/>
	<path d="M420.959,81.637l1.399-4.477c0,0,2.658-1.539,4.757,0.56s0,3.638,0,3.638S422.92,83.671,420.959,81.637z"/>
	<path d="M475.023,86.508l1.399-4.477c0,0,2.658-1.539,4.757,0.56s0,3.638,0,3.638S476.984,88.542,475.023,86.508z"/>
	<path d="M502.777,8.397l1.399-4.477c0,0,2.658-1.539,4.757,0.56s0,3.638,0,3.638S504.738,10.431,502.777,8.397z"/>
	<path d="M482.271,32.553l1.399-4.477c0,0,2.658-1.539,4.757,0.56s0,3.638,0,3.638S484.232,34.587,482.271,32.553z"/>
	<path d="M536.334,37.423l1.399-4.477c0,0,2.658-1.539,4.757,0.56s0,3.638,0,3.638S538.295,39.457,536.334,37.423z"/>
	<path d="M219.893,154.013l1.399-4.477c0,0,2.658-1.539,4.757,0.56s0,3.638,0,3.638S221.854,156.047,219.893,154.013z"/>
	<path d="M199.387,178.168l1.399-4.477c0,0,2.658-1.539,4.757,0.56s0,3.638,0,3.638S201.348,180.202,199.387,178.168z"/>
	<path d="M253.451,183.039l1.399-4.477c0,0,2.658-1.539,4.757,0.56s0,3.638,0,3.638S255.412,185.073,253.451,183.039z"/>
	<path d="M331.15,66.607l1.399-4.477c0,0,2.658-1.539,4.757,0.56s0,3.638,0,3.638S333.111,68.641,331.15,66.607z"/>
	<path d="M310.644,90.763l1.399-4.477c0,0,2.658-1.539,4.757,0.56s0,3.638,0,3.638S312.605,92.797,310.644,90.763z"/>
	<path d="M364.708,95.633l1.399-4.477c0,0,2.658-1.539,4.757,0.56s0,3.638,0,3.638S366.669,97.668,364.708,95.633z"/>
	<path d="M902.913,29.037l1.399-4.477c0,0,2.658-1.539,4.757,0.56s0,3.638,0,3.638S904.874,31.071,902.913,29.037z"/>
	<path d="M209.101,225.301l1.399-4.477c0,0,2.658-1.539,4.757,0.56s0,3.638,0,3.638S211.062,227.335,209.101,225.301z"/>
	<path d="M188.594,249.456l1.399-4.477c0,0,2.658-1.539,4.757,0.56s0,3.638,0,3.638S190.555,251.49,188.594,249.456z"/>
	<path d="M242.658,254.327l1.399-4.477c0,0,2.658-1.539,4.757,0.56s0,3.638,0,3.638S244.619,256.361,242.658,254.327z"/>
	<path d="M910.494,32.876l1.399-4.477c0,0,2.658-1.539,4.757,0.56s0,3.638,0,3.638S912.455,34.91,910.494,32.876z"/>
	<path d="M889.988,57.031l1.399-4.477c0,0,2.658-1.539,4.757,0.56s0,3.638,0,3.638S891.949,59.065,889.988,57.031z"/>
	<path d="M944.051,61.902l1.399-4.477c0,0,2.658-1.539,4.757,0.56s0,3.638,0,3.638S946.012,63.936,944.051,61.902z"/>
	<path d="M577.52,145.802l1.399-4.477c0,0,2.658-1.539,4.757,0.56s0,3.638,0,3.638S579.481,147.836,577.52,145.802z"/>
	<path d="M557.013,169.957l1.399-4.477c0,0,2.658-1.539,4.757,0.56s0,3.638,0,3.638S558.974,171.991,557.013,169.957z"/>
	<path d="M611.077,174.828l1.399-4.477c0,0,2.658-1.539,4.757,0.56s0,3.638,0,3.638S613.038,176.862,611.077,174.828z"/>
	<path d="M491.817,158.67l1.399-4.477c0,0,2.658-1.539,4.757,0.56s0,3.638,0,3.638S493.778,160.704,491.817,158.67z"/>
	<path d="M471.311,182.825l1.399-4.477c0,0,2.658-1.539,4.757,0.56s0,3.638,0,3.638S473.272,184.859,471.311,182.825z"/>
	<path d="M525.374,187.696l1.399-4.477c0,0,2.658-1.539,4.757,0.56s0,3.638,0,3.638S527.335,189.73,525.374,187.696z"/>
	<path d="M780.726,108.668l1.399-4.477c0,0,2.658-1.539,4.757,0.56s0,3.638,0,3.638S782.687,110.702,780.726,108.668z"/>
	<path d="M814.283,137.694l1.399-4.477c0,0,2.658-1.539,4.757,0.56s0,3.638,0,3.638S816.244,139.728,814.283,137.694z"/>
	<path d="M471.051,213.543l1.399-4.477c0,0,2.658-1.539,4.757,0.56s0,3.638,0,3.638S473.012,215.577,471.051,213.543z"/>
	<path d="M450.545,237.699l1.399-4.477c0,0,2.658-1.539,4.757,0.56s0,3.638,0,3.638S452.506,239.733,450.545,237.699z"/>
	<path d="M504.608,242.569l1.399-4.477c0,0,2.658-1.539,4.757,0.56s0,3.638,0,3.638S506.569,244.603,504.608,242.569z"/>
	<path d="M808.597,155.655l1.399-4.477c0,0,2.658-1.539,4.757,0.56s0,3.638,0,3.638S810.558,157.689,808.597,155.655z"/>
	<path d="M862.661,160.526l1.399-4.477c0,0,2.658-1.539,4.757,0.56s0,3.638,0,3.638S864.622,162.56,862.661,160.526z"/>
	<path d="M545.612,254.357l1.399-4.477c0,0,2.658-1.539,4.757,0.56s0,3.638,0,3.638S547.573,256.391,545.612,254.357z"/>
	<path d="M525.106,278.513l1.399-4.477c0,0,2.658-1.539,4.757,0.56s0,3.638,0,3.638S527.067,280.547,525.106,278.513z"/>
	<path d="M579.17,283.383l1.399-4.477c0,0,2.658-1.539,4.757,0.56s0,3.638,0,3.638S581.131,285.417,579.17,283.383z"/>
	<path d="M836.484,173.998l1.399-4.477c0,0,2.658-1.539,4.757,0.56s0,3.638,0,3.638S838.445,176.032,836.484,173.998z"/>
	<path d="M815.978,198.153l1.399-4.477c0,0,2.658-1.539,4.757,0.56s0,3.638,0,3.638S817.939,200.187,815.978,198.153z"/>
	<path d="M870.042,203.024l1.399-4.477c0,0,2.658-1.539,4.757,0.56s0,3.638,0,3.638S872.003,205.058,870.042,203.024z"/>
	<path d="M809.57,213.268l1.399-4.477c0,0,2.658-1.539,4.757,0.56s0,3.638,0,3.638S811.531,215.302,809.57,213.268z"/>
	<path d="M789.064,237.424l1.399-4.477c0,0,2.658-1.539,4.757,0.56s0,3.638,0,3.638S791.025,239.458,789.064,237.424z"/>
	<path d="M843.128,242.294l1.399-4.477c0,0,2.658-1.539,4.757,0.56s0,3.638,0,3.638S845.089,244.328,843.128,242.294z"/>
	<path d="M587.773,258.788l1.399-4.477c0,0,2.658-1.539,4.757,0.56s0,3.638,0,3.638S589.734,260.823,587.773,258.788z"/>
	<path d="M567.266,282.944l1.399-4.477c0,0,2.658-1.539,4.757,0.56s0,3.638,0,3.638S569.227,284.978,567.266,282.944z"/>
	<path d="M621.33,287.815l1.399-4.477c0,0,2.658-1.539,4.757,0.56s0,3.638,0,3.638S623.291,289.849,621.33,287.815z"/>
	<path d="M796.867,176.803l1.399-4.477c0,0,2.658-1.539,4.757,0.56s0,3.638,0,3.638S798.828,178.837,796.867,176.803z"/>
	<path d="M776.361,200.959l1.399-4.477c0,0,2.658-1.539,4.757,0.56s0,3.638,0,3.638S778.322,202.993,776.361,200.959z"/>
	<path d="M830.424,205.829l1.399-4.477c0,0,2.658-1.539,4.757,0.56s0,3.638,0,3.638S832.385,207.863,830.424,205.829z"/>
	<path d="M939.913,68.816l1.399-4.477c0,0,2.658-1.539,4.757,0.56c2.099,2.099,0,3.638,0,3.638S941.874,70.85,939.913,68.816z"/>
	<path d="M919.407,92.971l1.399-4.477c0,0,2.658-1.539,4.757,0.56s0,3.638,0,3.638S921.368,95.005,919.407,92.971z"/>
	<path d="M973.47,97.842l1.399-4.477c0,0,2.658-1.539,4.757,0.56s0,3.638,0,3.638S975.431,99.876,973.47,97.842z"/>
	<path d="M823.919,22.701l1.399-4.477c0,0,2.658-1.539,4.757,0.56s0,3.638,0,3.638S825.88,24.735,823.919,22.701z"/>
	<path d="M803.413,46.857l1.399-4.477c0,0,2.658-1.539,4.757,0.56s0,3.638,0,3.638S805.374,48.891,803.413,46.857z"/>
	<path d="M857.476,51.727l1.399-4.477c0,0,2.658-1.539,4.757,0.56s0,3.638,0,3.638S859.437,53.761,857.476,51.727z"/>
	<path d="M562.567,15.431l1.399-4.477c0,0,2.658-1.539,4.757,0.56s0,3.638,0,3.638S564.528,17.466,562.567,15.431z"/>
	<path d="M229.717,31.861l1.399-4.477c0,0,2.658-1.539,4.757,0.56s0,3.638,0,3.638S231.678,33.896,229.717,31.861z"/>
	<path d="M209.211,56.017l1.399-4.477c0,0,2.658-1.539,4.757,0.56s0,3.638,0,3.638S211.172,58.051,209.211,56.017z"/>
	<path d="M263.274,60.888l1.399-4.477c0,0,2.658-1.539,4.757,0.56s0,3.638,0,3.638S265.235,62.922,263.274,60.888z"/>
	<path d="M37.638,57.681l1.399-4.477c0,0,2.658-1.539,4.757,0.56s0,3.638,0,3.638S39.599,59.715,37.638,57.681z"/>
	<path d="M17.132,81.836l1.399-4.477c0,0,2.658-1.539,4.757,0.56s0,3.638,0,3.638S19.093,83.87,17.132,81.836z"/>
	<path d="M71.196,86.707l1.399-4.477c0,0,2.658-1.539,4.757,0.56s0,3.638,0,3.638S73.157,88.741,71.196,86.707z"/>
	<path d="M37.161,26.865l1.399-4.477c0,0,2.658-1.539,4.757,0.56s0,3.638,0,3.638S39.122,28.899,37.161,26.865z"/>
	<path d="M16.655,51.02l1.399-4.477c0,0,2.658-1.539,4.757,0.56s0,3.638,0,3.638S18.616,53.054,16.655,51.02z"/>
	<path d="M70.718,55.891l1.399-4.477c0,0,2.658-1.539,4.757,0.56s0,3.638,0,3.638S72.679,57.925,70.718,55.891z"/>
	<path d="M-9.357,392.881l1.399-4.477c0,0,2.658-1.539,4.757,0.56s0,3.638,0,3.638S-7.396,394.915-9.357,392.881z"/>
	<path d="M997.699,63.693l1.399-4.477c0,0,2.658-1.539,4.757,0.56s0,3.638,0,3.638S999.66,65.727,997.699,63.693z"/>
</g>
</svg>