<svg version="1.1" id="Layer_1" xmlns="http://www.w3.org/2000/svg" xmlns:xlink="http://www.w3.org/1999/xlink" x="0px" y="0px" viewBox="0 0 1000 800" style="enable-background:new 0 0 1000 800;" xml:space="preserve">
<style type="text/css">
	.st0{fill:#333333;}
</style>
<g>
	<g>
		<g>
			<g>
				<path class="st0" d="M77.606,10.475l1.399-4.477c0,0,2.658-1.539,4.757,0.56s0,3.638,0,3.638S79.567,12.509,77.606,10.475z"/>
			</g>
		</g>
		<g>
			<g>
				<path class="st0" d="M32.036,10.475l1.399-4.477c0,0,2.658-1.539,4.757,0.56s0,3.638,0,3.638S33.997,12.509,32.036,10.475z"/>
			</g>
		</g>
		<g>
			<g>
				<path class="st0" d="M989.255,58.541l1.399-4.477c0,0,2.658-1.539,4.757,0.56s0,3.638,0,3.638S991.216,60.575,989.255,58.541z"/>
			</g>
		</g>
		<g>
			<g>
				<path class="st0" d="M955.947,82.439l1.399-4.477c0,0,2.658-1.539,4.757,0.56s0,3.638,0,3.638S957.908,84.473,955.947,82.439z"/>
			</g>
		</g>
		<g>
			<g>
				<path class="st0" d="M928.62,58.565l1.399-4.477c0,0,2.658-1.539,4.757,0.56s0,3.638,0,3.638S930.581,60.599,928.62,58.565z"/>
			</g>
		</g>
		<g>
			<g>
				<path class="st0" d="M992.395,42.192l1.399-4.477c0,0,2.658-1.539,4.757,0.56s0,3.638,0,3.638S994.357,44.226,992.395,42.192z"/>
			</g>
		</g>
		<g>
			<g>
				<path class="st0" d="M942.397,84.815l1.399-4.477c0,0,2.658-1.539,4.757,0.56s0,3.638,0,3.638S944.358,86.849,942.397,84.815z"/>
			</g>
		</g>
		<g>
			<g>
				<path class="st0" d="M896.828,84.815l1.399-4.477c0,0,2.658-1.539,4.757,0.56s0,3.638,0,3.638S898.789,86.849,896.828,84.815z"/>
			</g>
		</g>
		<g>
			<g>
				<path class="st0" d="M869.501,60.942l1.399-4.477c0,0,2.658-1.539,4.757,0.56s0,3.638,0,3.638S871.462,62.976,869.501,60.942z"/>
			</g>
		</g>
		<g>
			<g>
				<path class="st0" d="M968,63.871l1.399-4.477c0,0,2.658-1.539,4.757,0.56s0,3.638,0,3.638S969.961,65.905,968,63.871z"/>
			</g>
		</g>
		<g>
			<g>
				<path class="st0" d="M933.276,44.569l1.399-4.477c0,0,2.658-1.539,4.757,0.56s0,3.638,0,3.638S935.238,46.603,933.276,44.569z"/>
			</g>
		</g>
		<g>
			<g>
				<path class="st0" d="M897.823,72.403l1.399-4.477c0,0,2.658-1.539,4.757,0.56s0,3.638,0,3.638S899.784,74.437,897.823,72.403z"/>
			</g>
		</g>
		<g>
			<g>
				<path class="st0" d="M852.254,72.403l1.399-4.477c0,0,2.658-1.539,4.757,0.56s0,3.638,0,3.638S854.215,74.437,852.254,72.403z"/>
			</g>
		</g>
		<g>
			<g>
				<path class="st0" d="M824.927,48.529l1.399-4.477c0,0,2.658-1.539,4.757,0.56s0,3.638,0,3.638S826.888,50.563,824.927,48.529z"/>
			</g>
		</g>
		<g>
			<g>
				<path class="st0" d="M923.426,51.458l1.399-4.477c0,0,2.658-1.539,4.757,0.56s0,3.638,0,3.638S925.387,53.492,923.426,51.458z"/>
			</g>
		</g>
		<g>
			<g>
				<path class="st0" d="M888.702,32.156l1.399-4.477c0,0,2.658-1.539,4.757,0.56s0,3.638,0,3.638S890.664,34.19,888.702,32.156z"/>
			</g>
		</g>
		<g>
			<g>
				<path class="st0" d="M816.358,70.667l1.399-4.477c0,0,2.658-1.539,4.757,0.56s0,3.638,0,3.638S818.319,72.701,816.358,70.667z"/>
			</g>
		</g>
		<g>
			<g>
				<path class="st0" d="M779.164,46.793l1.399-4.477c0,0,2.658-1.539,4.757,0.56s0,3.638,0,3.638S781.125,48.827,779.164,46.793z"/>
			</g>
		</g>
		<g>
			<g>
				<path class="st0" d="M877.663,49.722l1.399-4.477c0,0,2.658-1.539,4.757,0.56s0,3.638,0,3.638S879.624,51.756,877.663,49.722z"/>
			</g>
		</g>
		<g>
			<g>
				<path class="st0" d="M842.939,30.42l1.399-4.477c0,0,2.658-1.539,4.757,0.56s0,3.638,0,3.638S844.901,32.454,842.939,30.42z"/>
			</g>
		</g>
		<g>
			<g>
				<path class="st0" d="M808.388,64.018l1.399-4.477c0,0,2.658-1.539,4.757,0.56s0,3.638,0,3.638S810.349,66.052,808.388,64.018z"/>
			</g>
		</g>
		<g>
			<g>
				<path class="st0" d="M762.819,64.018l1.399-4.477c0,0,2.658-1.539,4.757,0.56s0,3.638,0,3.638S764.78,66.052,762.819,64.018z"/>
			</g>
		</g>
		<g>
			<g>
				<path class="st0" d="M735.492,40.144l1.399-4.477c0,0,2.658-1.539,4.757,0.56s0,3.638,0,3.638S737.453,42.178,735.492,40.144z"/>
			</g>
		</g>
		<g>
			<g>
				<path class="st0" d="M833.991,43.073l1.399-4.477c0,0,2.658-1.539,4.757,0.56s0,3.638,0,3.638S835.952,45.107,833.991,43.073z"/>
			</g>
		</g>
		<g>
			<g>
				<path class="st0" d="M799.267,23.771l1.399-4.477c0,0,2.658-1.539,4.757,0.56s0,3.638,0,3.638S801.229,25.805,799.267,23.771z"/>
			</g>
		</g>
		<g>
			<g>
				<path class="st0" d="M722.273,65.995l1.399-4.477c0,0,2.658-1.539,4.757,0.56s0,3.638,0,3.638S724.234,68.029,722.273,65.995z"/>
			</g>
		</g>
		<g>
			<g>
				<path class="st0" d="M793.445,45.05l1.399-4.477c0,0,2.658-1.539,4.757,0.56s0,3.638,0,3.638S795.406,47.084,793.445,45.05z"/>
			</g>
		</g>
		<g>
			<g>
				<path class="st0" d="M758.721,25.748l1.399-4.477c0,0,2.658-1.539,4.757,0.56s0,3.638,0,3.638S760.683,27.782,758.721,25.748z"/>
			</g>
		</g>
		<g>
			<g>
				<path class="st0" d="M731.44,54.506l1.399-4.477c0,0,2.658-1.539,4.757,0.56s0,3.638,0,3.638S733.401,56.54,731.44,54.506z"/>
			</g>
		</g>
		<g>
			<g>
				<path class="st0" d="M685.871,54.506l1.399-4.477c0,0,2.658-1.539,4.757,0.56s0,3.638,0,3.638S687.832,56.54,685.871,54.506z"/>
			</g>
		</g>
		<g>
			<g>
				<path class="st0" d="M658.544,30.632l1.399-4.477c0,0,2.658-1.539,4.757,0.56s0,3.638,0,3.638S660.505,32.666,658.544,30.632z"/>
			</g>
		</g>
		<g>
			<g>
				<path class="st0" d="M757.043,33.561l1.399-4.477c0,0,2.658-1.539,4.757,0.56s0,3.638,0,3.638S759.004,35.595,757.043,33.561z"/>
			</g>
		</g>
		<g>
			<g>
				<path class="st0" d="M722.319,14.259l1.399-4.477c0,0,2.658-1.539,4.757,0.56s0,3.638,0,3.638S724.281,16.293,722.319,14.259z"/>
			</g>
		</g>
		<g>
			<g>
				<path class="st0" d="M671.867,61.081l1.399-4.477c0,0,2.658-1.539,4.757,0.56s0,3.638,0,3.638S673.828,63.115,671.867,61.081z"/>
			</g>
		</g>
		<g>
			<g>
				<path class="st0" d="M626.298,61.081l1.399-4.477c0,0,2.658-1.539,4.757,0.56s0,3.638,0,3.638S628.259,63.115,626.298,61.081z"/>
			</g>
		</g>
		<g>
			<g>
				<path class="st0" d="M598.971,37.207l1.399-4.477c0,0,2.658-1.539,4.757,0.56s0,3.638,0,3.638S600.932,39.241,598.971,37.207z"/>
			</g>
		</g>
		<g>
			<g>
				<path class="st0" d="M697.47,40.136l1.399-4.477c0,0,2.658-1.539,4.757,0.56s0,3.638,0,3.638S699.431,42.17,697.47,40.136z"/>
			</g>
		</g>
		<g>
			<g>
				<path class="st0" d="M662.746,20.834l1.399-4.477c0,0,2.658-1.539,4.757,0.56s0,3.638,0,3.638S664.708,22.868,662.746,20.834z"/>
			</g>
		</g>
		<g>
			<g>
				<path class="st0" d="M607.017,63.616l1.399-4.477c0,0,2.658-1.539,4.757,0.56s0,3.638,0,3.638S608.978,65.65,607.017,63.616z"/>
			</g>
		</g>
		<g>
			<g>
				<path class="st0" d="M561.448,63.616l1.399-4.477c0,0,2.658-1.539,4.757,0.56s0,3.638,0,3.638S563.409,65.65,561.448,63.616z"/>
			</g>
		</g>
		<g>
			<g>
				<path class="st0" d="M534.121,39.742l1.399-4.477c0,0,2.658-1.539,4.757,0.56s0,3.638,0,3.638S536.082,41.776,534.121,39.742z"/>
			</g>
		</g>
		<g>
			<g>
				<path class="st0" d="M632.62,42.671l1.399-4.477c0,0,2.658-1.539,4.757,0.56s0,3.638,0,3.638S634.581,44.705,632.62,42.671z"/>
			</g>
		</g>
		<g>
			<g>
				<path class="st0" d="M597.896,23.369l1.399-4.477c0,0,2.658-1.539,4.757,0.56s0,3.638,0,3.638S599.858,25.403,597.896,23.369z"/>
			</g>
		</g>
		<g>
			<g>
				<path class="st0" d="M553.315,64.202l1.399-4.477c0,0,2.658-1.539,4.757,0.56s0,3.638,0,3.638S555.276,66.236,553.315,64.202z"/>
			</g>
		</g>
		<g>
			<g>
				<path class="st0" d="M507.746,64.202l1.399-4.477c0,0,2.658-1.539,4.757,0.56c2.099,2.099,0,3.638,0,3.638S509.707,66.236,507.746,64.202z"
					/>
			</g>
		</g>
		<g>
			<g>
				<path class="st0" d="M480.419,40.328l1.399-4.477c0,0,2.658-1.539,4.757,0.56s0,3.638,0,3.638S482.38,42.362,480.419,40.328z"/>
			</g>
		</g>
		<g>
			<g>
				<path class="st0" d="M578.918,43.257l1.399-4.477c0,0,2.658-1.539,4.757,0.56s0,3.638,0,3.638S580.879,45.291,578.918,43.257z"/>
			</g>
		</g>
		<g>
			<g>
				<path class="st0" d="M544.194,23.955l1.399-4.477c0,0,2.658-1.539,4.757,0.56s0,3.638,0,3.638S546.156,25.989,544.194,23.955z"/>
			</g>
		</g>
		<g>
			<g>
				<path class="st0" d="M462.156,67.045l1.399-4.477c0,0,2.658-1.539,4.757,0.56c2.099,2.099,0,3.638,0,3.638S464.117,69.079,462.156,67.045z"
					/>
			</g>
		</g>
		<g>
			<g>
				<path class="st0" d="M434.829,43.171l1.399-4.477c0,0,2.658-1.539,4.757,0.56s0,3.638,0,3.638S436.79,45.205,434.829,43.171z"/>
			</g>
		</g>
		<g>
			<g>
				<path class="st0" d="M533.328,46.1l1.399-4.477c0,0,2.658-1.539,4.757,0.56s0,3.638,0,3.638S535.289,48.134,533.328,46.1z"/>
			</g>
		</g>
		<g>
			<g>
				<path class="st0" d="M498.604,26.798l1.399-4.477c0,0,2.658-1.539,4.757,0.56s0,3.638,0,3.638S500.566,28.832,498.604,26.798z"/>
			</g>
		</g>
		<g>
			<g>
				<path class="st0" d="M449.695,75.754l1.399-4.477c0,0,2.658-1.539,4.757,0.56s0,3.638,0,3.638S451.656,77.788,449.695,75.754z"/>
			</g>
		</g>
		<g>
			<g>
				<path class="st0" d="M404.126,75.754l1.399-4.477c0,0,2.658-1.539,4.757,0.56s0,3.638,0,3.638S406.087,77.788,404.126,75.754z"/>
			</g>
		</g>
		<g>
			<g>
				<path class="st0" d="M376.799,51.88l1.399-4.477c0,0,2.658-1.539,4.757,0.56s0,3.638,0,3.638S378.76,53.914,376.799,51.88z"/>
			</g>
		</g>
		<g>
			<g>
				<path class="st0" d="M475.298,54.809l1.399-4.477c0,0,2.658-1.539,4.757,0.56s0,3.638,0,3.638S477.259,56.843,475.298,54.809z"/>
			</g>
		</g>
		<g>
			<g>
				<path class="st0" d="M440.574,35.507l1.399-4.477c0,0,2.658-1.539,4.757,0.56s0,3.638,0,3.638S442.536,37.541,440.574,35.507z"/>
			</g>
		</g>
		<g>
			<g>
				<path class="st0" d="M366.724,77.541l1.399-4.477c0,0,2.658-1.539,4.757,0.56s0,3.638,0,3.638S368.685,79.575,366.724,77.541z"/>
			</g>
		</g>
		<g>
			<g>
				<path class="st0" d="M321.155,77.541l1.399-4.477c0,0,2.658-1.539,4.757,0.56s0,3.638,0,3.638S323.116,79.575,321.155,77.541z"/>
			</g>
		</g>
		<g>
			<g>
				<path class="st0" d="M293.828,53.667l1.399-4.477c0,0,2.658-1.539,4.757,0.56s0,3.638,0,3.638S295.789,55.701,293.828,53.667z"/>
			</g>
		</g>
		<g>
			<g>
				<path class="st0" d="M392.327,56.596l1.399-4.477c0,0,2.658-1.539,4.757,0.56s0,3.638,0,3.638S394.288,58.63,392.327,56.596z"/>
			</g>
		</g>
		<g>
			<g>
				<path class="st0" d="M357.603,37.294l1.399-4.477c0,0,2.658-1.539,4.757,0.56s0,3.638,0,3.638S359.565,39.328,357.603,37.294z"/>
			</g>
		</g>
		<g>
			<g>
				<path class="st0" d="M282.174,76.348l1.399-4.477c0,0,2.658-1.539,4.757,0.56s0,3.638,0,3.638S284.135,78.382,282.174,76.348z"/>
			</g>
		</g>
		<g>
			<g>
				<path class="st0" d="M236.605,76.348l1.399-4.477c0,0,2.658-1.539,4.757,0.56s0,3.638,0,3.638S238.566,78.382,236.605,76.348z"/>
			</g>
		</g>
		<g>
			<g>
				<path class="st0" d="M209.278,52.474l1.399-4.477c0,0,2.658-1.539,4.757,0.56s0,3.638,0,3.638S211.239,54.508,209.278,52.474z"/>
			</g>
		</g>
		<g>
			<g>
				<path class="st0" d="M307.777,55.403l1.399-4.477c0,0,2.658-1.539,4.757,0.56s0,3.638,0,3.638S309.738,57.437,307.777,55.403z"/>
			</g>
		</g>
		<g>
			<g>
				<path class="st0" d="M273.053,36.101l1.399-4.477c0,0,2.658-1.539,4.757,0.56s0,3.638,0,3.638S275.015,38.135,273.053,36.101z"/>
			</g>
		</g>
		<g>
			<g>
				<path class="st0" d="M219.251,78.578l1.399-4.477c0,0,2.658-1.539,4.757,0.56s0,3.638,0,3.638S221.212,80.612,219.251,78.578z"/>
			</g>
		</g>
		<g>
			<g>
				<path class="st0" d="M146.355,54.704l1.399-4.477c0,0,2.658-1.539,4.757,0.56s0,3.638,0,3.638S148.316,56.738,146.355,54.704z"/>
			</g>
		</g>
		<g>
			<g>
				<path class="st0" d="M244.854,57.633l1.399-4.477c0,0,2.658-1.539,4.757,0.56s0,3.638,0,3.638S246.815,59.667,244.854,57.633z"/>
			</g>
		</g>
		<g>
			<g>
				<path class="st0" d="M210.13,38.331l1.399-4.477c0,0,2.658-1.539,4.757,0.56s0,3.638,0,3.638S212.092,40.365,210.13,38.331z"/>
			</g>
		</g>
		<g>
			<g>
				<path class="st0" d="M167.589,77.841l1.399-4.477c0,0,2.658-1.539,4.757,0.56s0,3.638,0,3.638S169.55,79.875,167.589,77.841z"/>
			</g>
		</g>
		<g>
			<g>
				<path class="st0" d="M94.693,53.967l1.399-4.477c0,0,2.658-1.539,4.757,0.56s0,3.638,0,3.638S96.654,56.001,94.693,53.967z"/>
			</g>
		</g>
		<g>
			<g>
				<path class="st0" d="M193.192,56.896l1.399-4.477c0,0,2.658-1.539,4.757,0.56s0,3.638,0,3.638S195.153,58.93,193.192,56.896z"/>
			</g>
		</g>
		<g>
			<g>
				<path class="st0" d="M158.468,37.594l1.399-4.477c0,0,2.658-1.539,4.757,0.56s0,3.638,0,3.638S160.43,39.628,158.468,37.594z"/>
			</g>
		</g>
		<g>
			<g>
				<path class="st0" d="M118.349,76.656l1.399-4.477c0,0,2.658-1.539,4.757,0.56s0,3.638,0,3.638S120.31,78.69,118.349,76.656z"/>
			</g>
		</g>
		<g>
			<g>
				<path class="st0" d="M109.228,36.409l1.399-4.477c0,0,2.658-1.539,4.757,0.56s0,3.638,0,3.638S111.19,38.443,109.228,36.409z"/>
			</g>
		</g>
		<g>
			<g>
				<path class="st0" d="M70.103,71.894l1.399-4.477c0,0,2.658-1.539,4.757,0.56s0,3.638,0,3.638S72.064,73.928,70.103,71.894z"/>
			</g>
		</g>
		<g>
			<g>
				<path class="st0" d="M24.534,71.894l1.399-4.477c0,0,2.658-1.539,4.757,0.56s0,3.638,0,3.638S26.495,73.928,24.534,71.894z"/>
			</g>
		</g>
		<g>
			<g>
				<path class="st0" d="M-2.793,48.021l1.399-4.477c0,0,2.658-1.539,4.757,0.56s0,3.638,0,3.638S-0.832,50.055-2.793,48.021z"/>
			</g>
		</g>
		<g>
			<g>
				<path class="st0" d="M60.982,31.648l1.399-4.477c0,0,2.658-1.539,4.757,0.56s0,3.638,0,3.638S62.944,33.682,60.982,31.648z"/>
			</g>
		</g>
		<g>
			<g>
				<path class="st0" d="M16.16,76.066l1.399-4.477c0,0,2.658-1.539,4.757,0.56s0,3.638,0,3.638S18.121,78.1,16.16,76.066z"/>
			</g>
		</g>
		<g>
			<g>
				<path class="st0" d="M41.763,55.121l1.399-4.477c0,0,2.658-1.539,4.757,0.56s0,3.638,0,3.638S43.724,57.155,41.763,55.121z"/>
			</g>
		</g>
		<g>
			<g>
				<path class="st0" d="M7.039,35.819l1.399-4.477c0,0,2.658-1.539,4.757,0.56s0,3.638,0,3.638S9.001,37.853,7.039,35.819z"/>
			</g>
		</g>
		<g>
			<g>
				<path class="st0" d="M-5.048,69.829l1.399-4.477c0,0,2.658-1.539,4.757,0.56c2.099,2.099,0,3.638,0,3.638S-3.087,71.863-5.048,69.829z"/>
			</g>
		</g>
		<g>
			<g>
				<path class="st0" d="M6.484,129.854l1.399-4.477c0,0,2.658-1.539,4.757,0.56c2.099,2.099,0,3.638,0,3.638S8.445,131.888,6.484,129.854z"/>
			</g>
		</g>
		<g>
			<g>
				<path class="st0" d="M14.696,203.612l1.399-4.477c0,0,2.658-1.539,4.757,0.56s0,3.638,0,3.638S16.657,205.646,14.696,203.612z"/>
			</g>
		</g>
		<g>
			<g>
				<path class="st0" d="M40.299,182.667l1.399-4.477c0,0,2.658-1.539,4.757,0.56s0,3.638,0,3.638S42.26,184.701,40.299,182.667z"/>
			</g>
		</g>
		<g>
			<g>
				<path class="st0" d="M5.575,163.365l1.399-4.477c0,0,2.658-1.539,4.757,0.56s0,3.638,0,3.638S7.537,165.399,5.575,163.365z"/>
			</g>
		</g>
		<g>
			<g>
				<path class="st0" d="M69.615,269.086l1.399-4.477c0,0,2.658-1.539,4.757,0.56s0,3.638,0,3.638S71.576,271.12,69.615,269.086z"/>
			</g>
		</g>
		<g>
			<g>
				<path class="st0" d="M24.046,269.086l1.399-4.477c0,0,2.658-1.539,4.757,0.56s0,3.638,0,3.638S26.007,271.12,24.046,269.086z"/>
			</g>
		</g>
		<g>
			<g>
				<path class="st0" d="M-3.281,245.212l1.399-4.477c0,0,2.658-1.539,4.757,0.56s0,3.638,0,3.638S-1.32,247.246-3.281,245.212z"/>
			</g>
		</g>
		<g>
			<g>
				<path class="st0" d="M95.218,248.141l1.399-4.477c0,0,2.658-1.539,4.757,0.56s0,3.638,0,3.638S97.179,250.175,95.218,248.141z"/>
			</g>
		</g>
		<g>
			<g>
				<path class="st0" d="M60.494,228.839l1.399-4.477c0,0,2.658-1.539,4.757,0.56s0,3.638,0,3.638S62.456,230.873,60.494,228.839z"/>
			</g>
		</g>
		<g>
			<g>
				<path class="st0" d="M160.933,300.104l1.399-4.477c0,0,2.658-1.539,4.757,0.56s0,3.638,0,3.638S162.894,302.138,160.933,300.104z"/>
			</g>
		</g>
		<g>
			<g>
				<path class="st0" d="M115.364,300.104l1.399-4.477c0,0,2.658-1.539,4.757,0.56s0,3.638,0,3.638S117.325,302.138,115.364,300.104z"/>
			</g>
		</g>
		<g>
			<g>
				<path class="st0" d="M88.037,276.23l1.399-4.477c0,0,2.658-1.539,4.757,0.56s0,3.638,0,3.638S89.998,278.264,88.037,276.23z"/>
			</g>
		</g>
		<g>
			<g>
				<path class="st0" d="M186.536,279.159l1.399-4.477c0,0,2.658-1.539,4.757,0.56s0,3.638,0,3.638S188.497,281.193,186.536,279.159z"/>
			</g>
		</g>
		<g>
			<g>
				<path class="st0" d="M283.227,286.643l1.399-4.477c0,0,2.658-1.539,4.757,0.56s0,3.638,0,3.638S285.188,288.677,283.227,286.643z"/>
			</g>
		</g>
		<g>
			<g>
				<path class="st0" d="M237.658,286.643l1.399-4.477c0,0,2.658-1.539,4.757,0.56s0,3.638,0,3.638S239.619,288.677,237.658,286.643z"/>
			</g>
		</g>
		<g>
			<g>
				<path class="st0" d="M210.331,262.769l1.399-4.477c0,0,2.658-1.539,4.757,0.56s0,3.638,0,3.638S212.292,264.803,210.331,262.769z"/>
			</g>
		</g>
		<g>
			<g>
				<path class="st0" d="M308.83,265.698l1.399-4.477c0,0,2.658-1.539,4.757,0.56s0,3.638,0,3.638S310.791,267.732,308.83,265.698z"/>
			</g>
		</g>
		<g>
			<g>
				<path class="st0" d="M275.228,247.663l1.399-4.477c0,0,2.658-1.539,4.757,0.56s0,3.638,0,3.638S277.19,249.697,275.228,247.663z"/>
			</g>
		</g>
		<g>
			<g>
				<path class="st0" d="M339.944,270.532l1.399-4.477c0,0,2.658-1.539,4.757,0.56s0,3.638,0,3.638S341.905,272.566,339.944,270.532z"/>
			</g>
		</g>
		<g>
			<g>
				<path class="st0" d="M294.375,270.532l1.399-4.477c0,0,2.658-1.539,4.757,0.56s0,3.638,0,3.638S296.336,272.566,294.375,270.532z"/>
			</g>
		</g>
		<g>
			<g>
				<path class="st0" d="M267.048,246.658l1.399-4.477c0,0,2.658-1.539,4.757,0.56s0,3.638,0,3.638S269.009,248.692,267.048,246.658z"/>
			</g>
		</g>
		<g>
			<g>
				<path class="st0" d="M365.547,249.587l1.399-4.477c0,0,2.658-1.539,4.757,0.56s0,3.638,0,3.638S367.508,251.621,365.547,249.587z"/>
			</g>
		</g>
		<g>
			<g>
				<path class="st0" d="M330.823,230.285l1.399-4.477c0,0,2.658-1.539,4.757,0.56s0,3.638,0,3.638S332.785,232.319,330.823,230.285z"/>
			</g>
		</g>
		<g>
			<g>
				<path class="st0" d="M432.853,260.735l1.399-4.477c0,0,2.658-1.539,4.757,0.56s0,3.638,0,3.638S434.814,262.769,432.853,260.735z"/>
			</g>
		</g>
		<g>
			<g>
				<path class="st0" d="M387.284,260.735l1.399-4.477c0,0,2.658-1.539,4.757,0.56s0,3.638,0,3.638S389.245,262.769,387.284,260.735z"/>
			</g>
		</g>
		<g>
			<g>
				<path class="st0" d="M359.957,236.861l1.399-4.477c0,0,2.658-1.539,4.757,0.56s0,3.638,0,3.638S361.918,238.895,359.957,236.861z"/>
			</g>
		</g>
		<g>
			<g>
				<path class="st0" d="M458.456,239.79l1.399-4.477c0,0,2.658-1.539,4.757,0.56s0,3.638,0,3.638S460.417,241.824,458.456,239.79z"/>
			</g>
		</g>
		<g>
			<g>
				<path class="st0" d="M423.732,220.488l1.399-4.477c0,0,2.658-1.539,4.757,0.56s0,3.638,0,3.638S425.694,222.522,423.732,220.488z"/>
			</g>
		</g>
		<g>
			<g>
				<path class="st0" d="M520.592,247.873l1.399-4.477c0,0,2.658-1.539,4.757,0.56s0,3.638,0,3.638S522.553,249.907,520.592,247.873z"/>
			</g>
		</g>
		<g>
			<g>
				<path class="st0" d="M475.023,247.873l1.399-4.477c0,0,2.658-1.539,4.757,0.56s0,3.638,0,3.638S476.984,249.907,475.023,247.873z"/>
			</g>
		</g>
		<g>
			<g>
				<path class="st0" d="M447.696,223.999l1.399-4.477c0,0,2.658-1.539,4.757,0.56s0,3.638,0,3.638S449.657,226.033,447.696,223.999z"/>
			</g>
		</g>
		<g>
			<g>
				<path class="st0" d="M546.195,226.928l1.399-4.477c0,0,2.658-1.539,4.757,0.56s0,3.638,0,3.638S548.156,228.962,546.195,226.928z"/>
			</g>
		</g>
		<g>
			<g>
				<path class="st0" d="M511.471,207.626l1.399-4.477c0,0,2.658-1.539,4.757,0.56s0,3.638,0,3.638S513.434,209.66,511.471,207.626z"/>
			</g>
		</g>
		<g>
			<g>
				<path class="st0" d="M600.07,230.83l1.399-4.477c0,0,2.658-1.539,4.757,0.56s0,3.638,0,3.638S602.031,232.864,600.07,230.83z"/>
			</g>
		</g>
		<g>
			<g>
				<path class="st0" d="M554.501,230.83l1.399-4.477c0,0,2.658-1.539,4.757,0.56s0,3.638,0,3.638S556.462,232.864,554.501,230.83z"/>
			</g>
		</g>
		<g>
			<g>
				<path class="st0" d="M527.174,206.956l1.399-4.477c0,0,2.658-1.539,4.757,0.56s0,3.638,0,3.638S529.135,208.99,527.174,206.956z"/>
			</g>
		</g>
		<g>
			<g>
				<path class="st0" d="M625.673,209.885l1.399-4.477c0,0,2.658-1.539,4.757,0.56s0,3.638,0,3.638S627.634,211.919,625.673,209.885z"/>
			</g>
		</g>
		<g>
			<g>
				<path class="st0" d="M590.949,190.583l1.399-4.477c0,0,2.658-1.539,4.757,0.56s0,3.638,0,3.638S592.911,192.617,590.949,190.583z"/>
			</g>
		</g>
		<g>
			<g>
				<path class="st0" d="M761.271,214.777l1.399-4.477c0,0,2.658-1.539,4.757,0.56s0,3.638,0,3.638S763.232,216.811,761.271,214.777z"/>
			</g>
		</g>
		<g>
			<g>
				<path class="st0" d="M715.702,214.777l1.399-4.477c0,0,2.658-1.539,4.757,0.56s0,3.638,0,3.638S717.663,216.811,715.702,214.777z"/>
			</g>
		</g>
		<g>
			<g>
				<path class="st0" d="M688.375,190.903l1.399-4.477c0,0,2.658-1.539,4.757,0.56s0,3.638,0,3.638S690.336,192.937,688.375,190.903z"/>
			</g>
		</g>
		<g>
			<g>
				<path class="st0" d="M786.874,193.832l1.399-4.477c0,0,2.658-1.539,4.757,0.56s0,3.638,0,3.638S788.835,195.866,786.874,193.832z"/>
			</g>
		</g>
		<g>
			<g>
				<path class="st0" d="M752.15,174.53l1.399-4.477c0,0,2.658-1.539,4.757,0.56s0,3.638,0,3.638S754.112,176.564,752.15,174.53z"/>
			</g>
		</g>
		<g>
			<g>
				<path class="st0" d="M882.165,203.904l1.399-4.477c0,0,2.658-1.539,4.757,0.56s0,3.638,0,3.638S884.126,205.938,882.165,203.904z"/>
			</g>
		</g>
		<g>
			<g>
				<path class="st0" d="M836.596,203.904l1.399-4.477c0,0,2.658-1.539,4.757,0.56s0,3.638,0,3.638S838.557,205.938,836.596,203.904z"/>
			</g>
		</g>
		<g>
			<g>
				<path class="st0" d="M809.269,180.03l1.399-4.477c0,0,2.658-1.539,4.757,0.56s0,3.638,0,3.638S811.23,182.064,809.269,180.03z"/>
			</g>
		</g>
		<g>
			<g>
				<path class="st0" d="M907.768,182.959l1.399-4.477c0,0,2.658-1.539,4.757,0.56s0,3.638,0,3.638S909.729,184.993,907.768,182.959z"/>
			</g>
		</g>
		<g>
			<g>
				<path class="st0" d="M873.044,163.657l1.399-4.477c0,0,2.658-1.539,4.757,0.56s0,3.638,0,3.638S875.006,165.691,873.044,163.657z"/>
			</g>
		</g>
		<g>
			<g>
				<path class="st0" d="M958.523,206.255l1.399-4.477c0,0,2.658-1.539,4.757,0.56s0,3.638,0,3.638S960.484,208.289,958.523,206.255z"/>
			</g>
		</g>
		<g>
			<g>
				<path class="st0" d="M931.196,182.382l1.399-4.477c0,0,2.658-1.539,4.757,0.56s0,3.638,0,3.638S933.157,184.416,931.196,182.382z"/>
			</g>
		</g>
		<g>
			<g>
				<path class="st0" d="M994.971,166.009l1.399-4.477c0,0,2.658-1.539,4.757,0.56s0,3.638,0,3.638S996.934,168.043,994.971,166.009z"/>
			</g>
		</g>
		<g>
			<g>
				<path class="st0" d="M977.543,160.863l1.399-4.477c0,0,2.658-1.539,4.757,0.56s0,3.638,0,3.638S979.504,162.897,977.543,160.863z"/>
			</g>
		</g>
		<g>
			<g>
				<path class="st0" d="M931.974,160.863l1.399-4.477c0,0,2.658-1.539,4.757,0.56s0,3.638,0,3.638S933.935,162.897,931.974,160.863z"/>
			</g>
		</g>
		<g>
			<g>
				<path class="st0" d="M904.647,136.989l1.399-4.477c0,0,2.658-1.539,4.757,0.56s0,3.638,0,3.638S906.608,139.023,904.647,136.989z"/>
			</g>
		</g>
		<g>
			<g>
				<path class="st0" d="M968.422,120.616l1.399-4.477c0,0,2.658-1.539,4.757,0.56s0,3.638,0,3.638S970.384,122.65,968.422,120.616z"/>
			</g>
		</g>
		<g>
			<g>
				<path class="st0" d="M802.633,163.345l1.399-4.477c0,0,2.658-1.539,4.757,0.56s0,3.638,0,3.638S804.594,165.379,802.633,163.345z"/>
			</g>
		</g>
		<g>
			<g>
				<path class="st0" d="M757.064,163.345l1.399-4.477c0,0,2.658-1.539,4.757,0.56s0,3.638,0,3.638S759.025,165.379,757.064,163.345z"/>
			</g>
		</g>
		<g>
			<g>
				<path class="st0" d="M729.737,139.471l1.399-4.477c0,0,2.658-1.539,4.757,0.56s0,3.638,0,3.638S731.698,141.505,729.737,139.471z"/>
			</g>
		</g>
		<g>
			<g>
				<path class="st0" d="M828.236,142.4l1.399-4.477c0,0,2.658-1.539,4.757,0.56s0,3.638,0,3.638S830.197,144.434,828.236,142.4z"/>
			</g>
		</g>
		<g>
			<g>
				<path class="st0" d="M793.513,123.098l1.399-4.477c0,0,2.658-1.539,4.757,0.56s0,3.638,0,3.638S795.475,125.132,793.513,123.098z"/>
			</g>
		</g>
		<g>
			<g>
				<path class="st0" d="M717.344,170.982l1.399-4.477c0,0,2.658-1.539,4.757,0.56s0,3.638,0,3.638S719.305,173.016,717.344,170.982z"/>
			</g>
		</g>
		<g>
			<g>
				<path class="st0" d="M671.775,170.982l1.399-4.477c0,0,2.658-1.539,4.757,0.56s0,3.638,0,3.638S673.736,173.016,671.775,170.982z"/>
			</g>
		</g>
		<g>
			<g>
				<path class="st0" d="M644.448,147.109l1.399-4.477c0,0,2.658-1.539,4.757,0.56s0,3.638,0,3.638S646.409,149.143,644.448,147.109z"/>
			</g>
		</g>
		<g>
			<g>
				<path class="st0" d="M742.947,150.038l1.399-4.477c0,0,2.658-1.539,4.757,0.56s0,3.638,0,3.638S744.908,152.072,742.947,150.038z"/>
			</g>
		</g>
		<g>
			<g>
				<path class="st0" d="M708.223,130.736l1.399-4.477c0,0,2.658-1.539,4.757,0.56c2.099,2.099,0,3.638,0,3.638S710.185,132.77,708.223,130.736z
					"/>
			</g>
		</g>
		<g>
			<g>
				<path class="st0" d="M642.448,175.625l1.399-4.477c0,0,2.658-1.539,4.757,0.56s0,3.638,0,3.638S644.409,177.659,642.448,175.625z"/>
			</g>
		</g>
		<g>
			<g>
				<path class="st0" d="M596.879,175.625l1.399-4.477c0,0,2.658-1.539,4.757,0.56s0,3.638,0,3.638S598.84,177.659,596.879,175.625z"/>
			</g>
		</g>
		<g>
			<g>
				<path class="st0" d="M569.552,151.751l1.399-4.477c0,0,2.658-1.539,4.757,0.56s0,3.638,0,3.638S571.513,153.785,569.552,151.751z"/>
			</g>
		</g>
		<g>
			<g>
				<path class="st0" d="M668.051,154.68l1.399-4.477c0,0,2.658-1.539,4.757,0.56s0,3.638,0,3.638S670.012,156.714,668.051,154.68z"/>
			</g>
		</g>
		<g>
			<g>
				<path class="st0" d="M633.327,135.378l1.399-4.477c0,0,2.658-1.539,4.757,0.56s0,3.638,0,3.638S635.289,137.412,633.327,135.378z"/>
			</g>
		</g>
		<g>
			<g>
				<path class="st0" d="M535.425,174.937l1.399-4.477c0,0,2.658-1.539,4.757,0.56s0,3.638,0,3.638S537.386,176.971,535.425,174.937z"/>
			</g>
		</g>
		<g>
			<g>
				<path class="st0" d="M489.855,174.937l1.399-4.477c0,0,2.658-1.539,4.757,0.56s0,3.638,0,3.638S491.816,176.971,489.855,174.937z"/>
			</g>
		</g>
		<g>
			<g>
				<path class="st0" d="M462.529,151.063l1.399-4.477c0,0,2.658-1.539,4.757,0.56s0,3.638,0,3.638S464.49,153.097,462.529,151.063z"/>
			</g>
		</g>
		<g>
			<g>
				<path class="st0" d="M561.028,153.992l1.399-4.477c0,0,2.658-1.539,4.757,0.56s0,3.638,0,3.638S562.989,156.026,561.028,153.992z"/>
			</g>
		</g>
		<g>
			<g>
				<path class="st0" d="M526.304,134.69l1.399-4.477c0,0,2.658-1.539,4.757,0.56s0,3.638,0,3.638S528.266,136.724,526.304,134.69z"/>
			</g>
		</g>
		<g>
			<g>
				<path class="st0" d="M435.929,173.665l1.399-4.477c0,0,2.658-1.539,4.757,0.56s0,3.638,0,3.638S437.89,175.699,435.929,173.665z"/>
			</g>
		</g>
		<g>
			<g>
				<path class="st0" d="M390.36,173.665l1.399-4.477c0,0,2.658-1.539,4.757,0.56s0,3.638,0,3.638S392.321,175.699,390.36,173.665z"/>
			</g>
		</g>
		<g>
			<g>
				<path class="st0" d="M363.033,149.791l1.399-4.477c0,0,2.658-1.539,4.757,0.56s0,3.638,0,3.638S364.994,151.825,363.033,149.791z"/>
			</g>
		</g>
		<g>
			<g>
				<path class="st0" d="M461.532,152.72l1.399-4.477c0,0,2.658-1.539,4.757,0.56s0,3.638,0,3.638S463.493,154.754,461.532,152.72z"/>
			</g>
		</g>
		<g>
			<g>
				<path class="st0" d="M426.808,133.418l1.399-4.477c0,0,2.658-1.539,4.757,0.56s0,3.638,0,3.638S428.77,135.452,426.808,133.418z"/>
			</g>
		</g>
		<g>
			<g>
				<path class="st0" d="M321.08,167.997l1.399-4.477c0,0,2.658-1.539,4.757,0.56s0,3.638,0,3.638S323.041,170.031,321.08,167.997z"/>
			</g>
		</g>
		<g>
			<g>
				<path class="st0" d="M275.511,167.997l1.399-4.477c0,0,2.658-1.539,4.757,0.56s0,3.638,0,3.638S277.472,170.031,275.511,167.997z"/>
			</g>
		</g>
		<g>
			<g>
				<path class="st0" d="M248.184,144.123l1.399-4.477c0,0,2.658-1.539,4.757,0.56s0,3.638,0,3.638S250.145,146.157,248.184,144.123z"/>
			</g>
		</g>
		<g>
			<g>
				<path class="st0" d="M346.683,147.052l1.399-4.477c0,0,2.658-1.539,4.757,0.56s0,3.638,0,3.638S348.644,149.086,346.683,147.052z"/>
			</g>
		</g>
		<g>
			<g>
				<path class="st0" d="M311.959,127.75l1.399-4.477c0,0,2.658-1.539,4.757,0.56s0,3.638,0,3.638S313.922,129.784,311.959,127.75z"/>
			</g>
		</g>
		<g>
			<g>
				<path class="st0" d="M252.998,168.659l1.399-4.477c0,0,2.658-1.539,4.757,0.56s0,3.638,0,3.638S254.959,170.693,252.998,168.659z"/>
			</g>
		</g>
		<g>
			<g>
				<path class="st0" d="M207.428,168.659l1.399-4.477c0,0,2.658-1.539,4.757,0.56s0,3.638,0,3.638S209.389,170.693,207.428,168.659z"/>
			</g>
		</g>
		<g>
			<g>
				<path class="st0" d="M180.101,144.785l1.399-4.477c0,0,2.658-1.539,4.757,0.56s0,3.638,0,3.638S182.062,146.819,180.101,144.785z"/>
			</g>
		</g>
		<g>
			<g>
				<path class="st0" d="M278.601,147.714l1.399-4.477c0,0,2.658-1.539,4.757,0.56s0,3.638,0,3.638S280.562,149.748,278.601,147.714z"/>
			</g>
		</g>
		<g>
			<g>
				<path class="st0" d="M243.877,128.412l1.399-4.477c0,0,2.658-1.539,4.757,0.56s0,3.638,0,3.638S245.839,130.446,243.877,128.412z"/>
			</g>
		</g>
		<g>
			<g>
				<path class="st0" d="M162.244,173.129l1.399-4.477c0,0,2.658-1.539,4.757,0.56s0,3.638,0,3.638S164.205,175.163,162.244,173.129z"/>
			</g>
		</g>
		<g>
			<g>
				<path class="st0" d="M116.675,173.129l1.399-4.477c0,0,2.658-1.539,4.757,0.56s0,3.638,0,3.638S118.636,175.163,116.675,173.129z"/>
			</g>
		</g>
		<g>
			<g>
				<path class="st0" d="M89.348,149.255l1.399-4.477c0,0,2.658-1.539,4.757,0.56s0,3.638,0,3.638S91.309,151.289,89.348,149.255z"/>
			</g>
		</g>
		<g>
			<g>
				<path class="st0" d="M187.847,152.184l1.399-4.477c0,0,2.658-1.539,4.757,0.56s0,3.638,0,3.638S189.808,154.218,187.847,152.184z"/>
			</g>
		</g>
		<g>
			<g>
				<path class="st0" d="M153.123,132.882l1.399-4.477c0,0,2.658-1.539,4.757,0.56c2.099,2.099,0,3.638,0,3.638S155.085,134.916,153.123,132.882
					z"/>
			</g>
		</g>
		<g>
			<g>
				<path class="st0" d="M56.838,191.701l1.399-4.477c0,0,2.658-1.539,4.757,0.56s0,3.638,0,3.638S58.799,193.735,56.838,191.701z"/>
			</g>
		</g>
		<g>
			<g>
				<path class="st0" d="M11.268,191.701l1.399-4.477c0,0,2.658-1.539,4.757,0.56s0,3.638,0,3.638S13.229,193.735,11.268,191.701z"/>
			</g>
		</g>
		<g>
			<g>
				<path class="st0" d="M82.441,170.756l1.399-4.477c0,0,2.658-1.539,4.757,0.56s0,3.638,0,3.638S84.402,172.79,82.441,170.756z"/>
			</g>
		</g>
		<g>
			<g>
				<path class="st0" d="M47.717,151.454l1.399-4.477c0,0,2.658-1.539,4.757,0.56s0,3.638,0,3.638S49.679,153.488,47.717,151.454z"/>
			</g>
		</g>
		<g>
			<g>
				<path class="st0" d="M15.148,200.578l1.399-4.477c0,0,2.658-1.539,4.757,0.56s0,3.638,0,3.638S17.109,202.612,15.148,200.578z"/>
			</g>
		</g>
		<g>
			<g>
				<path class="st0" d="M943.996,313.287l1.399-4.477c0,0,2.658-1.539,4.757,0.56s0,3.638,0,3.638S945.957,315.321,943.996,313.287z"/>
			</g>
		</g>
		<g>
			<g>
				<path class="st0" d="M923.489,337.443l1.399-4.477c0,0,2.658-1.539,4.757,0.56s0,3.638,0,3.638S925.45,339.477,923.489,337.443z"/>
			</g>
		</g>
		<g>
			<g>
				<path class="st0" d="M977.553,342.313l1.399-4.477c0,0,2.658-1.539,4.757,0.56s0,3.638,0,3.638S979.514,344.347,977.553,342.313z"/>
			</g>
		</g>
		<g>
			<g>
				<path class="st0" d="M846.75,306.546l1.399-4.477c0,0,2.658-1.539,4.757,0.56s0,3.638,0,3.638S848.711,308.58,846.75,306.546z"/>
			</g>
		</g>
		<g>
			<g>
				<path class="st0" d="M826.244,330.702l1.399-4.477c0,0,2.658-1.539,4.757,0.56s0,3.638,0,3.638S828.205,332.736,826.244,330.702z"/>
			</g>
		</g>
		<g>
			<g>
				<path class="st0" d="M880.307,335.572l1.399-4.477c0,0,2.658-1.539,4.757,0.56s0,3.638,0,3.638S882.268,337.606,880.307,335.572z"/>
			</g>
		</g>
		<g>
			<g>
				<path class="st0" d="M730.116,321.78l1.399-4.477c0,0,2.658-1.539,4.757,0.56s0,3.638,0,3.638S732.077,323.814,730.116,321.78z"/>
			</g>
		</g>
		<g>
			<g>
				<path class="st0" d="M709.61,345.935l1.399-4.477c0,0,2.658-1.539,4.757,0.56s0,3.638,0,3.638S711.571,347.969,709.61,345.935z"/>
			</g>
		</g>
		<g>
			<g>
				<path class="st0" d="M763.673,350.806l1.399-4.477c0,0,2.658-1.539,4.757,0.56s0,3.638,0,3.638S765.634,352.84,763.673,350.806z"/>
			</g>
		</g>
		<g>
			<g>
				<path class="st0" d="M630.153,317.068l1.399-4.477c0,0,2.658-1.539,4.757,0.56s0,3.638,0,3.638S632.114,319.102,630.153,317.068z"/>
			</g>
		</g>
		<g>
			<g>
				<path class="st0" d="M609.646,341.224l1.399-4.477c0,0,2.658-1.539,4.757,0.56s0,3.638,0,3.638S611.607,343.258,609.646,341.224z"/>
			</g>
		</g>
		<g>
			<g>
				<path class="st0" d="M663.71,346.094l1.399-4.477c0,0,2.658-1.539,4.757,0.56s0,3.638,0,3.638S665.671,348.128,663.71,346.094z"/>
			</g>
		</g>
		<g>
			<g>
				<path class="st0" d="M499.959,337.888l1.399-4.477c0,0,2.658-1.539,4.757,0.56s0,3.638,0,3.638S501.92,339.922,499.959,337.888z"/>
			</g>
		</g>
		<g>
			<g>
				<path class="st0" d="M479.452,362.043l1.399-4.477c0,0,2.658-1.539,4.757,0.56s0,3.638,0,3.638S481.413,364.077,479.452,362.043z"/>
			</g>
		</g>
		<g>
			<g>
				<path class="st0" d="M533.516,366.914l1.399-4.477c0,0,2.658-1.539,4.757,0.56s0,3.638,0,3.638S535.477,368.948,533.516,366.914z"/>
			</g>
		</g>
		<g>
			<g>
				<path class="st0" d="M407.23,371.201l1.399-4.477c0,0,2.658-1.539,4.757,0.56s0,3.638,0,3.638S409.191,373.235,407.23,371.201z"/>
			</g>
		</g>
		<g>
			<g>
				<path class="st0" d="M461.294,376.072l1.399-4.477c0,0,2.658-1.539,4.757,0.56s0,3.638,0,3.638S463.255,378.106,461.294,376.072z"/>
			</g>
		</g>
		<g>
			<g>
				<path class="st0" d="M340.107,354.825l1.399-4.477c0,0,2.658-1.539,4.757,0.56s0,3.638,0,3.638S342.068,356.859,340.107,354.825z"/>
			</g>
		</g>
		<g>
			<g>
				<path class="st0" d="M319.6,378.981l1.399-4.477c0,0,2.658-1.539,4.757,0.56s0,3.638,0,3.638S321.561,381.015,319.6,378.981z"/>
			</g>
		</g>
		<g>
			<g>
				<path class="st0" d="M373.664,383.851l1.399-4.477c0,0,2.658-1.539,4.757,0.56s0,3.638,0,3.638S375.625,385.885,373.664,383.851z"/>
			</g>
		</g>
		<g>
			<g>
				<path class="st0" d="M219.049,353.205l1.399-4.477c0,0,2.658-1.539,4.757,0.56s0,3.638,0,3.638S221.01,355.24,219.049,353.205z"/>
			</g>
		</g>
		<g>
			<g>
				<path class="st0" d="M198.542,377.361l1.399-4.477c0,0,2.658-1.539,4.757,0.56s0,3.638,0,3.638S200.503,379.395,198.542,377.361z"/>
			</g>
		</g>
		<g>
			<g>
				<path class="st0" d="M252.606,382.231l1.399-4.477c0,0,2.658-1.539,4.757,0.56s0,3.638,0,3.638S254.567,384.266,252.606,382.231z"/>
			</g>
		</g>
		<g>
			<g>
				<path class="st0" d="M84.381,343.421l1.399-4.477c0,0,2.658-1.539,4.757,0.56s0,3.638,0,3.638S86.342,345.455,84.381,343.421z"/>
			</g>
		</g>
		<g>
			<g>
				<path class="st0" d="M63.874,367.576l1.399-4.477c0,0,2.658-1.539,4.757,0.56s0,3.638,0,3.638S65.835,369.61,63.874,367.576z"/>
			</g>
		</g>
		<g>
			<g>
				<path class="st0" d="M117.938,372.447l1.399-4.477c0,0,2.658-1.539,4.757,0.56s0,3.638,0,3.638S119.899,374.481,117.938,372.447z"/>
			</g>
		</g>
		<g>
			<g>
				<path class="st0" d="M16.43,334.084l1.399-4.477c0,0,2.658-1.539,4.757,0.56s0,3.638,0,3.638S18.391,336.118,16.43,334.084z"/>
			</g>
		</g>
		<g>
			<g>
				<path class="st0" d="M-4.077,358.239l1.399-4.477c0,0,2.658-1.539,4.757,0.56s0,3.638,0,3.638S-2.116,360.273-4.077,358.239z"/>
			</g>
		</g>
		<g>
			<g>
				<path class="st0" d="M49.987,363.11l1.399-4.477c0,0,2.658-1.539,4.757,0.56s0,3.638,0,3.638S51.948,365.144,49.987,363.11z"/>
			</g>
		</g>
		<g>
			<g>
				<path class="st0" d="M5.872,359.737l1.399-4.477c0,0,2.658-1.539,4.757,0.56s0,3.638,0,3.638S7.833,361.771,5.872,359.737z"/>
			</g>
		</g>
		<g>
			<g>
				<path class="st0" d="M76.726,264.561l1.399-4.477c0,0,2.658-1.539,4.757,0.56s0,3.638,0,3.638S78.687,266.596,76.726,264.561z"/>
			</g>
		</g>
		<g>
			<g>
				<path class="st0" d="M56.22,288.717l1.399-4.477c0,0,2.658-1.539,4.757,0.56s0,3.638,0,3.638S58.181,290.751,56.22,288.717z"/>
			</g>
		</g>
		<g>
			<g>
				<path class="st0" d="M110.284,293.587l1.399-4.477c0,0,2.658-1.539,4.757,0.56s0,3.638,0,3.638S112.245,295.622,110.284,293.587z"/>
			</g>
		</g>
		<g>
			<g>
				<path class="st0" d="M155.489,286.036l1.399-4.477c0,0,2.658-1.539,4.757,0.56s0,3.638,0,3.638S157.45,288.07,155.489,286.036z"/>
			</g>
		</g>
		<g>
			<g>
				<path class="st0" d="M134.982,310.192l1.399-4.477c0,0,2.658-1.539,4.757,0.56s0,3.638,0,3.638S136.943,312.226,134.982,310.192z"/>
			</g>
		</g>
		<g>
			<g>
				<path class="st0" d="M189.046,315.062l1.399-4.477c0,0,2.658-1.539,4.757,0.56s0,3.638,0,3.638S191.007,317.096,189.046,315.062z"/>
			</g>
		</g>
		<g>
			<g>
				<path class="st0" d="M194.998,277.385l1.399-4.477c0,0,2.658-1.539,4.757,0.56s0,3.638,0,3.638S196.959,279.419,194.998,277.385z"/>
			</g>
		</g>
		<g>
			<g>
				<path class="st0" d="M173.164,301.541l1.399-4.477c0,0,2.658-1.539,4.757,0.56s0,3.638,0,3.638S175.125,303.575,173.164,301.541z"/>
			</g>
		</g>
		<g>
			<g>
				<path class="st0" d="M227.227,306.411l1.399-4.477c0,0,2.658-1.539,4.757,0.56s0,3.638,0,3.638S229.188,308.445,227.227,306.411z"/>
			</g>
		</g>
		<g>
			<g>
				<path class="st0" d="M229.274,287.734l1.399-4.477c0,0,2.658-1.539,4.757,0.56s0,3.638,0,3.638S231.235,289.768,229.274,287.734z"/>
			</g>
		</g>
		<g>
			<g>
				<path class="st0" d="M208.767,311.889l1.399-4.477c0,0,2.658-1.539,4.757,0.56s0,3.638,0,3.638S210.728,313.923,208.767,311.889z"/>
			</g>
		</g>
		<g>
			<g>
				<path class="st0" d="M262.831,316.76l1.399-4.477c0,0,2.658-1.539,4.757,0.56s0,3.638,0,3.638S264.792,318.794,262.831,316.76z"/>
			</g>
		</g>
		<g>
			<g>
				<path class="st0" d="M283.546,298.759l1.399-4.477c0,0,2.658-1.539,4.757,0.56s0,3.638,0,3.638S285.507,300.793,283.546,298.759z"/>
			</g>
		</g>
		<g>
			<g>
				<path class="st0" d="M264.447,324.856l1.399-4.477c0,0,2.658-1.539,4.757,0.56s0,3.638,0,3.638S266.408,326.89,264.447,324.856z"/>
			</g>
		</g>
		<g>
			<g>
				<path class="st0" d="M317.103,327.785l1.399-4.477c0,0,2.658-1.539,4.757,0.56s0,3.638,0,3.638S319.064,329.819,317.103,327.785z"/>
			</g>
		</g>
		<g>
			<g>
				<path class="st0" d="M365.301,313.705l1.399-4.477c0,0,2.658-1.539,4.757,0.56s0,3.638,0,3.638S367.262,315.739,365.301,313.705z"/>
			</g>
		</g>
		<g>
			<g>
				<path class="st0" d="M344.795,337.86l1.399-4.477c0,0,2.658-1.539,4.757,0.56s0,3.638,0,3.638S346.756,339.894,344.795,337.86z"/>
			</g>
		</g>
		<g>
			<g>
				<path class="st0" d="M398.858,342.731l1.399-4.477c0,0,2.658-1.539,4.757,0.56s0,3.638,0,3.638S400.819,344.765,398.858,342.731z"/>
			</g>
		</g>
		<g>
			<g>
				<path class="st0" d="M444.477,322.471l1.399-4.477c0,0,2.658-1.539,4.757,0.56s0,3.638,0,3.638S446.438,324.505,444.477,322.471z"/>
			</g>
		</g>
		<g>
			<g>
				<path class="st0" d="M423.971,346.627l1.399-4.477c0,0,2.658-1.539,4.757,0.56s0,3.638,0,3.638S425.932,348.661,423.971,346.627z"/>
			</g>
		</g>
		<g>
			<g>
				<path class="st0" d="M478.035,351.497l1.399-4.477c0,0,2.658-1.539,4.757,0.56s0,3.638,0,3.638S479.996,353.532,478.035,351.497z"/>
			</g>
		</g>
		<g>
			<g>
				<path class="st0" d="M535.707,336.375l1.399-4.477c0,0,2.658-1.539,4.757,0.56s0,3.638,0,3.638S537.668,338.409,535.707,336.375z"/>
			</g>
		</g>
		<g>
			<g>
				<path class="st0" d="M515.2,360.53l1.399-4.477c0,0,2.658-1.539,4.757,0.56s0,3.638,0,3.638S517.161,362.564,515.2,360.53z"/>
			</g>
		</g>
		<g>
			<g>
				<path class="st0" d="M569.264,365.401l1.399-4.477c0,0,2.658-1.539,4.757,0.56s0,3.638,0,3.638S571.225,367.435,569.264,365.401z"/>
			</g>
		</g>
		<g>
			<g>
				<path class="st0" d="M659.142,339.543l1.399-4.477c0,0,2.658-1.539,4.757,0.56s0,3.638,0,3.638S661.103,341.577,659.142,339.543z"/>
			</g>
		</g>
		<g>
			<g>
				<path class="st0" d="M638.636,363.699l1.399-4.477c0,0,2.658-1.539,4.757,0.56s0,3.638,0,3.638S640.597,365.733,638.636,363.699z"/>
			</g>
		</g>
		<g>
			<g>
				<path class="st0" d="M692.699,368.569l1.399-4.477c0,0,2.658-1.539,4.757,0.56s0,3.638,0,3.638S694.66,370.603,692.699,368.569z"/>
			</g>
		</g>
		<g>
			<g>
				<path class="st0" d="M792.435,326.887l1.399-4.477c0,0,2.658-1.539,4.757,0.56s0,3.638,0,3.638S794.396,328.921,792.435,326.887z"/>
			</g>
		</g>
		<g>
			<g>
				<path class="st0" d="M771.928,351.043l1.399-4.477c0,0,2.658-1.539,4.757,0.56s0,3.638,0,3.638S773.889,353.077,771.928,351.043z"/>
			</g>
		</g>
		<g>
			<g>
				<path class="st0" d="M825.992,355.913l1.399-4.477c0,0,2.658-1.539,4.757,0.56s0,3.638,0,3.638S827.953,357.947,825.992,355.913z"/>
			</g>
		</g>
		<g>
			<g>
				<path class="st0" d="M901.886,316.159l1.399-4.477c0,0,2.658-1.539,4.757,0.56s0,3.638,0,3.638S903.847,318.193,901.886,316.159z"/>
			</g>
		</g>
		<g>
			<g>
				<path class="st0" d="M935.444,345.185l1.399-4.477c0,0,2.658-1.539,4.757,0.56s0,3.638,0,3.638S937.405,347.219,935.444,345.185z"/>
			</g>
		</g>
		<g>
			<g>
				<path class="st0" d="M991.721,293.999l1.399-4.477c0,0,2.658-1.539,4.757,0.56s0,3.638,0,3.638S993.682,296.033,991.721,293.999z"/>
			</g>
		</g>
		<g>
			<g>
				<path class="st0" d="M971.214,318.155l1.399-4.477c0,0,2.658-1.539,4.757,0.56s0,3.638,0,3.638S973.175,320.189,971.214,318.155z"/>
			</g>
		</g>
		<g>
			<g>
				<path class="st0" d="M896.69,244.454l1.399-4.477c0,0,2.658-1.539,4.757,0.56s0,3.638,0,3.638S898.651,246.488,896.69,244.454z"/>
			</g>
		</g>
		<g>
			<g>
				<path class="st0" d="M876.183,268.61l1.399-4.477c0,0,2.658-1.539,4.757,0.56s0,3.638,0,3.638S878.144,270.644,876.183,268.61z"/>
			</g>
		</g>
		<g>
			<g>
				<path class="st0" d="M930.247,273.48l1.399-4.477c0,0,2.658-1.539,4.757,0.56s0,3.638,0,3.638S932.208,275.514,930.247,273.48z"/>
			</g>
		</g>
		<g>
			<g>
				<path class="st0" d="M755.365,262.972l1.399-4.477c0,0,2.658-1.539,4.757,0.56s0,3.638,0,3.638S757.326,265.006,755.365,262.972z"/>
			</g>
		</g>
		<g>
			<g>
				<path class="st0" d="M734.859,287.127l1.399-4.477c0,0,2.658-1.539,4.757,0.56s0,3.638,0,3.638S736.82,289.161,734.859,287.127z"/>
			</g>
		</g>
		<g>
			<g>
				<path class="st0" d="M788.923,291.998l1.399-4.477c0,0,2.658-1.539,4.757,0.56s0,3.638,0,3.638S790.884,294.032,788.923,291.998z"/>
			</g>
		</g>
		<g>
			<g>
				<path class="st0" d="M711.51,266.932l1.399-4.477c0,0,2.658-1.539,4.757,0.56s0,3.638,0,3.638S713.471,268.966,711.51,266.932z"/>
			</g>
		</g>
		<g>
			<g>
				<path class="st0" d="M691.003,291.087l1.399-4.477c0,0,2.658-1.539,4.757,0.56s0,3.638,0,3.638S692.964,293.121,691.003,291.087z"/>
			</g>
		</g>
		<g>
			<g>
				<path class="st0" d="M745.067,295.958l1.399-4.477c0,0,2.658-1.539,4.757,0.56s0,3.638,0,3.638S747.028,297.992,745.067,295.958z"/>
			</g>
		</g>
		<g>
			<g>
				<path class="st0" d="M649.561,268.516l1.399-4.477c0,0,2.658-1.539,4.757,0.56s0,3.638,0,3.638S651.522,270.55,649.561,268.516z"/>
			</g>
		</g>
		<g>
			<g>
				<path class="st0" d="M629.055,292.671l1.399-4.477c0,0,2.658-1.539,4.757,0.56s0,3.638,0,3.638S631.016,294.705,629.055,292.671z"/>
			</g>
		</g>
		<g>
			<g>
				<path class="st0" d="M683.119,297.542l1.399-4.477c0,0,2.658-1.539,4.757,0.56s0,3.638,0,3.638S685.08,299.576,683.119,297.542z"/>
			</g>
		</g>
		<g>
			<g>
				<path class="st0" d="M555.219,275.452l1.399-4.477c0,0,2.658-1.539,4.757,0.56s0,3.638,0,3.638S557.18,277.486,555.219,275.452z"/>
			</g>
		</g>
		<g>
			<g>
				<path class="st0" d="M534.713,299.607l1.399-4.477c0,0,2.658-1.539,4.757,0.56s0,3.638,0,3.638S536.674,301.641,534.713,299.607z"/>
			</g>
		</g>
		<g>
			<g>
				<path class="st0" d="M588.777,304.478l1.399-4.477c0,0,2.658-1.539,4.757,0.56s0,3.638,0,3.638S590.738,306.512,588.777,304.478z"/>
			</g>
		</g>
		<g>
			<g>
				<path class="st0" d="M471.444,268.709l1.399-4.477c0,0,2.658-1.539,4.757,0.56s0,3.638,0,3.638S473.405,270.743,471.444,268.709z"/>
			</g>
		</g>
		<g>
			<g>
				<path class="st0" d="M450.938,292.864l1.399-4.477c0,0,2.658-1.539,4.757,0.56s0,3.638,0,3.638S452.899,294.898,450.938,292.864z"/>
			</g>
		</g>
		<g>
			<g>
				<path class="st0" d="M505.001,297.735l1.399-4.477c0,0,2.658-1.539,4.757,0.56s0,3.638,0,3.638S506.962,299.769,505.001,297.735z"/>
			</g>
		</g>
		<g>
			<g>
				<path class="st0" d="M359.319,259.086l1.399-4.477c0,0,2.658-1.539,4.757,0.56c2.099,2.099,0,3.638,0,3.638S361.28,261.12,359.319,259.086z"
					/>
			</g>
		</g>
		<g>
			<g>
				<path class="st0" d="M338.813,283.242l1.399-4.477c0,0,2.658-1.539,4.757,0.56s0,3.638,0,3.638S340.774,285.276,338.813,283.242z"/>
			</g>
		</g>
		<g>
			<g>
				<path class="st0" d="M392.877,288.112l1.399-4.477c0,0,2.658-1.539,4.757,0.56s0,3.638,0,3.638S394.838,290.146,392.877,288.112z"/>
			</g>
		</g>
		<g>
			<g>
				<path class="st0" d="M234.434,228.941l1.399-4.477c0,0,2.658-1.539,4.757,0.56s0,3.638,0,3.638S236.395,230.975,234.434,228.941z"/>
			</g>
		</g>
		<g>
			<g>
				<path class="st0" d="M213.927,253.096l1.399-4.477c0,0,2.658-1.539,4.757,0.56s0,3.638,0,3.638S215.888,255.13,213.927,253.096z"/>
			</g>
		</g>
		<g>
			<g>
				<path class="st0" d="M267.991,257.967l1.399-4.477c0,0,2.658-1.539,4.757,0.56s0,3.638,0,3.638S269.952,260.001,267.991,257.967z"/>
			</g>
		</g>
		<g>
			<g>
				<path class="st0" d="M156.503,261.271l1.399-4.477c0,0,2.658-1.539,4.757,0.56s0,3.638,0,3.638S158.464,263.305,156.503,261.271z"/>
			</g>
		</g>
		<g>
			<g>
				<path class="st0" d="M147.983,233.116l1.399-4.477c0,0,2.658-1.539,4.757,0.56s0,3.638,0,3.638S149.944,235.15,147.983,233.116z"/>
			</g>
		</g>
		<g>
			<g>
				<path class="st0" d="M127.477,257.272l1.399-4.477c0,0,2.658-1.539,4.757,0.56s0,3.638,0,3.638S129.438,259.306,127.477,257.272z"/>
			</g>
		</g>
		<g>
			<g>
				<path class="st0" d="M181.54,262.142l1.399-4.477c0,0,2.658-1.539,4.757,0.56s0,3.638,0,3.638S183.501,264.176,181.54,262.142z"/>
			</g>
		</g>
		<g>
			<g>
				<path class="st0" d="M124.629,221.518l1.399-4.477c0,0,2.658-1.539,4.757,0.56s0,3.638,0,3.638S126.59,223.552,124.629,221.518z"/>
			</g>
		</g>
		<g>
			<g>
				<path class="st0" d="M104.122,245.674l1.399-4.477c0,0,2.658-1.539,4.757,0.56s0,3.638,0,3.638S106.083,247.708,104.122,245.674z"/>
			</g>
		</g>
		<g>
			<g>
				<path class="st0" d="M158.186,250.544l1.399-4.477c0,0,2.658-1.539,4.757,0.56s0,3.638,0,3.638S160.147,252.578,158.186,250.544z"/>
			</g>
		</g>
		<g>
			<g>
				<path class="st0" d="M144.889,202.937l1.399-4.477c0,0,2.658-1.539,4.757,0.56s0,3.638,0,3.638S146.85,204.971,144.889,202.937z"/>
			</g>
		</g>
		<g>
			<g>
				<path class="st0" d="M178.446,231.963l1.399-4.477c0,0,2.658-1.539,4.757,0.56s0,3.638,0,3.638S180.407,233.997,178.446,231.963z"/>
			</g>
		</g>
		<g>
			<g>
				<path class="st0" d="M185.531,194.293l1.399-4.477c0,0,2.658-1.539,4.757,0.56s0,3.638,0,3.638S187.492,196.327,185.531,194.293z"/>
			</g>
		</g>
		<g>
			<g>
				<path class="st0" d="M165.025,218.448l1.399-4.477c0,0,2.658-1.539,4.757,0.56s0,3.638,0,3.638S166.986,220.482,165.025,218.448z"/>
			</g>
		</g>
		<g>
			<g>
				<path class="st0" d="M219.088,223.319l1.399-4.477c0,0,2.658-1.539,4.757,0.56s0,3.638,0,3.638S221.049,225.353,219.088,223.319z"/>
			</g>
		</g>
		<g>
			<g>
				<path class="st0" d="M262.387,179.232l1.399-4.477c0,0,2.658-1.539,4.757,0.56s0,3.638,0,3.638S264.348,181.266,262.387,179.232z"/>
			</g>
		</g>
		<g>
			<g>
				<path class="st0" d="M241.88,203.387l1.399-4.477c0,0,2.658-1.539,4.757,0.56s0,3.638,0,3.638S243.841,205.421,241.88,203.387z"/>
			</g>
		</g>
		<g>
			<g>
				<path class="st0" d="M295.944,208.258l1.399-4.477c0,0,2.658-1.539,4.757,0.56s0,3.638,0,3.638S297.905,210.292,295.944,208.258z"/>
			</g>
		</g>
		<g>
			<g>
				<path class="st0" d="M330.522,169.086l1.399-4.477c0,0,2.658-1.539,4.757,0.56s0,3.638,0,3.638S332.483,171.12,330.522,169.086z"/>
			</g>
		</g>
		<g>
			<g>
				<path class="st0" d="M310.015,193.242l1.399-4.477c0,0,2.658-1.539,4.757,0.56s0,3.638,0,3.638S311.976,195.276,310.015,193.242z"/>
			</g>
		</g>
		<g>
			<g>
				<path class="st0" d="M364.079,198.112l1.399-4.477c0,0,2.658-1.539,4.757,0.56s0,3.638,0,3.638S366.04,200.146,364.079,198.112z"/>
			</g>
		</g>
		<g>
			<g>
				<path class="st0" d="M442.543,199.564l1.399-4.477c0,0,2.658-1.539,4.757,0.56s0,3.638,0,3.638S444.504,201.599,442.543,199.564z"/>
			</g>
		</g>
		<g>
			<g>
				<path class="st0" d="M476.101,228.59l1.399-4.477c0,0,2.658-1.539,4.757,0.56s0,3.638,0,3.638S478.062,230.625,476.101,228.59z"/>
			</g>
		</g>
		<g>
			<g>
				<path class="st0" d="M610.959,233.259l1.399-4.477c0,0,2.658-1.539,4.757,0.56s0,3.638,0,3.638S612.92,235.293,610.959,233.259z"/>
			</g>
		</g>
		<g>
			<g>
				<path class="st0" d="M590.453,257.415l1.399-4.477c0,0,2.658-1.539,4.757,0.56s0,3.638,0,3.638S592.414,259.449,590.453,257.415z"/>
			</g>
		</g>
		<g>
			<g>
				<path class="st0" d="M644.516,262.285l1.399-4.477c0,0,2.658-1.539,4.757,0.56s0,3.638,0,3.638S646.477,264.319,644.516,262.285z"/>
			</g>
		</g>
		<g>
			<g>
				<path class="st0" d="M729.341,234.823l1.399-4.477c0,0,2.658-1.539,4.757,0.56s0,3.638,0,3.638S731.302,236.857,729.341,234.823z"/>
			</g>
		</g>
		<g>
			<g>
				<path class="st0" d="M708.834,258.979l1.399-4.477c0,0,2.658-1.539,4.757,0.56s0,3.638,0,3.638S710.795,261.013,708.834,258.979z"/>
			</g>
		</g>
		<g>
			<g>
				<path class="st0" d="M762.898,263.849l1.399-4.477c0,0,2.658-1.539,4.757,0.56s0,3.638,0,3.638S764.859,265.884,762.898,263.849z"/>
			</g>
		</g>
		<g>
			<g>
				<path class="st0" d="M866.43,232.632l1.399-4.477c0,0,2.658-1.539,4.757,0.56s0,3.638,0,3.638S868.391,234.666,866.43,232.632z"/>
			</g>
		</g>
		<g>
			<g>
				<path class="st0" d="M845.924,256.787l1.399-4.477c0,0,2.658-1.539,4.757,0.56s0,3.638,0,3.638S847.885,258.821,845.924,256.787z"/>
			</g>
		</g>
		<g>
			<g>
				<path class="st0" d="M899.987,261.658l1.399-4.477c0,0,2.658-1.539,4.757,0.56c2.099,2.099,0,3.638,0,3.638S901.948,263.692,899.987,261.658
					z"/>
			</g>
		</g>
		<g>
			<g>
				<path class="st0" d="M970.35,223.239l1.399-4.477c0,0,2.658-1.539,4.757,0.56s0,3.638,0,3.638S972.311,225.273,970.35,223.239z"/>
			</g>
		</g>
		<g>
			<g>
				<path class="st0" d="M949.843,247.395l1.399-4.477c0,0,2.658-1.539,4.757,0.56s0,3.638,0,3.638S951.804,249.429,949.843,247.395z"/>
			</g>
		</g>
		<g>
			<g>
				<path class="st0" d="M987.358,155.739l1.399-4.477c0,0,2.658-1.539,4.757,0.56s0,3.638,0,3.638S989.319,157.773,987.358,155.739z"/>
			</g>
		</g>
		<g>
			<g>
				<path class="st0" d="M856.911,92.04l1.399-4.477c0,0,2.658-1.539,4.757,0.56s0,3.638,0,3.638S858.872,94.074,856.911,92.04z"/>
			</g>
		</g>
		<g>
			<g>
				<path class="st0" d="M836.405,116.195l1.399-4.477c0,0,2.658-1.539,4.757,0.56s0,3.638,0,3.638S838.366,118.229,836.405,116.195z"/>
			</g>
		</g>
		<g>
			<g>
				<path class="st0" d="M890.469,121.066l1.399-4.477c0,0,2.658-1.539,4.757,0.56s0,3.638,0,3.638S892.43,123.1,890.469,121.066z"/>
			</g>
		</g>
		<g>
			<g>
				<path class="st0" d="M678.651,83.821l1.399-4.477c0,0,2.658-1.539,4.757,0.56s0,3.638,0,3.638S680.612,85.855,678.651,83.821z"/>
			</g>
		</g>
		<g>
			<g>
				<path class="st0" d="M658.145,107.976l1.399-4.477c0,0,2.658-1.539,4.757,0.56s0,3.638,0,3.638S660.106,110.01,658.145,107.976z"/>
			</g>
		</g>
		<g>
			<g>
				<path class="st0" d="M712.208,112.847l1.399-4.477c0,0,2.658-1.539,4.757,0.56s0,3.638,0,3.638S714.169,114.881,712.208,112.847z"/>
			</g>
		</g>
		<g>
			<g>
				<path class="st0" d="M545.553,100.378l1.399-4.477c0,0,2.658-1.539,4.757,0.56s0,3.638,0,3.638S547.514,102.412,545.553,100.378z"/>
			</g>
		</g>
		<g>
			<g>
				<path class="st0" d="M525.046,124.534l1.399-4.477c0,0,2.658-1.539,4.757,0.56s0,3.638,0,3.638S527.007,126.568,525.046,124.534z"/>
			</g>
		</g>
		<g>
			<g>
				<path class="st0" d="M579.11,129.404l1.399-4.477c0,0,2.658-1.539,4.757,0.56s0,3.638,0,3.638S581.071,131.439,579.11,129.404z"/>
			</g>
		</g>
		<g>
			<g>
				<path class="st0" d="M451.28,101.807l1.399-4.477c0,0,2.658-1.539,4.757,0.56s0,3.638,0,3.638S453.241,103.841,451.28,101.807z"/>
			</g>
		</g>
		<g>
			<g>
				<path class="st0" d="M430.773,125.962l1.399-4.477c0,0,2.658-1.539,4.757,0.56s0,3.638,0,3.638S432.734,127.996,430.773,125.962z"/>
			</g>
		</g>
		<g>
			<g>
				<path class="st0" d="M484.837,130.833l1.399-4.477c0,0,2.658-1.539,4.757,0.56s0,3.638,0,3.638S486.798,132.867,484.837,130.833z"/>
			</g>
		</g>
		<g>
			<g>
				<path class="st0" d="M367.204,98.402l1.399-4.477c0,0,2.658-1.539,4.757,0.56s0,3.638,0,3.638S369.165,100.437,367.204,98.402z"/>
			</g>
		</g>
		<g>
			<g>
				<path class="st0" d="M346.697,122.558l1.399-4.477c0,0,2.658-1.539,4.757,0.56s0,3.638,0,3.638S348.658,124.592,346.697,122.558z"/>
			</g>
		</g>
		<g>
			<g>
				<path class="st0" d="M400.761,127.429l1.399-4.477c0,0,2.658-1.539,4.757,0.56s0,3.638,0,3.638S402.722,129.463,400.761,127.429z"/>
			</g>
		</g>
		<g>
			<g>
				<path class="st0" d="M244.42,89.994l1.399-4.477c0,0,2.658-1.539,4.757,0.56s0,3.638,0,3.638S246.381,92.028,244.42,89.994z"/>
			</g>
		</g>
		<g>
			<g>
				<path class="st0" d="M223.914,114.15l1.399-4.477c0,0,2.658-1.539,4.757,0.56s0,3.638,0,3.638S225.875,116.184,223.914,114.15z"/>
			</g>
		</g>
		<g>
			<g>
				<path class="st0" d="M277.977,119.02l1.399-4.477c0,0,2.658-1.539,4.757,0.56s0,3.638,0,3.638S279.938,121.054,277.977,119.02z"/>
			</g>
		</g>
		<g>
			<g>
				<path class="st0" d="M142.52,100.105l1.399-4.477c0,0,2.658-1.539,4.757,0.56s0,3.638,0,3.638S144.481,102.139,142.52,100.105z"/>
			</g>
		</g>
		<g>
			<g>
				<path class="st0" d="M122.013,124.26l1.399-4.477c0,0,2.658-1.539,4.757,0.56c2.099,2.099,0,3.638,0,3.638S123.974,126.294,122.013,124.26z"
					/>
			</g>
		</g>
		<g>
			<g>
				<path class="st0" d="M176.077,129.131l1.399-4.477c0,0,2.658-1.539,4.757,0.56s0,3.638,0,3.638S178.038,131.165,176.077,129.131z"/>
			</g>
		</g>
		<g>
			<g>
				<path class="st0" d="M54.394,107.497l1.399-4.477c0,0,2.658-1.539,4.757,0.56s0,3.638,0,3.638S56.355,109.531,54.394,107.497z"/>
			</g>
		</g>
		<g>
			<g>
				<path class="st0" d="M33.888,131.652l1.399-4.477c0,0,2.658-1.539,4.757,0.56c2.099,2.099,0,3.638,0,3.638S35.849,133.686,33.888,131.652z"
					/>
			</g>
		</g>
		<g>
			<g>
				<path class="st0" d="M87.951,136.523l1.399-4.477c0,0,2.658-1.539,4.757,0.56s0,3.638,0,3.638S89.912,138.557,87.951,136.523z"/>
			</g>
		</g>
		<g>
			<g>
				<path class="st0" d="M20.908,426.803l1.399-4.477c0,0,2.658-1.539,4.757,0.56s0,3.638,0,3.638S22.869,428.837,20.908,426.803z"/>
			</g>
		</g>
		<g>
			<g>
				<path class="st0" d="M0.401,450.958l1.399-4.477c0,0,2.658-1.539,4.757,0.56s0,3.638,0,3.638S2.362,452.992,0.401,450.958z"/>
			</g>
		</g>
		<g>
			<g>
				<path class="st0" d="M54.465,455.829l1.399-4.477c0,0,2.658-1.539,4.757,0.56s0,3.638,0,3.638S56.426,457.863,54.465,455.829z"/>
			</g>
		</g>
		<g>
			<g>
				<path class="st0" d="M141.708,466.418l1.399-4.477c0,0,2.658-1.539,4.757,0.56s0,3.638,0,3.638S143.669,468.453,141.708,466.418z"/>
			</g>
		</g>
		<g>
			<g>
				<path class="st0" d="M121.202,490.574l1.399-4.477c0,0,2.658-1.539,4.757,0.56s0,3.638,0,3.638S123.163,492.608,121.202,490.574z"/>
			</g>
		</g>
		<g>
			<g>
				<path class="st0" d="M175.265,495.445l1.399-4.477c0,0,2.658-1.539,4.757,0.56s0,3.638,0,3.638S177.226,497.479,175.265,495.445z"/>
			</g>
		</g>
		<g>
			<g>
				<path class="st0" d="M279.67,500.958l1.399-4.477c0,0,2.658-1.539,4.757,0.56s0,3.638,0,3.638S281.631,502.992,279.67,500.958z"/>
			</g>
		</g>
		<g>
			<g>
				<path class="st0" d="M259.163,525.114l1.399-4.477c0,0,2.658-1.539,4.757,0.56s0,3.638,0,3.638S261.124,527.148,259.163,525.114z"/>
			</g>
		</g>
		<g>
			<g>
				<path class="st0" d="M313.227,529.984l1.399-4.477c0,0,2.658-1.539,4.757,0.56s0,3.638,0,3.638S315.188,532.018,313.227,529.984z"/>
			</g>
		</g>
		<g>
			<g>
				<path class="st0" d="M539.254,504.41l1.399-4.477c0,0,2.658-1.539,4.757,0.56s0,3.638,0,3.638S541.215,506.444,539.254,504.41z"/>
			</g>
		</g>
		<g>
			<g>
				<path class="st0" d="M518.748,528.565l1.399-4.477c0,0,2.658-1.539,4.757,0.56s0,3.638,0,3.638S520.709,530.599,518.748,528.565z"/>
			</g>
		</g>
		<g>
			<g>
				<path class="st0" d="M572.811,533.436l1.399-4.477c0,0,2.658-1.539,4.757,0.56s0,3.638,0,3.638S574.772,535.47,572.811,533.436z"/>
			</g>
		</g>
		<g>
			<g>
				<path class="st0" d="M754.223,493.495l1.399-4.477c0,0,2.658-1.539,4.757,0.56s0,3.638,0,3.638S756.184,495.529,754.223,493.495z"/>
			</g>
		</g>
		<g>
			<g>
				<path class="st0" d="M733.717,517.651l1.399-4.477c0,0,2.658-1.539,4.757,0.56c2.099,2.099,0,3.638,0,3.638S735.678,519.685,733.717,517.651
					z"/>
			</g>
		</g>
		<g>
			<g>
				<path class="st0" d="M787.78,522.521l1.399-4.477c0,0,2.658-1.539,4.757,0.56s0,3.638,0,3.638S789.741,524.555,787.78,522.521z"/>
			</g>
		</g>
		<g>
			<g>
				<path class="st0" d="M857.707,491.531l1.399-4.477c0,0,2.658-1.539,4.757,0.56s0,3.638,0,3.638S859.668,493.565,857.707,491.531z"/>
			</g>
		</g>
		<g>
			<g>
				<path class="st0" d="M837.201,515.686l1.399-4.477c0,0,2.658-1.539,4.757,0.56c2.099,2.099,0,3.638,0,3.638S839.162,517.72,837.201,515.686z
					"/>
			</g>
		</g>
		<g>
			<g>
				<path class="st0" d="M891.264,520.557l1.399-4.477c0,0,2.658-1.539,4.757,0.56s0,3.638,0,3.638S893.225,522.591,891.264,520.557z"/>
			</g>
		</g>
		<g>
			<g>
				<path class="st0" d="M921.757,494.918l1.399-4.477c0,0,2.658-1.539,4.757,0.56s0,3.638,0,3.638S923.718,496.952,921.757,494.918z"/>
			</g>
		</g>
		<g>
			<g>
				<path class="st0" d="M901.25,519.073l1.399-4.477c0,0,2.658-1.539,4.757,0.56s0,3.638,0,3.638S903.211,521.107,901.25,519.073z"/>
			</g>
		</g>
		<g>
			<g>
				<path class="st0" d="M955.314,523.944l1.399-4.477c0,0,2.658-1.539,4.757,0.56s0,3.638,0,3.638S957.275,525.978,955.314,523.944z"/>
			</g>
		</g>
		<g>
			<g>
				<path class="st0" d="M980.943,483.504l1.399-4.477c0,0,2.658-1.539,4.757,0.56s0,3.638,0,3.638S982.904,485.538,980.943,483.504z"/>
			</g>
		</g>
		<g>
			<g>
				<path class="st0" d="M960.436,507.66l1.399-4.477c0,0,2.658-1.539,4.757,0.56s0,3.638,0,3.638S962.397,509.694,960.436,507.66z"/>
			</g>
		</g>
		<g>
			<g>
				<path class="st0" d="M922.648,443.996l1.399-4.477c0,0,2.658-1.539,4.757,0.56s0,3.638,0,3.638S924.609,446.03,922.648,443.996z"/>
			</g>
		</g>
		<g>
			<g>
				<path class="st0" d="M902.141,468.151l1.399-4.477c0,0,2.658-1.539,4.757,0.56s0,3.638,0,3.638S904.102,470.185,902.141,468.151z"/>
			</g>
		</g>
		<g>
			<g>
				<path class="st0" d="M956.205,473.022l1.399-4.477c0,0,2.658-1.539,4.757,0.56s0,3.638,0,3.638S958.166,475.056,956.205,473.022z"/>
			</g>
		</g>
		<g>
			<g>
				<path class="st0" d="M705.813,425.502l1.399-4.477c0,0,2.658-1.539,4.757,0.56s0,3.638,0,3.638S707.774,427.536,705.813,425.502z"/>
			</g>
		</g>
		<g>
			<g>
				<path class="st0" d="M685.307,449.658l1.399-4.477c0,0,2.658-1.539,4.757,0.56s0,3.638,0,3.638S687.268,451.692,685.307,449.658z"/>
			</g>
		</g>
		<g>
			<g>
				<path class="st0" d="M739.37,454.528l1.399-4.477c0,0,2.658-1.539,4.757,0.56s0,3.638,0,3.638S741.331,456.562,739.37,454.528z"/>
			</g>
		</g>
		<g>
			<g>
				<path class="st0" d="M588.737,451.516l1.399-4.477c0,0,2.658-1.539,4.757,0.56s0,3.638,0,3.638S590.698,453.55,588.737,451.516z"/>
			</g>
		</g>
		<g>
			<g>
				<path class="st0" d="M568.23,475.672l1.399-4.477c0,0,2.658-1.539,4.757,0.56s0,3.638,0,3.638S570.191,477.706,568.23,475.672z"/>
			</g>
		</g>
		<g>
			<g>
				<path class="st0" d="M622.294,480.542l1.399-4.477c0,0,2.658-1.539,4.757,0.56s0,3.638,0,3.638S624.255,482.576,622.294,480.542z"/>
			</g>
		</g>
		<g>
			<g>
				<path class="st0" d="M407.228,483.488l1.399-4.477c0,0,2.658-1.539,4.757,0.56s0,3.638,0,3.638S409.189,485.522,407.228,483.488z"/>
			</g>
		</g>
		<g>
			<g>
				<path class="st0" d="M386.721,507.643l1.399-4.477c0,0,2.658-1.539,4.757,0.56s0,3.638,0,3.638S388.682,509.677,386.721,507.643z"/>
			</g>
		</g>
		<g>
			<g>
				<path class="st0" d="M440.785,512.514l1.399-4.477c0,0,2.658-1.539,4.757,0.56s0,3.638,0,3.638S442.746,514.548,440.785,512.514z"/>
			</g>
		</g>
		<g>
			<g>
				<path class="st0" d="M285.992,474.313l1.399-4.477c0,0,2.658-1.539,4.757,0.56s0,3.638,0,3.638S287.953,476.347,285.992,474.313z"/>
			</g>
		</g>
		<g>
			<g>
				<path class="st0" d="M265.486,498.468l1.399-4.477c0,0,2.658-1.539,4.757,0.56s0,3.638,0,3.638S267.447,500.502,265.486,498.468z"/>
			</g>
		</g>
		<g>
			<g>
				<path class="st0" d="M319.55,503.339l1.399-4.477c0,0,2.658-1.539,4.757,0.56s0,3.638,0,3.638S321.511,505.373,319.55,503.339z"/>
			</g>
		</g>
		<g>
			<g>
				<path class="st0" d="M86.866,476.839l1.399-4.477c0,0,2.658-1.539,4.757,0.56s0,3.638,0,3.638S88.827,478.873,86.866,476.839z"/>
			</g>
		</g>
		<g>
			<g>
				<path class="st0" d="M66.359,500.995l1.399-4.477c0,0,2.658-1.539,4.757,0.56s0,3.638,0,3.638S68.32,503.029,66.359,500.995z"/>
			</g>
		</g>
		<g>
			<g>
				<path class="st0" d="M9.389,516.781l1.399-4.477c0,0,2.658-1.539,4.757,0.56s0,3.638,0,3.638S11.35,518.815,9.389,516.781z"/>
			</g>
		</g>
		<g>
			<g>
				<path class="st0" d="M0.613,496.144l1.399-4.477c0,0,2.658-1.539,4.757,0.56s0,3.638,0,3.638S2.574,498.178,0.613,496.144z"/>
			</g>
		</g>
		<g>
			<g>
				<path class="st0" d="M505.564,448.793l1.399-4.477c0,0,2.658-1.539,4.757,0.56c2.099,2.099,0,3.638,0,3.638S507.525,450.827,505.564,448.793
					z"/>
			</g>
		</g>
		<g>
			<g>
				<path class="st0" d="M485.057,472.948l1.399-4.477c0,0,2.658-1.539,4.757,0.56s0,3.638,0,3.638S487.018,474.982,485.057,472.948z"/>
			</g>
		</g>
		<g>
			<g>
				<path class="st0" d="M539.121,477.819l1.399-4.477c0,0,2.658-1.539,4.757,0.56s0,3.638,0,3.638S541.082,479.853,539.121,477.819z"/>
			</g>
		</g>
		<g>
			<g>
				<path class="st0" d="M834.102,417.063l1.399-4.477c0,0,2.658-1.539,4.757,0.56s0,3.638,0,3.638S836.063,419.097,834.102,417.063z"/>
			</g>
		</g>
		<g>
			<g>
				<path class="st0" d="M867.659,446.089l1.399-4.477c0,0,2.658-1.539,4.757,0.56s0,3.638,0,3.638S869.62,448.123,867.659,446.089z"/>
			</g>
		</g>
		<g>
			<g>
				<path class="st0" d="M975.71,399.467l1.399-4.477c0,0,2.658-1.539,4.757,0.56s0,3.638,0,3.638S977.671,401.501,975.71,399.467z"/>
			</g>
		</g>
		<g>
			<g>
				<path class="st0" d="M955.203,423.622l1.399-4.477c0,0,2.658-1.539,4.757,0.56s0,3.638,0,3.638S957.164,425.656,955.203,423.622z"/>
			</g>
		</g>
		<g>
			<g>
				<path class="st0" d="M106.533,530.415l1.399-4.477c0,0,2.658-1.539,4.757,0.56s0,3.638,0,3.638S108.494,532.449,106.533,530.415z"/>
			</g>
		</g>
		<g>
			<g>
				<path class="st0" d="M361.878,515.939l1.399-4.477c0,0,2.658-1.539,4.757,0.56c2.099,2.099,0,3.638,0,3.638S363.839,517.973,361.878,515.939
					z"/>
			</g>
		</g>
		<g>
			<g>
				<path class="st0" d="M512.775,517.708l1.399-4.477c0,0,2.658-1.539,4.757,0.56s0,3.638,0,3.638S514.736,519.742,512.775,517.708z"/>
			</g>
		</g>
		<g>
			<g>
				<path class="st0" d="M675.094,502.913l1.399-4.477c0,0,2.658-1.539,4.757,0.56s0,3.638,0,3.638S677.055,504.947,675.094,502.913z"/>
			</g>
		</g>
		<g>
			<g>
				<path class="st0" d="M827.295,476.003l1.399-4.477c0,0,2.658-1.539,4.757,0.56s0,3.638,0,3.638S829.256,478.037,827.295,476.003z"/>
			</g>
		</g>
		<g>
			<g>
				<path class="st0" d="M953.866,449.399l1.399-4.477c0,0,2.658-1.539,4.757,0.56s0,3.638,0,3.638S955.827,451.433,953.866,449.399z"/>
			</g>
		</g>
		<g>
			<g>
				<path class="st0" d="M949.365,440.147l1.399-4.477c0,0,2.658-1.539,4.757,0.56s0,3.638,0,3.638S951.326,442.181,949.365,440.147z"/>
			</g>
		</g>
		<g>
			<g>
				<path class="st0" d="M761.558,443.194l1.399-4.477c0,0,2.658-1.539,4.757,0.56s0,3.638,0,3.638S763.519,445.228,761.558,443.194z"/>
			</g>
		</g>
		<g>
			<g>
				<path class="st0" d="M502.934,488.911l1.399-4.477c0,0,2.658-1.539,4.757,0.56s0,3.638,0,3.638S504.895,490.945,502.934,488.911z"/>
			</g>
		</g>
		<g>
			<g>
				<path class="st0" d="M365.666,493.467l1.399-4.477c0,0,2.658-1.539,4.757,0.56s0,3.638,0,3.638S367.627,495.501,365.666,493.467z"/>
			</g>
		</g>
		<g>
			<g>
				<path class="st0" d="M251.645,499.373l1.399-4.477c0,0,2.658-1.539,4.757,0.56s0,3.638,0,3.638S253.605,501.407,251.645,499.373z"/>
			</g>
		</g>
		<g>
			<g>
				<path class="st0" d="M116.528,502.106l1.399-4.477c0,0,2.658-1.539,4.757,0.56s0,3.638,0,3.638S118.489,504.14,116.528,502.106z"/>
			</g>
		</g>
		<g>
			<g>
				<path class="st0" d="M97.607,511.178l1.399-4.477c0,0,2.658-1.539,4.757,0.56s0,3.638,0,3.638S99.568,513.212,97.607,511.178z"/>
			</g>
		</g>
		<g>
			<g>
				<path class="st0" d="M111.472,513.688l1.399-4.477c0,0,2.658-1.539,4.757,0.56s0,3.638,0,3.638S113.433,515.722,111.472,513.688z"/>
			</g>
		</g>
		<g>
			<g>
				<path class="st0" d="M395.314,502.532l1.399-4.477c0,0,2.658-1.539,4.757,0.56s0,3.638,0,3.638S397.275,504.566,395.314,502.532z"/>
			</g>
		</g>
		<g>
			<g>
				<path class="st0" d="M544.911,487.368l1.399-4.477c0,0,2.658-1.539,4.757,0.56s0,3.638,0,3.638S546.872,489.402,544.911,487.368z"/>
			</g>
		</g>
		<g>
			<g>
				<path class="st0" d="M644.495,478.259l1.399-4.477c0,0,2.658-1.539,4.757,0.56s0,3.638,0,3.638S646.456,480.293,644.495,478.259z"/>
			</g>
		</g>
		<g>
			<g>
				<path class="st0" d="M719.661,476.891l1.399-4.477c0,0,2.658-1.539,4.757,0.56s0,3.638,0,3.638S721.622,478.925,719.661,476.891z"/>
			</g>
		</g>
		<g>
			<g>
				<path class="st0" d="M795.316,462.391l1.399-4.477c0,0,2.658-1.539,4.757,0.56s0,3.638,0,3.638S797.277,464.425,795.316,462.391z"/>
			</g>
		</g>
		<g>
			<g>
				<path class="st0" d="M890.979,451.224l1.399-4.477c0,0,2.658-1.539,4.757,0.56s0,3.638,0,3.638S892.94,453.258,890.979,451.224z"/>
			</g>
		</g>
		<g>
			<g>
				<path class="st0" d="M973.008,452.708l1.399-4.477c0,0,2.658-1.539,4.757,0.56s0,3.638,0,3.638S974.969,454.742,973.008,452.708z"/>
			</g>
		</g>
		<g>
			<g>
				<path class="st0" d="M986.956,468.025l1.399-4.477c0,0,2.658-1.539,4.757,0.56s0,3.638,0,3.638S988.917,470.059,986.956,468.025z"/>
			</g>
		</g>
		<g>
			<g>
				<path class="st0" d="M992.456,549.017l1.399-4.477c0,0,2.658-1.539,4.757,0.56s0,3.638,0,3.638S994.417,551.051,992.456,549.017z"/>
			</g>
		</g>
		<g>
			<g>
				<path class="st0" d="M973.355,589.86l1.399-4.477c0,0,2.658-1.539,4.757,0.56s0,3.638,0,3.638S975.316,591.894,973.355,589.86z"/>
			</g>
		</g>
		<g>
			<g>
				<path class="st0" d="M893.015,657.807l1.399-4.477c0,0,2.658-1.539,4.757,0.56s0,3.638,0,3.638S894.976,659.841,893.015,657.807z"/>
			</g>
		</g>
		<g>
			<g>
				<path class="st0" d="M839.634,671.965l1.399-4.477c0,0,2.658-1.539,4.757,0.56s0,3.638,0,3.638S841.595,673.999,839.634,671.965z"/>
			</g>
		</g>
		<g>
			<g>
				<path class="st0" d="M802.203,664.107l1.399-4.477c0,0,2.658-1.539,4.757,0.56s0,3.638,0,3.638S804.164,666.141,802.203,664.107z"/>
			</g>
		</g>
		<g>
			<g>
				<path class="st0" d="M769.3,620.113l1.399-4.477c0,0,2.658-1.539,4.757,0.56s0,3.638,0,3.638S771.261,622.147,769.3,620.113z"/>
			</g>
		</g>
		<g>
			<g>
				<path class="st0" d="M765.456,605.523l1.399-4.477c0,0,2.658-1.539,4.757,0.56s0,3.638,0,3.638S767.417,607.557,765.456,605.523z"/>
			</g>
		</g>
		<g>
			<g>
				<path class="st0" d="M756.082,604.634l1.399-4.477c0,0,2.658-1.539,4.757,0.56s0,3.638,0,3.638S758.043,606.668,756.082,604.634z"/>
			</g>
		</g>
		<g>
			<g>
				<path class="st0" d="M710.898,605.141l1.399-4.477c0,0,2.658-1.539,4.757,0.56s0,3.638,0,3.638S712.859,607.175,710.898,605.141z"/>
			</g>
		</g>
		<g>
			<g>
				<path class="st0" d="M561.171,638.766l1.399-4.477c0,0,2.658-1.539,4.757,0.56s0,3.638,0,3.638S563.132,640.8,561.171,638.766z"/>
			</g>
		</g>
		<g>
			<g>
				<path class="st0" d="M450.11,658.341l1.399-4.477c0,0,2.658-1.539,4.757,0.56s0,3.638,0,3.638S452.071,660.375,450.11,658.341z"/>
			</g>
		</g>
		<g>
			<g>
				<path class="st0" d="M286.683,668.019l1.399-4.477c0,0,2.658-1.539,4.757,0.56s0,3.638,0,3.638S288.644,670.053,286.683,668.019z"/>
			</g>
		</g>
		<g>
			<g>
				<path class="st0" d="M91.717,666.444l1.399-4.477c0,0,2.658-1.539,4.757,0.56s0,3.638,0,3.638S93.678,668.478,91.717,666.444z"/>
			</g>
		</g>
		<g>
			<g>
				<path class="st0" d="M81.037,664.666l1.399-4.477c0,0,2.658-1.539,4.757,0.56s0,3.638,0,3.638S82.998,666.7,81.037,664.666z"/>
			</g>
		</g>
		<g>
			<g>
				<path class="st0" d="M38.842,664.897l1.399-4.477c0,0,2.658-1.539,4.757,0.56s0,3.638,0,3.638S40.803,666.931,38.842,664.897z"/>
			</g>
		</g>
		<g>
			<g>
				<path class="st0" d="M182.963,492.012l1.399-4.477c0,0,2.658-1.539,4.757,0.56s0,3.638,0,3.638S184.924,494.046,182.963,492.012z"/>
			</g>
		</g>
		<g>
			<g>
				<path class="st0" d="M420.617,453.76l1.399-4.477c0,0,2.658-1.539,4.757,0.56s0,3.638,0,3.638S422.578,455.794,420.617,453.76z"/>
			</g>
		</g>
		<g>
			<g>
				<path class="st0" d="M437.15,445.107l1.399-4.477c0,0,2.658-1.539,4.757,0.56s0,3.638,0,3.638S439.111,447.141,437.15,445.107z"/>
			</g>
		</g>
		<g>
			<g>
				<path class="st0" d="M243.279,432.815l1.399-4.477c0,0,2.658-1.539,4.757,0.56s0,3.638,0,3.638S245.24,434.849,243.279,432.815z"/>
			</g>
		</g>
		<g>
			<g>
				<path class="st0" d="M70.502,414.504l1.399-4.477c0,0,2.658-1.539,4.757,0.56s0,3.638,0,3.638S72.463,416.538,70.502,414.504z"/>
			</g>
		</g>
		<g>
			<g>
				<path class="st0" d="M62.304,417.203l1.399-4.477c0,0,2.658-1.539,4.757,0.56s0,3.638,0,3.638S64.265,419.237,62.304,417.203z"/>
			</g>
		</g>
		<g>
			<g>
				<path class="st0" d="M73.332,424.402l1.399-4.477c0,0,2.658-1.539,4.757,0.56s0,3.638,0,3.638S75.293,426.436,73.332,424.402z"/>
			</g>
		</g>
		<g>
			<g>
				<path class="st0" d="M152.076,437.999l1.399-4.477c0,0,2.658-1.539,4.757,0.56s0,3.638,0,3.638S154.037,440.033,152.076,437.999z"/>
			</g>
		</g>
		<g>
			<g>
				<path class="st0" d="M446.772,442.494l1.399-4.477c0,0,2.658-1.539,4.757,0.56s0,3.638,0,3.638S448.733,444.528,446.772,442.494z"/>
			</g>
		</g>
		<g>
			<g>
				<path class="st0" d="M582.452,431.478l1.399-4.477c0,0,2.658-1.539,4.757,0.56s0,3.638,0,3.638S584.413,433.512,582.452,431.478z"/>
			</g>
		</g>
		<g>
			<g>
				<path class="st0" d="M521.14,430.546l1.399-4.477c0,0,2.658-1.539,4.757,0.56s0,3.638,0,3.638S523.101,432.58,521.14,430.546z"/>
			</g>
		</g>
		<g>
			<g>
				<path class="st0" d="M213.028,495.239l1.399-4.477c0,0,2.658-1.539,4.757,0.56s0,3.638,0,3.638S214.989,497.273,213.028,495.239z"/>
			</g>
		</g>
		<g>
			<g>
				<path class="st0" d="M639.566,488.294l1.399-4.477c0,0,2.658-1.539,4.757,0.56s0,3.638,0,3.638S641.527,490.328,639.566,488.294z"/>
			</g>
		</g>
		<g>
			<g>
				<path class="st0" d="M928.904,418.717l1.399-4.477c0,0,2.658-1.539,4.757,0.56s0,3.638,0,3.638S930.865,420.751,928.904,418.717z"/>
			</g>
		</g>
		<g>
			<g>
				<path class="st0" d="M580.793,527.055l1.399-4.477c0,0,2.658-1.539,4.757,0.56s0,3.638,0,3.638S582.754,529.089,580.793,527.055z"/>
			</g>
		</g>
		<g>
			<g>
				<path class="st0" d="M689.664,504.535l1.399-4.477c0,0,2.658-1.539,4.757,0.56s0,3.638,0,3.638S691.625,506.569,689.664,504.535z"/>
			</g>
		</g>
		<g>
			<g>
				<path class="st0" d="M732.578,489.307l1.399-4.477c0,0,2.658-1.539,4.757,0.56s0,3.638,0,3.638S734.539,491.341,732.578,489.307z"/>
			</g>
		</g>
		<g>
			<g>
				<path class="st0" d="M565.339,552.192l1.399-4.477c0,0,2.658-1.539,4.757,0.56s0,3.638,0,3.638S567.3,554.226,565.339,552.192z"/>
			</g>
		</g>
		<g>
			<g>
				<path class="st0" d="M412.3,573.807l1.399-4.477c0,0,2.658-1.539,4.757,0.56s0,3.638,0,3.638S414.261,575.841,412.3,573.807z"/>
			</g>
		</g>
		<g>
			<g>
				<path class="st0" d="M348.985,590.934l1.399-4.477c0,0,2.658-1.539,4.757,0.56s0,3.638,0,3.638S350.946,592.968,348.985,590.934z"/>
			</g>
		</g>
		<g>
			<g>
				<path class="st0" d="M430.944,580.764l1.399-4.477c0,0,2.658-1.539,4.757,0.56s0,3.638,0,3.638S432.905,582.798,430.944,580.764z"/>
			</g>
		</g>
		<g>
			<g>
				<path class="st0" d="M895.316,497.889l1.399-4.477c0,0,2.658-1.539,4.757,0.56s0,3.638,0,3.638S897.277,499.923,895.316,497.889z"/>
			</g>
		</g>
		<g>
			<g>
				<path class="st0" d="M813.541,524.093l1.399-4.477c0,0,2.658-1.539,4.757,0.56s0,3.638,0,3.638S815.502,526.127,813.541,524.093z"/>
			</g>
		</g>
		<g>
			<g>
				<path class="st0" d="M483.061,620.081l1.399-4.477c0,0,2.658-1.539,4.757,0.56s0,3.638,0,3.638S485.022,622.115,483.061,620.081z"/>
			</g>
		</g>
		<g>
			<g>
				<path class="st0" d="M763.039,565.838l1.399-4.477c0,0,2.658-1.539,4.757,0.56s0,3.638,0,3.638S765,567.872,763.039,565.838z"/>
			</g>
		</g>
		<g>
			<g>
				<path class="st0" d="M316.049,665.436l1.399-4.477c0,0,2.658-1.539,4.757,0.56s0,3.638,0,3.638S318.01,667.47,316.049,665.436z"/>
			</g>
		</g>
		<g>
			<g>
				<path class="st0" d="M246.083,696.623l1.399-4.477c0,0,2.658-1.539,4.757,0.56s0,3.638,0,3.638S248.044,698.657,246.083,696.623z"/>
			</g>
		</g>
		<g>
			<g>
				<path class="st0" d="M545.428,640.755l1.399-4.477c0,0,2.658-1.539,4.757,0.56s0,3.638,0,3.638S547.389,642.789,545.428,640.755z"/>
			</g>
		</g>
		<g>
			<g>
				<path class="st0" d="M673.504,615.012l1.399-4.477c0,0,2.658-1.539,4.757,0.56s0,3.638,0,3.638S675.465,617.046,673.504,615.012z"/>
			</g>
		</g>
		<g>
			<g>
				<path class="st0" d="M77.467,745.618l1.399-4.477c0,0,2.658-1.539,4.757,0.56s0,3.638,0,3.638S79.428,747.652,77.467,745.618z"/>
			</g>
		</g>
		<g>
			<g>
				<path class="st0" d="M828.403,567.411l1.399-4.477c0,0,2.658-1.539,4.757,0.56s0,3.638,0,3.638S830.364,569.445,828.403,567.411z"/>
			</g>
		</g>
		<g>
			<g>
				<path class="st0" d="M200.613,737.108l1.399-4.477c0,0,2.658-1.539,4.757,0.56s0,3.638,0,3.638S202.574,739.142,200.613,737.108z"/>
			</g>
		</g>
		<g>
			<g>
				<path class="st0" d="M690.195,632.776l1.399-4.477c0,0,2.658-1.539,4.757,0.56s0,3.638,0,3.638S692.156,634.81,690.195,632.776z"/>
			</g>
		</g>
		<g>
			<g>
				<path class="st0" d="M387.993,723.71l1.399-4.477c0,0,2.658-1.539,4.757,0.56s0,3.638,0,3.638S389.954,725.744,387.993,723.71z"/>
			</g>
		</g>
		<g>
			<g>
				<path class="st0" d="M652.327,668.738l1.399-4.477c0,0,2.658-1.539,4.757,0.56s0,3.638,0,3.638S654.288,670.772,652.327,668.738z"/>
			</g>
		</g>
		<g>
			<g>
				<path class="st0" d="M566.977,713.136l1.399-4.477c0,0,2.658-1.539,4.757,0.56s0,3.638,0,3.638S568.938,715.17,566.977,713.136z"/>
			</g>
		</g>
		<g>
			<g>
				<path class="st0" d="M770.833,703.157l1.399-4.477c0,0,2.658-1.539,4.757,0.56s0,3.638,0,3.638S772.794,705.191,770.833,703.157z"/>
			</g>
		</g>
		<g>
			<g>
				<path class="st0" d="M830.175,706.144l1.399-4.477c0,0,2.658-1.539,4.757,0.56s0,3.638,0,3.638S832.136,708.178,830.175,706.144z"/>
			</g>
		</g>
		<g>
			<g>
				<path class="st0" d="M828.405,692.222l1.399-4.477c0,0,2.658-1.539,4.757,0.56s0,3.638,0,3.638S830.366,694.256,828.405,692.222z"/>
			</g>
		</g>
		<g>
			<g>
				<path class="st0" d="M489.659,707.311l1.399-4.477c0,0,2.658-1.539,4.757,0.56s0,3.638,0,3.638S491.62,709.345,489.659,707.311z"/>
			</g>
		</g>
		<g>
			<g>
				<path class="st0" d="M675.11,633.845l1.399-4.477c0,0,2.658-1.539,4.757,0.56s0,3.638,0,3.638S677.071,635.879,675.11,633.845z"/>
			</g>
		</g>
		<g>
			<g>
				<path class="st0" d="M127.388,720.321l1.399-4.477c0,0,2.658-1.539,4.757,0.56s0,3.638,0,3.638S129.349,722.355,127.388,720.321z"/>
			</g>
		</g>
		<g>
			<g>
				<path class="st0" d="M232.311,677.53l1.399-4.477c0,0,2.658-1.539,4.757,0.56s0,3.638,0,3.638S234.272,679.564,232.311,677.53z"/>
			</g>
		</g>
		<g>
			<g>
				<path class="st0" d="M37.827,701.869l1.399-4.477c0,0,2.658-1.539,4.757,0.56s0,3.638,0,3.638S39.788,703.903,37.827,701.869z"/>
			</g>
		</g>
		<g>
			<g>
				<path class="st0" d="M66.343,682.483l1.399-4.477c0,0,2.658-1.539,4.757,0.56s0,3.638,0,3.638S68.304,684.517,66.343,682.483z"/>
			</g>
		</g>
		<g>
			<g>
				<path class="st0" d="M202.222,654.742l1.399-4.477c0,0,2.658-1.539,4.757,0.56s0,3.638,0,3.638S204.183,656.776,202.222,654.742z"/>
			</g>
		</g>
		<g>
			<g>
				<path class="st0" d="M11.489,655.644l1.399-4.477c0,0,2.658-1.539,4.757,0.56s0,3.638,0,3.638S13.45,657.678,11.489,655.644z"/>
			</g>
		</g>
		<g>
			<g>
				<path class="st0" d="M234.945,596.261l1.399-4.477c0,0,2.658-1.539,4.757,0.56s0,3.638,0,3.638S236.906,598.295,234.945,596.261z"/>
			</g>
		</g>
		<g>
			<g>
				<path class="st0" d="M66.839,617.935l1.399-4.477c0,0,2.658-1.539,4.757,0.56s0,3.638,0,3.638S68.8,619.969,66.839,617.935z"/>
			</g>
		</g>
		<g>
			<g>
				<path class="st0" d="M183.741,596.622l1.399-4.477c0,0,2.658-1.539,4.757,0.56s0,3.638,0,3.638S185.702,598.656,183.741,596.622z"/>
			</g>
		</g>
		<g>
			<g>
				<path class="st0" d="M24.737,600.083l1.399-4.477c0,0,2.658-1.539,4.757,0.56s0,3.638,0,3.638S26.698,602.117,24.737,600.083z"/>
			</g>
		</g>
		<g>
			<g>
				<path class="st0" d="M58.2,572.658l1.399-4.477c0,0,2.658-1.539,4.757,0.56c2.099,2.099,0,3.638,0,3.638S60.161,574.692,58.2,572.658z"/>
			</g>
		</g>
		<g>
			<g>
				<path class="st0" d="M162.907,534.815l1.399-4.477c0,0,2.658-1.539,4.757,0.56s0,3.638,0,3.638S164.868,536.849,162.907,534.815z"/>
			</g>
		</g>
		<g>
			<g>
				<path class="st0" d="M148.23,507.779l1.399-4.477c0,0,2.658-1.539,4.757,0.56s0,3.638,0,3.638S150.191,509.813,148.23,507.779z"/>
			</g>
		</g>
		<g>
			<g>
				<path class="st0" d="M223.632,432.122l1.399-4.477c0,0,2.658-1.539,4.757,0.56s0,3.638,0,3.638S225.593,434.156,223.632,432.122z"/>
			</g>
		</g>
		<g>
			<g>
				<path class="st0" d="M45.084,511.477L46.483,507c0,0,2.658-1.539,4.757,0.56s0,3.638,0,3.638S47.045,513.511,45.084,511.477z"/>
			</g>
		</g>
		<g>
			<g>
				<path class="st0" d="M319.856,471.595l1.399-4.477c0,0,2.658-1.539,4.757,0.56s0,3.638,0,3.638S321.817,473.629,319.856,471.595z"/>
			</g>
		</g>
		<g>
			<g>
				<path class="st0" d="M470.189,485.021l1.399-4.477c0,0,2.658-1.539,4.757,0.56s0,3.638,0,3.638S472.15,487.055,470.189,485.021z"/>
			</g>
		</g>
		<g>
			<g>
				<path class="st0" d="M165.207,582.385l1.399-4.477c0,0,2.658-1.539,4.757,0.56s0,3.638,0,3.638S167.168,584.419,165.207,582.385z"/>
			</g>
		</g>
		<g>
			<g>
				<path class="st0" d="M673.76,473.263l1.399-4.477c0,0,2.658-1.539,4.757,0.56s0,3.638,0,3.638S675.721,475.297,673.76,473.263z"/>
			</g>
		</g>
		<g>
			<g>
				<path class="st0" d="M168.484,639.509l1.399-4.477c0,0,2.658-1.539,4.757,0.56s0,3.638,0,3.638S170.445,641.543,168.484,639.509z"/>
			</g>
		</g>
		<g>
			<g>
				<path class="st0" d="M795.714,508.238l1.399-4.477c0,0,2.658-1.539,4.757,0.56s0,3.638,0,3.638S797.675,510.272,795.714,508.238z"/>
			</g>
		</g>
		<g>
			<g>
				<path class="st0" d="M272.097,642.432l1.399-4.477c0,0,2.658-1.539,4.757,0.56s0,3.638,0,3.638S274.058,644.466,272.097,642.432z"/>
			</g>
		</g>
		<g>
			<g>
				<path class="st0" d="M709.052,467.2l1.399-4.477c0,0,2.658-1.539,4.757,0.56s0,3.638,0,3.638S711.013,469.234,709.052,467.2z"/>
			</g>
		</g>
		<g>
			<g>
				<path class="st0" d="M358.087,542.068l1.399-4.477c0,0,2.658-1.539,4.757,0.56s0,3.638,0,3.638S360.048,544.102,358.087,542.068z"/>
			</g>
		</g>
		<g>
			<g>
				<path class="st0" d="M357.309,530.525l1.399-4.477c0,0,2.658-1.539,4.757,0.56s0,3.638,0,3.638S359.27,532.559,357.309,530.525z"/>
			</g>
		</g>
		<g>
			<g>
				<path class="st0" d="M347.545,525.301l1.399-4.477c0,0,2.658-1.539,4.757,0.56s0,3.638,0,3.638S349.506,527.335,347.545,525.301z"/>
			</g>
		</g>
		<g>
			<g>
				<path class="st0" d="M347.841,505.461l1.399-4.477c0,0,2.658-1.539,4.757,0.56s0,3.638,0,3.638S349.802,507.495,347.841,505.461z"/>
			</g>
		</g>
		<g>
			<g>
				<path class="st0" d="M360.566,482.314l1.399-4.477c0,0,2.658-1.539,4.757,0.56s0,3.638,0,3.638S362.527,484.348,360.566,482.314z"/>
			</g>
		</g>
		<g>
			<g>
				<path class="st0" d="M403.019,450.619l1.399-4.477c0,0,2.658-1.539,4.757,0.56s0,3.638,0,3.638S404.98,452.653,403.019,450.619z"/>
			</g>
		</g>
		<g>
			<g>
				<path class="st0" d="M534.564,420.518l1.399-4.477c0,0,2.658-1.539,4.757,0.56s0,3.638,0,3.638S536.525,422.552,534.564,420.518z"/>
			</g>
		</g>
		<g>
			<g>
				<path class="st0" d="M665.599,414.773l1.399-4.477c0,0,2.658-1.539,4.757,0.56s0,3.638,0,3.638S667.56,416.807,665.599,414.773z"/>
			</g>
		</g>
		<g>
			<g>
				<path class="st0" d="M942.261,383.384l1.399-4.477c0,0,2.658-1.539,4.757,0.56s0,3.638,0,3.638S944.222,385.418,942.261,383.384z"/>
			</g>
		</g>
		<g>
			<g>
				<path class="st0" d="M859.912,391.617l1.399-4.477c0,0,2.658-1.539,4.757,0.56s0,3.638,0,3.638S861.873,393.651,859.912,391.617z"/>
			</g>
		</g>
		<g>
			<g>
				<path class="st0" d="M350.71,457.164l1.399-4.477c0,0,2.658-1.539,4.757,0.56s0,3.638,0,3.638S352.671,459.198,350.71,457.164z"/>
			</g>
		</g>
		<g>
			<g>
				<path class="st0" d="M519.038,401.311l1.399-4.477c0,0,2.658-1.539,4.757,0.56s0,3.638,0,3.638S520.999,403.345,519.038,401.311z"/>
			</g>
		</g>
		<g>
			<g>
				<path class="st0" d="M621.546,404.484l1.399-4.477c0,0,2.658-1.539,4.757,0.56s0,3.638,0,3.638S623.507,406.518,621.546,404.484z"/>
			</g>
		</g>
		<g>
			<g>
				<path class="st0" d="M480.66,466.173l1.399-4.477c0,0,2.658-1.539,4.757,0.56s0,3.638,0,3.638S482.621,468.207,480.66,466.173z"/>
			</g>
		</g>
		<g>
			<g>
				<path class="st0" d="M750.852,441.943l1.399-4.477c0,0,2.658-1.539,4.757,0.56s0,3.638,0,3.638S752.813,443.977,750.852,441.943z"/>
			</g>
		</g>
		<g>
			<g>
				<path class="st0" d="M868.167,437.607l1.399-4.477c0,0,2.658-1.539,4.757,0.56s0,3.638,0,3.638S870.128,439.641,868.167,437.607z"/>
			</g>
		</g>
		<g>
			<g>
				<path class="st0" d="M813.024,446.259l1.399-4.477c0,0,2.658-1.539,4.757,0.56s0,3.638,0,3.638S814.985,448.293,813.024,446.259z"/>
			</g>
		</g>
		<g>
			<g>
				<path class="st0" d="M994.632,399.139l1.399-4.477c0,0,2.658-1.539,4.757,0.56s0,3.638,0,3.638S996.593,401.173,994.632,399.139z"/>
			</g>
		</g>
		<g>
			<g>
				<path class="st0" d="M747.912,529l1.399-4.477c0,0,2.658-1.539,4.757,0.56s0,3.638,0,3.638S749.873,531.034,747.912,529z"/>
			</g>
		</g>
		<g>
			<g>
				<path class="st0" d="M966.787,467.727l1.399-4.477c0,0,2.658-1.539,4.757,0.56s0,3.638,0,3.638S968.748,469.761,966.787,467.727z"/>
			</g>
		</g>
		<g>
			<g>
				<path class="st0" d="M627.534,611.744l1.399-4.477c0,0,2.658-1.539,4.757,0.56s0,3.638,0,3.638S629.495,613.778,627.534,611.744z"/>
			</g>
		</g>
		<g>
			<g>
				<path class="st0" d="M890.405,567.839l1.399-4.477c0,0,2.658-1.539,4.757,0.56s0,3.638,0,3.638S892.366,569.873,890.405,567.839z"/>
			</g>
		</g>
		<g>
			<g>
				<path class="st0" d="M705.654,665.42l1.399-4.477c0,0,2.658-1.539,4.757,0.56s0,3.638,0,3.638S707.615,667.454,705.654,665.42z"/>
			</g>
		</g>
		<g>
			<g>
				<path class="st0" d="M850.304,655.378l1.399-4.477c0,0,2.658-1.539,4.757,0.56s0,3.638,0,3.638S852.265,657.412,850.304,655.378z"/>
			</g>
		</g>
		<g>
			<g>
				<path class="st0" d="M691.46,799.163l1.399-4.477c0,0,2.658-1.539,4.757,0.56s0,3.638,0,3.638S693.421,801.197,691.46,799.163z"/>
			</g>
		</g>
		<g>
			<g>
				<path class="st0" d="M78.664,795.688l1.399-4.477c0,0,2.658-1.539,4.757,0.56s0,3.638,0,3.638S80.625,797.722,78.664,795.688z"/>
			</g>
		</g>
		<g>
			<g>
				<path class="st0" d="M329.223,550.483l1.399-4.477c0,0,2.658-1.539,4.757,0.56s0,3.638,0,3.638S331.184,552.517,329.223,550.483z"/>
			</g>
		</g>
		<g>
			<g>
				<path class="st0" d="M7.055,559.877l1.399-4.477c0,0,2.658-1.539,4.757,0.56s0,3.638,0,3.638S9.016,561.911,7.055,559.877z"/>
			</g>
		</g>
		<g>
			<g>
				<path class="st0" d="M232.589,425.085l1.399-4.477c0,0,2.658-1.539,4.757,0.56s0,3.638,0,3.638S234.55,427.119,232.589,425.085z"/>
			</g>
		</g>
		<g>
			<g>
				<path class="st0" d="M469.147,320.099l1.399-4.477c0,0,2.658-1.539,4.757,0.56s0,3.638,0,3.638S471.108,322.133,469.147,320.099z"/>
			</g>
		</g>
		<g>
			<g>
				<path class="st0" d="M112.034,383.715l1.399-4.477c0,0,2.658-1.539,4.757,0.56s0,3.638,0,3.638S113.995,385.749,112.034,383.715z"/>
			</g>
		</g>
		<g>
			<g>
				<path class="st0" d="M322.011,334.01l1.399-4.477c0,0,2.658-1.539,4.757,0.56s0,3.638,0,3.638S323.972,336.044,322.011,334.01z"/>
			</g>
		</g>
		<g>
			<g>
				<path class="st0" d="M207.782,377.207l1.399-4.477c0,0,2.658-1.539,4.757,0.56s0,3.638,0,3.638S209.743,379.241,207.782,377.207z"/>
			</g>
		</g>
		<g>
			<g>
				<path class="st0" d="M282.8,411.8l1.399-4.477c0,0,2.658-1.539,4.757,0.56s0,3.638,0,3.638S284.761,413.834,282.8,411.8z"/>
			</g>
		</g>
		<g>
			<g>
				<path class="st0" d="M573.2,464.742l1.399-4.477c0,0,2.658-1.539,4.757,0.56s0,3.638,0,3.638S575.161,466.776,573.2,464.742z"/>
			</g>
		</g>
		<g>
			<g>
				<path class="st0" d="M735.43,433.901l1.399-4.477c0,0,2.658-1.539,4.757,0.56s0,3.638,0,3.638S737.391,435.935,735.43,433.901z"/>
			</g>
		</g>
		<g>
			<g>
				<path class="st0" d="M555.205,76.182l1.399-4.477c0,0,2.658-1.539,4.757,0.56s0,3.638,0,3.638S557.166,78.216,555.205,76.182z"/>
			</g>
		</g>
		<g>
			<g>
				<path class="st0" d="M171.758,40.223l1.399-4.477c0,0,2.658-1.539,4.757,0.56s0,3.638,0,3.638S173.719,42.257,171.758,40.223z"/>
			</g>
		</g>
		<g>
			<g>
				<path class="st0" d="M165.137,91.834l1.399-4.477c0,0,2.658-1.539,4.757,0.56s0,3.638,0,3.638S167.098,93.868,165.137,91.834z"/>
			</g>
		</g>
		<g>
			<g>
				<path class="st0" d="M361.842,87.989l1.399-4.477c0,0,2.658-1.539,4.757,0.56s0,3.638,0,3.638S363.803,90.023,361.842,87.989z"/>
			</g>
		</g>
		<g>
			<g>
				<path class="st0" d="M626.503,113.236l1.399-4.477c0,0,2.658-1.539,4.757,0.56s0,3.638,0,3.638S628.464,115.27,626.503,113.236z"/>
			</g>
		</g>
		<g>
			<g>
				<path class="st0" d="M591.513,102.31l1.399-4.477c0,0,2.658-1.539,4.757,0.56s0,3.638,0,3.638S593.474,104.344,591.513,102.31z"/>
			</g>
		</g>
		<g>
			<g>
				<path class="st0" d="M274.72,111.776l1.399-4.477c0,0,2.658-1.539,4.757,0.56s0,3.638,0,3.638S276.681,113.81,274.72,111.776z"/>
			</g>
		</g>
		<g>
			<g>
				<path class="st0" d="M463.254,163.394l1.399-4.477c0,0,2.658-1.539,4.757,0.56s0,3.638,0,3.638S465.215,165.428,463.254,163.394z"/>
			</g>
		</g>
		<g>
			<g>
				<path class="st0" d="M663.977,92.513l1.399-4.477c0,0,2.658-1.539,4.757,0.56s0,3.638,0,3.638S665.938,94.547,663.977,92.513z"/>
			</g>
		</g>
	</g>
	<g>
		<g>
			<path class="st0" d="M-5.028,166.009l1.399-4.477c0,0,2.658-1.539,4.757,0.56s0,3.638,0,3.638S-3.066,168.043-5.028,166.009z"/>
		</g>
	</g>
	<g>
		<g>
			<path class="st0" d="M-5.368,399.139l1.399-4.477c0,0,2.658-1.539,4.757,0.56s0,3.638,0,3.638S-3.407,401.173-5.368,399.139z"/>
		</g>
	</g>
	<g>
		<g>
			<path class="st0" d="M997.207,48.021l1.399-4.477c0,0,2.658-1.539,4.757,0.56s0,3.638,0,3.638S999.168,50.055,997.207,48.021z"/>
		</g>
	</g>
	<g>
		<g>
			<path class="st0" d="M994.952,69.829l1.399-4.477c0,0,2.658-1.539,4.757,0.56c2.099,2.099,0,3.638,0,3.638S996.913,71.863,994.952,69.829z"/>
		</g>
	</g>
	<g>
		<g>
			<path class="st0" d="M996.719,245.212l1.399-4.477c0,0,2.658-1.539,4.757,0.56s0,3.638,0,3.638S998.68,247.246,996.719,245.212z"/>
		</g>
	</g>
	<g>
		<g>
			<path class="st0" d="M995.923,358.239l1.399-4.477c0,0,2.658-1.539,4.757,0.56s0,3.638,0,3.638S997.884,360.273,995.923,358.239z"/>
		</g>
	</g>
</g>
</svg>