<svg version="1.1" id="Layer_1" xmlns="http://www.w3.org/2000/svg" xmlns:xlink="http://www.w3.org/1999/xlink" x="0px" y="0px" width="100%" height="100%" viewBox="0 0 2105.743 518.399" style="enable-background:new 0 0 2105.743 518.399;" xml:space="preserve" preserveAspectRatio="none">
<style type="text/css">
	.st0{fill:#FFFFFF;stroke:#000000;stroke-width:4px;stroke-miterlimit:10;}
</style>
<g>
	<path class="st0" d="M6.962,502.8v-97.3c19.83-38.729,37.33-75.13,52.5-109.2c12.83-28.459,21.755-52.15,26.775-71.05
		c5.015-18.9,7.524-38.38,7.524-58.45c0-30.8-4.55-46.2-13.649-46.2c-5.136,0-8.985,4.44-11.551,13.3
		c-2.57,8.871-4.435,24.271-5.6,46.2l-59.85-12.6c2.329-51.33,10.614-91.109,24.85-119.351C42.192,19.92,60.977,5.8,84.312,5.8
		c22.4,0,40.13,13.42,53.2,40.25c13.065,26.841,19.601,63.12,19.601,108.85c0,28.471-2.511,54.95-7.525,79.45
		c-5.021,24.5-13.475,51.45-25.375,80.851c-10.971,27.07-21.585,50.87-31.85,71.399h69.649l-5.25,116.2H6.962z"/>
	<path class="st0" d="M238.312,304.7V206h14.7c5.601,0,9.915-3.851,12.95-11.55c3.029-7.7,4.55-18.31,4.55-31.851
		c0-13.529-1.285-24.149-3.85-31.85c-2.57-7.7-6.186-11.55-10.851-11.55c-5.37,0-9.449,4.55-12.25,13.649
		c-2.8,9.101-4.67,23.221-5.6,42.351l-57.05-11.9c1.63-49.93,9.329-88.659,23.1-116.2c13.765-27.529,32.43-41.3,56-41.3
		c14,0,26.479,5.6,37.45,16.8c10.965,11.2,19.6,27.07,25.9,47.601c6.3,20.54,9.449,44.1,9.449,70.699
		c0,22.871-2.625,43.4-7.875,61.601s-12.774,32.67-22.574,43.399c11.199,9.341,19.949,24.391,26.25,45.15
		c6.3,20.771,9.449,44.92,9.449,72.45c0,28.94-3.27,54.841-9.8,77.7c-6.535,22.87-15.87,40.949-28,54.25
		c-12.135,13.3-26.135,19.949-42,19.949c-53.2,0-79.8-59.959-79.8-179.899h58.45c0,44.341,6.529,66.5,19.6,66.5
		c11.2,0,16.8-16.33,16.8-49c0-15.4-1.81-27.3-5.425-35.7c-3.62-8.4-8.695-12.6-15.225-12.6H238.312z"/>
	<path class="st0" d="M477.712,502.8l-31.15-168h-17.149v168h-64.4V3h86.8c28,0,49.755,14.24,65.275,42.7
		c15.515,28.47,23.275,68.37,23.275,119.699c0,27.07-2.921,51.921-8.75,74.551c-5.836,22.641-14.121,41.649-24.851,57.05
		l42.351,205.8H477.712z M447.962,226.3c9.1,0,16.04-5.01,20.825-15.05c4.779-10.03,7.175-24.38,7.175-43.05c0-18.2-2.335-32.2-7-42
		c-4.67-9.801-11.436-14.7-20.3-14.7h-19.25v114.8H447.962z"/>
	<path class="st0" d="M573.257,502.8V3h80.5c36.165,0,63.525,20.891,82.075,62.649c18.55,41.771,27.825,103.021,27.825,183.75
		c0,81.671-9.335,144.32-28,187.95c-18.671,43.641-45.62,65.45-80.851,65.45H573.257z M659.358,378.899
		c11.43,0,19.89-10.5,25.375-31.5c5.479-21,8.225-52.959,8.225-95.899c0-42.46-2.8-73.851-8.4-94.15
		c-5.6-20.3-14.234-30.45-25.899-30.45h-18.2v252H659.358z"/>
	<path class="st0" d="M940.401,159.1c-0.936-14.93-2.625-25.899-5.075-32.899s-6.011-10.5-10.675-10.5
		c-6.07,0-10.621,7.12-13.65,21.35c-3.035,14.24-5.135,38.62-6.3,73.15l-0.351,11.199c4.665-8.859,10.205-15.979,16.625-21.35
		c6.415-5.359,12.775-8.05,19.075-8.05c18.9,0,33.775,13.649,44.625,40.95c10.851,27.3,16.275,64.52,16.275,111.649
		c0,53.671-6.886,95.55-20.65,125.65c-13.771,30.1-32.785,45.149-57.05,45.149c-27.535,0-47.66-18.899-60.375-56.699
		c-12.721-37.801-19.075-97.76-19.075-179.9c0-182,28-273,84-273c41.3,0,64.63,46.9,70,140.7L940.401,159.1z M923.25,406.899
		c11.665,0,17.5-20.059,17.5-60.199c0-36.859-5.6-55.301-16.8-55.301c-11.9,0-17.851,18.441-17.851,55.301
		C906.1,386.841,911.815,406.899,923.25,406.899z"/>
	<path class="st0" d="M1016,355.8V227h102.2v128.8H1016z"/>
	<path class="st0" d="M1162.294,502.8c3.73-58.33,10.676-119.7,20.825-184.1c10.15-64.4,22.575-125.53,37.275-183.4h-83.3V19.1
		h150.5v105c-16.101,63.94-28.875,126.351-38.325,187.25c-9.45,60.9-16.396,124.721-20.825,191.45H1162.294z"/>
	<path class="st0" d="M1368.794,304.7V206h14.7c5.601,0,9.915-3.851,12.95-11.55c3.029-7.7,4.55-18.31,4.55-31.851
		c0-13.529-1.285-24.149-3.85-31.85c-2.57-7.7-6.186-11.55-10.851-11.55c-5.37,0-9.449,4.55-12.25,13.649
		c-2.8,9.101-4.67,23.221-5.6,42.351l-57.05-11.9c1.63-49.93,9.329-88.659,23.1-116.2c13.765-27.529,32.43-41.3,56-41.3
		c14,0,26.479,5.6,37.45,16.8c10.965,11.2,19.6,27.07,25.9,47.601c6.3,20.54,9.449,44.1,9.449,70.699
		c0,22.871-2.625,43.4-7.875,61.601s-12.774,32.67-22.574,43.399c11.199,9.341,19.949,24.391,26.25,45.15
		c6.3,20.771,9.449,44.92,9.449,72.45c0,28.94-3.27,54.841-9.8,77.7c-6.535,22.87-15.87,40.949-28,54.25
		c-12.135,13.3-26.135,19.949-42,19.949c-53.2,0-79.8-59.959-79.8-179.899h58.45c0,44.341,6.529,66.5,19.6,66.5
		c11.2,0,16.8-16.33,16.8-49c0-15.4-1.81-27.3-5.425-35.7c-3.62-8.4-8.695-12.6-15.225-12.6H1368.794z"/>
	<path class="st0" d="M1561.994,515.399c-27.771,0-48.07-20.18-60.899-60.55c-12.836-40.359-19.25-104.409-19.25-192.149
		c0-89.13,6.475-154.23,19.425-195.301c12.95-41.059,33.654-61.6,62.125-61.6c27.765,0,48.064,20.19,60.899,60.55
		c12.83,40.37,19.25,104.421,19.25,192.15c0,89.141-6.475,154.24-19.425,195.3C1611.169,494.87,1590.459,515.399,1561.994,515.399z
		 M1562.694,397.8c4.665,0,8.104-4.31,10.325-12.95c2.215-8.63,3.79-22.63,4.725-42c0.93-19.359,1.4-46.779,1.4-82.25
		c0-38.729-0.525-67.659-1.575-86.8c-1.05-19.13-2.745-32.31-5.075-39.55c-2.335-7.229-5.6-10.851-9.8-10.851
		c-4.67,0-8.11,4.32-10.325,12.95c-2.22,8.641-3.795,22.641-4.725,42c-0.936,19.37-1.4,46.791-1.4,82.25
		c0,38.741,0.525,67.671,1.575,86.8c1.05,19.141,2.74,32.32,5.075,39.551C1555.224,394.19,1558.494,397.8,1562.694,397.8z"/>
	<path class="st0" d="M1670.494,502.8V3h79.8c28,0,49.99,15.29,65.976,45.85c15.979,30.57,23.975,72.45,23.975,125.65
		c0,34.07-3.62,64.05-10.85,89.95c-7.235,25.899-17.62,46.199-31.15,60.899c-13.535,14.7-29.399,22.05-47.6,22.05h-14.351v155.4
		H1670.494z M1750.294,232.6c19.13,0,28.7-19.13,28.7-57.399c0-38.26-9.57-57.4-28.7-57.4h-14v114.8H1750.294z"/>
	<path class="st0" d="M2040.443,502.8v-281.4l-35,281.4h-42.35l-34.65-281.4v281.4h-60.55V3h80.5l37.101,316.399L2022.243,3h80.5
		v499.8H2040.443z"/>
</g>
</svg>