<svg version="1.1" id="Layer_1" xmlns="http://www.w3.org/2000/svg" xmlns:xlink="http://www.w3.org/1999/xlink" x="0px" y="0px" width="100%" height="100%" viewBox="0 0 1005.857 769" style="enable-background:new 0 0 1005.857 769;" xml:space="preserve" preserveAspectRatio="none">
<style type="text/css">
	.st0{fill:none;stroke:#000000;stroke-miterlimit:10;}
</style>
<g>
	<path class="st0" d="M692.618,28.947h-16.905V0.5H489.785v28.447h33.805v340.989h50.71V228.054h-16.905v-28.442h67.615v28.442h16.9
		v85.335h16.905v56.547h67.61v-28.1h-16.9V256.5h-16.905v-28.447h-16.905v-56.888h16.905V28.947z M658.814,142.723h-16.905v28.442
		h-67.61V28.947h67.61v56.888h16.905V142.723z"/>
	<polygon class="st0" points="692.618,0.5 692.618,142.723 709.523,142.723 709.523,85.835 726.423,85.835 726.423,28.947 
		777.133,28.947 777.133,369.935 844.743,369.935 844.743,28.947 895.453,28.947 895.453,85.835 912.357,85.835 912.357,142.723 
		929.257,142.723 929.257,0.5 	"/>
	<path class="st0" d="M988.456,711.27v-85.335h-16.905v-28.447h-16.905v-56.888h16.905v-28.442h16.905v-85.335h-16.905v-28.442
		h-16.905v-28.447H481.366v-28.1h16.905v-56.893h25.318V85.835h-25.318V57.389h-16.905V28.947h-33.806V0.5H346.144v28.447h-33.806
		v28.442h-16.901v56.888h-16.905v113.777h-24.481v-28.442h-16.905v-28.447H186.44v-28.442h-33.81v-28.447h-16.901v-85.33h67.611
		v28.442h16.905v56.888h16.901v28.447h16.905V0.5H118.824v28.447h-16.901v28.442H85.018v113.777h16.905v28.447h16.901v28.442h50.711
		V256.5h33.806v28.442h16.905v56.893H203.34v28.442H152.63v-28.442h-33.806v-56.893h-16.901V256.5H85.018v113.777h50.711v28.447
		h101.417v-28.447h16.905v-28.442h27.338v-28.447h14.048v28.447h16.901v28.1h0.005v0.267v0.075h26.221v27.811v114.071h16.9h20.791
		v-53.83h37.173v-59.605l34.138-0.341v341.33H430.66v28.447h118.317v-28.447h-33.801V398.723v-0.341h43.126h7.58v56.888h16.905
		v56.889h16.9v227.553h-33.806v28.447h321.156v-28.447h-33.806V597.489h-16.901v-28.442h67.611v28.442h16.901v85.335h16.905v56.888
		h16.896v28.447h50.711V711.27H988.456z M464.466,284.942H447.56v56.893h-16.905v28.442h-67.611v-28.442h-16.9V256.5h-16.905
		V114.277h16.905V57.389h16.9V28.947h67.611v28.442h16.905v85.335h16.905V284.942z M802.522,739.712h-16.9V625.935h-16.905v85.335
		h-16.905v28.442h-84.507V569.047h33.806v28.442h16.901v56.889h16.905V483.712h-16.905v56.888h-50.706V398.382h84.507v56.889h16.905
		v56.888h16.905V398.382h16.9V739.712z M937.75,512.159h-16.905v28.442h-67.611V398.382h67.611v56.889h16.905V512.159z"/>
	<path class="st0" d="M406.173,740.053v-28.442h-16.905v-56.893h-16.9v-85.33h-16.905V512.5h-16.9V370.277h-50.71v28.447h-16.909
		v85.325v0.005h-16.9v56.881h-16.9l0,56.896h-33.81v28.447h-16.9v85.335h-16.905v28.442H85.015v-341.33h33.805v-28.447H0.5v28.447
		h16.905v341.33H0.5V768.5h236.644v-28.447h-16.9v-56.888h16.9v-28.447h84.514v56.893h16.905v28.442h-16.905V768.5h101.42v-28.447
		H406.173z M304.746,626.279h-67.602v-28.447h16.9v-56.888h16.9v-56.893h16.901v85.34h16.901V626.279z"/>
</g>
</svg>