<svg version="1.1" id="Layer_1" xmlns="http://www.w3.org/2000/svg" xmlns:xlink="http://www.w3.org/1999/xlink" x="0px" y="0px" viewBox="0 0 852.752 143.462" style="enable-background:new 0 0 852.752 143.462;" xml:space="preserve">
<style type="text/css">
	.st0{fill:#000000;}
</style>
<g>
	<path class="st0" d="M33.016,74.285c-10.318-3.882-17.631-9.031-21.942-15.443S5.127,44.037,6.168,33.661
		c1.154-11.502,5.848-20.257,14.083-26.265c8.232-6.009,18.891-8.355,31.974-7.043c12.403,1.245,21.628,5.22,27.678,11.918
		c6.047,6.702,9.17,16.441,9.369,29.217l-32.105-0.146c-0.27-5.265-1.013-8.927-2.229-10.987c-1.22-2.058-3.406-3.246-6.562-3.563
		c-2.82-0.282-5.074,0.346-6.767,1.884c-1.692,1.539-2.691,3.831-2.997,6.875c-0.305,3.045,0.14,5.426,1.334,7.14
		c1.194,1.716,3.33,3.126,6.41,4.23l12.008,4.622c11.072,4.302,18.797,9.604,23.178,15.909c4.378,6.308,6.064,14.478,5.058,24.513
		c-1.257,12.517-5.982,21.867-14.177,28.05c-8.197,6.183-19.117,8.589-32.76,7.22c-27.854-2.796-41.037-18.411-39.549-46.854
		l32.477,3.26c-0.117,5.685,0.66,9.863,2.33,12.535c1.667,2.674,4.362,4.196,8.084,4.569c3.155,0.317,5.701-0.367,7.638-2.052
		c1.934-1.686,3.072-4.22,3.411-7.603c0.295-2.932-0.205-5.344-1.494-7.24c-1.292-1.895-3.472-3.451-6.536-4.671L33.016,74.285z"/>
	<path class="st0" d="M137.838,135.8c-16.164-1.2-27.976-7.418-35.436-18.656c-7.462-11.235-10.424-27.197-8.887-47.88
		c1.562-21.022,6.956-36.672,16.188-46.955c9.229-10.28,22.039-14.812,38.428-13.596c16.161,1.201,27.973,7.422,35.436,18.657
		c7.46,11.237,10.424,27.196,8.888,47.88c-1.562,21.021-6.96,36.674-16.188,46.954C167.034,132.488,154.225,137.018,137.838,135.8z
		 M140.406,105.819c5.425,0.402,9.486-1.88,12.186-6.852c2.697-4.97,4.502-13.559,5.409-25.765
		c0.898-12.093,0.405-20.768-1.477-26.021c-1.885-5.254-5.536-8.082-10.962-8.485c-5.425-0.403-9.488,1.882-12.186,6.852
		c-2.7,4.972-4.502,13.559-5.408,25.765c-0.898,12.096-0.408,20.767,1.476,26.021C131.326,102.586,134.981,105.416,140.406,105.819z
		"/>
	<path class="st0" d="M255.601,139.711l-13.184-41.47l-8.32-0.395l-1.93,40.755l-31.245-1.479l5.739-121.244l42.113,1.994
		c13.585,0.643,23.976,4.597,31.179,11.857c7.201,7.263,10.508,17.12,9.918,29.572c-0.311,6.566-2.013,12.527-5.101,17.884
		c-3.092,5.357-7.329,9.779-12.712,13.269l18.184,50.896L255.601,139.711z M244.342,71.954c4.415,0.209,7.84-0.848,10.277-3.173
		c2.434-2.323,3.761-5.75,3.975-10.278c0.21-4.416-0.763-7.865-2.913-10.35c-2.153-2.484-5.38-3.829-9.681-4.032l-9.34-0.442
		l-1.317,27.849L244.342,71.954z"/>
	<path class="st0" d="M317.857,141.936l2.116-91.436l-25.153-0.582l0.692-29.912l83.618,1.936l-0.692,29.912l-25.153-0.582l-2.116,91.436
		L317.857,141.936z"/>
	<path class="st0" d="M409.459,143.462l-0.571-121.378l33.319-0.157l0.431,91.459l39.439-0.186l-2.579,29.933L409.459,143.462z"/>
	<path class="st0" d="M556.337,141.104l-4.908-21.963l-28.208,0.843l-3.758,22.223l-32.285,0.965l27.639-122.261l41.292-1.234l33.533,120.432
		L556.337,141.104z M535.315,46.66l-7.774,47.174l18.183-0.544L535.315,46.66z"/>
	<path class="st0" d="M609.337,138.899l-4.817-91.333l-25.125,1.325l-1.576-29.878l83.524-4.406l1.575,29.879l-25.125,1.325l4.818,91.333
		L609.337,138.899z"/>
	<path class="st0" d="M676.367,135.195l-9.094-121.039l73.403-5.516l2.114,28.141l-40.516,3.045l1.337,17.8l37.973-2.854l2.114,28.141
		l-37.973,2.854l1.414,18.816l43.228-3.248l-0.428,28.332L676.367,135.195z"/>
	<path class="st0" d="M818.242,123.072L799.15,83.968l-8.29,0.824l4.037,40.6l-31.127,3.095L751.763,7.703l41.953-4.171
		c13.533-1.346,24.39,1.051,32.575,7.183c8.183,6.135,12.893,15.404,14.125,27.809c0.65,6.542-0.164,12.688-2.438,18.437
		c-2.276,5.752-5.824,10.744-10.641,14.981l25.414,47.699L818.242,123.072z M797.22,57.68c4.398-0.437,7.632-1.981,9.704-4.638
		c2.069-2.653,2.882-6.236,2.434-10.748c-0.438-4.398-1.902-7.67-4.393-9.813c-2.493-2.145-5.88-3.003-10.165-2.577l-9.304,0.925
		l2.758,27.743L797.22,57.68z"/>
</g>
</svg>
