<svg version="1.1" id="Layer_1" xmlns="http://www.w3.org/2000/svg" xmlns:xlink="http://www.w3.org/1999/xlink" x="0px" y="0px" width="100%" height="100%" viewBox="0 0 652.986 718" style="enable-background:new 0 0 652.986 718;" xml:space="preserve">
<style type="text/css">
	.st0{fill:#000000;}
</style>
<g>
	<g>
		<path class="st0" d="M413.115,703.445c0.198-0.258,0.336-0.437,0.646-0.84c-1.544-0.096-2.344-1.724-4.059-1.217
			c-0.408,0.121-1.046-0.666-1.621-0.95c-1.914-0.946-3.601-2.182-5.024-3.776c-0.05-0.056-0.095-0.192-0.115-0.187
			c-1.758,0.447-2.578-1.109-3.723-1.851c-1.365-0.885-2.495-2.126-3.764-3.168c-0.343-0.282-0.82-0.401-1.233-0.594
			c0.13-0.256,0.311-0.612,0.493-0.968c-0.083-0.067-0.166-0.134-0.249-0.201c-0.347,0.223-0.694,0.445-1.183,0.759
			c-0.406-1.176-1.856-1.289-2.517-2.504c-0.562-1.033-1.736-1.755-2.702-2.537c-0.381-0.308-0.939-0.391-1.406-0.602
			c-1.2-0.542-1.076-1.845-1.533-2.789c-1.799,0.112-3.832-1.434-4.433-3.263c-0.077-0.234-0.467-0.366-0.714-0.543
			c-0.314-0.224-0.792-0.382-0.91-0.682c-0.232-0.593-0.416-1.085-1.174-1.092c-0.055,0-0.167-0.521-0.145-0.791
			c0.047-0.594,0.109-1.07-0.781-0.83c-0.285,0.077-0.76-0.088-0.979-0.309c-1.051-1.063-2.043-2.185-3.058-3.284
			c-0.608-0.658-1.513-1.217-1.767-1.991c-0.483-1.471-1.296-2.464-2.658-3.113c-0.159-0.076-0.117-0.516-0.232-0.757
			c-0.227-0.474-0.399-1.207-0.771-1.34c-1.614-0.579-2.24-2.106-3.284-3.21c-0.375-0.396-0.403-1.12-0.511-1.453
			c-0.388-0.174-0.777-0.22-0.915-0.431c-0.837-1.28-1.61-2.602-2.423-3.898c-0.099-0.158-0.303-0.252-0.464-0.369
			c-0.195-0.141-0.522-0.24-0.57-0.418c-0.169-0.618-0.242-1.262-0.351-1.897c-0.758,0.247-1.225-0.136-1.494-0.772
			c-0.17-0.403-0.208-0.863-0.349-1.495c-1.213-0.628-2.51-2.153-2.146-4.042c0.041-0.214-0.312-0.695-0.542-0.739
			c-1.177-0.225-1.568-1.198-1.999-2.065c-0.276-0.555-0.278-1.246-0.435-2.038c-0.191,0.066-0.485,0.167-0.786,0.271
			c-1.902-2.313-6.918-12.036-6.451-12.514c-1.081-0.563-1.711-1.81-1.572-3.004c0.027-0.23-0.078-0.527-0.224-0.714
			c-0.268-0.343-0.712-0.574-0.904-0.945c-0.452-0.876-1.26-1.917-1.075-2.687c0.259-1.08-0.226-1.364-0.795-1.915
			c-0.448-0.435-0.77-1.029-1.051-1.6c-0.323-0.657-0.756-1.365-0.759-2.053c-0.007-1.585-1.42-2.52-1.624-3.983
			c0.224-0.175,0.452-0.354,0.721-0.564c-0.929-0.595-1.742-1.129-1.577-2.374c0.05-0.375-0.241-0.817-0.433-1.199
			c-0.392-0.779-0.919-1.505-1.205-2.318c-0.202-0.576-0.836-1.269,0.047-1.917c0.133-0.098-0.074-0.659-0.127-1.027
			c-0.008-0.016-0.026-0.052-0.044-0.088c-0.021,0.033-0.05,0.097-0.062,0.094c-0.228-0.055-0.61-0.062-0.655-0.188
			c-0.539-1.497-1.076-2.999-1.506-4.531c-0.157-0.558-0.025-1.197-0.025-1.922c-1.362-0.166-0.696-1.415-0.989-2.219
			c-0.113-0.31-0.096-0.691-0.27-0.951c-1.048-1.563-0.994-1.171-0.089-2.511c-1.654-1.679-2.154-3.481-1.226-5.709
			c-0.458,0-0.799,0-1.021,0c-0.311-1.242-0.611-2.44-0.856-3.416c0.55-0.326,0.99-0.586,1.429-0.847
			c-0.053-0.089-0.105-0.178-0.158-0.266c-0.502,0.412-1.49,0.118-1.59-0.552c-0.17-1.135-0.144-2.301-0.338-3.431
			c-0.137-0.797-0.545-1.543-0.753-2.333c-0.182-0.692-0.254-1.412-0.382-2.164c0.321,0,0.579,0,0.928,0
			c-0.234-0.301-0.374-0.673-0.6-0.736c-0.999-0.278-0.499-0.816-0.369-1.387c0.113-0.495,0.045-1.049-0.033-1.563
			c-0.062-0.408-0.329-0.786-0.384-1.194c-0.129-0.945-0.19-1.899-0.261-2.851c-0.007-0.097,0.111-0.203,0.1-0.185
			c-0.226-0.295-0.574-0.539-0.586-0.799c-0.061-1.356-0.025-2.716-0.05-4.075c-0.005-0.254-0.154-0.502-0.203-0.759
			c-0.094-0.489-0.247-0.986-0.22-1.472c0.024-0.434-0.187-2.197-0.235-2.713c-0.091-1-0.044-2.019,0.025-3.025
			c0.056-0.82,0.328-1.634,0.319-2.449c-0.009-0.774-0.316-1.541-0.377-2.32c-0.032-0.408,0.161-0.844,0.294-1.254
			c0.2-0.62,0.273-1.2-0.247-1.716c-0.239-0.237-1.725-0.95-2.061-1.102c-1.616-0.731-3.23-1.472-4.795-2.303
			c-0.264-0.14-0.286-0.737-0.387-1.03c-0.755-0.101-1.495-0.2-2.235-0.299c0.076-0.177,0.153-0.354,0.226-0.524
			c-1.587,0.125-2.708-0.776-3.803-1.774c-0.197-0.179-0.551-0.196-0.839-0.264c-0.899-0.212-1.438-0.877-1.36-1.357
			c-1.003-0.405-1.991-0.686-2.859-1.18c-1.425-0.811-2.787-1.737-4.146-2.657c-1.208-0.818-2.384-1.683-3.555-2.553
			c-0.199-0.148-0.276-0.453-0.46-0.632c-0.254-0.248-0.533-0.493-0.845-0.654c-0.501-0.257-1.039-0.444-1.838-0.775
			c0.566-0.336,0.818-0.486,1.07-0.635c-0.009-0.052-0.018-0.105-0.028-0.157c-0.459,0.083-0.918,0.165-1.278,0.23
			c-1.632-1.235-3.23-2.444-4.713-3.566c0.187-0.385,0.318-0.656,0.45-0.926c-0.319-0.051-0.637-0.124-0.958-0.145
			c-0.196-0.013-0.484,0.152-0.581,0.067c-0.629-0.552-1.219-1.149-1.818-1.735c-0.141-0.138-0.242-0.35-0.408-0.425
			c-2.291-1.039-3.919-2.913-5.677-4.595c-0.894-0.856-1.505-2.005-2.272-3c-0.171-0.222-0.46-0.502-0.695-0.503
			c-1.354-0.003-2.033-1.023-2.855-1.816c-0.83-0.801-1.878-1.51-1.506-2.939c0.017-0.066-0.031-0.163-0.076-0.227
			c-0.043-0.06-0.121-0.094-0.481-0.429c-0.096,0.351-0.193,0.701-0.295,1.074c-2.271-2.403-4.351-4.605-6.532-6.913
			c0.278-0.086,0.447-0.138,0.551-0.17c-1.451-0.611-2.638-1.462-2.547-2.891c-0.817-0.619-1.437-1.089-2.036-1.543
			c0.159-0.442,0.277-0.773,0.445-1.24c-0.919,0.016-1.856,0.224-1.795-1.04c0.004-0.073-0.254-0.137-0.355-0.239
			c-0.501-0.506-1.034-0.99-1.473-1.548c-0.472-0.599-0.814-1.3-1.282-1.902c-0.479-0.615-1.065-1.147-1.547-1.76
			c-0.078-0.1,0.141-0.434,0.265-0.776c-0.318-0.014-0.593-0.026-0.507-0.022c-0.421-0.454-0.673-0.692-0.885-0.962
			c-0.334-0.425-0.633-0.877-0.962-1.306c-0.33-0.429-0.729-0.812-1.004-1.272c-0.252-0.421-0.379-0.917-0.689-1.707
			c-0.548-0.568-1.4-1.45-2.401-2.486c0.576,0,0.941,0,1.305,0c0.031-0.068,0.062-0.135,0.093-0.203
			c-0.571-0.24-1.257-0.354-1.687-0.748c-0.697-0.638-1.288-1.419-1.814-2.213c-0.924-1.394-1.825-2.811-2.615-4.283
			c-0.362-0.675-0.439-1.502-0.653-2.29c-0.864,0.159-1.169-0.188-1.042-1.403c0.022-0.211-0.162-0.566-0.348-0.658
			c-1.534-0.762-1.854-2.308-2.422-3.685c-0.18-0.437-0.226-0.93-0.387-1.633c-1.036-0.361-1.582-1.355-1.853-2.73
			c-0.181-0.92-0.888-1.73-1.327-2.606c-0.698-1.39-1.418-2.772-2.041-4.195c-1.327-3.032-2.652-6.067-3.871-9.143
			c-0.639-1.611-1.02-3.322-1.576-4.968c-0.435-1.289-1.015-2.529-1.431-3.823c-0.426-1.324-0.764-2.68-1.072-4.038
			c-0.119-0.524-0.046-1.091-0.061-1.639c-0.011-0.391-0.002-0.785-0.04-1.173c-0.064-0.643-0.159-1.283-0.264-2.102
			c-0.121-0.015-0.498-0.062-1.093-0.135c-0.069-1.298-0.03-2.631-0.239-3.924c-0.207-1.28-0.913-2.511-0.96-3.78
			c-0.094-2.545-1.144-5.03-0.483-7.616c0.039-0.153,0.074-0.388-0.007-0.478c-1.145-1.276-0.627-2.828-0.683-4.267
			c-0.022-0.563,0.286-1.138,0.548-1.684c0.293-0.615-1.506-1.128-0.013-1.848c-1.552-0.425,0.105-1.353-0.311-2.102
			c-0.388-0.699-0.275-1.726-0.229-2.6c0.042-0.807,0.327-1.599,0.425-2.407c0.055-0.454-0.053-0.927-0.095-1.494
			c0.22-0.034,0.515-0.081,1.163-0.183c-0.575-0.068-0.818-0.097-1.019-0.121c0-0.373-0.06-0.752,0.017-1.1
			c0.074-0.333,0.293-0.632,0.442-0.95c0.088-0.187,0.286-0.476,0.224-0.557c-0.93-1.209-0.116-2.339,0.137-3.483
			c0.192-0.872,0.414-1.742,0.696-2.588c0.16-0.478,0.54-0.883,0.692-1.362c0.13-0.41,0.135-0.884,0.09-1.319
			c-0.04-0.39-0.375-0.793-0.312-1.142c0.124-0.686,0.87-1.226,0.497-2.049c0.221-0.076,0.443-0.152,0.909-0.312
			c0.006-0.086,0.171-0.555,0.035-0.908c-0.295-0.759,0.01-1.252,0.457-1.79c0.129-0.155,0.067-0.476,0.079-0.722
			c0.022-0.432-0.047-0.888,0.068-1.292c0.158-0.552,0.489-1.051,0.682-1.595c0.472-1.329,0.863-2.689,1.383-3.998
			c0.193-0.487,0.691-0.845,0.981-1.306c0.165-0.261,0.19-0.61,0.298-0.988c0.229-0.023,0.547-0.055,0.944-0.094
			c-0.129-0.602-0.251-1.172-0.385-1.794c0.386-0.081,0.753-0.157,1.12-0.234c-0.004-0.054-0.009-0.109-0.013-0.163
			c-0.272,0.049-0.544,0.099-1.044,0.19c0.22-0.604,0.318-1.071,0.546-1.462c0.626-1.074,0.89,0.289,1.745,0.332
			c-0.55-0.524-0.858-0.818-1.009-0.963c0.272-0.537,0.54-0.996,0.744-1.48c0.55-1.303,1.036-2.635,1.62-3.922
			c0.407-0.898,0.869-1.786,1.429-2.594c0.471-0.679,1.121-1.233,1.689-1.845c0.133-0.143,0.39-0.336,0.36-0.44
			c-0.549-1.895,1.616-2.527,1.626-4.4c0.488,0.554,0.697,0.792,0.907,1.029c0.091-0.069,0.182-0.139,0.273-0.208
			c-0.215-0.27-0.429-0.54-0.826-1.04c0.505-0.378,1.057-0.756,1.563-1.188c0.158-0.135,0.16-0.436,0.285-0.626
			c0.215-0.326,0.465-0.631,0.714-0.933c0.068-0.083,0.276-0.15,0.267-0.183c-0.405-1.452,1.13-1.66,1.626-2.531
			c0.344-0.604,0.791-1.148,1.181-1.727c0.585-0.868,1.027-1.886,1.773-2.579c0.92-0.854,1.799-1.663,2.27-2.859
			c0.062-0.157,0.491-0.154,0.734-0.262c0.22-0.098,0.604-0.261,0.596-0.37c-0.135-1.708,1.385-2.394,2.219-3.425
			c1.533-1.896,3.341-3.571,5.045-5.328c0.127-0.131,0.34-0.177,0.508-0.272c0.423-0.238,1.143-0.414,1.215-0.734
			c0.368-1.642,1.611-2.295,2.882-3.081c0.824-0.51,1.342-1.488,2.088-2.156c1.589-1.425,3.237-2.784,4.861-4.17
			c0.154-0.132,0.388-0.235,0.449-0.401c0.448-1.215,1.468-1.358,2.56-1.383c-0.406-0.857-0.312-1.008,0.639-1.108
			c0.103-0.011,0.268-0.037,0.292-0.099c0.68-1.766,2.577-1.886,3.823-2.876c0.332-0.264,0.422-0.831,0.843-1.727
			c0.145,0.417,0.214,0.616,0.312,0.899c0.616-0.727,1.204-1.42,1.791-2.114c0.025-0.029,0.047-0.1,0.055-0.097
			c2.071,0.591,2.269-2.307,4.092-2.228c-0.183-0.046-0.367-0.092-0.67-0.169c2.006-1.256,3.882-2.43,5.933-3.714
			c-0.076-0.517,0.387-0.946,1.224-1.076c0.229-0.036,0.533-0.082,0.654-0.238c1.479-1.898,3.679-2.617,5.714-3.64
			c0.75-0.377,1.266-1.078,2.28-0.639c0.161,0.07,0.721-0.764,1.085-1.189c0.332-0.388,0.617-0.828,1-1.154
			c0.082-0.07,0.497,0.25,0.502,0.253c0.538-0.409,1.076-0.826,1.624-1.229c0.276-0.203,0.609-0.342,0.851-0.577
			c0.67-0.653,1.274-1.255,2.382-0.793c0.301,0.126,0.868-0.384,1.286-0.59c0.605-0.597,1.077-1.064,1.552-1.529
			c0.142-0.139,0.269-0.344,0.44-0.394c1.176-0.349,2.369-0.641,3.538-1.009c0.31-0.097,0.804-0.417,0.79-0.603
			c-0.104-1.373,0.752-1.019,1.557-0.896c0.689-1.438,2.124-1.413,3.434-1.7c0.43-0.094,0.802-0.436,1.21-0.647
			c0.386-0.199,0.778-0.388,1.177-0.558c0.238-0.101,0.641-0.088,0.718-0.248c0.356-0.74,0.849-0.812,1.537-0.513
			c0.135,0.058,0.488-0.054,0.53-0.165c0.528-1.426,1.866-1.473,3.023-1.922c1.7-0.659,3.304-1.566,4.993-2.259
			c0.88-0.361,1.93-0.342,2.77-0.762c1.069-0.534,2.072-1.108,3.283-1.347c0.829-0.164,1.545-0.879,2.375-1.059
			c0.859-0.186,1.549-0.578,2.315-0.94c1.56-0.738,3.262-1.609,4.896-1.591c0.964,0.011,1.217-0.385,1.747-0.751
			c0.154-0.107,0.403-0.218,0.554-0.167c1.348,0.452,2.287-0.111,3.18-1.077c0.268-0.29,0.889-0.271,1.355-0.357
			c0.575-0.106,1.236-0.031,1.716-0.295c0.621-0.342,1.065-0.971,1.925-0.559c0.124,0.059,0.459-0.495,0.741-0.555
			c0.572-0.122,1.175-0.101,1.715-0.135c2.359-1.256,5.034-1.581,7.483-2.247c0.294,0.169,0.557,0.321,0.821,0.473
			c0.041-0.247,0.082-0.495,0.147-0.892c0.378,0.078,0.861,0.177,1.352,0.278c1.284-1.289,3.055-1.152,4.656-1.496
			c1.004-0.215,2.028-0.371,3.085-0.084c0.246,0.067,0.644-0.426,1.141-0.783c0.096,0.142,0.314,0.462,0.554,0.814
			c0.608-0.306,1.251-0.644,1.906-0.957c1.021-0.488,2.03-0.953,3.147-0.151c0.161,0.116,0.861-0.131,0.877-0.262
			c0.132-1.091,1.006-0.893,1.645-0.955c0.953-0.092,1.937,0.07,2.877-0.077c1.162-0.182,2.29-0.577,3.438-0.862
			c0.311-0.077,0.641-0.135,0.958-0.12c1.17,0.054,2.351,0.582,3.455-0.414c0.272-0.245,1.073-0.125,1.508,0.083
			c0.775,0.372,1.419,0.628,1.984-0.26c0.037-0.058,0.163-0.128,0.201-0.107c1.462,0.79,3.069-1.115,4.584,0.287
			c0.326,0.302,1.292-0.076,1.961-0.158c1.764-0.215,3.527-0.619,5.289-0.611c1.842,0.008,3.682,0.416,5.525,0.625
			c0.222,0.025,0.467-0.076,0.691-0.151c1.299-0.432,2.509-0.394,3.589,0.579c0.199,0.179,0.501,0.243,0.843,0.4
			c0.37-0.9,0.867-1.427,1.691-0.426c0.073,0.088,0.313,0.116,0.439,0.071c2.248-0.799,4.391,0.408,6.601,0.355
			c0.125-0.003,0.259,0.385,0.398,0.606c1.184-0.466,2.398-0.587,3.481,0.454c0.064,0.061,0.216,0.047,0.326,0.041
			c3.223-0.155,6.248,0.731,9.199,1.865c0.642,0.247,1.1,0.974,1.738,1.569c0.082-0.441,0.132-0.708,0.235-1.26
			c0.518,0.288,0.948,0.527,1.303,0.725c1.024,0.178,2.061,0.286,3.057,0.55c1.398,0.37,2.741,0.989,4.154,1.252
			c1.333,0.247,1.613,0.573,0.86,2.129c3.364-2.008,5.61,0.241,7.881,1.449c0.773,0.147,1.352,0.164,1.854,0.37
			c1.585,0.652,3.137,1.384,4.711,2.065c1.021,0.442,2.087,0.791,3.07,1.301c0.311,0.161,0.42,0.71,0.642,1.12
			c0.642-0.011,1.546-0.333,1.714,0.603c1.811,0.697,3.533,1.344,5.238,2.034c0.22,0.089,0.472,0.383,0.503,0.609
			c0.144,1.056,0.775,0.602,1.38,0.484c0.41,0.692,0.718,1.581,1.739,1.687c0.046,0.005,0.128-0.348,0.229-0.634
			c1.909,1.124,3.797,2.232,5.681,3.346c0.302,0.179,0.589,0.384,0.885,0.575c0.598,0.384,0.733,0.772-0.027,1.227
			c1.139-0.355,2.077-0.254,2.598,0.939c0.058,0.134,0.173,0.312,0.292,0.34c2.459,0.566,4.045,2.609,6.208,3.679
			c0.257,0.127,0.327,0.594,0.545,0.852c0.239,0.284,0.659,0.776,0.81,0.715c0.938-0.385,1.252,0.376,1.791,0.798
			c1.674,1.311,3.433,2.518,5.061,3.882c0.965,0.809,1.743,1.841,2.611,2.767c0.318,0.339,0.712,0.987,0.97,0.94
			c1.441-0.263,1.919,1.069,2.856,1.603c0.218,0.124,0.203,0.655,0.208,0.672c0.917,0.71,1.674,1.286,2.419,1.877
			c0.479,0.38,0.979,0.745,1.402,1.182c0.914,0.947,1.743,1.978,2.682,2.899c1.651,1.62,3.388,3.153,5.031,4.781
			c1.227,1.216,2.468,2.446,3.486,3.829c0.399,0.542,0.424,1.587,0.211,2.277c-0.173,0.56-0.926,0.973-1.477,1.376
			c-0.847,0.62-1.085-0.291-1.449-0.695c-1.901-2.109-3.852-4.183-5.593-6.418c-0.558-0.716-1.244-1.042-1.868-1.557
			c-1.375-1.133-2.361-2.694-3.925-3.654c-0.28-0.172-0.368-0.655-0.537-0.98c-2.038-0.673-2.967-2.505-4.157-4.167
			c-0.087,0.126-0.209,0.302-0.325,0.469c-1.174-0.927-2.365-1.834-3.514-2.793c-0.331-0.277-0.497-0.747-0.817-1.043
			c-0.314-0.289-0.714-0.497-1.101-0.692c-1.163-0.584-2.264-1.216-2.6-2.619c-0.027-0.113-0.092-0.3-0.157-0.308
			c-0.936-0.115-1.63-0.882-2.37-1.103c-0.979-0.293-1.191-0.738-1.501-1.221c-0.651-0.314-1.357-0.551-1.936-0.965
			c-0.486-0.348-0.78-0.955-1.242-1.35c-0.352-0.301-0.817-0.501-1.264-0.653c-0.962-0.327-1.755-0.761-1.625-2.087
			c-0.426,0.161-0.74,0.28-1.053,0.397c-2.143-1.354-4.287-2.708-6.489-4.098c0.142-0.184,0.292-0.379,0.442-0.575
			c-0.038-0.07-0.076-0.14-0.114-0.21c-0.405,0.127-0.809,0.254-1.363,0.428c0.027-0.428,0.055-0.856,0.082-1.285
			c-0.043-0.03-0.086-0.059-0.128-0.089c-0.145,0.308-0.29,0.617-0.473,1.004c-1.535-0.949-3.057-1.906-4.596-2.835
			c-0.542-0.327-1.16-0.536-1.683-0.889c-1.722-1.163-3.864-1.408-5.572-2.59c-0.398-0.276-0.801-0.546-1.435-0.977
			c-0.231-0.048-0.836-0.083-1.367-0.301c-1.232-0.505-2.446-1.062-3.632-1.668c-0.917-0.469-1.777-1.05-2.669-1.57
			c-0.243-0.142-0.551-0.395-0.759-0.338c-1.443,0.393-2.462-0.884-3.801-0.935c-0.289-0.011-0.556-0.61-0.833-0.939
			c-1.13,0.535-4.606-0.75-4.842-1.89c-0.135,0.262-0.231,0.448-0.225,0.437c-2.565-0.427-4.941-1.402-7.319-1.984
			c-2.27-0.556-4.599-1.268-7.013-1.518c-2.494-0.259-5.113-0.461-7.258-1.505c-0.701,0-1.271,0.038-1.833-0.01
			c-0.596-0.052-1.181-0.213-1.776-0.278c-0.883-0.096-1.876,0.3-2.545-0.694c-0.097-0.144-0.614-0.148-0.845-0.033
			c-0.679,0.338-1.339,0.078-1.994,0.11c-1.156,0.057-2.09-0.145-3.173-0.583c-0.958-0.388-2.237,0.02-3.374,0.068
			c-1.295,0.055-2.59,0.115-3.886,0.144c-1.056,0.024-2.114,0.016-3.17,0c-0.727-0.011-1.595,0.308-1.928-0.741
			c-0.373,0.225-0.746,0.449-1.203,0.724c-0.587,0.069-1.344,0.158-2.469,0.291c0.458-0.556,0.69-0.837,1.109-1.345
			c-1.228,0.437-2.22,0.79-3.211,1.145c-0.108,0.039-0.28,0.157-0.305,0.129c-1.049-1.123-1.847,0.014-2.717,0.315
			c-0.653,0.226-1.234,0.549-1.787-0.225c-0.086-0.12-0.691,0.062-1.017,0.199c-0.483,0.204-0.917,0.663-1.397,0.701
			c-0.565,0.045-1.192-0.433-1.727-0.335c-0.547,0.101-1.016,0.626-1.494,0.949c-0.42-0.459-0.636-1.55-1.15-0.218
			c-0.079,0.204-0.617,0.428-0.837,0.349c-1.527-0.548-2.778,0.494-4.174,0.665c-1.433,0.176-2.839,0.566-4.267,0.802
			c-0.288,0.048-0.621-0.174-0.885-0.257c-0.187,0.148-0.415,0.482-0.672,0.506c-0.862,0.078-1.906-0.254-2.561,0.124
			c-1.018,0.587-2.467-0.035-2.826,0.405c-0.853,1.047-1.896,1.088-2.917,1.186c-0.988,0.094-2.01-0.177-3.112-0.297
			c-0.029,1.162-0.937,1.402-1.98,1.625c-1.445,0.308-2.852,0.789-4.287,1.145c-0.302,0.075-0.678-0.014-0.985-0.125
			c-0.351-0.127-0.663-0.364-0.992-0.553c-0.067,0.114-0.134,0.227-0.201,0.341c0.237,0.15,0.474,0.301,0.884,0.561
			c-1.282,0.405-2.386,0.754-3.42,1.081c-0.174-0.236-0.374-0.507-0.574-0.778c-0.194,0.255-0.359,0.54-0.589,0.756
			c-0.326,0.306-0.659,0.673-1.06,0.817c-1.316,0.475-2.648,0.92-4.004,1.258c-0.759,0.189-1.578,0.126-2.366,0.217
			c-0.324,0.037-0.689,0.107-0.944,0.289c-0.628,0.447-1.203,0.967-1.898,1.539c-0.648-1.176-1.044-1.133-1.77-0.316
			c-1.052,1.184-2.73,1.419-4.102,2.135c-1.258,0.657-2.623,1.122-3.971,1.583c-0.692,0.237-1.449,0.283-2.217,0.422
			c0.035,0.108,0.094,0.292,0.046,0.144c-2.195,1.05-4.297,2.055-6.432,3.077c-0.115-0.365-0.235-0.742-0.354-1.119
			c-0.102,0.006-0.203,0.013-0.305,0.019c0,0.399,0,0.798,0,1.493c-0.868,0.25-1.96,0.521-3.017,0.891
			c-0.464,0.163-0.845,0.551-1.286,0.798c-1.159,0.65-2.204,1.594-3.69,1.436c-0.096-0.01-0.199,0.335-0.346,0.459
			c-0.562,0.471-1.066,1.337-1.905,0.324c-0.088-0.106-0.372-0.051-0.34,0.207c-0.352,0.45-0.615,1.051-1.072,1.32
			c-1.059,0.624-2.213,1.089-3.328,1.618c-0.029-0.116-0.058-0.233-0.023-0.091c-0.592,0.321-1.245,0.655-1.877,1.026
			c-0.366,0.215-0.665,0.572-1.05,0.722c-2.093,0.818-3.648,2.723-6.023,2.975c-0.165,0.017-0.388,0.198-0.451,0.356
			c-0.419,1.057-1.101,0.904-1.938,0.407c-0.067,0.361-0.13,0.696-0.193,1.031c-0.071-0.073-0.142-0.146-0.213-0.219
			c-0.421,0.39-0.835,0.787-1.265,1.166c-0.146,0.129-0.331,0.31-0.496,0.308c-1.843-0.017-2.764,1.166-3.872,2.454
			c-0.975,1.132-2.708,1.574-3.904,2.564c-0.957,0.792-2.164,1.095-3.057,2.071c-1.038,1.134-2.463,1.937-3.783,2.786
			c-1.369,0.879-3.198,1.35-4.102,2.546c-0.721,0.954-1.619,1.579-2.397,2.385c-0.475,0.492-1.007,0.962-1.594,1.299
			c-0.328,0.189-0.823,0.087-1.184,0.112c-0.696,0.886-1.43,1.821-2.334,2.971c-0.194-0.719-0.299-1.108-0.404-1.497
			c-0.099,0.016-0.198,0.033-0.296,0.049c0.068,0.394,0.136,0.787,0.223,1.289c-1.366,1.937-3.662,2.975-5.422,4.678
			c0.017,0.743-1.358,1.677-3.927,3.968c-0.389-0.144-0.763-0.282-1.137-0.42c-0.05,0.117-0.101,0.235-0.151,0.352
			c0.278,0.135,0.557,0.271,0.835,0.406c0.146,0.136,0.292,0.272,0.439,0.407c-0.517,0.316-0.999,0.722-1.556,0.929
			c-1.401,0.522-1.901,1.879-2.773,2.881c-0.346,0.398-0.51,0.776-1.148,0.487c-0.189-0.086-0.831,0.324-0.818,0.367
			c0.577,1.86-1.274,1.457-1.958,2.235c-0.119,2.695-2.695,3.292-4.146,4.613c0.089,0.458,0.364,0.999,0.204,1.21
			c-0.544,0.715-1.261,1.294-1.871,1.963c-0.275,0.301-0.443,0.696-0.676,1.038c-0.733,1.079-1.262,2.495-2.277,3.126
			c-0.862,0.536-1.161,0.966-1.2,1.838c-0.008,0.17-0.185,0.422-0.342,0.482c-1.722,0.657-1.372,2.664-2.458,3.744
			c-0.387,0.385-0.508,1.035-1.309,0.694c-0.134-0.057-0.733,0.448-0.722,0.674c0.044,0.912,0.04,1.637-1.018,2.074
			c-0.295,0.122-0.284,1.011-0.39,1.553c-0.051,0.261,0.047,0.602-0.087,0.787c-1.399,1.928-2.064,4.233-3.256,6.265
			c-1.629,2.778-2.653,5.818-3.812,8.799c-0.029,0.075-0.025,0.182-0.077,0.227c-1.501,1.287-0.916,3.309-1.697,4.795
			c-0.481,0.914-0.531,1.807-0.746,2.726c-0.133,0.567-0.594,1.052-0.766,1.616c-0.193,0.634-0.176,1.33-0.346,1.973
			c-0.13,0.493-0.284,1.147-0.649,1.374c-0.763,0.476-0.588,1.107-0.483,1.696c0.25,1.393,0.41,2.738-0.612,3.927
			c-0.085,0.099-0.105,0.37-0.031,0.468c0.389,0.519,0.008,0.835-0.17,1.294c-0.262,0.676-1.22,1.551,0.145,2.21
			c0.089,0.043,0.019,0.741-0.172,0.979c-0.911,1.139-0.446,2.398-0.278,3.562c0.202,1.401,0.745,2.751-0.4,4.014
			c-0.145,0.16-0.117,0.686,0.037,0.872c1.098,1.328,0.673,2.704,0.252,4.113c-0.207,0.693-0.726,1.494,0.428,1.944
			c0.14,0.055,0.153,0.494,0.185,0.759c0.168,1.389,0.367,2.777,0.458,4.171c0.031,0.478-0.218,0.975-0.359,1.541
			c1.003,1.074,1.302,3.756,0.373,4.891c0.345-0.037,0.602-0.065,1-0.109c0,0.779,0,1.537,0,2.294
			c-0.075,0.001-0.15,0.003-0.225,0.004c0.011,0.038,0.023,0.075,0.034,0.113c0.021-0.011,0.04-0.027,0.062-0.032
			c0.109-0.023,0.313-0.068,0.315-0.062c0.442,1.709,0.89,3.417,1.277,5.138c0.058,0.256-0.171,0.577-0.268,0.869
			c0.849,0.262,1.113,0.915,0.646,1.968c-0.041,0.092-0.103,0.218-0.072,0.293c0.491,1.171,1.034,2.322,1.478,3.51
			c0.152,0.408,0.065,0.906,0.253,1.245c0.46,1.07,1.226,2.122,1.288,3.214c0.055,0.963,1.755,1.831,0.122,2.913
			c2.228,0.939,1.99,3.24,2.894,4.884c0.839,1.525,1.407,3.2,2.091,4.802c-0.231,0.158-0.478,0.327-0.725,0.497
			c0.058,0.088,0.117,0.176,0.175,0.265c0.174-0.117,0.347-0.233,0.526-0.353c1.01,0.646,0.774,1.513,0.361,2.332
			c0.26-0.04,0.634-0.135,0.65-0.094c0.557,1.466,2.438,2.483,1.601,4.554c0.907,0.167,1.527,0.696,1.518,1.814
			c-0.002,0.223,0.427,0.423,0.59,0.677c0.521,0.814,1.06,1.624,1.486,2.488c0.159,0.323,0.026,0.789,0.026,1.042
			c0.412,0.379,0.956,0.705,1.254,1.185c0.971,1.565,2.128,3.099,1.424,5.291c0.625-0.207,0.994-0.329,1.455-0.482
			c0.084,0.737,1.285,1.051,0.661,2.054c-0.024,0.039,0.12,0.266,0.201,0.276c1.596,0.192,1.206,1.479,1.386,2.255
			c0.537,0.402,1.081,0.654,1.399,1.076c0.923,1.226,1.798,2.493,2.611,3.794c0.683,1.093,1.172,2.313,1.9,3.371
			c0.493,0.717,1.328,1.189,1.88,1.876c1.868,2.326,3.655,4.717,5.519,7.048c0.899,1.125,1.922,2.151,2.837,3.264
			c0.219,0.267,0.3,0.698,0.326,1.061c0.038,0.544,0.461,0.924,0.584,1.3c0.346,1.058,0.913,0.144,1.163,0.297
			c0.695,0.426,1.227,1.108,1.876,1.623c1.232,0.978,1.204,2.599,1.975,3.931c1.262-0.817,1.917,0.011,2.624,0.819
			c0.921,1.053,1.894,2.06,3.119,3.382c0.586,0.055,1.251,0.945,1.099,2.221c0.393-0.064,0.771-0.125,0.998-0.162
			c0.815,0.72,1.479,1.495,2.309,1.991c1.104,0.66,1.19,1.566,1.114,2.67c0.074-0.257,0.149-0.514,0.279-0.963
			c0.149,0.414,0.233,0.651,0.303,0.843c0.731-1.168,1.014,0.148,1.657,0.243c-0.263,0.237-0.414,0.373-0.791,0.713
			c0.363-0.154,0.474-0.243,0.528-0.216c0.535,0.264,1.311,0.415,1.539,0.85c0.509,0.972,0.989,1.819,2.193,1.936
			c-0.072,0.095-0.143,0.189-0.215,0.284c0.557,0.486,1.072,1.319,1.679,1.393c1.792,0.218,2.754,1.609,4.066,2.489
			c1.225,0.822,2.407,1.713,3.564,2.628c0.628,0.497,1.101,1.208,1.761,1.645c1.027,0.68,2.17,1.182,3.23,1.817
			c0.358,0.215,0.581,0.642,0.917,0.907c0.435,0.344,0.927,0.615,1.384,0.933c0.484,0.336,0.973,0.668,1.427,1.041
			c0.276,0.227,0.516,0.781,0.728,0.759c1.246-0.129,1.471,0.781,1.767,1.638c0.459-0.12,0.862-0.279,1.278-0.323
			c0.841-0.088,1.114,0.396,1.125,1.171c0.003,0.2,0.246,0.416,0.421,0.578c0.043,0.039,0.363-0.091,0.375-0.169
			c0.157-1.085,0.528-0.413,0.848-0.112c0.177,0.167,0.345,0.343,0.515,0.518c0.203,0.209,0.391,0.434,0.607,0.629
			c0.237,0.214,0.635,0.625,0.726,0.569c1.154-0.716,1.621,0.264,2.341,0.796c0.44,0.326,1.139,0.274,1.676,0.501
			c1.138,0.481,2.247,1.032,3.531,1.631c0.581-2.73,1.131-5.314,1.705-8.011c0.388,0.26,0.562,0.377,0.768,0.514
			c0.193-0.458,0.356-0.846,0.549-1.307c-0.357-0.065-0.647-0.119-1.077-0.197c1.26-3.477,2.488-6.863,3.716-10.25
			c0.537,0.102,0.875,0.167,1.504,0.287c-0.973-1.519-0.491-2.721,0.449-3.905c0.313,0.048,0.691,0.105,1.222,0.186
			c-0.057-0.83-0.244-1.603-0.111-2.315c0.081-0.434,0.656-0.775,1.061-1.215c-0.869-0.911,0.588-1.198,0.876-1.867
			c0.269-0.627,0.95-1.11,1.112-1.743c0.395-1.536,0.843-2.909,2.7-3.152c0.092-0.012,0.168-0.15,0.304-0.279
			c-0.248-0.265-0.476-0.508-0.845-0.9c0.514-0.14,0.87-0.238,1.226-0.336c0.329-1.665,1.028-3.111,2.416-4.166
			c0.097-0.073,0.051-0.31,0.125-0.441c0.461-0.813,0.813-1.786,2.11-1.442c-0.32-2.136,1.362-2.805,2.572-3.838
			c0.402-0.343,0.627-0.893,0.936-1.347c0.579-0.849,1.065-1.787,1.766-2.518c0.69-0.72,1.608-1.219,2.402-1.844
			c0.136-0.107,0.115-0.395,0.235-0.544c0.775-0.955,1.54-1.922,2.385-2.812c0.152-0.16,0.66,0.018,1.167,0.05
			c-0.231-0.334-0.404-0.585-0.618-0.894c0.707-0.697,1.152-1.923,2.702-0.837c0-0.541-0.041-0.886,0.013-1.216
			c0.042-0.259,0.205-0.715,0.306-0.713c1.036,0.022,1.079-0.827,1.553-1.422c1.155-1.448,2.63-2.644,4.016-3.898
			c0.128-0.116,0.543,0.087,0.877,0.152c0.398-0.672,0.709-1.492,1.272-2.064c0.549-0.558,1.356-0.864,2.205-1.374
			c0.151-1.137,1.78-2.46,3.293-2.371c0.273-1.554,1.258-2.358,2.809-2.585c0.221-0.032,0.365-0.442,0.59-0.619
			c0.439-0.347,0.911-0.652,1.606-1.142c-0.092-0.74,0.415-1.245,1.31-1.004c0.718-0.76,1.231-1.471,1.9-1.977
			c1.841-1.391,3.664-2.846,5.669-3.961c0.809-0.45,1.665-0.607,1.967-1.608c0.026-0.085,0.195-0.142,0.309-0.181
			c0.465-0.163,0.933-0.313,1.575-0.527c0.18-0.881,0.756-1.64,2.113-1.607c0.355,0.008,0.963-0.244,1.038-0.498
			c0.584-1.987,3.105-1.614,3.929-3.296c0.124-0.253,0.713-0.543,0.915-0.448c1.043,0.489,1.44-0.427,2.021-0.859
			c0.597-0.444,1.082-1.036,1.645-1.531c0.166-0.145,0.524-0.317,0.634-0.242c1.167,0.796,1.325-0.429,1.678-0.917
			c0.91-1.257,2.152-1.878,3.582-2.25c0.062-0.016,0.142,0.039,0.214,0.061c0.08-1.165,1.15-0.985,1.824-1.312
			c1.585-0.768,2.671-2.301,4.717-2.476c1.057-0.09,1.923-1.592,3.028-2.155c1.106-0.564,1.947-1.833,3.042-1.637
			c0.687-0.478,1.137-0.819,1.616-1.115c0.525-0.324,1.054-0.658,1.623-0.886c0.321-0.128,0.765-0.943,1.11,0.023
			c0.003,0.008,0.397-0.084,0.576-0.186c0.346-0.199,0.67-0.438,0.92-0.745c0.481-0.427,0.898-0.987,1.456-1.252
			c1.038-0.494,2.17-0.788,3.239-1.224c0.504-0.205,0.963-0.531,1.427-0.827c1.012-0.646,2.014-1.308,3.022-1.961
			c0.067-0.043,0.154-0.104,0.22-0.092c0.836,0.149,1.286-0.23,1.864-0.864c0.605-0.662,1.658-0.922,2.526-1.336
			c1.274-0.609,2.558-1.197,3.836-1.799c0.293-0.138,0.58-0.291,0.865-0.445c1.307-0.707,3.19-0.163,3.921-2.211
			c0.335,0.587,0.49,0.858,0.699,1.224c0.586-0.554,1.16-1.096,1.734-1.638c0.194-0.183,0.36-0.467,0.589-0.532
			c1.513-0.431,2.712-1.638,4.456-1.597c0.635,0.015,1.268-0.793,1.939-1.158c0.609-0.332,1.255-0.613,1.913-0.831
			c0.229-0.076,0.543,0.105,0.951,0.199c0.397-0.37,0.74-1.39,1.927-0.68c0.257,0.154,0.964-0.153,1.275-0.448
			c0.547-0.519,0.931-0.518,1.548-0.112c0.266,0.175,0.813-0.076,1.449-0.164c-0.138-0.182-0.099-0.121-0.05-0.068
			c0.551,0.607,3.044,0.165,3.625-0.334c0.421-0.362,1.257-0.282,1.912-0.32c0.918-0.052,1.84-0.03,2.76-0.042
			c0.038-0.001,0.082-0.047,0.113-0.038c1.589,0.455,3.18,0.903,4.762,1.379c0.534,0.16,0.787,0.77,1.653,0.488
			c0.552-0.179,1.456,0.66,2.177,1.085c0.808,0.476,1.212,1.399,2.222,1.744c0.707,0.241,0.723,1.529,1.718,1.706
			c-0.077,0.162-0.155,0.324-0.231,0.487c1.336,0.137,1.81,0.783,2.375,2.763c0.528,0.56,1.272,1.033,1.54,1.698
			c0.54,1.338,0.799,2.786,1.223,4.174c0.105,0.345,0.542,0.621,0.569,0.95c0.059,0.706-0.12,1.431-0.066,2.138
			c0.039,0.519,0.295,1.021,0.485,1.632c-0.132,0.057-0.363,0.157-0.389,0.168c0.261,0.79,0.616,1.517,0.722,2.278
			c0.138,0.988-0.364,1.999,0.221,3.02c0.188,0.328-0.165,0.966-0.337,1.447c-0.119,0.76-0.238,1.52-0.362,2.319
			c0.061-0.01,0.349-0.059,0.947-0.161c-0.31,0.723-0.526,1.225-0.711,1.658c0.137,0.294,0.502,0.708,0.483,1.103
			c-0.066,1.338-0.271,2.669-0.413,4.003c-0.01,0.098,0.046,0.208,0.086,0.307c0.334,0.838,0.219,1.109-0.656,1.458
			c0.228,0.255,0.445,0.498,0.688,0.771c-0.445,0.442-1.219,0.805-0.182,1.596c0.23,0.176-0.274,1.314-0.381,1.984
			c-0.052,0.477-0.09,0.956-0.16,1.431c-0.041,0.284-0.172,0.559-0.19,0.843c-0.073,1.134-0.028,2.284-0.196,3.403
			c-0.216,1.434-0.314,2.998-0.986,4.217c-0.62,1.123,0.399,2.733-1.184,3.461c-0.124,0.057-0.004,0.55-0.079,0.818
			c-0.631,2.258-1.255,4.519-1.95,6.757c-0.13,0.419-0.623,0.711-0.857,1.115c-0.274,0.474-0.734,1.096-0.608,1.495
			c0.315,1-0.351,1.493-0.781,2.115c-0.261,0.377-0.633,0.677-1.044,1.106c0.041,0.037,0.263,0.242,0.713,0.655
			c-0.753,0.839-1.542,1.654-2.246,2.537c-0.234,0.294-0.358,0.763-0.349,1.147c0.028,1.138-0.437,1.857-1.566,2.207
			c0.023,0.794,0.25,1.719-1.039,1.735c0.341,0.668-0.279,1.935-1.093,2.376c-0.144,0.078-0.22,0.298-0.303,0.465
			c-0.119,0.237-0.163,0.648-0.332,0.704c-1.584,0.527-2.012,2.054-2.892,3.198c-0.739,0.961-1.619,1.814-2.387,2.755
			c-0.322,0.395-0.643,0.868-0.742,1.352c-0.2,0.978-2.002,2.725-2.959,2.679c-0.203,1.116-0.518,2.046-2.031,1.881
			c-0.906-0.099-2.578,2.047-2.549,2.967c0.009,0.272-0.103,0.651-0.298,0.809c-1.862,1.5-3.755,2.962-5.636,4.438
			c-1.217,0.955-2.397,1.96-3.653,2.86c-1.077,0.771-2.258,1.396-3.356,2.139c-1.112,0.753-2.129,1.655-3.276,2.346
			c-2.835,1.708-5.689,3.392-8.61,4.947c-0.679,0.362-1.653,0.17-2.453,0.231c0.154,0.766,0.127,0.707-0.976,1.213
			c-0.62,0.284-1.097,0.867-1.704,1.194c-0.513,0.276-1.06,0.866-1.738,0.196c-0.079-0.078-0.442,0.07-0.63,0.185
			c-0.11,0.067-0.093,0.351-0.202,0.41c-1.237,0.669-2.477,1.336-3.749,1.933c-0.156,0.073-0.506-0.266-0.866-0.472
			c-0.119,0.35-0.243,0.714-0.264,0.777c-3.859,2.46-8.278,2.862-12.183,5.126c0-0.573,0-0.823,0-1.112
			c-0.122,0.073-0.237,0.115-0.234,0.145c0.115,1.104-1.156,1.397-1.443,1.317c-1.18-0.329-1.81,0.584-2.693,0.865
			c-0.183,0.058-0.376,0.083-0.627,0.137c-0.034-0.374-0.064-0.706-0.094-1.037c-0.059-0.006-0.119-0.013-0.178-0.019
			c-0.106,0.316-0.188,0.643-0.328,0.943c-0.086,0.185-0.311,0.491-0.389,0.467c-1.625-0.501-2.592,1.059-4.041,1.254
			c-1.866,0.251-3.677,0.913-5.448,1.382c-0.055-0.371-0.115-0.772-0.175-1.173c-0.171,0.02-0.342,0.039-0.512,0.059
			c0.027,0.391,0.055,0.782,0.097,1.383c-0.68,0.065-1.446,0.146-2.214,0.208c-0.288,0.023-0.74-0.12-0.846,0.019
			c-0.871,1.145-2.362,0.44-3.417,1.207c-0.466,0.339-1.438-0.017-2.286-0.064c0.16,0.187,0.284,0.331,0.584,0.682
			c-1.656,0.124-3.154,0.125-4.609,0.377c-1.435,0.248-2.822,0.767-4.24,1.127c-0.268,0.068-0.586-0.088-0.876-0.066
			c-0.668,0.05-1.393,0.001-1.987,0.25c-1.908,0.798-3.839,1.071-5.906,0.898c-0.86-0.072-1.755,0.461-2.652,0.588
			c-1.672,0.236-3.38,0.265-5.029,0.594c-1.153,0.23-2.306-0.15-3.459,0.237c-0.358,0.12-0.938-0.422-1.6-0.753
			c-0.056,0.042-0.339,0.188-0.532,0.411c-0.459,0.532-0.832,0.57-1.433,0.115c-0.324-0.245-1.08-0.327-1.39-0.115
			c-1.414,0.969-2.832,0.273-4.204,0.072c-0.712-0.104-1.345-0.501-2.121-0.174c-0.186,0.079-0.534-0.286-0.828-0.385
			c-0.295-0.1-0.71-0.279-0.911-0.157c-1.033,0.63-1.863,0.406-2.659-0.405c-0.135-0.138-0.553-0.243-0.617-0.17
			c-0.714,0.821-1.293,0.166-2.01-0.182c0.203-0.19,0.378-0.354,0.674-0.632c-0.877,0.182-1.677,0.584-2.343,0.424
			c-0.772-0.185-1.425-0.863-1.89-1.169c-0.683,0.156-1.166,0.3-1.657,0.347c-0.095,0.009-0.226-0.366-0.378-0.629
			c-1.975-0.065-3.993-0.308-5.899-1.604c-0.6-0.408-1.545-1.406-2.782-0.842c-0.384,0.175-1.069-0.309-1.797-0.552
			c-0.068,1.687-1.003,3.111-0.117,4.692c0.208,0.372,0.064,0.956,0.019,1.437c-0.006,0.067-0.371,0.102-0.547,0.146
			c0,0.95,0,2.179,0,3.321c0.019-0.018,0.206-0.193,0.542-0.507c0.11,0.703,0.271,1.31,0.289,1.922
			c0.039,1.325-0.186,2.69,0.063,3.967c0.186,0.95,0.037,1.86,0.158,2.746c0.168,1.233,0.121,2.321-0.468,3.412
			c-0.07,0.13,0.175,0.626,0.313,0.644c1.528,0.191,1.079,1.503,1.328,2.365c0.224,0.775,0.294,1.611,0.32,2.424
			c0.048,1.511,0.014,3.025,0.304,4.422c0.23,0.35,0.573,0.671,0.668,1.055c0.303,1.213,0.574,2.441,0.744,3.679
			c0.2,1.461,0.636,2.859,1.002,4.275c0.165,0.639,0.461,1.255-0.45,1.586c-0.063,0.023-0.008,0.371-0.008,0.793
			c0.288-0.403,0.465-0.652,0.815-1.143c0.092,0.654,0.33,1.16,0.17,1.436c-0.48,0.833-0.271,1.223,0.486,1.769
			c0.422,0.305,0.656,1.183,0.599,1.767c-0.099,1.016,0.552,1.73,0.726,2.608c0.112,0.566,0.079,1.162,0.126,2.024
			c-0.004-0.002,0.283,0.174,0.628,0.386c-0.095,0.121-0.15,0.201-0.213,0.272c-0.211,0.239-0.426,0.474-0.639,0.711
			c0.219,0.14,0.46,0.255,0.65,0.427c0.34,0.306,0.769,0.592,0.943,0.983c0.304,0.681,0.467,1.43,0.645,2.161
			c0.227,0.933,0.031,1.997,0.939,2.723c0.077,0.062-0.244,0.622-0.323,0.812c0.517,0.717,1.053,1.461,1.59,2.205
			c-0.104,0.099-0.208,0.199-0.312,0.298c-0.25-0.083-0.501-0.167-0.779-0.259c0.1,0.429,0.205,0.883,0.313,1.346
			c1.126,0.001,1.466,0.422,0.843,1.441c-0.045,0.073,0.312,0.44,0.53,0.611c0.219,0.172,0.721,0.279,0.715,0.396
			c-0.063,1.312,0.978,2.164,1.309,3.297c0.344,1.176,0.619,2.374,0.993,3.54c0.103,0.322,0.568,0.528,0.673,0.85
			c0.485,1.488,2.041,2.596,1.424,4.515c-0.19,0.592,0.331,1.414,0.575,2.308c1.905,0.444,2.569,2.276,3.317,3.995
			c0.133,0.305-0.139,0.786-0.214,1.134c0.506,0.68,1.694,0.747,1.676,2.122c-0.01,0.766,0.351,2.052,0.839,2.214
			c1.589,0.526,1.557,2.067,2.336,3.062c0.366,0.468,0.458,1.143,0.712,1.708c0.077,0.171,0.323,0.26,0.416,0.429
			c0.214,0.388,0.381,0.801,0.457,0.965c0.665,1.088,1.235,1.919,1.695,2.807c0.405,0.78,0.681,1.627,1.03,2.438
			c0.056,0.131,0.173,0.262,0.296,0.336c1.791,1.068,2.889,2.533,2.888,4.721c0,0.26,0.52,0.52,0.799,0.781
			c0.361,0.338,0.908,0.616,1.039,1.027c0.223,0.697,0.884,0.65,1.243,1.018c0.511,0.525,0.858,1.207,1.295,1.807
			c0.594,0.816,1.225,1.606,1.802,2.434c0.158,0.227,0.191,0.546,0.259,0.827c0.026,0.107-0.016,0.331-0.014,0.331
			c1.031,0.077,0.943,1.35,1.446,1.573c1.127,0.497,1.17,1.421,1.375,2.291c0.238,1.008,0.268,1.034,1.345,0.94
			c0.238-0.021,0.52,0.571,0.798,0.865c0.805,0.851,1.634,1.681,2.425,2.546c0.506,0.554,0.959,1.155,1.488,1.798
			c-0.201,0.128-0.401,0.256-0.782,0.498c0.451,0.073,0.704,0.114,0.956,0.155c-0.045,0.259-0.089,0.518-0.133,0.777
			c0.235-0.036,0.479-0.13,0.703-0.095c0.34,0.054,0.794,0.095,0.974,0.321c0.633,0.799,1.834,1.249,1.641,2.611
			c-0.031,0.219,0.427,0.507,0.803,0.512c0.186,0.095,0.425,0.147,0.548,0.294c0.225,0.27,0.382,0.597,0.578,0.919
			c-0.116,0.033-0.268,0.076-0.414,0.118c0.196,0.086,0.391,0.213,0.603,0.257c0.741,0.154,1.045,0.37,0.834,1.308
			c-0.187,0.835,0.773,0.906,1.421,0.953c1.471,0.107,1.579,0.253,0.912,1.971c0.544-0.401,0.835-0.616,1.011-0.746
			c0.888,0.747,1.723,1.548,2.661,2.201c0.539,0.375,0.074,1.225,1.105,1.484c0.959,0.241,1.721,1.312,2.537,2.054
			c0.241,0.219,0.355,0.572,0.553,0.844c0.133,0.183,0.326,0.486,0.467,0.473c1.384-0.133,1.962,0.757,2.602,1.77
			c0.398,0.631,1.151,1.039,1.748,1.548c1.256-0.717,1.756,0.89,2.628,1.323c0.817,0.406,1.314,1.456,1.966,2.238
			c0.675-0.548,0.648-0.522,1.03,0.621c0.119,0.356,0.594,0.594,0.767,0.755c0.328-0.109,0.826-0.413,0.964-0.295
			c0.502,0.43,0.884,1.001,1.503,1.752c0.781-0.318,1.848,0.045,2.707,0.891c0.752,0.741,2.266,0.922,1.885,2.633
			c0.301-0.091,0.503-0.149,0.703-0.212c0.305-0.097,0.711-0.376,0.898-0.27c1.681,0.956,3.29,2.043,4.99,2.962
			c1.242,0.671,2.581,1.167,3.893,1.703c1.024,0.418,2.243,0.529,2.489,1.974c0.034,0.202,0.575,0.441,0.887,0.45
			c1.626,0.049,3.216-0.071,4.587,1.22c0.576,0.542,1.638,0.575,2.485,0.821c1.248,0.362,2.532,0.625,3.736,1.097
			c0.491,0.193,0.811,0.822,1.06,1.093c0.156-0.125,0.463-0.553,0.677-0.511c0.978,0.19,1.948,0.465,2.882,0.813
			c0.361,0.135,0.62,0.545,0.84,0.749c0.455-0.076,0.923-0.309,1.261-0.185c1.754,0.64,3.619,0.738,5.409,1.202
			c1.839,0.476,3.726,0.79,5.608,1.066c2.348,0.345,4.709,0.609,7.07,0.85c1.151,0.117,2.319,0.061,3.473,0.161
			c0.649,0.056,1.282,0.281,1.927,0.41c0.236,0.047,0.487,0.067,0.726,0.047c1.823-0.149,3.646-0.314,5.469-0.465
			c0.151-0.012,0.307,0.041,0.69,0.099c-0.305,0.194-0.441,0.281-0.703,0.448c0.2,0.075,0.365,0.19,0.426,0.15
			c1.089-0.725,2.2-0.914,3.404-0.267c0.189,0.102,0.482,0.033,0.722,0.005c0.11-0.013,0.237-0.199,0.307-0.173
			c1.232,0.454,2.441-1.029,3.673-0.044c0.026,0.021,0.082,0.02,0.119,0.011c1.047-0.252,2.126-0.419,3.13-0.789
			c0.752-0.278,1.966-0.116,2.308,0.475c0.959-0.365,1.877-0.842,2.852-1.053c1.099-0.237,2.261-0.169,3.376-0.353
			c1.171-0.193,2.317-0.53,3.476-0.798c0.192-0.044,0.391-0.074,0.587-0.081c0.755-0.023,1.406,0.208,2.214-0.452
			c0.712-0.581,2.034-0.419,3.088-0.573c0.107-0.016,0.236,0.039,0.339,0.091c1.149,0.583,1.148,0.584,1.833-0.725
			c0.168,0.312,0.293,0.544,0.489,0.907c0.439-1.455,1.209-1.706,2.269-0.781c0.777-1.388,3.631-2.006,4.996-1.036
			c0-0.397,0-0.722,0-1.043c1.502-0.45,2.984-0.894,4.582-1.372c-0.031,0.39-0.053,0.673-0.08,1.016
			c0.55-0.129,1.037-0.243,1.477-0.346c-0.075-0.31-0.161-0.668-0.224-0.929c1.791-0.64,3.621-1.322,5.47-1.946
			c1.875-0.632,3.771-1.207,5.66-1.599c0.341-0.303,0.634-0.715,1.032-0.891c2.089-0.925,4.182-1.85,6.319-2.652
			c1.117-0.419,2.328-0.588,3.536-0.879c-0.112-0.13-0.224-0.262-0.475-0.554c0.784-0.191,1.473-0.359,2.389-0.583
			c0.22-0.34,0.386-1.502,1.469-0.394c0.088,0.09,0.547-0.017,0.686-0.168c0.98-1.067,0.968-1.078,1.779-1.096
			c0.888-0.785,1.58-1.397,2.511-2.221c0,0.712,0,1.04,0,1.415c0.127-0.06,0.293-0.088,0.312-0.156c0.61-2.24,2.605-2.57,4.387-3.19
			c0.223-0.078,0.504-0.047,0.688-0.17c1.606-1.076,3.169-2.219,4.799-3.256c1.742-1.109,3.543-2.126,5.278-3.159
			c0.312,0.513,0.589,0.968,0.866,1.423c0.111-0.061,0.221-0.122,0.332-0.183c-0.185-0.355-0.37-0.71-0.514-0.985
			c0.385-0.478,0.698-1.254,1.197-1.403c1.039-0.309,1.507-1.295,2.432-1.68c1.552-0.646,2.748-1.816,4.067-2.807
			c1.527-1.147,3.063-2.282,4.634-3.367c0.3-0.207,0.781-0.153,1.31-0.241c0.131-0.726,0.275-1.717,1.597-0.96
			c0.256-0.529,0.038-1.528,1.12-1.124c0.066,0.024,0.226-0.254,0.364-0.365c0.554-0.451,0.595-1.528,1.67-1.361
			c0.101,0.016,0.322-0.178,0.344-0.3c0.217-1.213,0.916-1.34,2.184-0.646c-0.203-0.638-0.314-0.987-0.477-1.5
			c1.834-1.514,3.831-3.073,5.723-4.752c1.884-1.672,3.662-3.464,5.487-5.205c0.025,0.043,0.161,0.28,0.386,0.67
			c0.148-0.405,0.248-0.545,0.213-0.604c-0.414-0.689-0.031-1.114,0.441-1.567c0.988-0.948,1.947-1.926,2.911-2.899
			c1.084-1.094,2.222-2.143,3.209-3.319c0.373-0.445,0.37-1.22,1.042-0.768c0.231-0.469,0.359-0.921,0.633-1.252
			c0.954-1.151,2.04-2.201,2.922-3.402c0.997-1.358,1.814-2.847,2.74-4.258c0.283-0.431,0.649-0.815,1.014-1.183
			c0.521-0.525,1.345-0.75,1.153-1.853c-0.066-0.379,0.745-0.933,1.194-1.367c0.219-0.212,0.528-0.332,0.796-0.494
			c-0.162-0.256-0.324-0.512-0.629-0.993c0.863-1.038,1.806-2.169,2.746-3.303c0.142-0.171,0.398-0.368,0.382-0.532
			c-0.158-1.626,0.619-2.809,1.734-3.851c0.113-0.106,0.215-0.249,0.266-0.394c0.745-2.126,1.51-4.245,2.21-6.385
			c0.866-2.65,1.532-5.376,2.572-7.954c0.493-1.221,0.481-2.394,0.617-3.604c0.154-1.359,0.338-2.714,0.477-4.075
			c0.113-1.111,0.099-2.259,0.978-2.731c-0.273-0.937-0.657-1.702-0.685-2.479c-0.045-1.231,1.402-1.931,2.553-1.338
			c1.558,0.803,1.859,1.844,1.134,3.48c-0.165,0.372-0.044,0.91,0.049,1.351c0.235,1.121,0.528,2.23,0.841,3.522
			c-0.393-0.095-0.597-0.144-0.805-0.195c0.035,0.075,0.066,0.193,0.135,0.282c0.248,0.319,0.701,0.61,0.732,0.944
			c0.122,1.329,0.004,2.686,0.186,4.003c0.177,1.279,0.643,2.515,0.929,3.783c0.428,1.899,0.734,3.83,1.243,5.706
			c0.26,0.957,0.847,1.825,1.327,2.818c-0.062,0.166-0.167,0.447-0.229,0.611c0.889-0.054,1.758,0.068,2.477-0.205
			c0.589-0.223,1.032-0.888,1.482-1.407c0.538-0.62,0.975-1.36,2-1c0.077,0.027,0.22-0.133,0.584-0.37
			c-0.617-0.031-0.934-0.047-1.59-0.079c2.578-2.023,2.408-5.161,3.982-8.034c0.116,0.501,0.18,0.774,0.244,1.048
			c0.092-0.062,0.185-0.123,0.277-0.185c0.012-0.177,0.106-0.428,0.023-0.52c-0.454-0.504-0.585-0.817-0.028-1.481
			c0.473-0.565,0.476-1.53,0.668-2.322c0.217-0.893,0.365-1.806,0.651-2.675c0.071-0.215,0.557-0.293,0.898-0.456
			c-0.572-1.634-0.348-3.109,0.779-4.175c0-0.76-0.063-1.361,0.038-1.933c0.031-0.175,0.512-0.271,0.935-0.474
			c-0.087-0.211-0.225-0.506-0.333-0.812c-0.259-0.733-0.463-1.464,0.437-1.935c0.512-0.268,0.704-0.461,0.162-1.004
			c-0.273-0.273-0.251-0.968-0.172-1.44c0.232-1.387,0.56-2.758,0.884-4.292c0.055-0.003,0.338-0.016,0.711-0.033
			c-1.192-2.683,0.092-5.289,0.061-7.92c-0.026-2.211,0.198-4.463,0.643-6.628c0.233-1.137-0.64-2.698,1.234-3.455
			c-1.548-0.609-1.41-1.445-0.775-2.568c0.287-0.508,0.158-1.309,0.072-1.957c-0.14-1.062-0.812-2.137,0.375-3.069
			c0.136-0.107-0.012-0.787-0.212-1.073c-0.909-1.294-0.925-2.44-0.042-3.561c-0.857-1.989-0.873-3.995-0.819-6.041
			c0.032-1.196-0.296-2.398-0.311-3.599c-0.009-0.672,0.292-1.347,0.616-1.998c-0.036-0.808-2.338-1.222-0.42-2.599
			c-0.263,0.07-0.526,0.139-0.857,0.227c-0.074-1.207-0.146-2.393-0.218-3.574c0.008,0.004-0.275-0.052-0.285-0.139
			c-0.194-1.658-0.331-3.323-0.54-4.979c-0.064-0.506-0.349-0.98-0.46-1.484c-0.121-0.553-0.893-1.074-0.107-1.714
			c0.09-0.073-0.015-0.454-0.101-0.662c-0.52-1.256-1.062-2.503-1.598-3.758c0.463-0.285,0.748-0.461,1.072-0.661
			c-0.111-0.149-0.165-0.302-0.244-0.316c-0.972-0.171-1.177-0.754-1.056-1.663c0.054-0.406-0.107-0.917-0.34-1.27
			c-0.515-0.781-0.801-1.515-0.238-2.408c-0.119,0.196-0.238,0.392-0.494,0.813c-0.468-1.191-0.897-2.235-1.287-3.294
			c-0.426-1.157-0.824-2.324-1.217-3.493c-0.156-0.465-0.235-0.957-0.407-1.415c-0.594-1.582-0.967-3.213-2.047-4.641
			c-1.508-1.995-3.024-4.044-3.324-6.71c-0.058-0.516-0.893-0.946-1.487-1.531c0.073-0.069,0.295-0.276,0.541-0.506
			c-0.629-0.109-1.483,0.002-1.765-0.99c-0.166-0.584-1.479-0.903-0.157-1.929c-0.557-0.214-1.052-0.302-1.414-0.569
			c-0.525-0.387-1.157-0.82-1.389-1.379c-0.873-2.109-3.032-3.072-4.183-4.865c-1.038-1.616-2.782-2.293-4.05-3.562
			c-2.081-2.084-4.62-3.538-6.988-5.23c-0.25-0.179-0.334-0.591-0.339-0.6c-2.086-1.073-3.983-2.049-5.979-3.076
			c0.224-0.143,0.443-0.282,0.794-0.506c-0.475,0-0.802-0.02-1.125,0.006c-0.276,0.022-0.602,0.221-0.814,0.129
			c-1.702-0.739-3.347-1.622-5.081-2.273c-1.44-0.541-2.976-0.828-4.529-1.243c0.154-0.17,0.266-0.293,0.429-0.474
			c-0.659,0.036-1.297,0.215-1.851,0.07c-0.996-0.26-1.928-0.757-2.914-1.064c-0.337-0.105-0.77,0.139-1.138,0.084
			c-0.3-0.045-0.57-0.299-0.913-0.495c-0.233,0.05-0.683,0.251-1.113,0.215c-0.917-0.078-1.827-0.263-2.734-0.439
			c-0.346-0.067-0.739-0.149-0.999-0.362c-0.803-0.655-1.603-0.773-2.513-0.292c-0.167,0.089-0.381,0.137-0.57,0.129
			c-1.208-0.057-2.428-0.052-3.617-0.24c-0.61-0.097-1.149-0.587-1.749-0.829c-0.356-0.144-0.897-0.346-1.132-0.189
			c-1.924,1.284-4.069,0.631-6.116,0.804c-1.093,0.092-2.135-0.235-3.307,0.147c-1.353,0.442-2.911,0.252-4.379,0.35
			c-0.408,0.027-0.812,0.145-1.217,0.143c-0.289-0.002-0.6-0.09-0.861-0.22c-0.327-0.164-0.614-0.41-0.918-0.62
			c-0.155,0.346-0.31,0.692-0.574,1.281c-0.877-0.069-1.887-0.208-2.896-0.195c-0.357,0.005-0.773,0.623-1.053,0.548
			c-1.635-0.436-3.008,0.73-4.574,0.637c-1.595-0.094-3.009,0.695-4.518,1.025c-0.156,0.034-0.412,0.115-0.461,0.052
			c-0.8-1.048-1.081-0.356-1.772,0.248c-0.558,0.487-1.642,0.932-2.629,0.282c-0.208-0.137-0.745,0-0.996,0.189
			c-1.215,0.916-2.533,1.362-4.074,1.366c-0.781,0.002-1.571,0.347-2.341,0.589c-1.277,0.401-2.527,0.889-3.812,1.259
			c-1.669,0.481-3.37,0.85-5.038,1.332c-0.797,0.23-1.544,0.631-2.329,0.912c-0.348,0.124-0.736,0.134-1.103,0.209
			c-1.291,0.265-2.583,0.525-3.867,0.822c-0.134,0.031-0.208,0.304-0.32,0.457c-0.161,0.22-0.38,0.643-0.489,0.617
			c-1.389-0.327-2.218,0.798-3.309,1.222c-2.756,1.071-5.503,2.166-8.259,3.238c-0.817,0.318-1.636,0.723-2.486,0.827
			c-0.4,0.049-1.014-0.426-1.285-0.829c-0.391-0.581-0.557-1.312-0.805-1.944c0.613-0.387,1.129-0.713,1.835-1.159
			c0.323-0.153,0.822-0.43,1.35-0.631c1.089-0.415,2.192-0.792,3.292-1.177c0.1-0.035,0.249,0.025,0.325-0.029
			c1.329-0.964,1.322-0.962,2.342,0.089c0.088,0.091,0.299,0.062,0.471,0.091c-0.449-2.04,4.268-3.719,6.073-3.504
			c0.513-0.3,0.991-0.731,1.544-0.873c1.283-0.33,2.425-1.419,3.9-0.795c1.013-1.637,3.101-0.368,4.018-1.275
			c0.958-0.948,2.014-1.135,3.078-1.467c0.851-0.265,1.753-1.153,2.732-0.193c0.034,0.034,0.277-0.106,0.393-0.201
			c1.128-0.921,2.484-1.272,3.87-1.522c0.327-0.059,0.683,0.044,1.17,0.084c-0.223,0.236-0.341,0.361-0.459,0.486
			c0.061,0.087,0.121,0.174,0.182,0.261c0.399-0.322,0.788-0.659,1.201-0.963c0.375-0.275,0.747-0.634,1.173-0.735
			c0.517-0.122,1.09-0.008,1.638-0.004c0.589,0.005,1.177,0.001,2.029,0.001c0.044-0.101,0.226-0.524,0.448-1.039
			c2.817,0.008,5.56-1.945,8.808-0.629c0.095-0.08,0.395-0.332,0.719-0.604c-0.225-0.108-0.384-0.184-0.544-0.26
			c0.012-0.07,0.023-0.14,0.035-0.21c0.369,0.041,0.807-0.03,1.094,0.145c0.71,0.433,1.229,0.582,1.782-0.265
			c0.467-0.714,3.071-0.761,3.721-0.188c0.154,0.135,0.403,0.163,0.608,0.24c0.062-0.247,0.124-0.494,0.185-0.736
			c0.755-0.135,1.613-0.458,2.439-0.39c0.844,0.069,1.585,0.018,2.389-0.239c0.408-0.13,0.953,0.255,1.429,0.235
			c0.723-0.03,1.436-0.267,2.16-0.312c1.694-0.105,3.399-0.261,5.084-0.152c0.536,0.035,1.022,0.842,1.576,1.337
			c-0.02-0.417-0.04-0.856-0.074-1.57c0.699,0.213,1.237,0.385,1.781,0.538c0.218,0.061,0.48,0.171,0.668,0.104
			c2.42-0.856,4.84,0.03,7.235,0.138c1.156,0.052,2.412,0.197,3.612,0.374c1.56,0.23,3.116,0.49,4.665,0.785
			c0.241,0.046,0.445,0.333,0.647,0.528c0.422,0.409,0.691,0.718,1.439,0.27c0.521-0.312,1.447,0.053,2.3,0.125
			c-0.17,0.319-0.256,0.481-0.381,0.715c0.152-0.071,0.248-0.108,0.336-0.158c0.715-0.409,0.647-0.373,1.066,0.385
			c0.143,0.259,0.709,0.364,1.093,0.392c0.814,0.058,1.634,0.018,2.485,0.018c0,0.582,0,0.908,0,1.3
			c1.578-0.952,4.279-0.063,5.588,1.831c0.087-0.308,0.15-0.527,0.282-0.994c0.719,0.547,1.512,0.928,1.975,1.554
			c0.744,1.004,1.962,0.414,2.766,1.049c0.087,0.069,0.305,0.028,0.338,0.098c0.62,1.28,2.1,1.026,3.056,1.723
			c0.995,0.725,2.316,1.127,3.076,2.024c1.338,1.579,3.643,2.176,4.349,4.364c0.052,0.16,0.378,0.337,0.571,0.33
			c1.207-0.043,1.207-0.059,1.436,1.012c0.965-0.342,1.423,0.409,1.843,0.987c0.205,0.282,0.036,0.836,0.036,1.442
			c0.28-0.055,0.702-0.139,1.485-0.294c0.685,1.068,1.536,2.306,2.283,3.605c0.265,0.46,0.259,1.021,1.053,0.728
			c0.146-0.054,0.614,0.395,0.724,0.69c0.245,0.658,0.33,1.374,0.546,2.046c0.054,0.167,0.357,0.36,0.545,0.36
			c1.197-0.005,1.334,0.658,1.02,1.604c0.982,0.017,2.455,1.209,2.458,2.479c0.004,1.191,1.013,1.429,1.382,2.226
			c0.399,0.86,1.145,1.559,1.631,2.187c-0.371,0.477-0.596,0.767-1.029,1.324c1.291-0.236,1.777,0.163,2.166,1.082
			c1.302,3.074,3.043,5.998,4.004,9.165c0.522,1.72,1.588,3.211,1.831,5.01c0.144,1.063,0.388,2.113,0.62,3.34
			c1.001,0.301,0.835,1.633,1.259,2.6c0.155,0.354,0.192,0.767,0.248,1.158c0.169,1.181,1.244,2.419-0.055,3.194
			c0.491,0.615,1.099,1.042,1.209,1.572c0.515,2.472,0.932,4.967,1.284,7.467c0.067,0.475-0.47,1.019-0.453,1.522
			c0.021,0.624,0.143,1.446,0.553,1.815c0.874,0.786,0.695,1.615,0.544,2.536c-0.033,0.2,0.129,0.431,0.202,0.651
			c-0.221,0.102-0.464,0.215-0.516,0.239c1.617,2.432,0.743,5.183,1.135,7.709c0.056,0.358-0.32,0.784-0.569,1.341
			c0.098,0.034,0.433,0.152,0.916,0.321c-0.08,1.414-0.246,2.906-0.227,4.397c0.021,1.624,0.283,3.245,0.309,4.869
			c0.018,1.08-0.182,2.164-0.306,3.244c-0.079,0.688-0.587,1.397,0.14,2.026c-0.835,1.157,0.117,2.425-0.23,3.606
			c-0.084,0.286-0.304,0.531-0.467,0.804c0.84,0.234,0.445,1.041,0.397,1.725c-0.036,0.519-0.097,1.04-0.189,1.552
			c-0.122,0.682-0.305,1.354-0.423,2.037c-0.137,0.793-0.248,1.591-0.342,2.39c-0.073,0.628-0.126,1.261-0.147,1.892
			c-0.035,1.073,0.112,2.175-0.085,3.214c-0.332,1.752-0.186,3.594-1.12,5.259c-0.321,0.572,0.014,1.479-0.09,2.213
			c-0.128,0.907-0.416,1.79-0.604,2.69c-0.167,0.8-0.264,1.614-0.444,2.411c-0.297,1.317-0.432,2.689-1.293,3.826
			c-0.126,0.166-0.011,0.496-0.103,0.708c-0.206,0.475-0.472,0.923-0.675,1.307c0.106,0.266,0.473,0.716,0.376,1.018
			c-0.732,2.281-1.432,4.587-2.382,6.781c-1.101,2.542-2.427,4.988-3.712,7.446c-0.174,0.334-0.687,0.481-1.015,0.748
			c-0.193,0.157-0.497,0.414-0.467,0.571c0.223,1.15-0.439,1.266-1.341,1.143c0.25,1.307-0.755,1.667-1.557,1.868
			c-2.735,0.686-3.565,0.484-4.83-1.725c-0.052,0.269-0.087,0.456-0.128,0.67c-0.385-0.167-0.755-0.327-1.141-0.495
			c0.134-0.149,0.261-0.291,0.433-0.481c-1.484-0.219-1.931-0.816-2.673-3.443c0.269-0.182,0.54-0.366,0.812-0.55
			c-0.022-0.061-0.043-0.122-0.065-0.183c-0.362,0.044-0.724,0.088-0.955,0.117c-0.59-1.925-1.163-3.797-1.737-5.669
			c-0.122,0.012-0.243,0.023-0.365,0.035c-0.202,0.96,0.285,2.347-1.351,2.405c0,0.91,0.253,1.919-0.055,2.71
			c-0.568,1.461-1.463,2.795-2.229,4.178c-0.077,0.139-0.321,0.315-0.293,0.365c0.908,1.624-0.809,2.065-1.348,3.031
			c-0.075,0.134-0.212,0.337-0.165,0.419c0.813,1.405-0.533,1.497-0.95,1.813c-0.141,0.837-0.084,1.53-0.371,2.022
			c-1.464,2.502-2.897,5.039-4.602,7.374c-0.633,0.866-0.709,2.455-2.323,2.484c-0.106,0.002-0.336,0.422-0.289,0.486
			c0.672,0.908-0.327,1.27-0.642,1.748c-0.887,1.343-1.902,2.607-2.93,3.849c-0.301,0.364-0.916,0.473-1.209,0.84
			c-0.608,0.764-1.073,1.64-1.641,2.439c-0.476,0.669-0.964,1.344-1.542,1.922c-0.43,0.43-1.012,0.709-1.367,1.13
			c-0.786,0.955-1.557,1.924-2.363,2.862c-0.776,0.902-1.545,1.819-2.406,2.637c-0.445,0.423-1.085,0.637-1.627,0.962
			c-0.184,0.11-0.375,0.242-0.499,0.411c-0.431,0.588-0.795,1.229-1.259,1.789c-0.444,0.537-0.929,1.068-1.489,1.474
			c-0.707,0.512-1.506,0.897-2.278,1.313c-0.019,0.01-0.184-0.248-0.459-0.227c0.184,0.246,0.368,0.493,0.61,0.818
			c-0.713,0.346-0.792,1.753-2.127,0.978c0.024,0.99-0.208,1.745-1.503,1.436c-0.125,1.034-0.626,1.748-1.718,1.981
			c-0.214,0.046-0.319,0.579-0.536,0.632c-0.684,0.165-0.942,1.291-1.933,0.831c-0.106-0.049-0.527,0.614-0.82,0.931
			c-0.697,0.754-1.322,1.607-2.127,2.221c-1.348,1.028-2.83,1.878-4.222,2.85c-0.641,0.447-1.166,1.062-1.814,1.497
			c-0.601,0.403-1.3,0.66-1.946,0.999c-0.224,0.117-0.456,0.255-0.622,0.44c-0.408,0.453-0.78,0.938-1.335,1.616
			c-0.167-0.591-0.245-0.867-0.322-1.142c-0.089,0.026-0.178,0.052-0.268,0.078c0.05,0.254,0.1,0.508,0.138,0.704
			c-0.633,0.546-1.814,0.256-1.969,1.511c-0.035,0.28-0.558,0.546-0.903,0.731c-1.265,0.677-2.556,1.306-3.821,1.982
			c-0.236,0.126-0.398,0.389-0.597,0.587c-0.22,0.22-0.406,0.503-0.669,0.645c-1.373,0.738-2.766,1.439-4.15,2.156
			c-0.139,0.072-0.335,0.134-0.388,0.252c-0.404,0.899-0.994,0.69-1.385,0.451c-0.396,0.441-0.673,0.94-1.098,1.188
			c-1.478,0.866-3.238,1.172-4.567,2.376c-0.367,0.332-1.002,0.368-1.519,0.367c-0.457,0.376-0.868,0.842-1.381,1.113
			c-1.799,0.948-3.628,1.839-5.456,2.731c-0.885,0.432-1.789,0.825-2.692,1.216c-0.172,0.075-0.498,0.152-0.559,0.074
			c-0.917-1.158-1.041-0.053-1.595,0.41c-0.887,0.742-1.996,1.233-3.045,1.762c-0.669,0.338-1.383,0.628-2.109,0.802
			c-0.655,0.157-1.354,0.127-2.335,0.202c-0.938,1.417-4.832,3.086-6.311,2.363c-0.181,1.236-1.3,1.041-2.091,1.361
			c-0.484,0.196-0.997,0.322-1.498,0.475c-1.47,0.45-2.939,0.906-4.416,1.331c-0.135,0.039-0.472-0.133-0.469-0.197
			c0.01-0.239,0.122-0.474,0.248-0.874c-0.376,0.22-0.818,0.333-0.89,0.561c-0.067,0.214,0.258,0.551,0.57,1.128
			c-0.914-0.165-1.683-0.425-2.442-0.398c-0.496,0.018-0.977,0.451-1.55,0.741c0.024,0.072-0.059-0.178-0.167-0.507
			c-0.526,0.621-0.9,2.398-2.056,0.06c-0.393,0.438-0.714,0.861-1.102,1.209c-0.366,0.329-0.897,0.898-1.193,0.811
			c-1.514-0.448-2.636,0.468-3.894,0.909c-0.113,0.04-0.223,0.128-0.335,0.128c-1.02,0.003-1.988,0.188-2.993,0.425
			c-1.377,0.325-2.864,0.168-4.296,0.297c-0.426,0.038-0.827,0.345-1.212,0.618c-0.573,0.041-1.27-0.95-1.763,0.357
			c-0.093,0.245-0.925,0.268-1.421,0.294c-1.541,0.082-3.084,0.116-4.626,0.169c-0.019-0.126-0.038-0.251-0.056-0.377
			c-0.238,0.316-0.477,0.632-0.715,0.948c-0.041-0.102-0.083-0.203-0.124-0.305c-2.425,0.713-4.857,1.057-7.223,0.556
			c-0.711,0.165-1.366,0.423-2.029,0.448c-1.676,0.063-3.358,0.072-5.033,0.005c-1.41-0.057-2.816-0.24-4.22-0.399
			c-0.154-0.017-0.284-0.243-0.219-0.183c-0.6,0.229-1.083,0.568-1.567,0.57c-1.81,0.007-3.612-0.134-5.259-1.023
			c-0.159-0.086-0.473-0.203-0.508-0.156c-1.064,1.476-1.919,0.09-2.817-0.224c-0.641-0.224-0.977-0.197-0.91,0.649
			c-1.068-0.157-2.097-0.267-3.105-0.474c-0.462-0.095-0.869-0.491-1.329-0.559c-1.054-0.157-2.132-0.149-3.186-0.306
			c-0.422-0.063-0.789-0.443-1.213-0.565c-0.485-0.139-1.008-0.139-1.511-0.221c-1.376-0.224-2.76-0.416-4.123-0.706
			c-0.865-0.185-1.704-0.504-2.543-0.798c-0.626-0.219-1.216-0.629-1.853-0.714c-1.445-0.192-2.702-0.708-3.792-1.667
			c-0.101-0.089-0.318-0.08-0.475-0.065c-1.86,0.181-1.859,0.183-3.179-0.836c0.112-0.289,0.226-0.586,0.341-0.882
			c-0.097-0.072-0.194-0.144-0.292-0.216c-0.285,0.36-0.57,0.719-0.957,1.208c-0.505-0.337-1.093-0.728-1.831-1.22
			c-0.224-0.051-0.734-0.11-1.201-0.283c-1.013-0.374-2.012-0.789-3.002-1.221c-0.521-0.227-0.999-0.555-1.519-0.786
			c-1.269-0.565-2.567-1.065-3.82-1.664c-0.592-0.283-1.076-0.787-1.662-1.09C414.384,703.833,413.754,703.675,413.115,703.445z
			 M333.509,521.69c-0.519,0.757,0.097,1.975-1.439,2.236c-0.136,0.023-0.281,0.419-0.296,0.649c-0.035,0.567,0.144,1.182-0.015,1.7
			c-0.432,1.406-1.069,2.75-1.488,4.159c-0.504,1.692-0.92,3.415-1.274,5.145c-0.231,1.13-1.094,2.105-0.591,3.447
			c0.282,0.751,0.051,1.694,0.051,2.571c0.158,0,0.356,0.011,0.551-0.002c1.014-0.069,2.194-0.384,2.856,0.572
			c0.569,0.823,1.103,0.702,1.875,0.578c1.312-0.211,3.594,1.087,3.968,2.05c0.714,0,1.396-0.087,2.045,0.021
			c0.913,0.151,1.792,0.51,2.705,0.666c1.363,0.232,2.751,0.325,4.113,0.566c0.382,0.068,0.709,0.449,1.111,0.72
			c0.802-0.954,1.066,0.281,1.565,0.685c0.964-1.205,1.568-1.022,2.8,0.929c0.995-1.691,2.217-1.73,3.558-0.474
			c0.919-1.116,4.884-0.97,5.852,0.223c1.491-0.8,2.955-1.831,4.716-0.613c0.071,0.049,0.25,0.009,0.342-0.049
			c1.94-1.232,4.275-0.574,6.342-1.348c1.251-0.468,2.683-0.47,4.041-0.617c0.251-0.027,0.535,0.255,0.66,0.32
			c0.286-0.134,0.524-0.301,0.786-0.36c1.838-0.412,3.677-0.825,5.526-1.189c0.912-0.18,1.905-0.097,2.753-0.418
			c1.373-0.52,2.698-0.903,4.143-0.467c-0.065,0.196-0.117,0.353-0.12,0.365c0.635-0.18,1.265-0.359,1.967-0.558
			c0.312-0.292,0.677-0.877,1.187-1.062c1.047-0.381,2.193-0.479,3.257-0.823c1.031-0.333,2.156-0.022,3.153-0.688
			c1.866-1.248,4.407-0.215,6.275-1.773c0.319-0.266,1.281,0.237,1.991,0.395c0.027-0.195,0.082-0.6,0.118-0.866
			c0.564-0.072,1.025-0.13,1.382-0.175c0.253-0.236,0.538-0.725,0.819-0.723c1.085,0.009,2.086-0.041,2.818-1.001
			c0.102-0.134,0.363-0.154,0.556-0.211c1.914-0.567,3.856-1.056,5.736-1.719c1.272-0.448,2.432-1.202,3.689-1.705
			c1.412-0.565,3.197-0.646,4.231-1.586c1.189-1.082,2.941-0.681,3.871-1.985c0.042-0.058,0.241,0.017,0.325-0.036
			c0.794-0.5,1.835-0.368,2.54-1.247c0.455-0.568,1.381-0.758,2.165-1.153c0.037,0.3,0.059,0.474,0.083,0.67
			c0.601-0.533,1.198-1.049,1.78-1.582c1.532-1.404,3.68-1.595,5.35-2.723c0.956-0.646,1.909-1.296,2.85-1.962
			c0.978-0.692,1.853-1.625,2.931-2.054c1.381-0.549,2.568-1.185,3.671-2.234c1.415-1.346,3.122-2.385,4.698-3.563
			c0.078-0.059,0.087-0.208,0.163-0.271c0.508-0.42,1.026-0.828,1.54-1.24c0.018,0.026,0.036,0.052,0.054,0.078
			c3.511-3.504,7.023-7.008,10.553-10.531c0.12,0.067,0.403,0.225,0.687,0.383c0.08-0.055,0.16-0.111,0.24-0.166
			c-0.14-0.395-0.279-0.789-0.53-1.499c0.846-0.559,1.788-1.181,2.666-1.761c-0.075-0.05-0.337-0.226-0.728-0.488
			c1.078-1.17,2.118-2.298,3.036-3.294c0.059,0-0.183,0-0.605,0c1.142-1.057,1.487-2.699,3.284-2.91
			c-0.285-0.268-0.524-0.492-0.964-0.906c0.706-0.433,1.317-0.809,1.882-1.156c-1.14-0.597-0.024-1.39,0.329-2.004
			c0.492-0.856,1.282-1.541,1.988-2.348c-1.094-0.066-0.437-0.682-0.224-1.163c1.096-2.465,2.198-4.926,3.318-7.38
			c0.258-0.565,0.603-1.09,0.89-1.643c0.045-0.087,0.004-0.226-0.014-0.339c-0.152-0.968,0.135-1.703,1.134-2.07
			c-0.203-0.482-0.391-0.931-0.613-1.456c0.478,0.037,0.774,0.06,0.826,0.064c0-0.901,0-1.725,0-2.552
			c0.504-0.032,0.863-0.054,1.004-0.063c-0.288-0.536-0.689-0.942-0.681-1.34c0.016-0.767,0.221-1.541,0.425-2.29
			c0.192-0.707,0.483-1.387,0.73-2.079c0.077,0.027,0.154,0.054,0.23,0.081c0-1.026,0-2.052,0-3.079
			c0.114,0.103,0.229,0.207,0.343,0.31c0.284-0.149,0.567-0.298,0.851-0.446c-0.06-0.089-0.119-0.178-0.179-0.267
			c-0.113,0.166-0.226,0.332-0.34,0.5c-1.226-1.131-0.35-1.966,0.69-3.037c-0.61,0.171-0.834,0.234-1.128,0.316
			c0.124-1.04,0.238-1.996,0.352-2.952c0.366-0.118,0.626-0.362,0.641-0.62c0.028-0.477-0.088-0.963-0.167-1.639
			c-0.572-0.34-0.54-0.85,0.027-1.64c0.401-0.559,0.776-1.354,0.063-2.085c-0.204-0.209-0.473-0.633-0.391-0.795
			c0.363-0.716,0.211-1.348,0.068-2.094c-0.244-1.27-0.213-2.593-0.31-3.893c-0.08-1.086-0.639-2.47-0.171-3.196
			c0.996-1.541-0.378-2.659-0.246-4.005c0.079-0.806-0.633-1.665-0.856-2.535c-0.098-0.382,0.136-0.849,0.203-1.194
			c-0.27-0.155-0.776-0.283-1.009-0.607c-0.879-1.224-1.742-2.474-2.459-3.796c-0.299-0.55-0.16-1.246-0.957-1.612
			c-1.178-0.54-2.276-1.265-3.383-1.95c-0.6-0.372-1.092-1.002-1.731-1.206c-1.338-0.427-2.731-0.71-4.121-0.935
			c-1.344-0.218-2.934-0.783-4.013-0.299c-1.356,0.609-1.654-0.543-2.473-0.57c-0.017,0.239-0.044,0.616-0.085,1.187
			c-0.498-0.253-0.848-0.431-1.237-0.628c-0.104,0.244-0.171,0.626-0.289,0.643c-1.381,0.191-2.775,0.292-4.155,0.492
			c-0.758,0.11-1.986,0.172-2.148,0.589c-0.473,1.216-1.378,0.813-2.165,1.005c-0.633,0.155-1.237,0.463-1.822,0.766
			c-0.506,0.263-0.962,0.622-1.453,0.916c-0.067,0.04-0.214-0.053-0.326-0.086c0.032-0.283,0.062-0.549,0.091-0.814
			c-0.08-0.092-0.159-0.185-0.239-0.277c-0.503,1.858-1.569,2.831-3.35,2.74c-0.613,0.38-1.217,0.852-1.897,1.148
			c-0.807,0.352-1.725,0.458-2.511,0.842c-1.056,0.517-1.998,1.265-3.049,1.795c-2.439,1.229-4.942,2.325-7.332,3.658
			c-0.566,0.316-1.643,0.703-1.874,0.464c-0.998-1.028-1.638,0.565-2.456,0.171c-0.059,0.209-0.117,0.418-0.14,0.5
			c0.265-0.067,0.519-0.131,0.889-0.225c-0.817,1.571-2.242,2.361-3.416,2.005c-0.751,1.346-2.768,2.412-4.066,2.133
			c-0.035,0.238-0.07,0.475-0.075,0.512c-1.103,0.467-2.106,0.88-3.093,1.326c-0.1,0.045-0.067,0.329-0.167,0.437
			c-0.558,0.608-1.111,1.279-1.975,0.656c-0.155,0.338-0.233,0.806-0.413,0.849c-1.202,0.291-2.052,1.112-3.027,1.775
			c-1.36,0.925-2.831,1.69-4.268,2.498c-0.413,0.232-0.904,0.33-1.308,0.575c-0.762,0.463-1.458,1.041-2.242,1.458
			c-0.245,0.13-0.684-0.105-0.729-0.114c-0.698,0.731-1.282,1.343-1.94,2.032c-0.231-0.494-0.367-0.785-0.504-1.076
			c-0.099,0.022-0.197,0.043-0.296,0.065c0.051,0.326,0.252,0.761,0.115,0.949c-0.172,0.235-0.622,0.268-1.051,0.424
			c-0.219,0.255-0.498,0.749-0.918,1.034c-0.923,0.625-1.943,1.105-2.877,1.715c-2.146,1.401-4.254,2.86-6.4,4.261
			c-0.753,0.491-1.742,0.725-2.32,1.355c-0.819,0.893-1.569,1.674-2.771,1.696c-0.429,0.658-0.893,1.311-1.525,1.654
			c-0.643,0.35-1.452,0.395-2.189,0.573c0.094,0.058,0.187,0.115,0.28,0.173c-0.243,0.41-0.403,0.917-0.745,1.212
			c-0.791,0.681-1.716,1.178-2.532,1.863c-1.218,1.022-2.702,1.729-4.071,2.569c-0.349,0.446-0.692,1.022-1.164,1.46
			c-0.811,0.753-1.713,1.408-2.558,2.125c-1.665,1.413-3.295,2.868-4.992,4.24c-0.391,0.316-1.003,0.348-1.497,0.552
			c-0.352,0.146-0.674,0.362-1.01,0.546c0.116,0.07,0.232,0.139,0.516,0.309c-0.533,0.095-0.867,0.154-1.258,0.223
			c0.405,0.664,0.464,1.097-0.436,1.083c-0.155-0.002-0.464,0.229-0.449,0.287c0.302,1.176-1.033,1.049-1.385,1.734
			c-0.208,0.405-0.807,0.61-1.336,0.978c-0.039-0.008-0.317-0.067-0.699-0.148c0.748,1.056,0.581,1.175-2.359,1.841
			c0.228,0.362,0.47,0.745,0.932,1.477c-1.514-0.547-1.561,0.435-1.871,1.029c-0.38,0.727-0.789,1.306-1.729,1.233
			c-0.231-0.018-0.529,0.045-0.703,0.186c-1.168,0.94-0.99,2.955-2.74,3.454c-0.074,0.021-0.111,0.198-0.152,0.308
			c-0.124,0.333-0.149,0.767-0.38,0.986c-0.748,0.71-1.57,1.342-2.517,2.131c0.415,1.042-0.561,1.579-1.527,2.134
			c-0.219,0.126-0.592,0.341-0.573,0.468c0.213,1.436-1.321,1.789-1.747,2.874c-0.391,0.997-1.263,1.816-1.971,2.674
			c-1.049,1.271-1.491,3.031-3.127,3.833c-0.524,0.257-1.737,0.301-0.549,1.326c0.069,0.06-0.089,0.456-0.211,0.652
			c-0.825,1.339-1.669,2.667-2.531,4.036c-0.353-0.134-0.677-0.257-0.961-0.364c-1.339,0.788,0.697,1.864-0.401,2.867
			c-0.784,0.716-1.008,2.031-1.519,3.061C334.552,519.785,334.019,520.732,333.509,521.69z"/>
	</g>
</g>
<g>
	<path class="st0" d="M374.022,355.825c0.212,0.535,0.33,0.834,0.604,1.525c-2.384,0-4.609-0.338-6.656,0.119
		c-1.365,0.305-2.732,0.511-4.104,0.702c-1.97,0.274-3.948,0.51-5.93,0.681c-1.236,0.107-2.518,0.686-3.728-0.222
		c-0.097-0.073-0.543,0.372-0.855,0.516c-0.384,0.178-0.792,0.394-1.199,0.416c-2.206,0.12-4.417,0.151-6.621,0.29
		c-0.759,0.048-1.501,0.334-2.256,0.487c-0.505,0.102-1.025,0.135-1.527,0.247c-0.469,0.105-1.085-0.806-1.444,0.21
		c-0.024,0.068-0.631,0.068-0.675-0.03c-0.593-1.328-1.359,0.01-2.036-0.112c-0.32-0.058-0.738,0.427-1.303,0.789
		c-0.107-0.634-0.179-1.054-0.3-1.768c-0.245,0.662-0.399,1.076-0.582,1.571c-0.68-0.154-1.681,0.828-1.977-0.273
		c-1.043,0.282-2.161,0.964-3.026,0.726c-1.152-0.317-1.959,0.279-2.922,0.379c-0.83,0.087-1.674,0.638-2.396-0.318
		c-0.072-0.095-0.711,0.149-1.022,0.341c-0.674,0.415-1.278,0.917-2.151,0.408c-0.17-0.099-0.541,0.205-0.829,0.238
		c-2.133,0.246-4.268,0.465-6.402,0.705c-0.516,0.058-1.027,0.226-1.541,0.23c-0.49,0.003-0.979-0.195-1.472-0.211
		c-0.719-0.023-1.755-0.246-2.091,0.126c-0.603,0.667-1.203,0.646-1.904,0.656c-1.285,0.019-2.579-0.046-3.853,0.079
		c-1.133,0.111-2.241,0.462-3.371,0.641c-0.277,0.044-0.594-0.234-0.895-0.241c-0.34-0.008-0.694,0.093-1.024,0.201
		c-0.462,0.152-0.896,0.463-1.363,0.513c-1.4,0.149-2.811,0.205-4.245,0.299c-0.027-0.174-0.063-0.412-0.1-0.65
		c-0.298,0.092-0.601,0.277-0.883,0.25c-0.329-0.032-0.64-0.25-1.026-0.416c-0.13,0.245-0.291,0.549-0.348,0.657
		c-0.628,0.045-1.287-0.112-1.58,0.147c-1.443,1.272-3.152,0.814-4.78,0.911c-0.515,0.03-1.026,0.132-1.541,0.152
		c-0.374,0.015-0.767,0.006-1.124-0.092c-0.637-0.175-1.245-0.458-1.884-0.626c-0.199-0.052-0.551,0.043-0.673,0.197
		c-1.231,1.561-3.085,1.4-4.727,1.609c-3.467,0.441-6.96,0.667-10.441,1.001c-0.887,0.085-1.763,0.291-2.65,0.354
		c-0.472,0.033-0.955-0.134-1.436-0.187c-0.262-0.029-0.642-0.124-0.776,0.008c-0.858,0.838-1.725,0.693-2.557,0.047
		c-0.856,1.033-5.526,1.566-6.768,0.855c-2.24,1.468-8.176,1.538-9.75,0.093c-1.166,0.84,0.409,0.796,0.437,1.63
		c-0.931-0.274-1.735-0.511-2.363-0.696c-0.505,0.283-1.018,0.757-1.595,0.856c-1.292,0.221-2.648,0.119-3.918,0.41
		c-0.924,0.212-1.907-0.355-2.496-0.087c-0.938,0.428-1.855,0.65-2.833,0.779c-1.03,0.136-2.061,0.288-3.097,0.334
		c-0.321,0.014-0.656-0.298-0.874-0.252c-1.335,0.232-2.67,0.464-4.061,0.706c-0.087-0.243-0.177-0.493-0.252-0.703
		c-0.957,0.317-1.916,0.553-2.803,0.951c-0.93,0.417-2.202,0.259-2.852-0.455c-0.287,0.19-0.536,0.456-0.836,0.537
		c-1.229,0.332-2.47,0.618-3.714,0.888c-0.132,0.029-0.302-0.199-0.47-0.238c-0.359-0.084-0.858-0.303-1.074-0.15
		c-1.776,1.257-3.656,0.914-5.563,0.503c-0.218-0.047-0.49-0.02-0.691,0.072c-0.535,0.246-1.023,0.72-1.57,0.793
		c-1.411,0.187-2.845,0.208-4.27,0.289c-0.189,0.011-0.444-0.101-0.561-0.014c-0.858,0.641-1.451,0.272-1.91-0.575
		c-0.142,0.432-0.216,0.991-0.347,1.005c-1.33,0.139-2.669,0.189-4.048,0.266c-0.288,0.087-0.698,0.357-1.033,0.283
		c-0.793-0.175-1.551-0.514-2.42-0.82c-0.12,1.146-0.665,1.401-1.643,1.165c-0.644-0.155-1.392-0.316-1.971,0.306
		c-0.067,0.072-0.221,0.077-0.338,0.089c-1.51,0.156-3.018,0.33-4.531,0.448c-0.465,0.037-0.957-0.175-1.411-0.106
		c-0.86,0.131-1.694,0.467-2.555,0.558c-0.734,0.078-1.493-0.047-2.237-0.119c-0.974-0.094-1.945-0.225-3.013-0.352
		c0.124,0.286,0.247,0.572,0.519,1.2c-1.009-0.166-1.962-0.059-2.535-0.475c-1.079-0.785-1.686-0.776-2.109,0.344
		c-0.472-0.198-0.953-0.401-1.434-0.603c-0.06,0.083-0.12,0.166-0.18,0.249c0.126,0.238,0.253,0.475,0.38,0.715
		c-0.062,0.036-0.131,0.113-0.192,0.108c-0.704-0.063-1.418-0.09-2.107-0.232c-0.32-0.066-0.585-0.375-0.888-0.55
		c-0.258-0.148-0.525-0.318-0.808-0.378c-0.488-0.103-1.09,0.025-1.471-0.216c-1.121-0.711-2.217-1.49-3.2-2.379
		c-0.417-0.377-0.491-1.114-0.785-1.653c-0.277-0.507-0.721-0.933-0.942-1.457c-0.271-0.644-0.407-1.349-0.557-2.037
		c-0.056-0.258,0.133-0.665,0.002-0.795c-1.215-1.21-0.094-2.204,0.281-3.246c0.124-0.343,0.459-0.611,0.671-0.878
		c-0.281-0.42-0.516-0.772-0.838-1.253c0.971-0.197,1.151-0.603,0.965-1.52c-0.121-0.6,0.535-1.348,0.816-2.041
		c0.227-0.562-0.077-1.477,1-1.45c-0.239-0.673,1.081-0.844,0.484-1.848c-0.242-0.406,0.661-1.496,1.047-2.272
		c0.394-0.793,0.802-1.579,1.189-2.376c0.776-1.598,1.54-3.203,2.317-4.801c0.07-0.143,0.211-0.251,0.287-0.392
		c0.601-1.122,0.895-1.182,1.847-0.557c-0.365-0.217-0.731-0.433-1.219-0.722c0.27-0.384,0.572-0.815,1.03-1.466
		c-0.022-2.103,2.197-3.454,3.025-5.536c0.833-2.096,2.519-3.852,3.632-5.469c0.165-0.716,0.12-1.328,0.398-1.571
		c0.79-0.692,1.146-1.501,1.468-2.491c0.293-0.899,1.159-1.612,1.771-2.404c-0.301-0.227-0.076-1.133,0.709-1.749
		c0.231-0.182,0.33-0.532,0.489-0.806c0.889-1.534,1.776-3.07,2.685-4.592c0.021-0.034,0.302,0.087,0.287,0.083
		c0.366-0.886,0.734-1.775,1.102-2.663c0.095,0.032,0.19,0.064,0.286,0.096c0,0.33,0,0.659,0,0.989
		c0.091,0.015,0.181,0.03,0.272,0.045c0.052-0.412,0.158-0.826,0.146-1.236c-0.024-0.826-0.138-1.651,1.076-1.709
		c0.127-0.006,0.345-0.368,0.34-0.559c-0.059-2.045,1.812-3.138,2.404-4.865c0.073-0.212,0.683-0.24,1.059-0.358
		c-0.822-1.185,0.442-1.993,0.933-2.931c0.469-0.896,1.071-1.896,2.389-1.78c-0.279-0.169-0.559-0.338-0.839-0.508
		c2.351-3.764,2.351-3.764,3.205-3.93c0-0.47,0-0.923,0-1.606c0.461,0.32,0.698,0.485,0.96,0.667
		c0.104-0.12,0.227-0.197,0.244-0.292c0.151-0.849,0.208-1.724,0.447-2.547c0.178-0.612,0.577-1.164,0.916-1.718
		c0.02-0.033,0.391,0.149,0.601,0.231c-0.001-2.053,1.377-3.442,2.677-4.566c0.243-0.923,0.392-1.65,0.643-2.341
		c0.071-0.195,0.464-0.251,0.66-0.427c0.218-0.196,0.559-0.477,0.534-0.683c-0.114-0.942-0.153-0.937,0.647-0.985
		c0.854-2.783,2.124-5.198,4.481-7.262c-0.197-1.37,0.307-2.311,1.94-3.233c0.18-0.102,0.408-0.401,0.374-0.555
		c-0.376-1.677,1.093-2.586,1.634-3.869c0.367-0.868,1.295-1.483,1.855-2.292c0.43-0.621,0.643-1.386,1.014-2.053
		c0.499-0.898,1.079-1.75,1.582-2.646c0.434-0.771,0.791-1.584,1.214-2.362c1.263-2.322,2.295-4.755,4.13-6.768
		c0.824-0.904,1.009-2.359,1.647-3.47c0.803-1.396,1.777-2.693,2.668-4.038c0.073-0.109,0.12-0.26,0.117-0.39
		c-0.019-0.859,0.366-1.229,1.445-0.928c-0.256-0.515-0.417-0.84-0.646-1.302c0.463-0.426,0.956-0.879,1.565-1.44
		c-0.248-1.153,1.56-4.438,2.77-4.807c-0.104-0.166-0.375-0.447-0.322-0.537c1.155-1.963,2.364-3.894,3.516-5.859
		c0.216-0.369,0.198-0.867,0.349-1.283c0.469-1.286,1.541-2.202,1.998-3.57c0.329-0.985,0.805-2.132,1.482-2.926
		c1.108-1.299,1.21-3.107,2.47-4.286c0.245-0.229,0.189-0.76,0.321-1.135c0.404-1.141,1.083-2.042,2.282-2.463
		c-0.244-0.07-0.482-0.138-0.866-0.248c0.654-0.622,0.532-1.574,1.524-1.924c0.324-0.114,0.337-1.113,0.499-1.734
		c0.842,0.088,1.036-0.166,0.934-1.222c-0.089-0.925,0.548-1.92,0.845-2.828c0.48,0.154,0.788,0.253,1.096,0.351
		c-0.091-0.348-0.186-0.694-0.27-1.044c-0.045-0.186-0.154-0.413-0.09-0.558c0.517-1.173,1.069-2.332,1.61-3.494
		c0.034-0.074,0.064-0.154,0.116-0.215c1.219-1.443,2.118-3.294,2.441-4.988c0.044-0.233,0.1-0.546,0.264-0.661
		c1.252-0.876,1.384-2.218,1.702-3.557c0.253-1.067,0.803-2.1,1.387-3.046c1.537-2.492,2.517-5.212,3.498-7.942
		c0.297-0.827,0.74-1.601,1.053-2.265c0.493-0.134,0.934-0.254,1.616-0.439c-1.361-0.994-1.038-1.741-0.022-2.428
		c0.118,0.159,0.223,0.301,0.404,0.545c-0.253-1.451,0.039-2.596,1.004-3.604c0.338-0.353,0.461-0.957,0.575-1.47
		c0.18-0.815,0.207-1.667,0.427-2.468c0.095-0.348,0.51-0.608,0.611-0.72c0.321-1.183,0.538-2.239,0.896-3.244
		c0.707-1.985,1.305-4.042,2.294-5.884c1.093-2.035,1.135-4.345,2.082-6.386c0.245-0.528,0.105-1.289,0.975-1.431
		c0.121-0.02,0.306-0.535,0.231-0.734c-0.452-1.195,0.299-1.929,0.867-2.816c0.417-0.651,1.349-1.42,0.438-2.133
		c0.133-0.682,0.153-1.239,0.354-1.721c0.417-1,0.086-2.544,1.871-2.752c-0.275-0.157-0.549-0.314-0.953-0.545
		c0.213-0.551,0.38-1.156,0.671-1.694c0.35-0.647,0.865-1.209,1.181-1.869c0.1-0.209-0.208-0.614-0.373-1.046
		c0.141-0.211,0.576-0.582,0.625-0.998c0.095-0.81,0.35-1.329,1.178-1.576c0.145-0.043,0.275-0.861,0.161-0.935
		c-1.39-0.904-0.76-2.091-0.497-3.207c0.322-1.362,0.632-2.733,1.077-4.057c0.302-0.896,0.834-1.714,1.248-2.574
		c0.067-0.14,0.057-0.318-0.219-0.382c-0.125-0.376-0.435-0.807-0.342-1.118c0.338-1.133,0.819-2.223,1.223-3.338
		c0.055-0.153,0.039-0.392-0.045-0.527c-0.807-1.29-0.344-2.305,0.958-2.462c-0.241-0.528-0.828-1.188-0.699-1.647
		c0.373-1.328-0.305-2.871,0.912-4.062c0.266-0.26-0.16-1.148-0.124-1.737c0.067-1.09,0.245-2.173,0.366-3.261
		c0.024-0.212-0.047-0.44,0-0.644c0.085-0.365,0.224-0.718,0.345-1.075c0.073-0.216,0.277-0.57,0.217-0.62
		c-0.826-0.699,0.135-1.106,0.207-1.645c0.089-0.664,0.666-1.545-0.456-1.969c-0.044-0.017-0.069-0.149-0.063-0.225
		c0.102-1.443,0.211-2.887,0.42-4.323c0.021-0.517,0.063-1.034,0.055-1.551c-0.003-0.215-0.101-0.432-0.176-0.641
		c-0.092-0.258-0.296-0.509-0.295-0.762c0.011-1.938,0.064-3.876,0.091-5.814c0.003-0.231,0.008-0.529-0.122-0.685
		c-0.821-0.994-0.732-2.242-0.153-3.054c0.517-0.725,0.099-0.744-0.157-1.165c-0.325-0.534-0.452-1.2-0.602-1.824
		c-0.147-0.613-0.252-1.242-0.3-1.87c-0.018-0.229,0.179-0.475,0.223-0.582c-0.218-0.357-0.599-0.72-0.666-1.134
		c-0.236-1.453-0.295-2.935-0.557-4.381c-0.156-0.859-0.581-1.667-0.857-2.507c-0.321-0.977-0.612-1.963-0.898-2.888
		c0.592-0.071,1.037-0.124,1.663-0.199c-2.574-1.173-2.741-1.712-1.044-3.328c-0.428-0.201-0.802-0.522-1.18-0.527
		c-1.015-0.013-1.16-0.585-1.17-1.408c-0.008-0.675-0.117-1.352-0.234-2.019c-0.031-0.175-0.255-0.317-0.39-0.474
		c-0.546,0.681-0.711-0.089-0.714-0.286c-0.04-2.534-2.593-3.942-2.832-6.423c-0.068-0.704-0.809-1.355-1.274-2.007
		c-1.43-2.005-2.894-3.987-4.291-6.016c-0.158-0.23,0.031-0.698,0.057-1.04c-1.194,0.094-2.056-0.901-1.935-2.077
		c-1.554-0.275-2.03-1.724-2.873-2.619c-0.876-0.93-1.475-2.121-2.23-3.251c-0.116,0.161-0.254,0.354-0.449,0.625
		c-0.133-0.432-0.235-0.763-0.336-1.092c-0.144,0.054-0.47,0.229-0.507,0.181c-0.406-0.527-0.766-1.089-0.937-1.727
		c-0.992-0.544-2.003-1.056-2.96-1.656c-0.199-0.125-0.194-0.576-0.348-1.098c-1.539-0.28-3.071-1.106-3.816-3.112
		c-0.053,0.084-0.122,0.173-0.17,0.272c-0.049,0.1-0.078,0.209-0.19,0.524c-0.426-0.495-0.755-0.878-1.174-1.366
		c-0.774-0.52-1.72-1.162-2.673-1.794c-0.807-0.535-1.82-0.797-2.291-1.787c-0.041-0.085-0.47,0.065-0.682-0.005
		c-0.164-0.055-0.26-0.293-0.403-0.432c-0.199-0.194-0.443-0.557-0.616-0.529c-1.261,0.205-1.928-0.78-2.867-1.218
		c-1.005-0.468-1.115-1.322-1.663-1.965c-2.021,0.277-2.021,0.277-2.517-0.791c-0.214,0.157-0.41,0.301-0.472,0.346
		c-0.953-0.568-1.826-1.088-2.859-1.704c-0.739,0.301-1.458,0.159-2.111-0.819c-0.273-0.408-1.318-0.216-1.879-0.533
		c-1.275-0.72-3.131-0.427-3.86-2.174c-0.048-0.115-0.807,0.067-1.357,0.124c-0.246-0.6-0.006-1.912-1.421-1.521
		c0.128,0.341,0.247,0.658,0.426,1.135c-1.198-0.259-2.183-0.445-2.749-1.506c-0.128-0.24-0.686-0.532-0.804-0.45
		c-1.168,0.809-2.176-0.036-3.167-0.34c-0.847-0.26-1.538-0.853-2.566-0.693c-0.397,0.062-0.903-0.571-1.375-0.899
		c-1.693,0.64-3.285-0.849-5.085-0.755c0.031-0.444,0.051-0.738,0.073-1.048c-0.827,0.195-1.583,0.373-2.607,0.615
		c0.318-0.652,0.447-0.918,0.577-1.184c-0.075-0.069-0.149-0.137-0.224-0.206c-0.316,0.236-0.632,0.472-0.971,0.725
		c-0.635-0.084-1.394-0.079-2.084-0.294c-4.481-1.394-9.188-1.668-13.711-2.804c-1.577-0.396-3.107-0.436-4.68-0.456
		c-0.707-0.009-0.683-0.031-1.13-0.911c-0.07-0.138-0.516-0.217-0.715-0.138c-2.082,0.825-4.156,0.58-6.281,0.161
		c-0.863-0.17-1.811,0.142-2.717,0.117c-0.501-0.014-0.995-0.273-1.15-0.32c-1.413,0.023-2.538,0.091-3.658,0.045
		c-1.05-0.043-2.094-0.238-3.144-0.289c-0.199-0.01-0.415,0.34-0.42,0.343c-0.857-0.271-1.589-0.502-2.321-0.734
		c0.036,0.089,0.072,0.178,0.107,0.267c-0.434,0.242-0.879,0.696-1.3,0.675c-0.581-0.03-1.144-0.418-1.826-0.698
		c-0.114,0.07-0.492,0.471-0.922,0.539c-2.276,0.361-4.56,0.817-6.851,0.871c-1.164,0.028-2.193-0.048-3.307,0.489
		c-0.806,0.389-1.86,0.303-2.806,0.337c-0.223,0.008-0.459-0.358-0.7-0.561c-0.142,0.956-0.712,1.299-1.791,0.787
		c-0.306-0.145-0.826-0.046-1.164,0.117c-2.165,1.042-4.523,1.231-6.833,1.642c-0.449,0.08-0.864,0.341-1.312,0.436
		c-1.721,0.365-3.43,0.997-5.134,1.143c-1.549,0.133-2.728,1.191-4.141,1.203c-1.205,0.011-2.159,0.347-3.173,0.865
		c-0.302,0.154-0.863-0.199-1.383-0.341c-0.145,1.018-0.804,1.501-2.059,1.154c-0.214-0.059-0.58,0.397-0.863,0.631
		c-0.636,0.523-1.469,0.168-2.191,0.546c-0.668,0.349-1.561,0.239-2.306,0.482c-0.502,0.164-0.92,0.589-1.463,0.958
		c-0.113-0.32-0.209-0.593-0.238-0.674c-0.742,0.548-1.433,1.185-2.235,1.616c-0.881,0.473-1.885,1.083-2.795,1.023
		c-0.771-0.051-1.3,1.479-2.109,0.036c-0.426,1.785-2.024,1.509-3.067,2.092c-1.418,0.793-2.965,1.367-4.487,1.96
		c-0.499,0.194-1.095,0.124-1.634,0.238c-0.239,0.05-0.527,0.205-0.652,0.402c-0.502,0.788-1.051,0.84-1.776,0.289
		c-0.762-0.578-1.295,0.022-1.896,0.236c0.024,0.104,0.047,0.208,0.071,0.312c0.266-0.07,0.531-0.139,0.801-0.21
		c0.101,0.926-0.528,1.727-1.364,1.543c-0.554-0.122-0.543-0.006-0.819,0.41c-0.455,0.685-1.238,0.982-1.949,0.207
		c-0.884,1.934-2.58,2.402-4.374,2.724c-0.219,0.039-0.437,0.15-0.628,0.271c-1.374,0.873-2.722,1.79-4.123,2.617
		c-0.364,0.215-0.888,0.161-1.079,0.19c-0.571,0.48-0.959,0.888-1.421,1.179c-0.78,0.489-1.576,0.977-2.424,1.325
		c-0.584,0.239-1.266,0.24-1.997,0.364c0.327,1.051-0.678,1.341-1.558,1.649c-0.38,0.133-0.846,0.022-1.512,0.022
		c-0.011,0.025-0.141,0.327-0.262,0.607c-0.465-0.143-0.932-0.287-1.708-0.526c0.687,1.369,0.293,2.122-0.734,2.477
		c-0.287,0.099-0.721-0.229-1.129-0.376c-0.334,0.689-0.639,1.827-2.141,1.48c-0.165-0.038-0.655,0.589-0.639,0.608
		c0.653,0.779-0.174,0.863-0.528,1.051c-1.002,0.534-2.061,0.962-3.055,1.509c-0.428,0.236-0.715,0.719-1.129,0.993
		c-2.685,1.774-5.415,3.481-8.072,5.295c-1.191,0.813-2.208,1.877-3.377,2.725c-0.578,0.419-1.323,0.608-2.13,0.961
		c0.253,0.786-0.658,1.109-1.344,1.585c-1.273,0.882-2.548,1.761-3.896,2.693c-0.216-0.399-0.362-0.671-0.506-0.938
		c-0.176,0.163-0.387,0.358-0.591,0.548c0.893,0.907,0.019,1.389-0.391,1.806c-0.58,0-0.987,0-1.394,0
		c0.135,0.186,0.27,0.371,0.46,0.632c-0.295,0.044-0.586,0.087-0.877,0.13c0.01,0.024,0.02,0.049,0.016,0.038
		c0.157,0.073,0.287,0.134,0.433,0.202c-2.259,1.719-4.455,3.391-6.65,5.062c0.059,0.083,0.119,0.165,0.178,0.248
		c-0.348-0.063-0.696-0.125-1.044-0.188c-0.331,1.781-1.617,2.718-3.035,2.3c0.251,0.154,0.502,0.309,0.859,0.528
		c-1.121,0.965-2.193,1.889-3.344,2.879c-0.148-0.329-0.252-0.562-0.439-0.98c-0.493,1.676-1.083,3.123-2.708,3.331
		c-0.427,0.579-0.709,1.072-1.097,1.459c-0.439,0.436-1.395,0.264-1.451,1.233c-0.004,0.065-0.756,0.087-0.894,0.102
		c-0.425,0.841-0.804,1.59-1.165,2.304c-2.019-0.646-2.623-1.698-1.751-2.898C0.564,73.54,0.296,73.425,0,73.298
		c0.153-0.22,0.267-0.48,0.461-0.644c1.615-1.367,3.265-2.693,4.863-4.079c0.829-0.719,1.531-1.589,2.382-2.279
		c0.319-0.259,0.897-0.199,1.458-0.304c-0.352-1.139,0.46-1.697,1.334-2.368c0.779-0.598,1.285-1.567,2.62-1.388
		c-0.176-0.194-0.292-0.322-0.536-0.592c1.021-0.582,2.042-1.102,2.988-1.733c0.389-0.259,0.556-0.836,0.932-1.132
		c0.841-0.66,1.769-1.209,2.619-1.859c0.29-0.222,0.413-0.653,0.683-0.915c0.424-0.409,0.822-1.365,1.529-0.22
		c0.986-1.112,1.943-2.28,3.001-3.348c0.501-0.505,1.156-0.913,1.815-1.186c0.549-0.227,1.361-0.001,1.769-0.331
		c0.379-0.307,0.231-1.209,0.582-1.622c0.482-0.566,1.215-0.918,1.567-1.168c0.875,0.105,1.49,0.179,2.105,0.253
		c0.019-0.093,0.037-0.186,0.056-0.279c-0.428-0.08-0.855-0.161-1.283-0.241c-0.035-0.135-0.07-0.271-0.105-0.406
		c1.053-0.603,2.104-1.209,3.16-1.807c0.195-0.11,0.434-0.155,0.609-0.288c1.41-1.075,2.78-2.205,4.222-3.235
		c0.957-0.684,2.049-1.18,3.01-1.858c0.601-0.424,1.405-0.083,1.962-0.952c1.021-1.594,2.746-2.539,4.4-3.379
		c1.38-0.701,2.596-1.601,3.879-2.425c0.521-0.335,1.202-0.512,1.827-0.567c0.648-0.057,0.599,0.018,0.945-0.713
		c0.176-0.37,0.572-0.67,0.929-0.912c0.733-0.499,1.478-0.999,2.278-1.37c0.307-0.143,0.777,0.065,0.992-0.143
		c0.389-0.269,0.774-0.543,1.167-0.804c0.218-0.145,0.439-0.292,0.677-0.395c0.451-0.197,0.904-0.408,1.377-0.532
		c0.697-0.182,1.867,0.277,1.505-1.21c0.944-0.452,1.858-1.176,2.839-1.281c1.042-0.111,1.629-0.474,2.342-1.197
		c0.821-0.833,2.002-1.314,3.04-1.925c0.07-0.041,0.26,0.171,0.383,0.158c0.432-0.045,0.953-0.008,1.267-0.239
		c0.641-0.47,1.077-1.286,1.763-1.617c2.099-1.013,4.277-1.861,6.422-2.778c0.714-0.305,1.423-0.625,2.263-0.675
		c0.066-0.2,0.081-0.533,0.205-0.579c1.345-0.505,2.694-1.006,4.069-1.417c0.497-0.149,0.909-0.017,1.321-0.667
		c0.369-0.583,1.422-0.763,2.2-1.048c0.819-0.301,1.669-0.516,2.584-0.792c0.068,0.097,0.216,0.308,0.364,0.519
		c0.086-0.053,0.213-0.108,0.208-0.13c-0.351-1.345,0.878-1.251,1.477-1.365c0.887-0.169,1.627-0.427,2.424-0.889
		c1.059-0.615,2.319-0.917,3.523-1.24c1.108-0.297,2.58-0.085,3.311-0.743c1.042-0.937,2.24-0.831,3.333-1.227
		c1.506-0.546,3.13-0.763,4.649-1.279c1.147-0.389,2.49,0.501,3.44-0.485c0.77-0.798,1.652-1.107,2.678-1.181
		c0.518-0.038,1.042-0.007,1.761-0.007c0.487-1.694,1.646-0.23,2.66-0.208c-0.269-0.119-0.539-0.238-0.808-0.357
		c1.677-0.174,3.188-1.961,5.007-0.318c0.118-0.409,0.208-0.72,0.299-1.033c1.289-0.2,2.561-0.538,3.832-0.536
		c0.65,0.001,1.069-0.343,1.592-0.42c0.393-0.058,0.846,0.291,1.312,0.362c-0.144-0.068-0.287-0.136-0.718-0.34
		c4.062-0.609,7.802-1.266,11.644-0.734c0.007-0.042,0.04-0.236,0.048-0.286c1.869-0.239,3.669-0.469,5.477-0.7
		c0.197,0.493,0.321,0.805,0.478,1.198c0.401-0.353,0.719-0.633,1.078-0.949c0.12,0.247,0.233,0.48,0.484,0.999
		c0.049-0.588,0.073-0.876,0.121-1.458c1.101,0.251,2.132,0.486,3.162,0.721c-0.037,0.099-0.075,0.197-0.112,0.296
		c0.399-0.292,0.776-0.631,1.215-0.836c0.089-0.041,0.415,0.426,0.467,0.483c1.28-0.123,2.496-0.24,3.934-0.378
		c-0.492,0.597-0.783,0.951-1.074,1.304c0.105,0.126,0.21,0.251,0.315,0.377c0.49-0.347,0.936-0.841,1.481-1.006
		c0.924-0.28,1.948-0.592,2.861-0.448c1.091,0.172,2.401-0.351,3.291,0.764c0.063,0.079,0.381,0.084,0.453,0.006
		c0.874-0.945,1.523-0.224,2.206,0.272c0.729-0.384,1.342-0.673,2.261-0.142c0.653,0.377,1.675,0.058,2.51,0.188
		c2.581,0.4,5.155,0.851,7.722,1.334c0.202,0.038,0.309,0.497,0.491,0.738c0.214,0.282,0.461,0.539,0.87,0.642
		c-0.119-0.275-0.237-0.551-0.356-0.826c0.261-0.064,0.558-0.242,0.775-0.172c0.615,0.2,1.189,0.523,1.795,0.757
		c0.453,0.175,1.042,0.533,1.375,0.381c1.163-0.529,1.98-0.271,2.883,0.574c0.404,0.379,1.204,0.385,1.836,0.458
		c0.814,0.093,1.673-0.051,2.455,0.142c2.59,0.639,5.175,1.317,7.714,2.132c0.661,0.212,1.146,0.975,1.673,1.45
		c0.041-0.066,0.241-0.393,0.468-0.763c0.403,0.125,0.775,0.24,1.176,0.365c0.031,0.44,0.059,0.842,0.11,1.579
		c0.523-0.342,0.907-0.593,1.291-0.844c0.007-0.162,0.013-0.324,0.02-0.485c1.11,0.636,2.22,1.272,3.33,1.908
		c0.069,0.039,0.155,0.134,0.2,0.117c1.628-0.631,2.92,0.479,4.092,1.132c1.034,0.575,2.117,0.665,3.117,1.116
		c0.273,0.123,0.43,0.502,0.526,0.622c0.64,0.129,1.247,0.152,1.768,0.376c1.182,0.51,2.409,0.997,3.442,1.739
		c0.502,0.36,1.059,0.239,1.491,0.586c0.54,0.434,1.077,0.881,1.664,1.244c0.623,0.385,1.297,0.689,1.958,1.01
		c0.931,0.452,1.914,0.816,2.791,1.354c0.714,0.438,1.304,1.079,1.953,1.625c0.083,0.07,0.182,0.149,0.283,0.165
		c2.631,0.4,4.329,2.454,6.48,3.7c0.277,0.16,0.25,0.843,0.39,1.382c2.327,0.12,2.811,0.467,3.185,2.598
		c0.265-0.225,0.476-0.404,0.746-0.633c0.585,0.711,1.91,0.861,1.495,2.422c-0.109,0.411,0.596,1.548,1.633,1.415
		c1.36-0.175,1.98,0.371,1.936,1.734c-0.006,0.182,0.15,0.37,0.231,0.554c0.91-0.453,1.972,0.207,3.167,2.02
		c-0.326,0.122-0.63,0.235-1,0.373c1.902,0.019,2.629,0.84,2.761,3.148c0.423-0.065,0.836-0.129,1.26-0.195
		c0.862,1.089,1.729,2.182,2.591,3.279c0.072,0.091,0.174,0.228,0.151,0.314c-0.434,1.649,1.063,2.081,1.806,3.022
		c0.496,0.629,1.883,1.092,0.828,2.396c0.352,0.018,0.659,0.034,0.967,0.049c0.047,0.061,0.14,0.132,0.13,0.183
		c-0.107,0.538,0.286,0.781,0.527,1.175c0.869,1.416,1.5,2.976,2.271,4.456c0.354,0.679,0.889,1.265,1.225,1.951
		c0.537,1.096,0.976,2.24,1.236,3.551c-0.281-0.141-0.562-0.283-0.845-0.424c0.024,0.362,0.05,0.723,0.074,1.066
		c0.038,0.05,0.055,0.096,0.087,0.113c0.688,0.359,2.238-0.258,1.501,1.68c-0.27,0.711,0.623,1.859,0.97,2.812
		c0.123,0.339,0.201,0.694,0.397,1.383c1.228,0.454,0.813,2.053,1.258,3.073c-0.324,0.354-0.806,0.674-0.76,0.878
		c0.07,0.313,0.493,0.554,0.782,0.809c0.175,0.154,0.515,0.248,0.546,0.414c0.161,0.848,0.234,1.711,0.36,2.566
		c0.16,1.081,0.341,2.159,0.535,3.373c-0.071,0.034-0.3,0.144-0.713,0.342c1.773,1.46,1.426,3.562,1.791,5.543
		c-0.336,0.053-0.671,0.105-1.094,0.171c0.097,0.151,0.135,0.245,0.201,0.311c0.893,0.893,1.545,1.85,1.01,3.206
		c-0.097,0.245-0.07,0.556-0.04,0.829c0.149,1.352,0.376,2.699,0.446,4.055c0.023,0.447-0.342,0.915-0.622,1.596
		c1.306,1.25,0.38,3.147,0.429,4.938c-0.048-0.114-0.111-0.225-0.14-0.344c-0.028-0.116-0.022-0.241-0.035-0.422
		c-0.047,0.09-0.085,0.131-0.088,0.174c-0.102,1.384-0.207,2.768-0.294,4.153c-0.012,0.193,0.008,0.426,0.106,0.583
		c0.845,1.36,0.28,2.564-0.343,3.793c-0.127,0.251-0.018,0.622-0.018,1.057c0.176-0.26,0.262-0.387,0.347-0.513
		c0.099,0.048,0.198,0.096,0.297,0.144c-0.195,0.342-0.309,0.808-0.602,0.998c-0.467,0.304-0.482,0.464-0.108,0.845
		c0.196,0.2,0.412,0.72,0.328,0.804c-1.165,1.161-0.391,2.524-0.488,3.793c-0.036,0.47-0.396,0.915-0.626,1.408
		c-0.121-0.049,0.086,0.035,0.404,0.165c-0.31,0.144-0.535,0.249-0.737,0.342c-0.012,0.087-0.026,0.127-0.021,0.164
		c0.464,3.026,0.344,4.52-0.548,7.734c-0.138,0.498-0.019,1.074-0.189,1.554c-0.129,0.364-0.527,0.633-0.834,0.977
		c1.022,0.402,0.173,0.891-0.113,1.568c-0.346,0.819-0.295,1.801-0.45,2.707c-0.285,1.669-0.321,3.357-1.185,4.943
		c-0.505,0.927-0.411,2.181-0.581,3.289c-0.018,0.119,0.049,0.32-0.005,0.354c-1.612,1.036-0.58,2.795-1.133,4.138
		c-0.696,1.688-1.042,3.533-1.849,5.156c-0.317,0.639-0.307,0.977-0.284,1.622c0.035,0.993-0.536,2.009-0.857,3.014
		c-0.413,1.29-0.82,2.582-1.253,3.865c-0.5,1.483-0.609,3.534-1.649,4.287c-1.232,0.893-0.803,1.534-0.86,2.511
		c-0.055,0.943-0.673,1.847-1.013,2.78c-0.745,2.042-1.253,4.211-2.281,6.096c-0.674,1.234-0.753,2.596-1.406,3.774
		c-1.124,2.028-1.549,4.343-2.617,6.382c-0.457,0.872-1.199,1.593-1.787,2.35c0.963,1.433-0.938,2.246-0.653,3.496
		c-0.474-0.179-0.764-0.289-1.053-0.399c0.066,0.333,0.132,0.666,0.198,0.999c0.045,0.222,0.195,0.49,0.12,0.658
		c-0.687,1.54-1.395,3.071-2.132,4.587c-0.786,1.616-1.617,3.21-2.411,4.822c-0.083,0.169-0.011,0.41-0.072,0.597
		c-0.308,0.94-0.385,2.119-1.888,1.819c0.188,0.624,0.349,1.16,0.546,1.813c-0.51,0-0.81,0-0.817,0
		c-0.599,1.683-1.167,3.279-1.78,5.003c-0.272-0.322-0.405-0.48-0.322-0.381c-0.581,1.308-1.191,2.674-1.793,4.045
		c-0.141,0.321-0.255,0.653-0.383,0.98c-0.276,0.701-0.435,1.557-1.531,1.062c-0.036,0.756,0.057,1.456-0.135,2.067
		c-0.192,0.609-0.701,1.112-1.009,1.694c-0.216,0.408-0.336,0.869-0.485,1.311c-0.049,0.146-0.022,0.325-0.091,0.456
		c-0.921,1.74-1.831,3.486-2.789,5.206c-0.819,1.471-1.777,2.862-2.313,4.487c-0.129,0.39-0.553,0.683-1.031,1.242
		c0.323,1.654-1.669,2.056-2.512,3.384c0.861,0.613,0.317,1.146-0.115,1.89c-1.231,2.118-2.294,4.333-3.435,6.504
		c-0.58,1.104-1.176,2.199-1.784,3.288c-0.401,0.719-0.675,1.722-2.024,0.658c-0.016,0.139-0.032,0.278-0.049,0.417
		c0.189,0.404,0.377,0.808,0.691,1.481c-0.48,0.548-1.111,1.267-1.7,1.939c-0.105-0.052,0.036,0.018,0.162,0.081
		c-0.108,0.83-0.217,1.659-0.325,2.487c-0.409-0.365-0.817-0.73-1.226-1.096c0.13,0.4,0.26,0.8,0.311,0.955
		c-0.313,0.602-0.629,0.997-0.726,1.439c-0.222,1.01-0.91,1.901-1.441,2.564c-1.461,1.826-1.972,4.113-3.35,5.923
		c-0.167,0.219-0.614,0.226-0.699,0.415c-0.338,0.552-0.669,1.108-1.02,1.651c-0.102,0.158-0.399,0.307-0.377,0.409
		c0.273,1.235-0.527,1.842-1.278,2.611c-0.545,0.557-0.651,1.516-1.089,2.21c-0.687,1.091-1.667,2.009-1.893,3.361
		c-0.006,0.036-0.045,0.068-0.072,0.098c-0.49,0.533-1.457,1.156-1.377,1.58c0.191,1.008-0.921,1.143-0.937,1.908
		c-0.002,0.112-0.48,0.214-0.832,0.359c0.175,0.136,0.311,0.242,0.482,0.375c-0.289,0.138-0.721,0.204-0.805,0.411
		c-0.221,0.547-0.187,1.209-0.449,1.726c-0.326,0.645-0.847,1.193-1.366,1.894c0.401,0.549-0.907,2.656-2.392,3.022
		c0.785,0.887,0.028,1.443-0.394,2.11c-1.02,1.614-1.966,3.277-3.02,4.868c-0.845,1.275-1.808,2.471-2.706,3.712
		c-0.08,0.11-0.095,0.292-0.085,0.437c0.078,1.198-0.593,1.839-1.67,2.22c0,0.445,0,0.89,0,1.267
		c-0.575,0.361-1.089,0.683-1.65,1.035c0.655,0.413,0.587,1.438-0.06,1.48c-1.983,0.128-1.272,1.849-1.841,2.798
		c-0.528,0.88-1.124,1.72-1.667,2.592c-0.473,0.758-1.148,1.489-1.314,2.317c-0.233,1.167-0.741,1.59-1.862,1.364
		c0.348,2.411,0.036,2.915-2.641,4.245c0.215,0.328,0.424,0.646,0.66,1.006c-0.852,1.167-1.802,2.333-2.592,3.6
		c-0.489,0.785-0.684,1.748-1.113,2.577c-0.166,0.32-0.617,0.492-1.088,0.606c-0.083,2.817-2.515,4.568-3.684,6.983
		c-1.26-0.785-1.094,1.017-1.083,1.166c0.106,1.48-1.103,2.343-1.53,3.552c-0.318,0.902-0.906,1.709-1.419,2.641
		c-1.997-0.88-1.575,1.262-1.691,1.774c-0.459,2.04-1.55,3.732-2.458,5.525c-0.69,1.364-1.468,2.685-2.256,3.996
		c-0.2,0.333-0.585,0.554-1.076,1c0.044,1.543-0.15,1.859-1.846,2.325c1.283,1.875-0.628,2.983-1.128,4.435
		c-0.656,1.904-1.635,3.721-2.666,5.462c-0.514,0.869-0.394,1.983-1.423,2.727c-0.516,0.373-0.362,1.699-0.471,2.598
		c-0.117,0.962-0.402,1.975-0.209,2.879c0.154,0.72,0.944,1.29,1.4,1.962c0.397,0.586,0.698,1.236,1.09,1.826
		c0.129,0.195,0.403,0.3,0.621,0.427c0.364,0.212,0.779,0.358,1.095,0.624c0.451,0.381,0.816,0.465,1.452,0.317
		c0.967-0.224,2.07-0.339,3.005-0.087c0.875,0.235,1.451-0.344,2.187-0.313c1.335,0.056,2.633-0.552,4.039,0.031
		c0.522,0.216,1.395-0.415,2.17-0.681c0.075,0.348,0.135,0.624,0.175,0.809c1.912-0.56,3.769-1.104,5.572-1.632
		c0.334,0.445,0.54,0.72,0.564,0.751c0.679-0.323,1.23-0.779,1.816-0.828c1.673-0.139,3.368-0.026,5.039-0.177
		c1.399-0.127,2.767-0.566,4.165-0.72c1.416-0.156,2.852-0.125,4.278-0.194c0.195-0.009,0.382-0.139,0.578-0.194
		c0.255-0.071,0.734-0.198,0.742-0.174c0.52,1.541,0.889,0.072,1.364-0.007c1.277-0.214,2.586-0.233,3.882-0.329
		c0.199-0.015,0.409,0.013,0.594-0.045c0.427-0.133,0.892-0.793,1.219,0.141c0.016,0.047,0.54,0.012,0.743-0.118
		c1.388-0.886,2.09-0.908,3.345-0.035c0.297-0.317,0.593-0.635,0.648-0.694c0.708-0.067,1.126-0.08,1.534-0.15
		c1.048-0.18,2.084-0.439,3.137-0.566c1.593-0.193,3.194-0.34,4.796-0.424c0.496-0.026,1.006,0.216,1.422,0.315
		c1.736-0.941,3.462-1.508,5.42-0.651c0.202,0.089,0.571-0.192,0.858-0.311c0.256-0.107,0.5-0.31,0.761-0.33
		c1.388-0.111,2.787-0.109,4.167-0.278c1.854-0.227,3.692-0.588,5.541-0.864c0.937-0.14,1.881-0.237,2.825-0.312
		c0.131-0.01,0.315,0.19,0.416,0.334c0.359,0.513,0.518,0.495,0.774-0.117c0.115-0.274,0.646-0.372,1.201-0.661
		c-0.131,0.674-0.203,1.04-0.274,1.406c0.03,0.008,0.061,0.016,0.091,0.024c0.151-0.388,0.302-0.776,0.453-1.164
		c0.016,0.106,0.032,0.212,0.048,0.319c1.172-0.243,2.344-0.482,3.515-0.732c0.151-0.032,0.292-0.164,0.436-0.162
		c1.655,0.021,3.31,0.066,4.964,0.083c0.161,0.002,0.327-0.136,0.486-0.218c0.202-0.103,0.519-0.354,0.582-0.301
		c0.785,0.667,1.333-0.055,2.003-0.237c0.887-0.242,1.837-0.256,2.76-0.361c1.65-0.188,3.297-0.467,4.951-0.513
		c0.8-0.022,1.563,0.381,2.316-0.331c0.173-0.164,0.869,0.323,1.333,0.344c0.528,0.025,1.082-0.077,1.593-0.23
		c0.98-0.292,1.902-1.331,2.644-0.422c1.472-0.286,2.688-0.534,3.912-0.743c0.136-0.023,0.342,0.156,0.464,0.289
		c0.878,0.961,1.38,0.888,2.325,0.099c0.576-0.481,1.423-0.689,2.184-0.881c0.522-0.132,1.105-0.025,1.762-0.025
		c-0.071,0.157-0.192,0.424-0.313,0.691c0.2,0.101,0.4,0.202,0.594,0.3c0.043-0.03,0.081-0.047,0.106-0.076
		c1.315-1.448,2.947-1.798,5.273-1.493c0.922,0.121,1.915-0.339,2.881-0.501c0.342-0.057,0.881-0.164,1.021,0.006
		c0.768,0.932,1.244,0.653,1.563-0.373c0.508,0.4,0.909,0.715,1.538,1.21c-0.065-0.541-0.096-0.8-0.143-1.192
		c0.716,0,1.386,0,2.055,0c0.002,0.092,0.005,0.184,0.007,0.277c0.168-0.187,0.312-0.502,0.508-0.539
		c1.085-0.206,2.181-0.375,3.28-0.479c0.192-0.018,0.422,0.492,0.629,0.488c0.451-0.009,1.021-0.058,1.324-0.333
		c0.642-0.581,1.22-0.633,1.577,0.098c0.318,0.65,0.438,0.735,0.804-0.014c0.352-0.72,1.946-0.944,2.668-0.6
		c0.255,0.121,0.776,0.144,0.907-0.013c0.664-0.797,1.182-0.926,1.698,0.118c0.059,0.12,0.356,0.121,0.543,0.178
		c-0.043-0.117-0.087-0.235-0.13-0.352c0.61-0.276,1.196-0.671,1.836-0.803c1.179-0.244,2.402-0.522,3.586-0.447
		c2.17,0.138,4.223-0.674,6.38-0.574c0.862,0.04,1.736-0.2,2.605-0.316c0.358-0.048,0.785-0.259,1.059-0.133
		c1.506,0.691,2.769-0.388,4.153-0.465c0.612-0.034,1.237,0.267,1.864,0.368c0.2,0.032,0.491-0.02,0.626-0.151
		c0.724-0.703,1.555-0.769,2.502-0.62c0.66,0.104,1.349,0.02,2.199,0.02c0.456-0.125,1.1-0.365,1.765-0.473
		c1.682-0.273,3.372-0.756,5.042,0.163c0.209,0.115,0.751-0.115,0.98-0.344c0.656-0.655,3.001-1.179,3.893-0.816
		c1.11,0.452,2.154,0.419,3.106-0.433c0.518-0.464,3.078-0.26,3.732,0.299c1.097-1.701,2.938-0.782,4.431-1.194
		c0.78-0.215,1.703,0.108,2.562,0.142c0.218,0.008,0.444-0.16,0.663-0.255c0.266-0.115,0.528-0.239,0.792-0.358
		c0.049,0.325,0.098,0.649,0.182,1.209c0.614-0.333,1.229-0.679,1.858-0.998c0.177-0.09,0.401-0.084,0.596-0.145
		c0.484-0.151,0.955-0.356,1.448-0.465c0.58-0.128,1.367-0.707,1.517,0.798c0.654-1.811,2.152-0.929,3.25-1.442
		c0.197,0.381,0.374,0.723,0.558,1.079c0.944-1.426,2.032-1.608,4.037-1.134c0.989,0.234,1.841,0.403,2.601-0.475
		c0.146-0.169,0.51-0.199,0.775-0.205c1.426-0.033,2.835-0.141,4.241-0.433c0.762-0.159,1.487,0.762,2.341,0.239
		c0.31-0.19,0.613-0.444,0.952-0.52c0.406-0.091,1.006-0.201,1.242,0.01c0.534,0.477,0.768,0.745,1.243-0.092
		c0.466-0.822,1.753-0.582,2.562,0.5c1.373-2.081,3.652-1.01,5.515-1.547c1.919-0.554,4.055-0.357,6.072-0.374
		c0.795-0.201,1.58-0.487,2.388-0.585c1.534-0.186,3.086-0.398,4.621-0.338c1.016,0.04,2.098-0.674,3.083,0.167
		c0.083,0.071,0.497-0.044,0.527-0.142c0.351-1.158,1.268-0.708,2.027-0.779c0.939-0.088,1.864-0.315,2.803-0.396
		c0.386-0.034,0.792,0.154,1.245,0.254c1.117-0.262,2.419-0.884,3.657-0.775c1.353,0.119,2.656-0.799,4.086,0.054
		c0.517,0.308,1.668-0.218,2.415-0.593c0.757-0.38,3.53-0.613,4.17-0.124c0.424-0.531,2.467-0.908,3.072-0.685
		c0.423,0.156,1.041,0.282,1.375,0.087c1.3-0.762,2.564-0.89,3.933-0.248c0.24,0.113,0.81,0.089,0.841-0.002
		c0.419-1.242,1.394-0.755,2.163-0.681c0.827,0.08,1.637,0.34,2.549,0.542c0.038-0.311,0.079-0.646,0.138-1.131
		c1.609,0.26,3.34-0.844,4.788,0.817c1.242-1.579,3.042-1.483,4.661-1.753c2.155-0.359,4.345-0.538,6.527-0.698
		c0.787-0.058,1.594,0.169,2.393,0.252c0.218,0.023,0.525,0.086,0.648-0.026c0.956-0.869,2.09-0.665,3.237-0.73
		c1.263-0.072,2.69,0.83,3.805-0.48c0.061-0.071,0.235-0.082,0.349-0.066c2.214,0.316,4.309-0.921,6.624-0.334
		c1.052,0.266,2.361-0.602,3.577-0.833c1.028-0.195,2.088-0.218,3.135-0.311c0.629-0.056,1.259-0.1,2.001-0.159
		c0.017,0.14-0.032,0.447,0.085,0.535c0.215,0.162,0.764,0.277,0.767,0.271c0.634-1.828,2.505-0.484,3.516-1.341
		c0.031-0.026,0.46,0.417,0.785,0.717c0.537-1.162,1.605-0.93,2.605-1.022c1.714-0.158,3.415-0.44,5.126-0.637
		c0.952-0.109,1.911-0.189,2.868-0.202c0.332-0.005,0.668,0.227,0.975,0.341c0.245-0.149,0.538-0.466,0.863-0.502
		c1.982-0.224,3.974-0.363,5.958-0.575c0.97-0.103,1.924-0.372,2.894-0.439c1.236-0.086,2.48-0.047,3.721-0.051
		c0.044,0,0.088,0.108,0.131,0.165c1.224-1.514,3.026-0.276,4.424-1.01c0.031,0.33,0.055,0.58,0.076,0.808
		c0.13,0.032,0.234,0.07,0.241,0.058c0.402-0.79,1.078-0.635,1.761-0.545c0.829,0.11,1.705,0.592,2.304-0.614
		c0.149-0.301,1.157-0.263,1.76-0.223c0.411,0.028,0.804,0.33,1.29,0.548c0.364-1.058,1.189-0.994,2.069-1.018
		c0.974-0.026,1.939-0.335,2.916-0.388c0.829-0.044,1.668,0.093,2.501,0.169c0.178,0.016,0.444,0.214,0.507,0.155
		c0.745-0.696,1.517-0.85,2.471-0.39c0.185,0.089,0.6-0.449,0.935-0.492c1.185-0.153,2.384-0.2,3.574-0.323
		c0.471-0.048,0.931-0.254,1.4-0.272c0.778-0.03,1.559,0.032,2.339,0.06c0.177,0.006,0.406,0.116,0.521,0.04
		c1.721-1.129,3.313-0.695,4.87,0.353c0.058,0.039,0.15,0.038,0.226,0.038c0.03,0,0.06-0.051,0.077-0.066
		c-0.067-0.387-0.132-0.759-0.197-1.13c0.571,0.155,1.142,0.309,1.744,0.472c0.014-0.183,0.04-0.511,0.058-0.742
		c0.986,0,1.982,0.228,2.799-0.057c1.057-0.369,1.988-0.757,3.046-0.126c0.112,0.067,0.403,0.039,0.464-0.049
		c0.96-1.36,2.456-0.545,3.665-0.892c1.076-0.308,2.231-0.391,3.357-0.448c0.75-0.038,1.668-0.532,2.235,0.462
		c1.089-1.032,3.405-1.261,4.046-0.382c0.163-0.211,0.31-0.591,0.492-0.609c1.053-0.104,2.116-0.106,3.174-0.18
		c0.33-0.023,0.653-0.155,0.976-0.246c0.616-0.174,1.119-0.19,1.168,0.665c0.028,0.491,0.154,0.976,0.188,1.466
		c0.034,0.494,0.008,0.991,0.008,1.769c-0.87-0.104-1.634-0.309-2.38-0.259c-1.221,0.082-2.43,0.344-3.647,0.501
		c-0.636,0.082-1.279,0.106-1.92,0.141c-0.195,0.011-0.448-0.114-0.581-0.03c-1.18,0.743-2.355,0.586-3.515,0.056
		c0.09-0.248,0.182-0.5,0.274-0.752c-0.115-0.038-0.23-0.076-0.344-0.114c-0.084,0.22-0.125,0.472-0.261,0.653
		c-0.276,0.368-0.738,1.043-0.889,0.985c-0.985-0.381-1.799,0.04-2.669,0.318c-0.183,0.059-0.535-0.038-0.645-0.185
		c-0.521-0.695-0.904-0.265-1.391,0.05c-0.441,0.286-0.957,0.554-1.467,0.622c-2.158,0.288-4.322,0.555-6.492,0.702
		c-0.625,0.042-1.272-0.374-1.923-0.517c-0.365-0.08-0.917-0.198-1.111-0.012c-0.955,0.912-2.071,1.121-3.32,1.065
		c-0.84-0.038-1.73,0.339-2.379-0.633c-0.126-0.188-0.862,0.031-1.316,0.062c0,0.123-0.001,0.245-0.001,0.368
		c0.241,0.06,0.482,0.12,0.893,0.223c-0.341,0.187-0.531,0.377-0.731,0.388c-1.656,0.094-3.324,0.059-4.967,0.251
		c-1.803,0.21-3.58,0.631-5.372,0.936c-0.865,0.147-1.742,0.337-2.608,0.309c-0.364-0.012-0.712-0.536-1.172-0.913
		c-0.503,1.97-2.443,0.587-3.545,1.415c-1.473-1.01-2.631,0.81-4.114,0.436c-0.954-0.241-2.038,0.061-3.062,0.043
		c-0.181-0.003-0.355-0.384-0.563-0.626c-0.881,1.765-2.479,1.218-3.769,1.173c-1.435-0.049-2.739,0.143-4.069,0.642
		c-0.484,0.182-1.123-0.048-1.899-0.106c-0.089,0.054-0.398,0.387-0.737,0.421c-2.901,0.289-5.805,0.542-8.712,0.76
		c-0.69,0.052-1.402-0.156-2.087-0.082c-0.511,0.055-0.985,0.404-1.497,0.544c-0.108,0.03-0.302-0.403-0.467-0.41
		c-0.574-0.027-1.331-0.179-1.691,0.116c-0.772,0.633-1.367,1.16-2.294,0.286c-0.151-0.143-0.765-0.106-0.826,0.017
		c-0.387,0.776-0.835,0.982-1.551,0.398c-0.085-0.069-0.317-0.047-0.428,0.02c-1.692,1.022-3.553,0.514-5.349,0.658
		c-1.49,0.119-2.951,0.563-4.438,0.776c-0.509,0.073-1.057-0.178-1.584-0.168c-0.772,0.015-1.593-0.015-2.302,0.234
		c-1.658,0.582-3.323,0.949-5.077,0.725c-0.525-0.067-1.092-0.626-1.448,0.25c-0.016,0.041-0.174,0.073-0.227,0.043
		c-1.638-0.955-2.925,0.826-4.607,0.537c-1.519-0.261-3.173,0.363-4.776,0.452c-0.674,0.037-1.369-0.298-2.185-0.496
		c-1.196,1.177-2.914,1.219-4.695,1.173c-0.837-0.022-1.678,0.239-2.522,0.302c-0.505,0.037-1.021-0.062-1.825-0.122
		c-0.46,0.777-1.595,0.493-2.667,0.585c-1.697,0.147-3.381,0.446-5.137,0.69c0.02-0.322,0.041-0.644,0.038-0.602
		c-1.022,0.296-2.095,0.761-3.208,0.896c-2.275,0.276-4.575,0.33-6.856,0.558c-1.664,0.166-3.312,0.507-4.976,0.674
		c-0.433,0.043-0.933-0.457-1.35-0.39c-1.141,0.185-2.257,0.533-3.378,0.832c-0.231,0.062-0.495,0.329-0.659,0.269
		c-1.845-0.671-3.498,0.749-5.364,0.42c-1.086-0.191-2.285,0.319-3.441,0.433c-0.472,0.047-0.965-0.12-1.597-0.211
		c-0.61,0.641-1.977,0.825-2.765,0.293c-0.378,0.21-0.695,0.512-1.045,0.559c-1.345,0.182-2.699,0.302-4.053,0.397
		c-0.26,0.018-0.528-0.215-0.804-0.272c-0.722-0.148-1.417-0.762-2.097,0.35c-0.27,0.441-1.38,0.424-2.119,0.507
		c-1.212,0.137-2.432,0.2-3.651,0.262c-0.383,0.019-0.775-0.118-1.156-0.091c-0.841,0.059-1.806-0.818-2.525,0.332
		c-0.094,0.15-0.416,0.201-0.639,0.22c-1.54,0.132-3.099,0.138-4.618,0.39c-1.525,0.254-3.17-0.554-4.61,0.565
		c-0.215,0.167-0.733-0.099-1.107-0.081c-0.412,0.021-0.845,0.075-1.223,0.227c-0.811,0.326-1.567,0.906-2.277-0.229
		C375.246,356.01,374.641,356.013,374.022,355.825z"/>
</g>
</svg>