<?xml version="1.0" encoding="utf-8"?>
<!-- Generator: Adobe Illustrator 27.2.0, SVG Export Plug-In . SVG Version: 6.00 Build 0)  -->
<svg version="1.1" id="Layer_1" xmlns="http://www.w3.org/2000/svg" xmlns:xlink="http://www.w3.org/1999/xlink" x="0px" y="0px"
	 viewBox="0 0 494.902 301.909" style="enable-background:new 0 0 494.902 301.909;" xml:space="preserve">
<g>
	<g>
		<path d="M212.175,139.316l1.399-4.477c0,0,2.658-1.539,4.757,0.56c2.099,2.099,0,3.638,0,3.638S214.136,141.35,212.175,139.316z"
			/>
	</g>
</g>
<g>
	<g>
		<path d="M83.785,57.266l1.399-4.477c0,0,2.658-1.539,4.757,0.56c2.099,2.099,0,3.638,0,3.638S85.746,59.301,83.785,57.266z"/>
	</g>
</g>
<g>
	<g>
		<path d="M1.799,228.37l1.399-4.477c0,0,2.658-1.539,4.757,0.56c2.099,2.099,0,3.638,0,3.638S3.76,230.405,1.799,228.37z"/>
	</g>
</g>
<g>
	<g>
		<path d="M86.716,265.988l1.399-4.477c0,0,2.658-1.539,4.757,0.56c2.099,2.099,0,3.638,0,3.638S88.677,268.022,86.716,265.988z"/>
	</g>
</g>
<g>
	<g>
		<path d="M130.085,187.721l1.399-4.477c0,0,2.658-1.539,4.757,0.56c2.099,2.099,0,3.638,0,3.638S132.046,189.755,130.085,187.721z"
			/>
	</g>
</g>
<g>
	<g>
		<path d="M105.039,109.207l1.399-4.477c0,0,2.658-1.539,4.757,0.56c2.099,2.099,0,3.638,0,3.638S107,111.242,105.039,109.207z"/>
	</g>
</g>
<g>
	<g>
		<path d="M69.947,77.16l1.399-4.477c0,0,2.658-1.539,4.757,0.56c2.099,2.099,0,3.638,0,3.638S71.908,79.194,69.947,77.16z"/>
	</g>
</g>
<g>
	<g>
		<path d="M107.629,42.503l1.399-4.477c0,0,2.658-1.539,4.757,0.56c2.099,2.099,0,3.638,0,3.638S109.59,44.538,107.629,42.503z"/>
	</g>
</g>
<g>
	<g>
		<path d="M228.41,45.34l1.399-4.477c0,0,2.658-1.539,4.757,0.56c2.099,2.099,0,3.638,0,3.638S230.371,47.375,228.41,45.34z"/>
	</g>
</g>
<g>
	<g>
		<path d="M256.201,76.682l1.399-4.477c0,0,2.658-1.539,4.757,0.56c2.099,2.099,0,3.638,0,3.638S258.162,78.717,256.201,76.682z"/>
	</g>
</g>
<g>
	<g>
		<path d="M92.395,135.492l1.399-4.477c0,0,2.658-1.539,4.757,0.56c2.099,2.099,0,3.638,0,3.638S94.357,137.526,92.395,135.492z"/>
	</g>
</g>
<g>
	<g>
		<path d="M40.15,174.178l1.399-4.477c0,0,2.658-1.539,4.757,0.56c2.099,2.099,0,3.638,0,3.638S42.111,176.212,40.15,174.178z"/>
	</g>
</g>
<g>
	<g>
		<path d="M69.741,218.358l1.399-4.477c0,0,2.658-1.539,4.757,0.56s0,3.638,0,3.638S71.702,220.393,69.741,218.358z"/>
	</g>
</g>
<g>
	<g>
		<path d="M232.135,251.602l1.399-4.477c0,0,2.658-1.539,4.757,0.56c2.099,2.099,0,3.638,0,3.638S234.097,253.636,232.135,251.602z"
			/>
	</g>
</g>
<g>
	<g>
		<path d="M280.664,200.309l1.399-4.477c0,0,2.658-1.539,4.757,0.56c2.099,2.099,0,3.638,0,3.638S282.625,202.343,280.664,200.309z"
			/>
	</g>
</g>
<g>
	<g>
		<path d="M264.487,153.9l1.399-4.477c0,0,2.658-1.539,4.757,0.56c2.099,2.099,0,3.638,0,3.638S266.448,155.934,264.487,153.9z"/>
	</g>
</g>
<g>
	<g>
		<path d="M176.592,124.399l1.399-4.477c0,0,2.658-1.539,4.757,0.56c2.099,2.099,0,3.638,0,3.638S178.553,126.433,176.592,124.399z"
			/>
	</g>
</g>
<g>
	<g>
		<path d="M148.28,117.859l1.399-4.477c0,0,2.658-1.539,4.757,0.56c2.099,2.099,0,3.638,0,3.638S150.241,119.894,148.28,117.859z"/>
	</g>
</g>
<g>
	<g>
		<path d="M134.242,102.611l1.399-4.477c0,0,2.658-1.539,4.757,0.56c2.099,2.099,0,3.638,0,3.638S136.203,104.646,134.242,102.611z"
			/>
	</g>
</g>
<g>
	<g>
		<path d="M118.053,82.171l1.399-4.477c0,0,2.658-1.539,4.757,0.56c2.099,2.099,0,3.638,0,3.638S120.014,84.205,118.053,82.171z"/>
	</g>
</g>
<g>
	<g>
		<path d="M107.271,63.193l1.399-4.477c0,0,2.658-1.539,4.757,0.56s0,3.638,0,3.638S109.232,65.227,107.271,63.193z"/>
	</g>
</g>
<g>
	<g>
		<path d="M95.106,50.863l1.399-4.477c0,0,2.658-1.539,4.757,0.56c2.099,2.099,0,3.638,0,3.638S97.067,52.897,95.106,50.863z"/>
	</g>
</g>
<g>
	<g>
		<path d="M97.526,36.643l1.399-4.477c0,0,2.658-1.539,4.757,0.56c2.099,2.099,0,3.638,0,3.638S99.487,38.677,97.526,36.643z"/>
	</g>
</g>
<g>
	<g>
		<path d="M129.124,21.01l1.399-4.477c0,0,2.658-1.539,4.757,0.56c2.099,2.099,0,3.638,0,3.638S131.085,23.044,129.124,21.01z"/>
	</g>
</g>
<g>
	<g>
		<path d="M221.552,19.749l1.399-4.477c0,0,2.658-1.539,4.757,0.56c2.099,2.099,0,3.638,0,3.638S223.514,21.783,221.552,19.749z"/>
	</g>
</g>
<g>
	<g>
		<path d="M326.423,28.668l1.399-4.477c0,0,2.658-1.539,4.757,0.56s0,3.638,0,3.638S328.385,30.702,326.423,28.668z"/>
	</g>
</g>
<g>
	<g>
		<path d="M375.329,37.504l1.399-4.477c0,0,2.658-1.539,4.757,0.56c2.099,2.099,0,3.638,0,3.638S377.29,39.538,375.329,37.504z"/>
	</g>
</g>
<g>
	<g>
		<path d="M407.103,41.433l1.399-4.477c0,0,2.658-1.539,4.757,0.56c2.099,2.099,0,3.638,0,3.638S409.064,43.467,407.103,41.433z"/>
	</g>
</g>
<g>
	<g>
		<path d="M391.86,33.953l1.399-4.477c0,0,2.658-1.539,4.757,0.56s0,3.638,0,3.638S393.821,35.987,391.86,33.953z"/>
	</g>
</g>
<g>
	<g>
		<path d="M166.229,56.68l1.399-4.477c0,0,2.658-1.539,4.757,0.56c2.099,2.099,0,3.638,0,3.638S168.19,58.714,166.229,56.68z"/>
	</g>
</g>
<g>
	<g>
		<path d="M135.847,66.36l1.399-4.477c0,0,2.658-1.539,4.757,0.56c2.099,2.099,0,3.638,0,3.638S137.808,68.395,135.847,66.36z"/>
	</g>
</g>
<g>
	<g>
		<path d="M154.502,84.391l1.399-4.477c0,0,2.658-1.539,4.757,0.56c2.099,2.099,0,3.638,0,3.638S156.463,86.425,154.502,84.391z"/>
	</g>
</g>
<g>
	<g>
		<path d="M339.609,69.248l1.399-4.477c0,0,2.658-1.539,4.757,0.56c2.099,2.099,0,3.638,0,3.638S341.571,71.283,339.609,69.248z"/>
	</g>
</g>
<g>
	<g>
		<path d="M421.551,65.823l1.399-4.477c0,0,2.658-1.539,4.757,0.56c2.099,2.099,0,3.638,0,3.638S423.512,67.857,421.551,65.823z"/>
	</g>
</g>
<g>
	<g>
		<path d="M443.425,65.994l1.399-4.477c0,0,2.658-1.539,4.757,0.56c2.099,2.099,0,3.638,0,3.638S445.387,68.028,443.425,65.994z"/>
	</g>
</g>
<g>
	<g>
		<path d="M407.841,66.166l1.399-4.477c0,0,2.658-1.539,4.757,0.56c2.099,2.099,0,3.638,0,3.638S409.802,68.2,407.841,66.166z"/>
	</g>
</g>
<g>
	<g>
		<path d="M211.1,64.93l1.399-4.477c0,0,2.658-1.539,4.757,0.56c2.099,2.099,0,3.638,0,3.638S213.062,66.964,211.1,64.93z"/>
	</g>
</g>
<g>
	<g>
		<path d="M200.203,65.335l1.399-4.477c0,0,2.658-1.539,4.757,0.56c2.099,2.099,0,3.638,0,3.638S202.164,67.37,200.203,65.335z"/>
	</g>
</g>
<g>
	<g>
		<path d="M358.746,56.293l1.399-4.477c0,0,2.658-1.539,4.757,0.56c2.099,2.099,0,3.638,0,3.638S360.707,58.327,358.746,56.293z"/>
	</g>
</g>
<g>
	<g>
		<path d="M436.899,23.969l1.399-4.477c0,0,2.658-1.539,4.757,0.56s0,3.638,0,3.638S438.86,26.003,436.899,23.969z"/>
	</g>
</g>
<g>
	<g>
		<path d="M435.736,74.182l1.399-4.477c0,0,2.658-1.539,4.757,0.56s0,3.638,0,3.638S437.697,76.216,435.736,74.182z"/>
	</g>
</g>
<g>
	<g>
		<path d="M484.559,156.756l1.399-4.477c0,0,2.658-1.539,4.757,0.56c2.099,2.099,0,3.638,0,3.638S486.521,158.79,484.559,156.756z"
			/>
	</g>
</g>
<g>
	<g>
		<path d="M455.451,42.965l1.399-4.477c0,0,2.658-1.539,4.757,0.56c2.099,2.099,0,3.638,0,3.638S457.412,44.999,455.451,42.965z"/>
	</g>
</g>
<g>
	<g>
		<path d="M471.91,98.786l1.399-4.477c0,0,2.658-1.539,4.757,0.56s0,3.638,0,3.638S473.871,100.821,471.91,98.786z"/>
	</g>
</g>
<g>
	<g>
		<path d="M478.88,231.596l1.399-4.477c0,0,2.658-1.539,4.757,0.56c2.099,2.099,0,3.638,0,3.638S480.841,233.63,478.88,231.596z"/>
	</g>
</g>
<g>
	<g>
		<path d="M479.044,246.019l1.399-4.477c0,0,2.658-1.539,4.757,0.56c2.099,2.099,0,3.638,0,3.638S481.005,248.054,479.044,246.019z"
			/>
	</g>
</g>
<g>
	<g>
		<path d="M462.392,56.509l1.399-4.477c0,0,2.658-1.539,4.757,0.56c2.099,2.099,0,3.638,0,3.638S464.353,58.543,462.392,56.509z"/>
	</g>
</g>
<g>
	<g>
		<path d="M422.44,117.911l1.399-4.477c0,0,2.658-1.539,4.757,0.56c2.099,2.099,0,3.638,0,3.638S424.401,119.945,422.44,117.911z"/>
	</g>
</g>
<g>
	<g>
		<path d="M367.143,257.326l1.399-4.477c0,0,2.658-1.539,4.757,0.56c2.099,2.099,0,3.638,0,3.638S369.104,259.36,367.143,257.326z"
			/>
	</g>
</g>
<g>
	<g>
		<path d="M464.993,265.396l1.399-4.477c0,0,2.658-1.539,4.757,0.56s0,3.638,0,3.638S466.954,267.43,464.993,265.396z"/>
	</g>
</g>
<g>
	<g>
		<path d="M456.862,107.615l1.399-4.477c0,0,2.658-1.539,4.757,0.56s0,3.638,0,3.638S458.823,109.649,456.862,107.615z"/>
	</g>
</g>
<g>
	<g>
		<path d="M340.183,123.403l1.399-4.477c0,0,2.658-1.539,4.757,0.56c2.099,2.099,0,3.638,0,3.638S342.144,125.437,340.183,123.403z"
			/>
	</g>
</g>
<g>
	<g>
		<path d="M447.892,118.842l1.399-4.477c0,0,2.658-1.539,4.757,0.56c2.099,2.099,0,3.638,0,3.638S449.853,120.876,447.892,118.842z"
			/>
	</g>
</g>
<g>
	<g>
		<path d="M112.559,131.56l1.399-4.477c0,0,2.658-1.539,4.757,0.56c2.099,2.099,0,3.638,0,3.638S114.521,133.595,112.559,131.56z"/>
	</g>
</g>
<g>
	<g>
		<path d="M128.679,286.099l1.399-4.477c0,0,2.658-1.539,4.757,0.56c2.099,2.099,0,3.638,0,3.638S130.64,288.133,128.679,286.099z"
			/>
	</g>
</g>
<g>
	<g>
		<path d="M404.166,249.005l1.399-4.477c0,0,2.658-1.539,4.757,0.56c2.099,2.099,0,3.638,0,3.638S406.127,251.039,404.166,249.005z"
			/>
	</g>
</g>
<g>
	<g>
		<path d="M376.149,149.893l1.399-4.477c0,0,2.658-1.539,4.757,0.56c2.099,2.099,0,3.638,0,3.638S378.11,151.927,376.149,149.893z"
			/>
	</g>
</g>
<g>
	<g>
		<path d="M168.192,248.315l1.399-4.477c0,0,2.658-1.539,4.757,0.56s0,3.638,0,3.638S170.154,250.349,168.192,248.315z"/>
	</g>
</g>
<g>
	<g>
		<path d="M320.249,180.728l1.399-4.477c0,0,2.658-1.539,4.757,0.56s0,3.638,0,3.638S322.21,182.762,320.249,180.728z"/>
	</g>
</g>
<g>
	<g>
		<path d="M105.024,262.433l1.399-4.477c0,0,2.658-1.539,4.757,0.56c2.099,2.099,0,3.638,0,3.638S106.985,264.467,105.024,262.433z"
			/>
	</g>
</g>
<g>
	<g>
		<path d="M277.323,286.721l1.399-4.477c0,0,2.658-1.539,4.757,0.56c2.099,2.099,0,3.638,0,3.638S279.284,288.755,277.323,286.721z"
			/>
	</g>
</g>
<g>
	<g>
		<path d="M161.527,213.369l1.399-4.477c0,0,2.658-1.539,4.757,0.56c2.099,2.099,0,3.638,0,3.638S163.488,215.404,161.527,213.369z"
			/>
	</g>
</g>
<g>
	<g>
		<path d="M28.239,297.784l1.399-4.477c0,0,2.658-1.539,4.757,0.56c2.099,2.099,0,3.638,0,3.638S30.2,299.819,28.239,297.784z"/>
	</g>
</g>
<g>
	<g>
		<path d="M41.606,262.012l1.399-4.477c0,0,2.658-1.539,4.757,0.56c2.099,2.099,0,3.638,0,3.638S43.567,264.046,41.606,262.012z"/>
	</g>
</g>
<g>
	<g>
		<path d="M85.328,284.001l1.399-4.477c0,0,2.658-1.539,4.757,0.56c2.099,2.099,0,3.638,0,3.638S87.289,286.035,85.328,284.001z"/>
	</g>
</g>
<g>
	<g>
		<path d="M160.91,187.188l1.399-4.477c0,0,2.658-1.539,4.757,0.56c2.099,2.099,0,3.638,0,3.638S162.871,189.223,160.91,187.188z"/>
	</g>
</g>
<g>
	<g>
		<path d="M94.327,193.228l1.399-4.477c0,0,2.658-1.539,4.757,0.56c2.099,2.099,0,3.638,0,3.638S96.288,195.262,94.327,193.228z"/>
	</g>
</g>
<g>
	<g>
		<path d="M106.067,77.351l1.399-4.477c0,0,2.658-1.539,4.757,0.56c2.099,2.099,0,3.638,0,3.638S108.028,79.385,106.067,77.351z"/>
	</g>
</g>
<g>
	<g>
		<path d="M54.655,137.467l1.399-4.477c0,0,2.658-1.539,4.757,0.56c2.099,2.099,0,3.638,0,3.638S56.616,139.501,54.655,137.467z"/>
	</g>
</g>
<g>
	<g>
		<path d="M146.39,69.755l1.399-4.477c0,0,2.658-1.539,4.757,0.56c2.099,2.099,0,3.638,0,3.638S148.351,71.789,146.39,69.755z"/>
	</g>
</g>
<g>
	<g>
		<path d="M491.358,112.74l1.399-4.477c0,0,2.658-1.539,4.757,0.56c2.099,2.099,0,3.638,0,3.638S493.319,114.774,491.358,112.74z"/>
	</g>
</g>
<g>
	<g>
		<path d="M-1.784,91.862l1.399-4.477c0,0,2.658-1.539,4.757,0.56s0,3.638,0,3.638S0.177,93.897-1.784,91.862z"/>
	</g>
</g>
<g>
	<g>
		<path d="M18.638,67.703l1.399-4.477c0,0,2.658-1.539,4.757,0.56c2.099,2.099,0,3.638,0,3.638S20.599,69.737,18.638,67.703z"/>
	</g>
</g>
<g>
	<g>
		<path d="M15.764,12.145l1.399-4.477c0,0,2.658-1.539,4.757,0.56s0,3.638,0,3.638S17.725,14.179,15.764,12.145z"/>
	</g>
</g>
<g>
	<g>
		<path d="M18.29,20.735l1.399-4.477c0,0,2.658-1.539,4.757,0.56s0,3.638,0,3.638S20.251,22.769,18.29,20.735z"/>
	</g>
</g>
<g>
	<g>
		<path d="M344.512,9.964l1.399-4.477c0,0,2.658-1.539,4.757,0.56c2.099,2.099,0,3.638,0,3.638S346.474,11.998,344.512,9.964z"/>
	</g>
</g>
<g>
	<g>
		<path d="M384.565,3.256l1.399-4.477c0,0,2.658-1.539,4.757,0.56c2.099,2.099,0,3.638,0,3.638S386.526,5.29,384.565,3.256z"/>
	</g>
</g>
<g>
	<g>
		<path d="M362.104,4.07l1.399-4.477c0,0,2.658-1.539,4.757,0.56s0,3.638,0,3.638S364.066,6.104,362.104,4.07z"/>
	</g>
</g>
<g>
	<g>
		<path d="M223.381,3.184l1.399-4.477c0,0,2.658-1.539,4.757,0.56c2.099,2.099,0,3.638,0,3.638S225.342,5.218,223.381,3.184z"/>
	</g>
</g>
<g>
	<g>
		<path d="M168.425,0.06l1.399-4.477c0,0,2.658-1.539,4.757,0.56c2.099,2.099,0,3.638,0,3.638S170.386,2.094,168.425,0.06z"/>
	</g>
</g>
<g>
	<g>
		<path d="M152.998,109.195l1.399-4.477c0,0,2.658-1.539,4.757,0.56c2.099,2.099,0,3.638,0,3.638S154.959,111.23,152.998,109.195z"
			/>
	</g>
</g>
<g>
	<g>
		<path d="M374.678,107.661l1.399-4.477c0,0,2.658-1.539,4.757,0.56c2.099,2.099,0,3.638,0,3.638S376.639,109.695,374.678,107.661z"
			/>
	</g>
</g>
<g>
	<g>
		<path d="M11.966,106.68l1.399-4.477c0,0,2.658-1.539,4.757,0.56c2.099,2.099,0,3.638,0,3.638S13.927,108.714,11.966,106.68z"/>
	</g>
</g>
<g>
	<g>
		<path d="M476.796,68.869l1.399-4.477c0,0,2.658-1.539,4.757,0.56s0,3.638,0,3.638S478.757,70.903,476.796,68.869z"/>
	</g>
</g>
<g>
	<g>
		<path d="M128.9,251.589l1.399-4.477c0,0,2.658-1.539,4.757,0.56c2.099,2.099,0,3.638,0,3.638S130.861,253.623,128.9,251.589z"/>
	</g>
</g>
<g>
	<g>
		<path d="M434.251,216.4l1.399-4.477c0,0,2.658-1.539,4.757,0.56c2.099,2.099,0,3.638,0,3.638S436.212,218.434,434.251,216.4z"/>
	</g>
</g>
<g>
	<g>
		<path d="M207.376,274.196l1.399-4.477c0,0,2.658-1.539,4.757,0.56c2.099,2.099,0,3.638,0,3.638S209.337,276.23,207.376,274.196z"
			/>
	</g>
</g>
<g>
	<g>
		<path d="M253.807,286.308l1.399-4.477c0,0,2.658-1.539,4.757,0.56c2.099,2.099,0,3.638,0,3.638S255.768,288.342,253.807,286.308z"
			/>
	</g>
</g>
<g>
	<g>
		<path d="M290.197,261.113l1.399-4.477c0,0,2.658-1.539,4.757,0.56c2.099,2.099,0,3.638,0,3.638S292.158,263.147,290.197,261.113z"
			/>
	</g>
</g>
<g>
	<g>
		<path d="M240.693,272.925l1.399-4.477c0,0,2.658-1.539,4.757,0.56c2.099,2.099,0,3.638,0,3.638S242.654,274.96,240.693,272.925z"
			/>
	</g>
</g>
<g>
	<g>
		<path d="M264.472,223.807l1.399-4.477c0,0,2.658-1.539,4.757,0.56c2.099,2.099,0,3.638,0,3.638S266.434,225.842,264.472,223.807z"
			/>
	</g>
</g>
<g>
	<g>
		<path d="M218.79,152.207l1.399-4.477c0,0,2.658-1.539,4.757,0.56c2.099,2.099,0,3.638,0,3.638S220.751,154.241,218.79,152.207z"/>
	</g>
</g>
<g>
	<g>
		<path d="M293.866,90.512l1.399-4.477c0,0,2.658-1.539,4.757,0.56c2.099,2.099,0,3.638,0,3.638S295.827,92.546,293.866,90.512z"/>
	</g>
</g>
<g>
	<g>
		<path d="M304.515,110.999l1.399-4.477c0,0,2.658-1.539,4.757,0.56c2.099,2.099,0,3.638,0,3.638S306.476,113.034,304.515,110.999z"
			/>
	</g>
</g>
<g>
	<g>
		<path d="M320.888,200.276l1.399-4.477c0,0,2.658-1.539,4.757,0.56c2.099,2.099,0,3.638,0,3.638S322.849,202.31,320.888,200.276z"
			/>
	</g>
</g>
<g>
	<g>
		<path d="M460.015,174.56l1.399-4.477c0,0,2.658-1.539,4.757,0.56c2.099,2.099,0,3.638,0,3.638S461.976,176.594,460.015,174.56z"/>
	</g>
</g>
<g>
	<g>
		<path d="M450.446,242.455l1.399-4.477c0,0,2.658-1.539,4.757,0.56c2.099,2.099,0,3.638,0,3.638S452.407,244.49,450.446,242.455z"
			/>
	</g>
</g>
<g>
	<g>
		<path d="M395.413,266.988l1.399-4.477c0,0,2.658-1.539,4.757,0.56s0,3.638,0,3.638S397.374,269.023,395.413,266.988z"/>
	</g>
</g>
<g>
	<g>
		<path d="M387.498,261.012l1.399-4.477c0,0,2.658-1.539,4.757,0.56s0,3.638,0,3.638S389.46,263.046,387.498,261.012z"/>
	</g>
</g>
<g>
	<g>
		<path d="M353.973,259.779l1.399-4.477c0,0,2.658-1.539,4.757,0.56c2.099,2.099,0,3.638,0,3.638S355.934,261.813,353.973,259.779z"
			/>
	</g>
</g>
<g>
	<g>
		<path d="M179.293,217.012l1.399-4.477c0,0,2.658-1.539,4.757,0.56c2.099,2.099,0,3.638,0,3.638S181.254,219.046,179.293,217.012z"
			/>
	</g>
</g>
<g>
	<g>
		<path d="M286.008,115.669l1.399-4.477c0,0,2.658-1.539,4.757,0.56c2.099,2.099,0,3.638,0,3.638S287.969,117.703,286.008,115.669z"
			/>
	</g>
</g>
<g>
	<g>
		<path d="M74.014,188.389l1.399-4.477c0,0,2.658-1.539,4.757,0.56c2.099,2.099,0,3.638,0,3.638S75.975,190.423,74.014,188.389z"/>
	</g>
</g>
<g>
	<g>
		<path d="M149.203,166.049l1.399-4.477c0,0,2.658-1.539,4.757,0.56c2.099,2.099,0,3.638,0,3.638S151.164,168.084,149.203,166.049z"
			/>
	</g>
</g>
<g>
	<g>
		<path d="M132.026,203.054l1.399-4.477c0,0,2.658-1.539,4.757,0.56c2.099,2.099,0,3.638,0,3.638S133.988,205.088,132.026,203.054z"
			/>
	</g>
</g>
<g>
	<g>
		<path d="M347.926,174.756l1.399-4.477c0,0,2.658-1.539,4.757,0.56s0,3.638,0,3.638S349.887,176.79,347.926,174.756z"/>
	</g>
</g>
<g>
	<g>
		<path d="M117.73,301.072l1.399-4.477c0,0,2.658-1.539,4.757,0.56c2.099,2.099,0,3.638,0,3.638S119.691,303.106,117.73,301.072z"/>
	</g>
</g>
<g>
	<g>
		<path d="M266.158,267.901l1.399-4.477c0,0,2.658-1.539,4.757,0.56c2.099,2.099,0,3.638,0,3.638S268.119,269.935,266.158,267.901z"
			/>
	</g>
</g>
<g>
	<g>
		<path d="M303.265,285.744l1.399-4.477c0,0,2.658-1.539,4.757,0.56c2.099,2.099,0,3.638,0,3.638S305.226,287.778,303.265,285.744z"
			/>
	</g>
</g>
<g>
	<g>
		<path d="M399.763,301.072l1.399-4.477c0,0,2.658-1.539,4.757,0.56c2.099,2.099,0,3.638,0,3.638S401.724,303.106,399.763,301.072z"
			/>
	</g>
</g>
<g>
	<g>
		<path d="M282.617,219.774l1.399-4.477c0,0,2.658-1.539,4.757,0.56c2.099,2.099,0,3.638,0,3.638S284.578,221.808,282.617,219.774z"
			/>
	</g>
</g>
<g>
	<g>
		<path d="M400.91,159.728l1.399-4.477c0,0,2.658-1.539,4.757,0.56c2.099,2.099,0,3.638,0,3.638S402.871,161.762,400.91,159.728z"/>
	</g>
</g>
<g>
	<g>
		<path d="M175.701,191.57l1.399-4.477c0,0,2.658-1.539,4.757,0.56c2.099,2.099,0,3.638,0,3.638S177.662,193.604,175.701,191.57z"/>
	</g>
</g>
<g>
	<g>
		<path d="M314.763,122.819l1.399-4.477c0,0,2.658-1.539,4.757,0.56s0,3.638,0,3.638S316.724,124.853,314.763,122.819z"/>
	</g>
</g>
<g>
	<g>
		<path d="M109.374,161.842l1.399-4.477c0,0,2.658-1.539,4.757,0.56s0,3.638,0,3.638S111.336,163.876,109.374,161.842z"/>
	</g>
</g>
<g>
	<g>
		<path d="M353.88,35.912l1.399-4.477c0,0,2.658-1.539,4.757,0.56s0,3.638,0,3.638S355.841,37.946,353.88,35.912z"/>
	</g>
</g>
<g>
	<g>
		<path d="M52.95,99.926l1.399-4.477c0,0,2.658-1.539,4.757,0.56c2.099,2.099,0,3.638,0,3.638S54.911,101.961,52.95,99.926z"/>
	</g>
</g>
<g>
	<g>
		<path d="M157.206,38.371l1.399-4.477c0,0,2.658-1.539,4.757,0.56c2.099,2.099,0,3.638,0,3.638S159.167,40.405,157.206,38.371z"/>
	</g>
</g>
<g>
	<g>
		<path d="M95.847,62.475l1.399-4.477c0,0,2.658-1.539,4.757,0.56c2.099,2.099,0,3.638,0,3.638S97.808,64.509,95.847,62.475z"/>
	</g>
</g>
<g>
	<g>
		<path d="M123.944,36.854l1.399-4.477c0,0,2.658-1.539,4.757,0.56c2.099,2.099,0,3.638,0,3.638S125.905,38.888,123.944,36.854z"/>
	</g>
</g>
<g>
	<g>
		<path d="M-1.582,40.139l1.399-4.477c0,0,2.658-1.539,4.757,0.56c2.099,2.099,0,3.638,0,3.638S0.38,42.173-1.582,40.139z"/>
	</g>
</g>
<g>
	<g>
		<path d="M268.607,8.94l1.399-4.477c0,0,2.658-1.539,4.757,0.56s0,3.638,0,3.638S270.568,10.974,268.607,8.94z"/>
	</g>
</g>
<g>
	<g>
		<path d="M474.229,1.713l1.399-4.477c0,0,2.658-1.539,4.757,0.56s0,3.638,0,3.638S476.191,3.747,474.229,1.713z"/>
	</g>
</g>
<g>
	<g>
		<path d="M239.507,72.276l1.399-4.477c0,0,2.658-1.539,4.757,0.56c2.099,2.099,0,3.638,0,3.638S241.468,74.31,239.507,72.276z"/>
	</g>
</g>
<g>
	<g>
		<path d="M368.519,17.796l1.399-4.477c0,0,2.658-1.539,4.757,0.56c2.099,2.099,0,3.638,0,3.638S370.48,19.83,368.519,17.796z"/>
	</g>
</g>
<g>
	<g>
		<path d="M307.725,43.711l1.399-4.477c0,0,2.658-1.539,4.757,0.56c2.099,2.099,0,3.638,0,3.638S309.686,45.745,307.725,43.711z"/>
	</g>
</g>
<g>
	<g>
		<path d="M335.02,78.872l1.399-4.477c0,0,2.658-1.539,4.757,0.56c2.099,2.099,0,3.638,0,3.638S336.981,80.906,335.02,78.872z"/>
	</g>
</g>
<g>
	<g>
		<path d="M407.655,132.708l1.399-4.477c0,0,2.658-1.539,4.757,0.56c2.099,2.099,0,3.638,0,3.638S409.616,134.743,407.655,132.708z"
			/>
	</g>
</g>
</svg>
