<?xml version="1.0" encoding="utf-8"?>
<!-- Generator: Adobe Illustrator 27.2.0, SVG Export Plug-In . SVG Version: 6.00 Build 0)  -->
<svg version="1.1" id="Layer_1" xmlns="http://www.w3.org/2000/svg" xmlns:xlink="http://www.w3.org/1999/xlink" x="0px" y="0px"
	 viewBox="0 0 494.902 301.909" style="enable-background:new 0 0 494.902 301.909;" xml:space="preserve">
<style type="text/css">
	.st0{fill:#000000;}
</style>
<g>
	<g>
		<path class="st0" d="M241.127,160.132l1.399-4.477c0,0,2.658-1.539,4.757,0.56c2.099,2.099,0,3.638,0,3.638
			S243.088,162.166,241.127,160.132z"/>
	</g>
</g>
<g>
	<g>
		<path class="st0" d="M241.456,123.063l1.399-4.477c0,0,2.658-1.539,4.757,0.56c2.099,2.099,0,3.638,0,3.638
			S243.417,125.098,241.456,123.063z"/>
	</g>
</g>
<g>
	<g>
		<path class="st0" d="M234.877,83.488l1.399-4.477c0,0,2.658-1.539,4.757,0.56c2.099,2.099,0,3.638,0,3.638
			S236.839,85.522,234.877,83.488z"/>
	</g>
</g>
<g>
	<g>
		<path class="st0" d="M226.864,68.822l1.399-4.477c0,0,2.658-1.539,4.757,0.56c2.099,2.099,0,3.638,0,3.638
			S228.825,70.856,226.864,68.822z"/>
	</g>
</g>
<g>
	<g>
		<path class="st0" d="M203.616,54.365l1.399-4.477c0,0,2.658-1.539,4.757,0.56c2.099,2.099,0,3.638,0,3.638
			S205.577,56.4,203.616,54.365z"/>
	</g>
</g>
<g>
	<g>
		<path class="st0" d="M164.575,59.212l1.399-4.477c0,0,2.658-1.539,4.757,0.56c2.099,2.099,0,3.638,0,3.638
			S166.536,61.247,164.575,59.212z"/>
	</g>
</g>
<g>
	<g>
		<path class="st0" d="M125.768,89.995l1.399-4.477c0,0,2.658-1.539,4.757,0.56c2.099,2.099,0,3.638,0,3.638
			S127.729,92.029,125.768,89.995z"/>
	</g>
</g>
<g>
	<g>
		<path class="st0" d="M131.494,146.952l1.399-4.477c0,0,2.658-1.539,4.757,0.56c2.099,2.099,0,3.638,0,3.638
			S133.455,148.986,131.494,146.952z"/>
	</g>
</g>
<g>
	<g>
		<path class="st0" d="M163.965,193.081l1.399-4.477c0,0,2.658-1.539,4.757,0.56c2.099,2.099,0,3.638,0,3.638
			S165.927,195.115,163.965,193.081z"/>
	</g>
</g>
<g>
	<g>
		<path class="st0" d="M262.214,232.167l1.399-4.477c0,0,2.658-1.539,4.757,0.56s0,3.638,0,3.638S264.175,234.201,262.214,232.167z"
			/>
	</g>
</g>
<g>
	<g>
		<path class="st0" d="M351.423,213.972l1.399-4.477c0,0,2.658-1.539,4.757,0.56c2.099,2.099,0,3.638,0,3.638
			S353.384,216.006,351.423,213.972z"/>
	</g>
</g>
<g>
	<g>
		<path class="st0" d="M404.786,175.092l1.399-4.477c0,0,2.658-1.539,4.757,0.56s0,3.638,0,3.638S406.747,177.126,404.786,175.092z"
			/>
	</g>
</g>
<g>
	<g>
		<path class="st0" d="M400.876,119.571l1.399-4.477c0,0,2.658-1.539,4.757,0.56s0,3.638,0,3.638S402.837,121.605,400.876,119.571z"
			/>
	</g>
</g>
<g>
	<g>
		<path class="st0" d="M347.095,79.98l1.399-4.477c0,0,2.658-1.539,4.757,0.56c2.099,2.099,0,3.638,0,3.638
			S349.056,82.015,347.095,79.98z"/>
	</g>
</g>
<g>
	<g>
		<path class="st0" d="M267.702,70.992l1.399-4.477c0,0,2.658-1.539,4.757,0.56c2.099,2.099,0,3.638,0,3.638
			S269.663,73.027,267.702,70.992z"/>
	</g>
</g>
<g>
	<g>
		<path class="st0" d="M214.975,125.531l1.399-4.477c0,0,2.658-1.539,4.757,0.56c2.099,2.099,0,3.638,0,3.638
			S216.936,127.565,214.975,125.531z"/>
	</g>
</g>
<g>
	<g>
		<path class="st0" d="M195.851,187.063l1.399-4.477c0,0,2.658-1.539,4.757,0.56c2.099,2.099,0,3.638,0,3.638
			S197.812,189.097,195.851,187.063z"/>
	</g>
</g>
<g>
	<g>
		<path class="st0" d="M153.819,223.218l1.399-4.477c0,0,2.658-1.539,4.757,0.56c2.099,2.099,0,3.638,0,3.638
			S155.78,225.252,153.819,223.218z"/>
	</g>
</g>
<g>
	<g>
		<path class="st0" d="M92.514,246.407l1.399-4.477c0,0,2.658-1.539,4.757,0.56c2.099,2.099,0,3.638,0,3.638
			S94.475,248.441,92.514,246.407z"/>
	</g>
</g>
<g>
	<g>
		<path class="st0" d="M68.908,234.327l1.399-4.477c0,0,2.658-1.539,4.757,0.56c2.099,2.099,0,3.638,0,3.638
			S70.869,236.361,68.908,234.327z"/>
	</g>
</g>
<g>
	<g>
		<path class="st0" d="M63.208,143.176l1.399-4.477c0,0,2.658-1.539,4.757,0.56c2.099,2.099,0,3.638,0,3.638
			S65.169,145.21,63.208,143.176z"/>
	</g>
</g>
<g>
	<g>
		<path class="st0" d="M99.451,57.242l1.399-4.477c0,0,2.658-1.539,4.757,0.56c2.099,2.099,0,3.638,0,3.638
			S101.412,59.277,99.451,57.242z"/>
	</g>
</g>
<g>
	<g>
		<path class="st0" d="M151.011,21.541l1.399-4.477c0,0,2.658-1.539,4.757,0.56c2.099,2.099,0,3.638,0,3.638
			S152.973,23.575,151.011,21.541z"/>
	</g>
</g>
<g>
	<g>
		<path class="st0" d="M245.523,33.854l1.399-4.477c0,0,2.658-1.539,4.757,0.56c2.099,2.099,0,3.638,0,3.638
			S247.484,35.888,245.523,33.854z"/>
	</g>
</g>
<g>
	<g>
		<path class="st0" d="M317.043,62.47l1.399-4.477c0,0,2.658-1.539,4.757,0.56c2.099,2.099,0,3.638,0,3.638
			S319.004,64.504,317.043,62.47z"/>
	</g>
</g>
<g>
	<g>
		<path class="st0" d="M346.733,132.551l1.399-4.477c0,0,2.658-1.539,4.757,0.56c2.099,2.099,0,3.638,0,3.638
			S348.694,134.585,346.733,132.551z"/>
	</g>
</g>
<g>
	<g>
		<path class="st0" d="M334.689,220.797l1.399-4.477c0,0,2.658-1.539,4.757,0.56c2.099,2.099,0,3.638,0,3.638
			S336.65,222.831,334.689,220.797z"/>
	</g>
</g>
<g>
	<g>
		<path class="st0" d="M325.814,244.802l1.399-4.477c0,0,2.658-1.539,4.757,0.56s0,3.638,0,3.638S327.776,246.836,325.814,244.802z"
			/>
	</g>
</g>
<g>
	<g>
		<path class="st0" d="M405.473,263.907l1.399-4.477c0,0,2.658-1.539,4.757,0.56c2.099,2.099,0,3.638,0,3.638
			S407.434,265.941,405.473,263.907z"/>
	</g>
</g>
<g>
	<g>
		<path class="st0" d="M466.024,252.159l1.399-4.477c0,0,2.658-1.539,4.757,0.56s0,3.638,0,3.638S467.985,254.193,466.024,252.159z"
			/>
	</g>
</g>
<g>
	<g>
		<path class="st0" d="M465.969,97.446l1.399-4.477c0,0,2.658-1.539,4.757,0.56c2.099,2.099,0,3.638,0,3.638
			S467.93,99.48,465.969,97.446z"/>
	</g>
</g>
<g>
	<g>
		<path class="st0" d="M423.87,32.166l1.399-4.477c0,0,2.658-1.539,4.757,0.56s0,3.638,0,3.638S425.831,34.2,423.87,32.166z"/>
	</g>
</g>
<g>
	<g>
		<path class="st0" d="M407.029,30.684l1.399-4.477c0,0,2.658-1.539,4.757,0.56s0,3.638,0,3.638S408.99,32.718,407.029,30.684z"/>
	</g>
</g>
<g>
	<g>
		<path class="st0" d="M375.788,120.946l1.399-4.477c0,0,2.658-1.539,4.757,0.56s0,3.638,0,3.638S377.75,122.98,375.788,120.946z"/>
	</g>
</g>
<g>
	<g>
		<path class="st0" d="M391.621,166.687l1.399-4.477c0,0,2.658-1.539,4.757,0.56c2.099,2.099,0,3.638,0,3.638
			S393.582,168.721,391.621,166.687z"/>
	</g>
</g>
<g>
	<g>
		<path class="st0" d="M426.479,191.053l1.399-4.477c0,0,2.658-1.539,4.757,0.56c2.099,2.099,0,3.638,0,3.638
			S428.44,193.087,426.479,191.053z"/>
	</g>
</g>
<g>
	<g>
		<path class="st0" d="M464.192,110.368l1.399-4.477c0,0,2.658-1.539,4.757,0.56c2.099,2.099,0,3.638,0,3.638
			S466.153,112.403,464.192,110.368z"/>
	</g>
</g>
<g>
	<g>
		<path class="st0" d="M438.942,53.997l1.399-4.477c0,0,2.658-1.539,4.757,0.56c2.099,2.099,0,3.638,0,3.638
			S440.903,56.031,438.942,53.997z"/>
	</g>
</g>
<g>
	<g>
		<path class="st0" d="M394.953,82.79l1.399-4.477c0,0,2.658-1.539,4.757,0.56s0,3.638,0,3.638S396.914,84.824,394.953,82.79z"/>
	</g>
</g>
<g>
	<g>
		<path class="st0" d="M380.373,189.065l1.399-4.477c0,0,2.658-1.539,4.757,0.56c2.099,2.099,0,3.638,0,3.638
			S382.334,191.099,380.373,189.065z"/>
	</g>
</g>
<g>
	<g>
		<path class="st0" d="M402.53,149.328l1.399-4.477c0,0,2.658-1.539,4.757,0.56c2.099,2.099,0,3.638,0,3.638
			S404.492,151.362,402.53,149.328z"/>
	</g>
</g>
<g>
	<g>
		<path class="st0" d="M365.246,35.727l1.399-4.477c0,0,2.658-1.539,4.757,0.56c2.099,2.099,0,3.638,0,3.638
			S367.207,37.761,365.246,35.727z"/>
	</g>
</g>
<g>
	<g>
		<path class="st0" d="M286.58,18.216l1.399-4.477c0,0,2.658-1.539,4.757,0.56s0,3.638,0,3.638S288.541,20.25,286.58,18.216z"/>
	</g>
</g>
<g>
	<g>
		<path class="st0" d="M176.811,105.165l1.399-4.477c0,0,2.658-1.539,4.757,0.56s0,3.638,0,3.638S178.772,107.199,176.811,105.165z"
			/>
	</g>
</g>
<g>
	<g>
		<path class="st0" d="M173.258,279.499l1.399-4.477c0,0,2.658-1.539,4.757,0.56c2.099,2.099,0,3.638,0,3.638
			S175.219,281.533,173.258,279.499z"/>
	</g>
</g>
<g>
	<g>
		<path class="st0" d="M274.052,272.405l1.399-4.477c0,0,2.658-1.539,4.757,0.56s0,3.638,0,3.638S276.013,274.439,274.052,272.405z"
			/>
	</g>
</g>
<g>
	<g>
		<path class="st0" d="M351.63,100.223l1.399-4.477c0,0,2.658-1.539,4.757,0.56c2.099,2.099,0,3.638,0,3.638
			S353.591,102.257,351.63,100.223z"/>
	</g>
</g>
<g>
	<g>
		<path class="st0" d="M320.891,48.903l1.399-4.477c0,0,2.658-1.539,4.757,0.56c2.099,2.099,0,3.638,0,3.638
			S322.852,50.937,320.891,48.903z"/>
	</g>
</g>
<g>
	<g>
		<path class="st0" d="M178.627,155.029l1.399-4.477c0,0,2.658-1.539,4.757,0.56s0,3.638,0,3.638S180.589,157.063,178.627,155.029z"
			/>
	</g>
</g>
<g>
	<g>
		<path class="st0" d="M234.401,291.3l1.399-4.477c0,0,2.658-1.539,4.757,0.56s0,3.638,0,3.638S236.362,293.334,234.401,291.3z"/>
	</g>
</g>
<g>
	<g>
		<path class="st0" d="M360.59,264.833l1.399-4.477c0,0,2.658-1.539,4.757,0.56c2.099,2.099,0,3.638,0,3.638
			S362.551,266.867,360.59,264.833z"/>
	</g>
</g>
<g>
	<g>
		<path class="st0" d="M362.416,144.031l1.399-4.477c0,0,2.658-1.539,4.757,0.56c2.099,2.099,0,3.638,0,3.638
			S364.378,146.065,362.416,144.031z"/>
	</g>
</g>
<g>
	<g>
		<path class="st0" d="M251.59,96.36l1.399-4.477c0,0,2.658-1.539,4.757,0.56c2.099,2.099,0,3.638,0,3.638
			S253.551,98.394,251.59,96.36z"/>
	</g>
</g>
<g>
	<g>
		<path class="st0" d="M129.451,180.065l1.399-4.477c0,0,2.658-1.539,4.757,0.56c2.099,2.099,0,3.638,0,3.638
			S131.412,182.099,129.451,180.065z"/>
	</g>
</g>
<g>
	<g>
		<path class="st0" d="M220.227,218.659l1.399-4.477c0,0,2.658-1.539,4.757,0.56c2.099,2.099,0,3.638,0,3.638
			S222.189,220.693,220.227,218.659z"/>
	</g>
</g>
<g>
	<g>
		<path class="st0" d="M220.267,57.021l1.399-4.477c0,0,2.658-1.539,4.757,0.56c2.099,2.099,0,3.638,0,3.638
			S222.228,59.055,220.267,57.021z"/>
	</g>
</g>
<g>
	<g>
		<path class="st0" d="M175.209,44.827l1.399-4.477c0,0,2.658-1.539,4.757,0.56c2.099,2.099,0,3.638,0,3.638
			S177.17,46.861,175.209,44.827z"/>
	</g>
</g>
<g>
	<g>
		<path class="st0" d="M20.101,220.54l1.399-4.477c0,0,2.658-1.539,4.757,0.56s0,3.638,0,3.638S22.062,222.574,20.101,220.54z"/>
	</g>
</g>
<g>
	<g>
		<path class="st0" d="M165.324,175.701l1.399-4.477c0,0,2.658-1.539,4.757,0.56c2.099,2.099,0,3.638,0,3.638
			S167.285,177.735,165.324,175.701z"/>
	</g>
</g>
<g>
	<g>
		<path class="st0" d="M132.087,112.629l1.399-4.477c0,0,2.658-1.539,4.757,0.56c2.099,2.099,0,3.638,0,3.638
			S134.048,114.663,132.087,112.629z"/>
	</g>
</g>
<g>
	<g>
		<path class="st0" d="M56.521,136.399l1.399-4.477c0,0,2.658-1.539,4.757,0.56c2.099,2.099,0,3.638,0,3.638
			S58.482,138.433,56.521,136.399z"/>
	</g>
</g>
<g>
	<g>
		<path class="st0" d="M15.686,292l1.399-4.477c0,0,2.658-1.539,4.757,0.56c2.099,2.099,0,3.638,0,3.638S17.647,294.034,15.686,292z
			"/>
	</g>
</g>
<g>
	<g>
		<path class="st0" d="M73.287,178.803l1.399-4.477c0,0,2.658-1.539,4.757,0.56s0,3.638,0,3.638S75.249,180.837,73.287,178.803z"/>
	</g>
</g>
<g>
	<g>
		<path class="st0" d="M85.919,46.962l1.399-4.477c0,0,2.658-1.539,4.757,0.56c2.099,2.099,0,3.638,0,3.638
			S87.881,48.996,85.919,46.962z"/>
	</g>
</g>
<g>
	<g>
		<path class="st0" d="M66.077,69.075l1.399-4.477c0,0,2.658-1.539,4.757,0.56c2.099,2.099,0,3.638,0,3.638
			S68.039,71.109,66.077,69.075z"/>
	</g>
</g>
<g>
	<g>
		<path class="st0" d="M41.397,162.094l1.399-4.477c0,0,2.658-1.539,4.757,0.56c2.099,2.099,0,3.638,0,3.638
			S43.358,164.128,41.397,162.094z"/>
	</g>
</g>
<g>
	<g>
		<path class="st0" d="M49.681,95.123l1.399-4.477c0,0,2.658-1.539,4.757,0.56c2.099,2.099,0,3.638,0,3.638
			S51.642,97.157,49.681,95.123z"/>
	</g>
</g>
<g>
	<g>
		<path class="st0" d="M12.581,137.387l1.399-4.477c0,0,2.658-1.539,4.757,0.56c2.099,2.099,0,3.638,0,3.638
			S14.542,139.421,12.581,137.387z"/>
	</g>
</g>
<g>
	<g>
		<path class="st0" d="M33.625,242.253l1.399-4.477c0,0,2.658-1.539,4.757,0.56c2.099,2.099,0,3.638,0,3.638
			S35.586,244.287,33.625,242.253z"/>
	</g>
</g>
<g>
	<g>
		<path class="st0" d="M72.052,27.482l1.399-4.477c0,0,2.658-1.539,4.757,0.56c2.099,2.099,0,3.638,0,3.638
			S74.013,29.516,72.052,27.482z"/>
	</g>
</g>
<g>
	<g>
		<path class="st0" d="M80.616,2.269l1.399-4.477c0,0,2.658-1.539,4.757,0.56c2.099,2.099,0,3.638,0,3.638
			S82.577,4.303,80.616,2.269z"/>
	</g>
</g>
<g>
	<g>
		<path class="st0" d="M73.354,221.223l1.399-4.477c0,0,2.658-1.539,4.757,0.56s0,3.638,0,3.638S75.315,223.257,73.354,221.223z"/>
	</g>
</g>
<g>
	<g>
		<path class="st0" d="M105.412,196.378l1.399-4.477c0,0,2.658-1.539,4.757,0.56s0,3.638,0,3.638S107.373,198.412,105.412,196.378z"
			/>
	</g>
</g>
<g>
	<g>
		<path class="st0" d="M142.48,81.765l1.399-4.477c0,0,2.658-1.539,4.757,0.56c2.099,2.099,0,3.638,0,3.638
			S144.441,83.799,142.48,81.765z"/>
	</g>
</g>
<g>
	<g>
		<path class="st0" d="M86.477,165.426l1.399-4.477c0,0,2.658-1.539,4.757,0.56s0,3.638,0,3.638S88.438,167.46,86.477,165.426z"/>
	</g>
</g>
<g>
	<g>
		<path class="st0" d="M71.219,190.866l1.399-4.477c0,0,2.658-1.539,4.757,0.56c2.099,2.099,0,3.638,0,3.638
			S73.18,192.9,71.219,190.866z"/>
	</g>
</g>
<g>
	<g>
		<path class="st0" d="M74.394,199.606l1.399-4.477c0,0,2.658-1.539,4.757,0.56c2.099,2.099,0,3.638,0,3.638
			S76.356,201.64,74.394,199.606z"/>
	</g>
</g>
<g>
	<g>
		<path class="st0" d="M83.56,199.653l1.399-4.477c0,0,2.658-1.539,4.757,0.56c2.099,2.099,0,3.638,0,3.638
			S85.521,201.687,83.56,199.653z"/>
	</g>
</g>
<g>
	<g>
		<path class="st0" d="M86.492,150.466l1.399-4.477c0,0,2.658-1.539,4.757,0.56c2.099,2.099,0,3.638,0,3.638
			S88.453,152.5,86.492,150.466z"/>
	</g>
</g>
<g>
	<g>
		<path class="st0" d="M88.139,135.763l1.399-4.477c0,0,2.658-1.539,4.757,0.56c2.099,2.099,0,3.638,0,3.638
			S90.101,137.797,88.139,135.763z"/>
	</g>
</g>
<g>
	<g>
		<path class="st0" d="M86.419,115.057l1.399-4.477c0,0,2.658-1.539,4.757,0.56c2.099,2.099,0,3.638,0,3.638
			S88.38,117.091,86.419,115.057z"/>
	</g>
</g>
<g>
	<g>
		<path class="st0" d="M77.187,103.117l1.399-4.477c0,0,2.658-1.539,4.757,0.56c2.099,2.099,0,3.638,0,3.638
			S79.149,105.151,77.187,103.117z"/>
	</g>
</g>
<g>
	<g>
		<path class="st0" d="M56.317,76.951l1.399-4.477c0,0,2.658-1.539,4.757,0.56c2.099,2.099,0,3.638,0,3.638
			S58.278,78.985,56.317,76.951z"/>
	</g>
</g>
<g>
	<g>
		<path class="st0" d="M120.618,53.07l1.399-4.477c0,0,2.658-1.539,4.757,0.56c2.099,2.099,0,3.638,0,3.638
			S122.579,55.104,120.618,53.07z"/>
	</g>
</g>
<g>
	<g>
		<path class="st0" d="M248.397,70.993l1.399-4.477c0,0,2.658-1.539,4.757,0.56s0,3.638,0,3.638S250.358,73.027,248.397,70.993z"/>
	</g>
</g>
<g>
	<g>
		<path class="st0" d="M258.816,85.461l1.399-4.477c0,0,2.658-1.539,4.757,0.56s0,3.638,0,3.638S260.778,87.495,258.816,85.461z"/>
	</g>
</g>
<g>
	<g>
		<path class="st0" d="M162.398,137.244l1.399-4.477c0,0,2.658-1.539,4.757,0.56c2.099,2.099,0,3.638,0,3.638
			S164.359,139.279,162.398,137.244z"/>
	</g>
</g>
<g>
	<g>
		<path class="st0" d="M59.585,209.044l1.399-4.477c0,0,2.658-1.539,4.757,0.56c2.099,2.099,0,3.638,0,3.638
			S61.546,211.078,59.585,209.044z"/>
	</g>
</g>
<g>
	<g>
		<path class="st0" d="M70.7,257.669l1.399-4.477c0,0,2.658-1.539,4.757,0.56s0,3.638,0,3.638S72.661,259.704,70.7,257.669z"/>
	</g>
</g>
<g>
	<g>
		<path class="st0" d="M365.407,276.991l1.399-4.477c0,0,2.658-1.539,4.757,0.56c2.099,2.099,0,3.638,0,3.638
			S367.369,279.025,365.407,276.991z"/>
	</g>
</g>
<g>
	<g>
		<path class="st0" d="M384.86,242.381l1.399-4.477c0,0,2.658-1.539,4.757,0.56c2.099,2.099,0,3.638,0,3.638
			S386.821,244.415,384.86,242.381z"/>
	</g>
</g>
<g>
	<g>
		<path class="st0" d="M319.373,205.751l1.399-4.477c0,0,2.658-1.539,4.757,0.56c2.099,2.099,0,3.638,0,3.638
			S321.334,207.785,319.373,205.751z"/>
	</g>
</g>
<g>
	<g>
		<path class="st0" d="M122.836,233.132l1.399-4.477c0,0,2.658-1.539,4.757,0.56c2.099,2.099,0,3.638,0,3.638
			S124.797,235.166,122.836,233.132z"/>
	</g>
</g>
<g>
	<g>
		<path class="st0" d="M150.087,290.042l1.399-4.477c0,0,2.658-1.539,4.757,0.56c2.099,2.099,0,3.638,0,3.638
			S152.048,292.076,150.087,290.042z"/>
	</g>
</g>
<g>
	<g>
		<path class="st0" d="M267.188,289.201l1.399-4.477c0,0,2.658-1.539,4.757,0.56c2.099,2.099,0,3.638,0,3.638
			S269.15,291.235,267.188,289.201z"/>
	</g>
</g>
<g>
	<g>
		<path class="st0" d="M290.524,263.236l1.399-4.477c0,0,2.658-1.539,4.757,0.56c2.099,2.099,0,3.638,0,3.638
			S292.485,265.27,290.524,263.236z"/>
	</g>
</g>
<g>
	<g>
		<path class="st0" d="M243.223,261.229l1.399-4.477c0,0,2.658-1.539,4.757,0.56c2.099,2.099,0,3.638,0,3.638
			S245.184,263.263,243.223,261.229z"/>
	</g>
</g>
<g>
	<g>
		<path class="st0" d="M151.756,269.721l1.399-4.477c0,0,2.658-1.539,4.757,0.56s0,3.638,0,3.638S153.717,271.755,151.756,269.721z"
			/>
	</g>
</g>
<g>
	<g>
		<path class="st0" d="M205.372,275.479l1.399-4.477c0,0,2.658-1.539,4.757,0.56c2.099,2.099,0,3.638,0,3.638
			S207.333,277.513,205.372,275.479z"/>
	</g>
</g>
<g>
	<g>
		<path class="st0" d="M232.403,256.541l1.399-4.477c0,0,2.658-1.539,4.757,0.56c2.099,2.099,0,3.638,0,3.638
			S234.364,258.575,232.403,256.541z"/>
	</g>
</g>
<g>
	<g>
		<path class="st0" d="M176.867,243.672l1.399-4.477c0,0,2.658-1.539,4.757,0.56s0,3.638,0,3.638S178.829,245.707,176.867,243.672z"
			/>
	</g>
</g>
<g>
	<g>
		<path class="st0" d="M177.255,262.035l1.399-4.477c0,0,2.658-1.539,4.757,0.56c2.099,2.099,0,3.638,0,3.638
			S179.217,264.069,177.255,262.035z"/>
	</g>
</g>
<g>
	<g>
		<path class="st0" d="M395.236,214.003l1.399-4.477c0,0,2.658-1.539,4.757,0.56c2.099,2.099,0,3.638,0,3.638
			S397.197,216.037,395.236,214.003z"/>
	</g>
</g>
<g>
	<g>
		<path class="st0" d="M441.289,206.126l1.399-4.477c0,0,2.658-1.539,4.757,0.56c2.099,2.099,0,3.638,0,3.638
			S443.25,208.161,441.289,206.126z"/>
	</g>
</g>
<g>
	<g>
		<path class="st0" d="M477.553,189.612l1.399-4.477c0,0,2.658-1.539,4.757,0.56s0,3.638,0,3.638S479.514,191.646,477.553,189.612z"
			/>
	</g>
</g>
<g>
	<g>
		<path class="st0" d="M448.045,83.222l1.399-4.477c0,0,2.658-1.539,4.757,0.56c2.099,2.099,0,3.638,0,3.638
			S450.006,85.256,448.045,83.222z"/>
	</g>
</g>
<g>
	<g>
		<path class="st0" d="M389.074,67.414l1.399-4.477c0,0,2.658-1.539,4.757,0.56c2.099,2.099,0,3.638,0,3.638
			S391.036,69.448,389.074,67.414z"/>
	</g>
</g>
<g>
	<g>
		<path class="st0" d="M402.826,224.582l1.399-4.477c0,0,2.658-1.539,4.757,0.56c2.099,2.099,0,3.638,0,3.638
			S404.787,226.617,402.826,224.582z"/>
	</g>
</g>
<g>
	<g>
		<path class="st0" d="M411.816,234.76l1.399-4.477c0,0,2.658-1.539,4.757,0.56c2.099,2.099,0,3.638,0,3.638
			S413.777,236.794,411.816,234.76z"/>
	</g>
</g>
<g>
	<g>
		<path class="st0" d="M299.051,128.664l1.399-4.477c0,0,2.658-1.539,4.757,0.56c2.099,2.099,0,3.638,0,3.638
			S301.012,130.698,299.051,128.664z"/>
	</g>
</g>
<g>
	<g>
		<path class="st0" d="M201.654,94.665l1.399-4.477c0,0,2.658-1.539,4.757,0.56s0,3.638,0,3.638S203.616,96.699,201.654,94.665z"/>
	</g>
</g>
<g>
	<g>
		<path class="st0" d="M154.741,96.364l1.399-4.477c0,0,2.658-1.539,4.757,0.56c2.099,2.099,0,3.638,0,3.638
			S156.702,98.398,154.741,96.364z"/>
	</g>
</g>
<g>
	<g>
		<path class="st0" d="M174.083,127.722l1.399-4.477c0,0,2.658-1.539,4.757,0.56c2.099,2.099,0,3.638,0,3.638
			S176.044,129.756,174.083,127.722z"/>
	</g>
</g>
<g>
	<g>
		<path class="st0" d="M384.245,175.516l1.399-4.477c0,0,2.658-1.539,4.757,0.56s0,3.638,0,3.638S386.207,177.55,384.245,175.516z"
			/>
	</g>
</g>
<g>
	<g>
		<path class="st0" d="M348.218,233.875l1.399-4.477c0,0,2.658-1.539,4.757,0.56c2.099,2.099,0,3.638,0,3.638
			S350.179,235.909,348.218,233.875z"/>
	</g>
</g>
<g>
	<g>
		<path class="st0" d="M287.827,238.8l1.399-4.477c0,0,2.658-1.539,4.757,0.56c2.099,2.099,0,3.638,0,3.638
			S289.788,240.834,287.827,238.8z"/>
	</g>
</g>
<g>
	<g>
		<path class="st0" d="M260.964,134.452l1.399-4.477c0,0,2.658-1.539,4.757,0.56s0,3.638,0,3.638S262.926,136.487,260.964,134.452z"
			/>
	</g>
</g>
<g>
	<g>
		<path class="st0" d="M293.221,95.313l1.399-4.477c0,0,2.658-1.539,4.757,0.56c2.099,2.099,0,3.638,0,3.638
			S295.182,97.347,293.221,95.313z"/>
	</g>
</g>
<g>
	<g>
		<path class="st0" d="M287.236,149.858l1.399-4.477c0,0,2.658-1.539,4.757,0.56c2.099,2.099,0,3.638,0,3.638
			S289.197,151.892,287.236,149.858z"/>
	</g>
</g>
<g>
	<g>
		<path class="st0" d="M239.667,206.227l1.399-4.477c0,0,2.658-1.539,4.757,0.56c2.099,2.099,0,3.638,0,3.638
			S241.628,208.261,239.667,206.227z"/>
	</g>
</g>
<g>
	<g>
		<path class="st0" d="M320.677,218.493l1.399-4.477c0,0,2.658-1.539,4.757,0.56s0,3.638,0,3.638S322.638,220.527,320.677,218.493z"
			/>
	</g>
</g>
<g>
	<g>
		<path class="st0" d="M356.229,189.485l1.399-4.477c0,0,2.658-1.539,4.757,0.56c2.099,2.099,0,3.638,0,3.638
			S358.19,191.519,356.229,189.485z"/>
	</g>
</g>
<g>
	<g>
		<path class="st0" d="M268.394,168.713l1.399-4.477c0,0,2.658-1.539,4.757,0.56c2.099,2.099,0,3.638,0,3.638
			S270.355,170.747,268.394,168.713z"/>
	</g>
</g>
<g>
	<g>
		<path class="st0" d="M261.333,193.239l1.399-4.477c0,0,2.658-1.539,4.757,0.56c2.099,2.099,0,3.638,0,3.638
			S263.294,195.273,261.333,193.239z"/>
	</g>
</g>
<g>
	<g>
		<path class="st0" d="M371.208,153.428l1.399-4.477c0,0,2.658-1.539,4.757,0.56s0,3.638,0,3.638S373.169,155.462,371.208,153.428z"
			/>
	</g>
</g>
<g>
	<g>
		<path class="st0" d="M371.613,109.376l1.399-4.477c0,0,2.658-1.539,4.757,0.56s0,3.638,0,3.638S373.574,111.41,371.613,109.376z"
			/>
	</g>
</g>
<g>
	<g>
		<path class="st0" d="M383.281,53.599l1.399-4.477c0,0,2.658-1.539,4.757,0.56c2.099,2.099,0,3.638,0,3.638
			S385.242,55.634,383.281,53.599z"/>
	</g>
</g>
<g>
	<g>
		<path class="st0" d="M374.087,38.804l1.399-4.477c0,0,2.658-1.539,4.757,0.56c2.099,2.099,0,3.638,0,3.638
			S376.048,40.838,374.087,38.804z"/>
	</g>
</g>
<g>
	<g>
		<path class="st0" d="M182.868,10.904l1.399-4.477c0,0,2.658-1.539,4.757,0.56c2.099,2.099,0,3.638,0,3.638
			S184.829,12.938,182.868,10.904z"/>
	</g>
</g>
<g>
	<g>
		<path class="st0" d="M130.876,27.241l1.399-4.477c0,0,2.658-1.539,4.757,0.56c2.099,2.099,0,3.638,0,3.638
			S132.837,29.275,130.876,27.241z"/>
	</g>
</g>
<g>
	<g>
		<path class="st0" d="M97.964,16.658l1.399-4.477c0,0,2.658-1.539,4.757,0.56s0,3.638,0,3.638S99.925,18.693,97.964,16.658z"/>
	</g>
</g>
<g>
	<g>
		<path class="st0" d="M134.36,10.075l1.399-4.477c0,0,2.658-1.539,4.757,0.56s0,3.638,0,3.638S136.321,12.109,134.36,10.075z"/>
	</g>
</g>
<g>
	<g>
		<path class="st0" d="M372.693,22.524l1.399-4.477c0,0,2.658-1.539,4.757,0.56s0,3.638,0,3.638S374.654,24.558,372.693,22.524z"/>
	</g>
</g>
<g>
	<g>
		<path class="st0" d="M492.017,24.553l1.399-4.477c0,0,2.658-1.539,4.757,0.56s0,3.638,0,3.638S493.978,26.587,492.017,24.553z"/>
	</g>
</g>
<g>
	<g>
		<path class="st0" d="M325.636,83.572l1.399-4.477c0,0,2.658-1.539,4.757,0.56s0,3.638,0,3.638S327.597,85.606,325.636,83.572z"/>
	</g>
</g>
<g>
	<g>
		<path class="st0" d="M307.934,114.449l1.399-4.477c0,0,2.658-1.539,4.757,0.56c2.099,2.099,0,3.638,0,3.638
			S309.895,116.483,307.934,114.449z"/>
	</g>
</g>
<g>
	<g>
		<path class="st0" d="M445.185,171.706l1.399-4.477c0,0,2.658-1.539,4.757,0.56s0,3.638,0,3.638S447.146,173.74,445.185,171.706z"
			/>
	</g>
</g>
<g>
	<g>
		<path class="st0" d="M482.792,68.876l1.399-4.477c0,0,2.658-1.539,4.757,0.56c2.099,2.099,0,3.638,0,3.638
			S484.753,70.91,482.792,68.876z"/>
	</g>
</g>
<g>
	<g>
		<path class="st0" d="M453.267,11.964l1.399-4.477c0,0,2.658-1.539,4.757,0.56c2.099,2.099,0,3.638,0,3.638
			S455.228,13.998,453.267,11.964z"/>
	</g>
</g>
<g>
	<g>
		<path class="st0" d="M457.062,48.922l1.399-4.477c0,0,2.658-1.539,4.757,0.56c2.099,2.099,0,3.638,0,3.638
			S459.024,50.956,457.062,48.922z"/>
	</g>
</g>
<g>
	<g>
		<path class="st0" d="M457.059,194.673l1.399-4.477c0,0,2.658-1.539,4.757,0.56c2.099,2.099,0,3.638,0,3.638
			S459.02,196.707,457.059,194.673z"/>
	</g>
</g>
<g>
	<g>
		<path class="st0" d="M458.485,231.768l1.399-4.477c0,0,2.658-1.539,4.757,0.56c2.099,2.099,0,3.638,0,3.638
			S460.446,233.802,458.485,231.768z"/>
	</g>
</g>
<g>
	<g>
		<path class="st0" d="M433.253,275.317l1.399-4.477c0,0,2.658-1.539,4.757,0.56s0,3.638,0,3.638S435.214,277.352,433.253,275.317z"
			/>
	</g>
</g>
<g>
	<g>
		<path class="st0" d="M319.087,301.072l1.399-4.477c0,0,2.658-1.539,4.757,0.56c2.099,2.099,0,3.638,0,3.638
			S321.048,303.106,319.087,301.072z"/>
	</g>
</g>
<g>
	<g>
		<path class="st0" d="M346.371,271.123l1.399-4.477c0,0,2.658-1.539,4.757,0.56c2.099,2.099,0,3.638,0,3.638
			S348.333,273.157,346.371,271.123z"/>
	</g>
</g>
<g>
	<g>
		<path class="st0" d="M300.261,211.04l1.399-4.477c0,0,2.658-1.539,4.757,0.56c2.099,2.099,0,3.638,0,3.638
			S302.222,213.074,300.261,211.04z"/>
	</g>
</g>
<g>
	<g>
		<path class="st0" d="M285.973,174.953l1.399-4.477c0,0,2.658-1.539,4.757,0.56c2.099,2.099,0,3.638,0,3.638
			S287.934,176.988,285.973,174.953z"/>
	</g>
</g>
<g>
	<g>
		<path class="st0" d="M324.305,154.497l1.399-4.477c0,0,2.658-1.539,4.757,0.56s0,3.638,0,3.638S326.267,156.531,324.305,154.497z"
			/>
	</g>
</g>
<g>
	<g>
		<path class="st0" d="M315.223,150.602l1.399-4.477c0,0,2.658-1.539,4.757,0.56c2.099,2.099,0,3.638,0,3.638
			S317.184,152.636,315.223,150.602z"/>
	</g>
</g>
<g>
	<g>
		<path class="st0" d="M260.824,215.749l1.399-4.477c0,0,2.658-1.539,4.757,0.56c2.099,2.099,0,3.638,0,3.638
			S262.786,217.784,260.824,215.749z"/>
	</g>
</g>
<g>
	<g>
		<path class="st0" d="M287.25,196.554l1.399-4.477c0,0,2.658-1.539,4.757,0.56c2.099,2.099,0,3.638,0,3.638
			S289.212,198.588,287.25,196.554z"/>
	</g>
</g>
<g>
	<g>
		<path class="st0" d="M300.148,180.559l1.399-4.477c0,0,2.658-1.539,4.757,0.56c2.099,2.099,0,3.638,0,3.638
			S302.109,182.593,300.148,180.559z"/>
	</g>
</g>
<g>
	<g>
		<path class="st0" d="M217.095,179.846l1.399-4.477c0,0,2.658-1.539,4.757,0.56s0,3.638,0,3.638S219.056,181.88,217.095,179.846z"
			/>
	</g>
</g>
<g>
	<g>
		<path class="st0" d="M85.452,187.645l1.399-4.477c0,0,2.658-1.539,4.757,0.56s0,3.638,0,3.638S87.413,189.68,85.452,187.645z"/>
	</g>
</g>
<g>
	<g>
		<path class="st0" d="M12.506,193.393l1.399-4.477c0,0,2.658-1.539,4.757,0.56s0,3.638,0,3.638S14.467,195.428,12.506,193.393z"/>
	</g>
</g>
<g>
	<g>
		<path class="st0" d="M-3.23,51.662l1.399-4.477c0,0,2.658-1.539,4.757,0.56c2.099,2.099,0,3.638,0,3.638
			S-1.269,53.696-3.23,51.662z"/>
	</g>
</g>
<g>
	<g>
		<path class="st0" d="M-1.782,61.844l1.399-4.477c0,0,2.658-1.539,4.757,0.56c2.099,2.099,0,3.638,0,3.638
			S0.179,63.878-1.782,61.844z"/>
	</g>
</g>
<g>
	<g>
		<path class="st0" d="M21.471,7.785l1.399-4.477c0,0,2.658-1.539,4.757,0.56s0,3.638,0,3.638S23.432,9.819,21.471,7.785z"/>
	</g>
</g>
<g>
	<g>
		<path class="st0" d="M33.601,74.614L35,70.136c0,0,2.658-1.539,4.757,0.56s0,3.638,0,3.638S35.562,76.648,33.601,74.614z"/>
	</g>
</g>
<g>
	<g>
		<path class="st0" d="M192.843,236.73l1.399-4.477c0,0,2.658-1.539,4.757,0.56c2.099,2.099,0,3.638,0,3.638
			S194.805,238.764,192.843,236.73z"/>
	</g>
</g>
<g>
	<g>
		<path class="st0" d="M326.348,234.907l1.399-4.477c0,0,2.658-1.539,4.757,0.56s0,3.638,0,3.638S328.309,236.941,326.348,234.907z"
			/>
	</g>
</g>
<g>
	<g>
		<path class="st0" d="M306.807,232.532l1.399-4.477c0,0,2.658-1.539,4.757,0.56c2.099,2.099,0,3.638,0,3.638
			S308.768,234.567,306.807,232.532z"/>
	</g>
</g>
<g>
	<g>
		<path class="st0" d="M384.351,222.424l1.399-4.477c0,0,2.658-1.539,4.757,0.56c2.099,2.099,0,3.638,0,3.638
			S386.312,224.458,384.351,222.424z"/>
	</g>
</g>
<g>
	<g>
		<path class="st0" d="M400.106,95.372l1.399-4.477c0,0,2.658-1.539,4.757,0.56c2.099,2.099,0,3.638,0,3.638
			S402.067,97.407,400.106,95.372z"/>
	</g>
</g>
<g>
	<g>
		<path class="st0" d="M343.832,6.53l1.399-4.477c0,0,2.658-1.539,4.757,0.56s0,3.638,0,3.638S345.793,8.564,343.832,6.53z"/>
	</g>
</g>
<g>
	<g>
		<path class="st0" d="M254.205,8.255l1.399-4.477c0,0,2.658-1.539,4.757,0.56s0,3.638,0,3.638S256.166,10.289,254.205,8.255z"/>
	</g>
</g>
<g>
	<g>
		<path class="st0" d="M153.011,36.206l1.399-4.477c0,0,2.658-1.539,4.757,0.56c2.099,2.099,0,3.638,0,3.638
			S154.972,38.24,153.011,36.206z"/>
	</g>
</g>
<g>
	<g>
		<path class="st0" d="M82.292,75.322l1.399-4.477c0,0,2.658-1.539,4.757,0.56c2.099,2.099,0,3.638,0,3.638
			S84.253,77.356,82.292,75.322z"/>
	</g>
</g>
<g>
	<g>
		<path class="st0" d="M30.992,144.624l1.399-4.477c0,0,2.658-1.539,4.757,0.56c2.099,2.099,0,3.638,0,3.638
			S32.953,146.658,30.992,144.624z"/>
	</g>
</g>
<g>
	<g>
		<path class="st0" d="M348.981,164.306l1.399-4.477c0,0,2.658-1.539,4.757,0.56c2.099,2.099,0,3.638,0,3.638
			S350.942,166.34,348.981,164.306z"/>
	</g>
</g>
<g>
	<g>
		<path class="st0" d="M375.274,168.165l1.399-4.477c0,0,2.658-1.539,4.757,0.56c2.099,2.099,0,3.638,0,3.638
			S377.235,170.199,375.274,168.165z"/>
	</g>
</g>
<g>
	<g>
		<path class="st0" d="M379.439,205.996l1.399-4.477c0,0,2.658-1.539,4.757,0.56s0,3.638,0,3.638S381.4,208.031,379.439,205.996z"/>
	</g>
</g>
</svg>
