<svg version="1.1" id="Layer_1" xmlns="http://www.w3.org/2000/svg" xmlns:xlink="http://www.w3.org/1999/xlink" x="0px" y="0px" width="100%" height="100%" viewBox="0 0 1650.75 518.399" style="enable-background:new 0 0 1650.75 518.399;"  xml:space="preserve" preserveAspectRatio="none">
<style type="text/css">
	.st0{fill:#000000;stroke:#ffffff;stroke-width:4px;stroke-miterlimit:10;}
</style>
<g>
	<path class="st0" d="M6.962,502.799V405.5c19.83-38.73,37.33-75.13,52.5-109.201c12.83-28.459,21.755-52.15,26.775-71.05
		c5.015-18.9,7.524-38.38,7.524-58.45c0-30.8-4.55-46.2-13.649-46.2c-5.136,0-8.985,4.44-11.551,13.3
		c-2.57,8.871-4.435,24.271-5.6,46.2l-59.85-12.6c2.329-51.33,10.614-91.109,24.85-119.351C42.192,19.92,60.977,5.8,84.312,5.8
		c22.4,0,40.13,13.42,53.2,40.25c13.065,26.841,19.601,63.12,19.601,108.85c0,28.471-2.511,54.95-7.525,79.45
		c-5.021,24.5-13.475,51.45-25.375,80.851c-10.971,27.07-21.585,50.87-31.85,71.4h69.649l-5.25,116.199H6.962z"/>
	<path class="st0" d="M238.312,304.7V206h14.7c5.601,0,9.915-3.851,12.95-11.55c3.029-7.7,4.55-18.31,4.55-31.851
		c0-13.529-1.285-24.149-3.85-31.85c-2.57-7.7-6.186-11.55-10.851-11.55c-5.37,0-9.449,4.55-12.25,13.649
		c-2.8,9.101-4.67,23.221-5.6,42.351l-57.05-11.9c1.63-49.93,9.329-88.659,23.1-116.2c13.765-27.529,32.43-41.3,56-41.3
		c14,0,26.479,5.6,37.45,16.8c10.965,11.2,19.6,27.07,25.9,47.601c6.3,20.54,9.449,44.1,9.449,70.699
		c0,22.871-2.625,43.4-7.875,61.601s-12.774,32.67-22.574,43.399c11.199,9.341,19.949,24.391,26.25,45.15
		c6.3,20.771,9.449,44.92,9.449,72.45c0,28.94-3.27,54.84-9.8,77.7c-6.535,22.871-15.87,40.949-28,54.25
		c-12.135,13.301-26.135,19.949-42,19.949c-53.2,0-79.8-59.959-79.8-179.899h58.45c0,44.341,6.529,66.5,19.6,66.5
		c11.2,0,16.8-16.33,16.8-49c0-15.4-1.81-27.3-5.425-35.7c-3.62-8.4-8.695-12.6-15.225-12.6H238.312z"/>
	<path class="st0" d="M477.712,502.799l-31.15-168h-17.149v168h-64.4V3h86.8c28,0,49.755,14.24,65.275,42.7
		c15.515,28.47,23.275,68.37,23.275,119.699c0,27.07-2.921,51.921-8.75,74.551c-5.836,22.641-14.121,41.649-24.851,57.05
		l42.351,205.799H477.712z M447.962,226.3c9.1,0,16.04-5.01,20.825-15.05c4.779-10.03,7.175-24.38,7.175-43.05
		c0-18.2-2.335-32.2-7-42c-4.67-9.801-11.436-14.7-20.3-14.7h-19.25v114.8H447.962z"/>
	<path class="st0" d="M573.257,502.799V3h80.5c36.165,0,63.525,20.891,82.075,62.649c18.55,41.771,27.825,103.021,27.825,183.75
		c0,81.671-9.335,144.32-28,187.951c-18.671,43.641-45.62,65.449-80.851,65.449H573.257z M659.358,378.899
		c11.43,0,19.89-10.5,25.375-31.5c5.479-21,8.225-52.959,8.225-95.899c0-42.46-2.8-73.851-8.4-94.15
		c-5.6-20.3-14.234-30.45-25.899-30.45h-18.2v252H659.358z"/>
	<path class="st0" d="M775.552,311V189.2h136.5V311H775.552z"/>
	<path class="st0" d="M924.302,502.799V405.5c19.83-38.73,37.33-75.13,52.5-109.201c12.83-28.459,21.755-52.15,26.775-71.05
		c5.015-18.9,7.524-38.38,7.524-58.45c0-30.8-4.55-46.2-13.649-46.2c-5.136,0-8.985,4.44-11.551,13.3
		c-2.57,8.871-4.435,24.271-5.6,46.2l-59.85-12.6c2.329-51.33,10.614-91.109,24.85-119.351c14.229-28.229,33.015-42.35,56.35-42.35
		c22.4,0,40.13,13.42,53.2,40.25c13.065,26.841,19.601,63.12,19.601,108.85c0,28.471-2.511,54.95-7.525,79.45
		c-5.021,24.5-13.475,51.45-25.375,80.851c-10.971,27.07-21.585,50.87-31.85,71.4h69.649l-5.25,116.199H924.302z"/>
	<path class="st0" d="M1221.102,252.899c23.101,22.871,34.65,63.471,34.65,121.801c0,44.339-7.175,78.871-21.525,103.599
		c-14.35,24.73-34.475,37.1-60.375,37.1c-25.67,0-45.5-12.25-59.5-36.75s-21-59.148-21-103.949c0-58.33,11.55-98.93,34.65-121.801
		c-19.601-24.259-29.4-60.899-29.4-109.899c0-41.53,6.94-74.78,20.825-99.75c13.88-24.96,32.49-37.45,55.825-37.45
		c23.1,0,41.415,12.37,54.95,37.1c13.529,24.741,20.3,58.101,20.3,100.101C1250.502,192,1240.702,228.641,1221.102,252.899z
		 M1174.202,411.1c6.529,0,11.489-4.43,14.875-13.301c3.379-8.859,5.074-21.929,5.074-39.2c0-17.259-1.635-30.45-4.899-39.55
		c-3.271-9.1-8.05-13.65-14.351-13.65c-6.3,0-11.199,4.671-14.699,14c-3.5,9.341-5.25,22.4-5.25,39.2
		C1154.952,393.6,1161.366,411.1,1174.202,411.1z M1174.202,206.7c12.364,0,18.55-16.33,18.55-49c0-32.66-5.95-49-17.851-49
		c-6.07,0-10.675,4.199-13.824,12.6c-3.15,8.4-4.726,20.541-4.726,36.4c0,16.8,1.455,29.17,4.375,37.1
		C1163.642,202.74,1168.132,206.7,1174.202,206.7z"/>
	<path class="st0" d="M1317.352,502.799V126.2h-51.8V3h172.2v123.2h-51.8v376.599H1317.352z"/>
	<path class="st0" d="M1579.151,502.799V307.5h-49v195.299h-68.601V3h68.601v178.5h49V3h68.6v499.799H1579.151z"/>
</g>
</svg>
