<svg version="1.1" id="Layer_1" xmlns="http://www.w3.org/2000/svg" xmlns:xlink="http://www.w3.org/1999/xlink" x="0px" y="0px" width="100%" height="100%" viewBox="0 0 1582.71 518.399" style="enable-background:new 0 0 1582.71 518.399;" xml:space="preserve" preserveAspectRatio="none">
<style type="text/css">
	.st0{fill:#FFFFFF;stroke:#000000;stroke-width:4px;stroke-miterlimit:10;}
</style>
<g>
	<path class="st0" d="M3,502.8V3h144.9v116.2h-77v93.1h71.75v116.2H70.9v174.3H3z"/>
	<path class="st0" d="M176.596,502.8V3h151.55v116.2h-83.649v73.5h78.399v116.199h-78.399v77.7h89.25l-5.25,116.2H176.596z"/>
	<path class="st0" d="M362.795,502.8V3h87.15c25.43,0,45.265,11.2,59.5,33.6c14.229,22.4,21.35,53.9,21.35,94.5
		c0,45.741-11.435,81.2-34.3,106.4c13.3,11.67,23.505,27.54,30.625,47.6c7.115,20.07,10.675,43.171,10.675,69.3
		c0,47.141-7.875,83.65-23.625,109.551c-15.75,25.899-37.86,38.85-66.325,38.85H362.795z M442.595,195.5
		c7.23,0,12.891-3.729,16.976-11.2c4.079-7.459,6.125-18.2,6.125-32.2c0-13.529-1.985-24.149-5.95-31.85
		c-3.971-7.7-9.45-11.55-16.45-11.55h-18.2v86.8H442.595z M444.345,397.1c8.865,0,15.805-4.659,20.825-14
		c5.015-9.329,7.525-22.159,7.525-38.5c0-17.259-2.45-30.329-7.351-39.2c-4.899-8.859-12.02-13.3-21.35-13.3h-18.9v105H444.345z"/>
	<path class="st0" d="M679.189,502.8l-31.15-168H630.89v168h-64.401V3h86.799c28,0,49.756,14.24,65.275,42.7
		c15.516,28.47,23.275,68.37,23.275,119.699c0,27.07-2.92,51.921-8.75,74.551c-5.836,22.641-14.121,41.649-24.85,57.05l42.35,205.8
		H679.189z M649.439,226.3c9.1,0,16.041-5.01,20.826-15.05c4.779-10.03,7.174-24.38,7.174-43.05c0-18.2-2.334-32.2-7-42
		c-4.67-9.801-11.436-14.7-20.299-14.7h-19.25v114.8H649.439z"/>
	<path class="st0" d="M886.734,3h68.602v310.8c0,65.8-7.875,115.85-23.625,150.15c-15.75,34.3-38.676,51.449-68.775,51.449
		S809.91,498.25,794.16,463.95c-15.75-34.301-23.625-84.351-23.625-150.15V3h68.6v321.3c0,23.341,1.865,40.37,5.6,51.1
		c3.73,10.741,9.801,16.101,18.201,16.101s14.465-5.359,18.199-16.101c3.73-10.729,5.6-27.759,5.6-51.1V3z"/>
	<path class="st0" d="M1108.636,502.8l-8.75-91h-58.1l-9.1,91h-66.5l64.4-499.8h85.049l61.6,499.8H1108.636z M1071.187,111.5
		l-18.9,193.2h37.449L1071.187,111.5z"/>
	<path class="st0" d="M1311.984,502.8l-31.15-168h-17.148v168h-64.4V3h86.799c28,0,49.756,14.24,65.275,42.7
		c15.516,28.47,23.275,68.37,23.275,119.699c0,27.07-2.92,51.921-8.75,74.551c-5.836,22.641-14.121,41.649-24.85,57.05l42.35,205.8
		H1311.984z M1282.234,226.3c9.1,0,16.041-5.01,20.826-15.05c4.779-10.03,7.174-24.38,7.174-43.05c0-18.2-2.334-32.2-7-42
		c-4.67-9.801-11.436-14.7-20.299-14.7h-19.25v114.8H1282.234z"/>
	<path class="st0" d="M1445.683,502.8V318.7L1380.933,3h73.5l26.6,189.7l26.6-189.7h71.4l-64.75,315.7v184.1H1445.683z"/>
</g>
</svg>