<svg version="1.1" id="Layer_1" xmlns="http://www.w3.org/2000/svg" xmlns:xlink="http://www.w3.org/1999/xlink" x="0px" y="0px" width="100%" height="100%" viewBox="0 0 1137.96 531" style="enable-background:new 0 0 1137.96 531;"  xml:space="preserve" preserveAspectRatio="none">
<style type="text/css">
	.st0{fill:#ffffff;stroke:#333333;stroke-width:4px;stroke-miterlimit:10;}
</style>
<g>
	<path class="st0" d="M69.223,313.801c-21.936-11.66-37.975-29.75-48.125-54.25S5.873,201.341,5.873,158.4
		c0-47.6,7.814-85.4,23.449-113.4c15.63-28,36.98-42,64.051-42c25.664,0,45.379,12.491,59.149,37.45
		c13.765,24.971,22.165,63.591,25.2,115.851l-65.8,12.6c-1.636-21.459-3.91-36.159-6.825-44.1c-2.92-7.93-7.646-11.9-14.175-11.9
		c-5.835,0-10.325,3.5-13.476,10.5c-3.149,7-4.725,16.8-4.725,29.4c0,12.6,1.4,22.17,4.2,28.699c2.8,6.541,7.465,11.441,14,14.7
		l25.55,14c23.564,13.07,40.479,31.62,50.75,55.65c10.265,24.04,15.4,56.82,15.4,98.35c0,51.8-7.761,92.05-23.275,120.75
		C143.827,513.65,121.952,528,93.723,528c-57.635,0-87.85-58.559-90.65-175.699h67.2c0.93,23.34,3.38,40.141,7.351,50.399
		c3.965,10.271,9.8,15.4,17.5,15.4c6.529,0,11.604-3.851,15.225-11.55c3.615-7.7,5.425-18.551,5.425-32.551
		c0-12.129-1.521-21.809-4.55-29.05c-3.035-7.229-7.82-12.709-14.35-16.45L69.223,313.801z"/>
	<path class="st0" d="M209.218,515.4v-499.8h79.8c28,0,49.99,15.29,65.976,45.85c15.979,30.57,23.975,72.45,23.975,125.65
		c0,34.07-3.62,64.05-10.85,89.95c-7.235,25.899-17.62,46.199-31.15,60.899c-13.535,14.7-29.399,22.05-47.6,22.05h-14.351v155.4
		H209.218z M289.018,245.2c19.13,0,28.7-19.13,28.7-57.399c0-38.26-9.57-57.4-28.7-57.4h-14v114.8H289.018z"/>
	<path class="st0" d="M519.317,515.4l-31.15-168h-17.149v168h-64.4v-499.8h86.8c28,0,49.755,14.24,65.275,42.7
		c15.515,28.47,23.275,68.37,23.275,119.699c0,27.07-2.921,51.921-8.75,74.551c-5.836,22.641-14.121,41.649-24.851,57.05
		l42.351,205.8H519.317z M489.567,238.9c9.1,0,16.04-5.01,20.825-15.05c4.779-10.03,7.175-24.38,7.175-43.05c0-18.2-2.335-32.2-7-42
		c-4.67-9.801-11.436-14.7-20.3-14.7h-19.25v114.8H489.567z"/>
	<path class="st0" d="M614.862,515.4v-499.8h68.6v499.8H614.862z"/>
	<path class="st0" d="M847.261,515.4l-60.201-251.3v251.3h-63v-499.8h60.9l60.201,251.3v-251.3h63v499.8H847.261z"/>
	<path class="st0" d="M1071.96,333.4h-25.199v-103.6h88.199v243.6c-12.6,17.74-26.545,31.271-41.824,40.6
		c-15.285,9.33-31.211,14-47.775,14c-34.535,0-60.67-21.809-78.4-65.449c-17.734-43.63-26.6-108.38-26.6-194.25
		c0-86.801,8.75-152.71,26.25-197.75c17.5-45.03,43.164-67.551,77-67.551c53.199,0,83.301,55.301,90.301,165.9l-68.951,13.3
		c-1.4-20.06-3.971-34.759-7.699-44.1c-3.736-9.33-8.986-14-15.75-14c-10.736,0-18.551,11.2-23.451,33.6
		c-4.898,22.4-7.35,57.641-7.35,105.7c0,49.471,3.09,85.75,9.275,108.85c6.18,23.101,15.926,34.65,29.225,34.65
		c8.631,0,16.215-3.729,22.75-11.2V333.4z"/>
</g>
</svg>