<svg version="1.1" id="Layer_1" xmlns="http://www.w3.org/2000/svg" xmlns:xlink="http://www.w3.org/1999/xlink" x="0px" y="0px" width="100%" height="100%" viewBox="0 0 2236.098 531" style="enable-background:new 0 0 2236.098 531;" xml:space="preserve" preserveAspectRatio="none">
<style type="text/css">
	.st0{fill:#ffffff;stroke:#333333;stroke-width:4px;stroke-miterlimit:10;}
</style>
<g>
	<path class="st0" d="M171.299,515.4l-24.5-286.3l-24.5,286.3H50.9L3.299,15.601h70l19.95,314.3l25.55-312.2h57.75l25.2,312.2
		l19.95-314.3h68.6l-47.6,499.8H171.299z"/>
	<path class="st0" d="M400.899,528c-33.37,0-58.57-21.93-75.6-65.8c-17.035-43.859-25.55-108.5-25.55-193.899
		c0-86.801,8.689-152.71,26.074-197.75C343.204,25.521,368.814,3,402.649,3c33.365,0,58.565,21.941,75.601,65.801
		c17.029,43.87,25.55,108.5,25.55,193.899c0,86.8-8.695,152.721-26.075,197.75C460.339,505.491,434.729,528,400.899,528z
		 M401.599,404.101c11.2,0,19.189-10.609,23.975-31.851c4.78-21.229,7.176-57.05,7.176-107.449c0-49.93-2.336-85.4-7-106.4
		c-4.671-21-12.601-31.5-23.801-31.5c-11.199,0-19.195,10.62-23.975,31.85c-4.785,21.241-7.175,57.051-7.175,107.45
		c0,49.94,2.329,85.4,7,106.4C382.464,393.601,390.399,404.101,401.599,404.101z"/>
	<path class="st0" d="M628.744,528c-33.37,0-58.57-21.93-75.6-65.8c-17.035-43.859-25.55-108.5-25.55-193.899
		c0-86.801,8.689-152.71,26.074-197.75C571.048,25.521,596.659,3,630.494,3c33.365,0,58.565,21.941,75.601,65.801
		c17.029,43.87,25.55,108.5,25.55,193.899c0,86.8-8.695,152.721-26.075,197.75C688.184,505.491,662.574,528,628.744,528z
		 M629.444,404.101c11.2,0,19.189-10.609,23.975-31.851c4.78-21.229,7.176-57.05,7.176-107.449c0-49.93-2.336-85.4-7-106.4
		c-4.671-21-12.601-31.5-23.801-31.5c-11.199,0-19.195,10.62-23.975,31.85c-4.785,21.241-7.175,57.051-7.175,107.45
		c0,49.94,2.329,85.4,7,106.4C610.309,393.601,618.244,404.101,629.444,404.101z"/>
	<path class="st0" d="M763.839,515.4v-499.8h80.5c36.165,0,63.525,20.891,82.075,62.649c18.55,41.771,27.825,103.021,27.825,183.75
		c0,81.671-9.335,144.32-28,187.95c-18.671,43.641-45.62,65.45-80.851,65.45H763.839z M849.94,391.5c11.43,0,19.89-10.5,25.375-31.5
		c5.479-21,8.225-52.959,8.225-95.899c0-42.46-2.8-73.851-8.4-94.15c-5.6-20.3-14.234-30.45-25.899-30.45h-18.2v252H849.94z"/>
	<path class="st0" d="M1039.634,313.801c-21.936-11.66-37.975-29.75-48.125-54.25s-15.225-58.21-15.225-101.15
		c0-47.6,7.814-85.4,23.449-113.4c15.63-28,36.98-42,64.051-42c25.664,0,45.379,12.491,59.149,37.45
		c13.765,24.971,22.165,63.591,25.2,115.851l-65.8,12.6c-1.636-21.459-3.91-36.159-6.825-44.1c-2.92-7.93-7.646-11.9-14.175-11.9
		c-5.835,0-10.325,3.5-13.476,10.5c-3.149,7-4.725,16.8-4.725,29.4c0,12.6,1.4,22.17,4.2,28.699c2.8,6.541,7.465,11.441,14,14.7
		l25.55,14c23.564,13.07,40.479,31.62,50.75,55.65c10.265,24.04,15.4,56.82,15.4,98.35c0,51.8-7.761,92.05-23.275,120.75
		c-15.521,28.7-37.396,43.05-65.625,43.05c-57.635,0-87.85-58.559-90.65-175.699h67.2c0.93,23.34,3.38,40.141,7.351,50.399
		c3.965,10.271,9.8,15.4,17.5,15.4c6.529,0,11.604-3.851,15.225-11.55c3.615-7.7,5.425-18.551,5.425-32.551
		c0-12.129-1.521-21.809-4.55-29.05c-3.035-7.229-7.82-12.709-14.35-16.45L1039.634,313.801z"/>
	<path class="st0" d="M1361.277,333.4h-25.201v-103.6h88.201v243.6c-12.6,17.74-26.545,31.271-41.826,40.6
		c-15.285,9.33-31.209,14-47.773,14c-34.535,0-60.672-21.809-78.4-65.449c-17.736-43.63-26.6-108.38-26.6-194.25
		c0-86.801,8.75-152.71,26.25-197.75c17.5-45.03,43.164-67.551,77-67.551c53.199,0,83.299,55.301,90.299,165.9l-68.949,13.3
		c-1.4-20.06-3.971-34.759-7.701-44.1c-3.734-9.33-8.984-14-15.75-14c-10.734,0-18.549,11.2-23.449,33.6
		c-4.9,22.4-7.35,57.641-7.35,105.7c0,49.471,3.09,85.75,9.275,108.85c6.18,23.101,15.924,34.65,29.225,34.65
		c8.629,0,16.215-3.729,22.75-11.2V333.4z"/>
	<path class="st0" d="M1458.227,515.4v-499.8h151.549v116.2h-83.648v73.5h78.398V321.5h-78.398v77.7h89.25l-5.25,116.2H1458.227z"/>
	<path class="st0" d="M1757.125,515.4l-31.15-168h-17.148v168h-64.4v-499.8h86.799c28,0,49.756,14.24,65.275,42.7
		c15.516,28.47,23.275,68.37,23.275,119.699c0,27.07-2.92,51.921-8.75,74.551c-5.836,22.641-14.121,41.649-24.85,57.05l42.35,205.8
		H1757.125z M1727.375,238.9c9.1,0,16.041-5.01,20.826-15.05c4.779-10.03,7.174-24.38,7.174-43.05c0-18.2-2.334-32.2-7-42
		c-4.67-9.801-11.436-14.7-20.299-14.7h-19.25v114.8H1727.375z"/>
	<path class="st0" d="M1965.371,515.4l-31.15-168h-17.15v168h-64.4v-499.8h86.801c28,0,49.754,14.24,65.275,42.7
		c15.514,28.47,23.275,68.37,23.275,119.699c0,27.07-2.922,51.921-8.75,74.551c-5.836,22.641-14.121,41.649-24.852,57.05
		l42.352,205.8H1965.371z M1935.621,238.9c9.1,0,16.039-5.01,20.824-15.05c4.779-10.03,7.176-24.38,7.176-43.05
		c0-18.2-2.336-32.2-7-42c-4.67-9.801-11.436-14.7-20.301-14.7h-19.25v114.8H1935.621z"/>
	<path class="st0" d="M2099.07,515.4v-184.1l-64.75-315.7h73.5l26.6,189.7l26.6-189.7h71.4l-64.75,315.7v184.1H2099.07z"/>
</g>
</svg>