<svg version="1.1" id="Layer_1" xmlns="http://www.w3.org/2000/svg" xmlns:xlink="http://www.w3.org/1999/xlink" x="0px" y="0px" width="100%" height="100%" viewBox="0 0 691.062 515.6" style="enable-background:new 0 0 691.062 515.6;" xml:space="preserve" preserveAspectRatio="none">
<style type="text/css">
	.st0{
		fill:#ffffff;
		stroke:#333333;
		stroke-width:1px;
		stroke-miterlimit:10;
		vector-effect:non-scaling-stroke;
	}
</style>
<g>
	<path class="st0" d="M6.962,500v-97.3c19.83-38.729,37.33-75.13,52.5-109.2c12.83-28.459,21.755-52.15,26.775-71.05
		c5.015-18.9,7.524-38.38,7.524-58.45c0-30.8-4.55-46.2-13.649-46.2c-5.136,0-8.985,4.44-11.551,13.3
		c-2.57,8.871-4.435,24.271-5.6,46.2l-59.85-12.6c2.329-51.33,10.614-91.109,24.85-119.351C42.192,17.12,60.977,3,84.312,3
		c22.4,0,40.13,13.42,53.2,40.25c13.065,26.841,19.601,63.12,19.601,108.85c0,28.471-2.511,54.95-7.525,79.45
		c-5.021,24.5-13.475,51.45-25.375,80.851c-10.971,27.07-21.585,50.87-31.85,71.399h69.649l-5.25,116.2H6.962z"/>
	<path class="st0" d="M256.512,512.6c-27.771,0-48.07-20.18-60.899-60.55c-12.836-40.359-19.25-104.409-19.25-192.149
		c0-89.13,6.475-154.23,19.425-195.301C208.737,23.541,229.442,3,257.912,3c27.765,0,48.064,20.19,60.9,60.55
		c12.83,40.37,19.25,104.421,19.25,192.15c0,89.141-6.475,154.24-19.426,195.3C305.687,492.07,284.976,512.6,256.512,512.6z
		 M257.212,395c4.665,0,8.104-4.31,10.325-12.95c2.215-8.63,3.79-22.63,4.725-42c0.93-19.359,1.4-46.779,1.4-82.25
		c0-38.729-0.525-67.659-1.575-86.8c-1.05-19.13-2.745-32.31-5.075-39.55c-2.335-7.229-5.6-10.851-9.8-10.851
		c-4.67,0-8.11,4.32-10.325,12.95c-2.22,8.641-3.795,22.641-4.725,42c-0.936,19.37-1.4,46.791-1.4,82.25
		c0,38.741,0.525,67.671,1.575,86.8c1.05,19.141,2.74,32.32,5.075,39.551C249.741,391.391,253.012,395,257.212,395z"/>
	<path class="st0" d="M356.963,500v-97.3c19.83-38.729,37.33-75.13,52.5-109.2c12.83-28.459,21.754-52.15,26.775-71.05
		c5.014-18.9,7.523-38.38,7.523-58.45c0-30.8-4.549-46.2-13.648-46.2c-5.137,0-8.986,4.44-11.551,13.3
		c-2.57,8.871-4.436,24.271-5.6,46.2l-59.85-12.6c2.328-51.33,10.613-91.109,24.85-119.351C392.191,17.12,410.976,3,434.312,3
		c22.4,0,40.129,13.42,53.199,40.25c13.066,26.841,19.602,63.12,19.602,108.85c0,28.471-2.512,54.95-7.525,79.45
		c-5.021,24.5-13.475,51.45-25.375,80.851c-10.971,27.07-21.586,50.87-31.85,71.399h69.648l-5.25,116.2H356.963z"/>
	<path class="st0" d="M588.312,301.9v-98.7h14.699c5.602,0,9.916-3.851,12.951-11.55c3.029-7.7,4.549-18.31,4.549-31.851
		c0-13.529-1.285-24.149-3.85-31.85c-2.57-7.7-6.186-11.55-10.85-11.55c-5.371,0-9.449,4.55-12.25,13.649
		c-2.801,9.101-4.67,23.221-5.6,42.351l-57.051-11.9c1.631-49.93,9.33-88.659,23.1-116.2c13.766-27.529,32.43-41.3,56-41.3
		c14,0,26.48,5.6,37.451,16.8c10.965,11.2,19.6,27.07,25.9,47.601c6.299,20.54,9.449,44.1,9.449,70.699
		c0,22.871-2.625,43.4-7.875,61.601s-12.775,32.67-22.574,43.399c11.199,9.341,19.949,24.391,26.25,45.15
		c6.299,20.771,9.449,44.92,9.449,72.45c0,28.94-3.27,54.841-9.801,77.7c-6.535,22.87-15.869,40.949-28,54.25
		c-12.135,13.3-26.135,19.949-42,19.949c-53.199,0-79.799-59.959-79.799-179.899h58.449c0,44.341,6.529,66.5,19.6,66.5
		c11.201,0,16.801-16.33,16.801-49c0-15.4-1.811-27.3-5.426-35.7c-3.619-8.4-8.695-12.6-15.225-12.6H588.312z"/>
</g>
</svg>