<?xml version="1.0" encoding="utf-8"?>
<!-- Generator: Adobe Illustrator 27.2.0, SVG Export Plug-In . SVG Version: 6.00 Build 0)  -->
<svg version="1.1" id="Layer_1" xmlns="http://www.w3.org/2000/svg" xmlns:xlink="http://www.w3.org/1999/xlink" x="0px" y="0px"
	 viewBox="0 0 494.902 301.909" style="enable-background:new 0 0 494.902 301.909;" xml:space="preserve">
<g>
	<g>
		<path d="M309.592,113.017l1.399-4.477c0,0,2.658-1.539,4.757,0.56c2.099,2.099,0,3.638,0,3.638S311.553,115.051,309.592,113.017z"
			/>
	</g>
</g>
<g>
	<g>
		<path d="M294.843,100.966l1.399-4.477c0,0,2.658-1.539,4.757,0.56s0,3.638,0,3.638S296.804,103,294.843,100.966z"/>
	</g>
</g>
<g>
	<g>
		<path d="M245.537,108.58l1.399-4.477c0,0,2.658-1.539,4.757,0.56c2.099,2.099,0,3.638,0,3.638S247.498,110.614,245.537,108.58z"/>
	</g>
</g>
<g>
	<g>
		<path d="M201.12,126.853l1.399-4.477c0,0,2.658-1.539,4.757,0.56c2.099,2.099,0,3.638,0,3.638S203.081,128.887,201.12,126.853z"/>
	</g>
</g>
<g>
	<g>
		<path d="M165.434,151.811l1.399-4.477c0,0,2.658-1.539,4.757,0.56c2.099,2.099,0,3.638,0,3.638S167.395,153.845,165.434,151.811z"
			/>
	</g>
</g>
<g>
	<g>
		<path d="M121.663,185.424l1.399-4.477c0,0,2.658-1.539,4.757,0.56c2.099,2.099,0,3.638,0,3.638S123.624,187.458,121.663,185.424z"
			/>
	</g>
</g>
<g>
	<g>
		<path d="M97.817,214.816l1.399-4.477c0,0,2.658-1.539,4.757,0.56c2.099,2.099,0,3.638,0,3.638S99.778,216.85,97.817,214.816z"/>
	</g>
</g>
<g>
	<g>
		<path d="M86.484,225.7l1.399-4.477c0,0,2.658-1.539,4.757,0.56c2.099,2.099,0,3.638,0,3.638S88.446,227.734,86.484,225.7z"/>
	</g>
</g>
<g>
	<g>
		<path d="M76.136,233.453l1.399-4.477c0,0,2.658-1.539,4.757,0.56c2.099,2.099,0,3.638,0,3.638S78.097,235.488,76.136,233.453z"/>
	</g>
</g>
<g>
	<g>
		<path d="M78.15,241.629l1.399-4.477c0,0,2.658-1.539,4.757,0.56c2.099,2.099,0,3.638,0,3.638S80.112,243.663,78.15,241.629z"/>
	</g>
</g>
<g>
	<g>
		<path d="M95.431,232.242l1.399-4.477c0,0,2.658-1.539,4.757,0.56c2.099,2.099,0,3.638,0,3.638S97.392,234.276,95.431,232.242z"/>
	</g>
</g>
<g>
	<g>
		<path d="M163.296,204.96l1.399-4.477c0,0,2.658-1.539,4.757,0.56s0,3.638,0,3.638S165.257,206.994,163.296,204.96z"/>
	</g>
</g>
<g>
	<g>
		<path d="M195.629,192.421l1.399-4.477c0,0,2.658-1.539,4.757,0.56c2.099,2.099,0,3.638,0,3.638S197.59,194.455,195.629,192.421z"
			/>
	</g>
</g>
<g>
	<g>
		<path d="M250.498,165.506l1.399-4.477c0,0,2.658-1.539,4.757,0.56c2.099,2.099,0,3.638,0,3.638S252.459,167.54,250.498,165.506z"
			/>
	</g>
</g>
<g>
	<g>
		<path d="M298.231,146.481l1.399-4.477c0,0,2.658-1.539,4.757,0.56c2.099,2.099,0,3.638,0,3.638S300.192,148.515,298.231,146.481z"
			/>
	</g>
</g>
<g>
	<g>
		<path d="M339.832,121.569l1.399-4.477c0,0,2.658-1.539,4.757,0.56c2.099,2.099,0,3.638,0,3.638S341.793,123.603,339.832,121.569z"
			/>
	</g>
</g>
<g>
	<g>
		<path d="M338.949,131.896l1.399-4.477c0,0,2.658-1.539,4.757,0.56c2.099,2.099,0,3.638,0,3.638S340.91,133.93,338.949,131.896z"/>
	</g>
</g>
<g>
	<g>
		<path d="M329.498,126.902l1.399-4.477c0,0,2.658-1.539,4.757,0.56s0,3.638,0,3.638S331.46,128.936,329.498,126.902z"/>
	</g>
</g>
<g>
	<g>
		<path d="M218.86,162.248l1.399-4.477c0,0,2.658-1.539,4.757,0.56s0,3.638,0,3.638S220.821,164.282,218.86,162.248z"/>
	</g>
</g>
<g>
	<g>
		<path d="M149.952,187.096l1.399-4.477c0,0,2.658-1.539,4.757,0.56c2.099,2.099,0,3.638,0,3.638S151.913,189.13,149.952,187.096z"
			/>
	</g>
</g>
<g>
	<g>
		<path d="M105.024,204.025l1.399-4.477c0,0,2.658-1.539,4.757,0.56c2.099,2.099,0,3.638,0,3.638S106.985,206.059,105.024,204.025z"
			/>
	</g>
</g>
<g>
	<g>
		<path d="M80.676,209.915l1.399-4.477c0,0,2.658-1.539,4.757,0.56c2.099,2.099,0,3.638,0,3.638S82.637,211.949,80.676,209.915z"/>
	</g>
</g>
<g>
	<g>
		<path d="M58.977,221.888l1.399-4.477c0,0,2.658-1.539,4.757,0.56c2.099,2.099,0,3.638,0,3.638S60.939,223.922,58.977,221.888z"/>
	</g>
</g>
<g>
	<g>
		<path d="M31.173,230.875l1.399-4.477c0,0,2.658-1.539,4.757,0.56c2.099,2.099,0,3.638,0,3.638S33.134,232.909,31.173,230.875z"/>
	</g>
</g>
<g>
	<g>
		<path d="M36.391,238.666l1.399-4.477c0,0,2.658-1.539,4.757,0.56s0,3.638,0,3.638S38.352,240.7,36.391,238.666z"/>
	</g>
</g>
<g>
	<g>
		<path d="M42.588,226.423l1.399-4.477c0,0,2.658-1.539,4.757,0.56c2.099,2.099,0,3.638,0,3.638S44.549,228.457,42.588,226.423z"/>
	</g>
</g>
<g>
	<g>
		<path d="M181.913,175.875l1.399-4.477c0,0,2.658-1.539,4.757,0.56c2.099,2.099,0,3.638,0,3.638S183.875,177.909,181.913,175.875z"
			/>
	</g>
</g>
<g>
	<g>
		<path d="M228.036,152.488l1.399-4.477c0,0,2.658-1.539,4.757,0.56c2.099,2.099,0,3.638,0,3.638S229.997,154.522,228.036,152.488z"
			/>
	</g>
</g>
<g>
	<g>
		<path d="M283.957,127.554l1.399-4.477c0,0,2.658-1.539,4.757,0.56c2.099,2.099,0,3.638,0,3.638S285.919,129.589,283.957,127.554z"
			/>
	</g>
</g>
<g>
	<g>
		<path d="M337.855,104.132l1.399-4.477c0,0,2.658-1.539,4.757,0.56c2.099,2.099,0,3.638,0,3.638S339.816,106.166,337.855,104.132z"
			/>
	</g>
</g>
<g>
	<g>
		<path d="M373.037,85.983l1.399-4.477c0,0,2.658-1.539,4.757,0.56s0,3.638,0,3.638S374.998,88.017,373.037,85.983z"/>
	</g>
</g>
<g>
	<g>
		<path d="M396.831,74.581l1.399-4.477c0,0,2.658-1.539,4.757,0.56c2.099,2.099,0,3.638,0,3.638S398.793,76.615,396.831,74.581z"/>
	</g>
</g>
<g>
	<g>
		<path d="M431.929,49.576l1.399-4.477c0,0,2.658-1.539,4.757,0.56s0,3.638,0,3.638S433.891,51.61,431.929,49.576z"/>
	</g>
</g>
<g>
	<g>
		<path d="M450.928,31.863l1.399-4.477c0,0,2.658-1.539,4.757,0.56s0,3.638,0,3.638S452.889,33.897,450.928,31.863z"/>
	</g>
</g>
<g>
	<g>
		<path d="M451.813,16.966l1.399-4.477c0,0,2.658-1.539,4.757,0.56c2.099,2.099,0,3.638,0,3.638S453.774,19,451.813,16.966z"/>
	</g>
</g>
<g>
	<g>
		<path d="M280.587,5.977l1.399-4.477c0,0,2.658-1.539,4.757,0.56s0,3.638,0,3.638S282.548,8.011,280.587,5.977z"/>
	</g>
</g>
<g>
	<g>
		<path d="M210.824,23.339l1.399-4.477c0,0,2.658-1.539,4.757,0.56s0,3.638,0,3.638S212.786,25.373,210.824,23.339z"/>
	</g>
</g>
<g>
	<g>
		<path d="M165.012,42.344l1.399-4.477c0,0,2.658-1.539,4.757,0.56c2.099,2.099,0,3.638,0,3.638S166.973,44.378,165.012,42.344z"/>
	</g>
</g>
<g>
	<g>
		<path d="M116.229,70.152l1.399-4.477c0,0,2.658-1.539,4.757,0.56c2.099,2.099,0,3.638,0,3.638S118.19,72.186,116.229,70.152z"/>
	</g>
</g>
<g>
	<g>
		<path d="M40.774,124.442l1.399-4.477c0,0,2.658-1.539,4.757,0.56c2.099,2.099,0,3.638,0,3.638S42.735,126.476,40.774,124.442z"/>
	</g>
</g>
<g>
	<g>
		<path d="M21.683,161.548l1.399-4.477c0,0,2.658-1.539,4.757,0.56c2.099,2.099,0,3.638,0,3.638S23.644,163.582,21.683,161.548z"/>
	</g>
</g>
<g>
	<g>
		<path d="M37.473,177.914l1.399-4.477c0,0,2.658-1.539,4.757,0.56c2.099,2.099,0,3.638,0,3.638S39.434,179.949,37.473,177.914z"/>
	</g>
</g>
<g>
	<g>
		<path d="M114.169,153.047l1.399-4.477c0,0,2.658-1.539,4.757,0.56c2.099,2.099,0,3.638,0,3.638S116.131,155.081,114.169,153.047z"
			/>
	</g>
</g>
<g>
	<g>
		<path d="M207.575,91.633l1.399-4.477c0,0,2.658-1.539,4.757,0.56s0,3.638,0,3.638S209.536,93.667,207.575,91.633z"/>
	</g>
</g>
<g>
	<g>
		<path d="M294.658,49.12l1.399-4.477c0,0,2.658-1.539,4.757,0.56c2.099,2.099,0,3.638,0,3.638S296.62,51.154,294.658,49.12z"/>
	</g>
</g>
<g>
	<g>
		<path d="M345.796,37.028l1.399-4.477c0,0,2.658-1.539,4.757,0.56c2.099,2.099,0,3.638,0,3.638S347.757,39.063,345.796,37.028z"/>
	</g>
</g>
<g>
	<g>
		<path d="M389.97,26.27l1.399-4.477c0,0,2.658-1.539,4.757,0.56c2.099,2.099,0,3.638,0,3.638S391.931,28.304,389.97,26.27z"/>
	</g>
</g>
<g>
	<g>
		<path d="M419.852,26.599l1.399-4.477c0,0,2.658-1.539,4.757,0.56c2.099,2.099,0,3.638,0,3.638S421.813,28.633,419.852,26.599z"/>
	</g>
</g>
<g>
	<g>
		<path d="M426.527,33.339l1.399-4.477c0,0,2.658-1.539,4.757,0.56c2.099,2.099,0,3.638,0,3.638S428.488,35.373,426.527,33.339z"/>
	</g>
</g>
<g>
	<g>
		<path d="M381.46,43.172l1.399-4.477c0,0,2.658-1.539,4.757,0.56c2.099,2.099,0,3.638,0,3.638S383.421,45.206,381.46,43.172z"/>
	</g>
</g>
<g>
	<g>
		<path d="M302.538,62.531l1.399-4.477c0,0,2.658-1.539,4.757,0.56c2.099,2.099,0,3.638,0,3.638S304.499,64.565,302.538,62.531z"/>
	</g>
</g>
<g>
	<g>
		<path d="M279.91,64.16l1.399-4.477c0,0,2.658-1.539,4.757,0.56c2.099,2.099,0,3.638,0,3.638S281.871,66.194,279.91,64.16z"/>
	</g>
</g>
<g>
	<g>
		<path d="M263.391,69.296l1.399-4.477c0,0,2.658-1.539,4.757,0.56c2.099,2.099,0,3.638,0,3.638S265.352,71.33,263.391,69.296z"/>
	</g>
</g>
<g>
	<g>
		<path d="M240.712,79.034l1.399-4.477c0,0,2.658-1.539,4.757,0.56c2.099,2.099,0,3.638,0,3.638S242.673,81.069,240.712,79.034z"/>
	</g>
</g>
<g>
	<g>
		<path d="M256.915,80.843l1.399-4.477c0,0,2.658-1.539,4.757,0.56c2.099,2.099,0,3.638,0,3.638S258.876,82.877,256.915,80.843z"/>
	</g>
</g>
<g>
	<g>
		<path d="M354.207,56.414l1.399-4.477c0,0,2.658-1.539,4.757,0.56c2.099,2.099,0,3.638,0,3.638S356.169,58.448,354.207,56.414z"/>
	</g>
</g>
<g>
	<g>
		<path d="M393.121,49.774l1.399-4.477c0,0,2.658-1.539,4.757,0.56c2.099,2.099,0,3.638,0,3.638S395.082,51.808,393.121,49.774z"/>
	</g>
</g>
<g>
	<g>
		<path d="M385.059,54.172l1.399-4.477c0,0,2.658-1.539,4.757,0.56c2.099,2.099,0,3.638,0,3.638S387.02,56.206,385.059,54.172z"/>
	</g>
</g>
<g>
	<g>
		<path d="M286.877,40.582l1.399-4.477c0,0,2.658-1.539,4.757,0.56s0,3.638,0,3.638S288.839,42.616,286.877,40.582z"/>
	</g>
</g>
<g>
	<g>
		<path d="M212.804,49.204l1.399-4.477c0,0,2.658-1.539,4.757,0.56c2.099,2.099,0,3.638,0,3.638S214.765,51.238,212.804,49.204z"/>
	</g>
</g>
<g>
	<g>
		<path d="M197.832,52.653l1.399-4.477c0,0,2.658-1.539,4.757,0.56s0,3.638,0,3.638S199.793,54.687,197.832,52.653z"/>
	</g>
</g>
<g>
	<g>
		<path d="M250.426,34.091l1.399-4.477c0,0,2.658-1.539,4.757,0.56s0,3.638,0,3.638S252.387,36.125,250.426,34.091z"/>
	</g>
</g>
<g>
	<g>
		<path d="M343.683,13.833l1.399-4.477c0,0,2.658-1.539,4.757,0.56s0,3.638,0,3.638S345.645,15.868,343.683,13.833z"/>
	</g>
</g>
<g>
	<g>
		<path d="M352.822,7.094l1.399-4.477c0,0,2.658-1.539,4.757,0.56s0,3.638,0,3.638S354.783,9.128,352.822,7.094z"/>
	</g>
</g>
<g>
	<g>
		<path d="M358.398,13.667l1.399-4.477c0,0,2.658-1.539,4.757,0.56c2.099,2.099,0,3.638,0,3.638S360.36,15.701,358.398,13.667z"/>
	</g>
</g>
<g>
	<g>
		<path d="M310.314,7.064l1.399-4.477c0,0,2.658-1.539,4.757,0.56c2.099,2.099,0,3.638,0,3.638S312.275,9.098,310.314,7.064z"/>
	</g>
</g>
<g>
	<g>
		<path d="M215.571,3.441l1.399-4.477c0,0,2.658-1.539,4.757,0.56c2.099,2.099,0,3.638,0,3.638S217.533,5.475,215.571,3.441z"/>
	</g>
</g>
<g>
	<g>
		<path d="M153.097,3.838l1.399-4.477c0,0,2.658-1.539,4.757,0.56c2.099,2.099,0,3.638,0,3.638S155.059,5.872,153.097,3.838z"/>
	</g>
</g>
<g>
	<g>
		<path d="M84.123,4.308l1.399-4.477c0,0,2.658-1.539,4.757,0.56c2.099,2.099,0,3.638,0,3.638S86.085,6.342,84.123,4.308z"/>
	</g>
</g>
<g>
	<g>
		<path d="M42.746,4.06l1.399-4.477c0,0,2.658-1.539,4.757,0.56c2.099,2.099,0,3.638,0,3.638S44.707,6.094,42.746,4.06z"/>
	</g>
</g>
<g>
	<g>
		<path d="M16.828,2.529l1.399-4.477c0,0,2.658-1.539,4.757,0.56s0,3.638,0,3.638S18.789,4.563,16.828,2.529z"/>
	</g>
</g>
<g>
	<g>
		<path d="M7.01,6.712l1.399-4.477c0,0,2.658-1.539,4.757,0.56s0,3.638,0,3.638S8.972,8.746,7.01,6.712z"/>
	</g>
</g>
<g>
	<g>
		<path d="M-2.93,0.201l1.399-4.477c0,0,2.658-1.539,4.757,0.56s0,3.638,0,3.638S-0.969,2.236-2.93,0.201z"/>
	</g>
</g>
<g>
	<g>
		<path d="M-4.345,9.97l1.399-4.477c0,0,2.658-1.539,4.757,0.56s0,3.638,0,3.638S-2.383,12.004-4.345,9.97z"/>
	</g>
</g>
<g>
	<g>
		<path d="M488.048,290.516l1.399-4.477c0,0,2.658-1.539,4.757,0.56s0,3.638,0,3.638S490.009,292.55,488.048,290.516z"/>
	</g>
</g>
<g>
	<g>
		<path d="M477.367,252.463l1.399-4.477c0,0,2.658-1.539,4.757,0.56c2.099,2.099,0,3.638,0,3.638S479.328,254.497,477.367,252.463z"
			/>
	</g>
</g>
<g>
	<g>
		<path d="M477.135,153.706l1.399-4.477c0,0,2.658-1.539,4.757,0.56s0,3.638,0,3.638S479.096,155.74,477.135,153.706z"/>
	</g>
</g>
<g>
	<g>
		<path d="M469.025,91.037l1.399-4.477c0,0,2.658-1.539,4.757,0.56c2.099,2.099,0,3.638,0,3.638S470.986,93.071,469.025,91.037z"/>
	</g>
</g>
<g>
	<g>
		<path d="M471.365,42.085l1.399-4.477c0,0,2.658-1.539,4.757,0.56c2.099,2.099,0,3.638,0,3.638S473.327,44.119,471.365,42.085z"/>
	</g>
</g>
<g>
	<g>
		<path d="M471.352,6.092l1.399-4.477c0,0,2.658-1.539,4.757,0.56c2.099,2.099,0,3.638,0,3.638S473.314,8.126,471.352,6.092z"/>
	</g>
</g>
<g>
	<g>
		<path d="M471.225,18.409l1.399-4.477c0,0,2.658-1.539,4.757,0.56s0,3.638,0,3.638S473.186,20.443,471.225,18.409z"/>
	</g>
</g>
<g>
	<g>
		<path d="M457.329,129.748l1.399-4.477c0,0,2.658-1.539,4.757,0.56c2.099,2.099,0,3.638,0,3.638S459.29,131.782,457.329,129.748z"
			/>
	</g>
</g>
<g>
	<g>
		<path d="M453.425,183.79l1.399-4.477c0,0,2.658-1.539,4.757,0.56s0,3.638,0,3.638S455.387,185.825,453.425,183.79z"/>
	</g>
</g>
<g>
	<g>
		<path d="M437.709,232.277l1.399-4.477c0,0,2.658-1.539,4.757,0.56s0,3.638,0,3.638S439.67,234.311,437.709,232.277z"/>
	</g>
</g>
<g>
	<g>
		<path d="M409.923,259.203l1.399-4.477c0,0,2.658-1.539,4.757,0.56c2.099,2.099,0,3.638,0,3.638S411.885,261.237,409.923,259.203z"
			/>
	</g>
</g>
<g>
	<g>
		<path d="M373.857,288.671l1.399-4.477c0,0,2.658-1.539,4.757,0.56c2.099,2.099,0,3.638,0,3.638S375.818,290.706,373.857,288.671z"
			/>
	</g>
</g>
<g>
	<g>
		<path d="M316.283,299.373l1.399-4.477c0,0,2.658-1.539,4.757,0.56c2.099,2.099,0,3.638,0,3.638S318.244,301.407,316.283,299.373z"
			/>
	</g>
</g>
<g>
	<g>
		<path d="M351.692,279.127l1.399-4.477c0,0,2.658-1.539,4.757,0.56c2.099,2.099,0,3.638,0,3.638S353.653,281.161,351.692,279.127z"
			/>
	</g>
</g>
<g>
	<g>
		<path d="M430.311,202.28l1.399-4.477c0,0,2.658-1.539,4.757,0.56c2.099,2.099,0,3.638,0,3.638S432.273,204.314,430.311,202.28z"/>
	</g>
</g>
<g>
	<g>
		<path d="M436.229,120.893l1.399-4.477c0,0,2.658-1.539,4.757,0.56c2.099,2.099,0,3.638,0,3.638S438.191,122.928,436.229,120.893z"
			/>
	</g>
</g>
<g>
	<g>
		<path d="M400.246,97.422l1.399-4.477c0,0,2.658-1.539,4.757,0.56s0,3.638,0,3.638S402.208,99.456,400.246,97.422z"/>
	</g>
</g>
<g>
	<g>
		<path d="M263.907,166.27l1.399-4.477c0,0,2.658-1.539,4.757,0.56c2.099,2.099,0,3.638,0,3.638S265.868,168.304,263.907,166.27z"/>
	</g>
</g>
<g>
	<g>
		<path d="M150.083,233.786l1.399-4.477c0,0,2.658-1.539,4.757,0.56c2.099,2.099,0,3.638,0,3.638S152.044,235.82,150.083,233.786z"
			/>
	</g>
</g>
<g>
	<g>
		<path d="M128.993,260.758l1.399-4.477c0,0,2.658-1.539,4.757,0.56c2.099,2.099,0,3.638,0,3.638S130.954,262.792,128.993,260.758z"
			/>
	</g>
</g>
<g>
	<g>
		<path d="M110.744,285.892l1.399-4.477c0,0,2.658-1.539,4.757,0.56c2.099,2.099,0,3.638,0,3.638S112.706,287.927,110.744,285.892z"
			/>
	</g>
</g>
<g>
	<g>
		<path d="M102.04,297.083l1.399-4.477c0,0,2.658-1.539,4.757,0.56c2.099,2.099,0,3.638,0,3.638S104.001,299.117,102.04,297.083z"/>
	</g>
</g>
<g>
	<g>
		<path d="M204.032,279.309l1.399-4.477c0,0,2.658-1.539,4.757,0.56c2.099,2.099,0,3.638,0,3.638S205.993,281.343,204.032,279.309z"
			/>
	</g>
</g>
<g>
	<g>
		<path d="M383.792,205.333l1.399-4.477c0,0,2.658-1.539,4.757,0.56c2.099,2.099,0,3.638,0,3.638S385.753,207.367,383.792,205.333z"
			/>
	</g>
</g>
<g>
	<g>
		<path d="M448.363,168.778l1.399-4.477c0,0,2.658-1.539,4.757,0.56c2.099,2.099,0,3.638,0,3.638S450.325,170.812,448.363,168.778z"
			/>
	</g>
</g>
<g>
	<g>
		<path d="M457.326,164.383l1.399-4.477c0,0,2.658-1.539,4.757,0.56s0,3.638,0,3.638S459.287,166.417,457.326,164.383z"/>
	</g>
</g>
<g>
	<g>
		<path d="M409.603,170.853l1.399-4.477c0,0,2.658-1.539,4.757,0.56c2.099,2.099,0,3.638,0,3.638S411.564,172.887,409.603,170.853z"
			/>
	</g>
</g>
<g>
	<g>
		<path d="M265.964,216.961l1.399-4.477c0,0,2.658-1.539,4.757,0.56s0,3.638,0,3.638S267.926,218.995,265.964,216.961z"/>
	</g>
</g>
<g>
	<g>
		<path d="M169.821,238.655l1.399-4.477c0,0,2.658-1.539,4.757,0.56c2.099,2.099,0,3.638,0,3.638S171.782,240.689,169.821,238.655z"
			/>
	</g>
</g>
<g>
	<g>
		<path d="M95.002,261.615l1.399-4.477c0,0,2.658-1.539,4.757,0.56c2.099,2.099,0,3.638,0,3.638S96.964,263.649,95.002,261.615z"/>
	</g>
</g>
<g>
	<g>
		<path d="M62.078,269.697l1.399-4.477c0,0,2.658-1.539,4.757,0.56c2.099,2.099,0,3.638,0,3.638S64.039,271.731,62.078,269.697z"/>
	</g>
</g>
<g>
	<g>
		<path d="M37.627,280.138l1.399-4.477c0,0,2.658-1.539,4.757,0.56s0,3.638,0,3.638S39.588,282.172,37.627,280.138z"/>
	</g>
</g>
<g>
	<g>
		<path d="M27.686,282.979l1.399-4.477c0,0,2.658-1.539,4.757,0.56c2.099,2.099,0,3.638,0,3.638S29.647,285.013,27.686,282.979z"/>
	</g>
</g>
<g>
	<g>
		<path d="M74.047,301.072l1.399-4.477c0,0,2.658-1.539,4.757,0.56c2.099,2.099,0,3.638,0,3.638S76.008,303.106,74.047,301.072z"/>
	</g>
</g>
<g>
	<g>
		<path d="M332.254,293.289l1.399-4.477c0,0,2.658-1.539,4.757,0.56s0,3.638,0,3.638S334.215,295.323,332.254,293.289z"/>
	</g>
</g>
<g>
	<g>
		<path d="M401.349,293.895l1.399-4.477c0,0,2.658-1.539,4.757,0.56c2.099,2.099,0,3.638,0,3.638S403.31,295.929,401.349,293.895z"
			/>
	</g>
</g>
<g>
	<g>
		<path d="M439.925,291.816l1.399-4.477c0,0,2.658-1.539,4.757,0.56c2.099,2.099,0,3.638,0,3.638S441.886,293.85,439.925,291.816z"
			/>
	</g>
</g>
<g>
	<g>
		<path d="M465.411,290.213l1.399-4.477c0,0,2.658-1.539,4.757,0.56s0,3.638,0,3.638S467.373,292.247,465.411,290.213z"/>
	</g>
</g>
<g>
	<g>
		<path d="M471.855,297.061l1.399-4.477c0,0,2.658-1.539,4.757,0.56c2.099,2.099,0,3.638,0,3.638S473.816,299.095,471.855,297.061z"
			/>
	</g>
</g>
<g>
	<g>
		<path d="M3.264,297.203l1.399-4.477c0,0,2.658-1.539,4.757,0.56s0,3.638,0,3.638S5.225,299.237,3.264,297.203z"/>
	</g>
</g>
<g>
	<g>
		<path d="M268.231,282.077l1.399-4.477c0,0,2.658-1.539,4.757,0.56c2.099,2.099,0,3.638,0,3.638S270.192,284.111,268.231,282.077z"
			/>
	</g>
</g>
<g>
	<g>
		<path d="M363.385,282.646l1.399-4.477c0,0,2.658-1.539,4.757,0.56c2.099,2.099,0,3.638,0,3.638S365.346,284.68,363.385,282.646z"
			/>
	</g>
</g>
<g>
	<g>
		<path d="M436.939,265.398l1.399-4.477c0,0,2.658-1.539,4.757,0.56c2.099,2.099,0,3.638,0,3.638S438.9,267.432,436.939,265.398z"/>
	</g>
</g>
<g>
	<g>
		<path d="M458.544,223.363l1.399-4.477c0,0,2.658-1.539,4.757,0.56s0,3.638,0,3.638S460.505,225.397,458.544,223.363z"/>
	</g>
</g>
<g>
	<g>
		<path d="M398.154,161.86l1.399-4.477c0,0,2.658-1.539,4.757,0.56c2.099,2.099,0,3.638,0,3.638S400.115,163.894,398.154,161.86z"/>
	</g>
</g>
<g>
	<g>
		<path d="M259.282,152.522l1.399-4.477c0,0,2.658-1.539,4.757,0.56s0,3.638,0,3.638S261.243,154.556,259.282,152.522z"/>
	</g>
</g>
<g>
	<g>
		<path d="M172.81,193.318l1.399-4.477c0,0,2.658-1.539,4.757,0.56c2.099,2.099,0,3.638,0,3.638S174.771,195.353,172.81,193.318z"/>
	</g>
</g>
<g>
	<g>
		<path d="M167.689,247.174l1.399-4.477c0,0,2.658-1.539,4.757,0.56c2.099,2.099,0,3.638,0,3.638S169.651,249.209,167.689,247.174z"
			/>
	</g>
</g>
<g>
	<g>
		<path d="M361.19,254.075l1.399-4.477c0,0,2.658-1.539,4.757,0.56c2.099,2.099,0,3.638,0,3.638S363.151,256.109,361.19,254.075z"/>
	</g>
</g>
<g>
	<g>
		<path d="M462.794,207.958l1.399-4.477c0,0,2.658-1.539,4.757,0.56c2.099,2.099,0,3.638,0,3.638S464.755,209.993,462.794,207.958z"
			/>
	</g>
</g>
<g>
	<g>
		<path d="M392.777,199.213l1.399-4.477c0,0,2.658-1.539,4.757,0.56c2.099,2.099,0,3.638,0,3.638S394.738,201.247,392.777,199.213z"
			/>
	</g>
</g>
<g>
	<g>
		<path d="M246.516,283.772l1.399-4.477c0,0,2.658-1.539,4.757,0.56c2.099,2.099,0,3.638,0,3.638S248.477,285.806,246.516,283.772z"
			/>
	</g>
</g>
<g>
	<g>
		<path d="M370.057,300.837l1.399-4.477c0,0,2.658-1.539,4.757,0.56s0,3.638,0,3.638S372.018,302.871,370.057,300.837z"/>
	</g>
</g>
<g>
	<g>
		<path d="M438.03,207.121l1.399-4.477c0,0,2.658-1.539,4.757,0.56c2.099,2.099,0,3.638,0,3.638S439.992,209.155,438.03,207.121z"/>
	</g>
</g>
<g>
	<g>
		<path d="M336.622,230.979l1.399-4.477c0,0,2.658-1.539,4.757,0.56s0,3.638,0,3.638S338.583,233.014,336.622,230.979z"/>
	</g>
</g>
<g>
	<g>
		<path d="M384.708,250.252l1.399-4.477c0,0,2.658-1.539,4.757,0.56c2.099,2.099,0,3.638,0,3.638S386.669,252.286,384.708,250.252z"
			/>
	</g>
</g>
<g>
	<g>
		<path d="M412.049,186.107l1.399-4.477c0,0,2.658-1.539,4.757,0.56c2.099,2.099,0,3.638,0,3.638S414.01,188.141,412.049,186.107z"
			/>
	</g>
</g>
<g>
	<g>
		<path d="M313.338,261.679l1.399-4.477c0,0,2.658-1.539,4.757,0.56c2.099,2.099,0,3.638,0,3.638S315.299,263.713,313.338,261.679z"
			/>
	</g>
</g>
<g>
	<g>
		<path d="M437.275,219.924l1.399-4.477c0,0,2.658-1.539,4.757,0.56c2.099,2.099,0,3.638,0,3.638S439.236,221.958,437.275,219.924z"
			/>
	</g>
</g>
<g>
	<g>
		<path d="M320.213,267.179l1.399-4.477c0,0,2.658-1.539,4.757,0.56c2.099,2.099,0,3.638,0,3.638S322.174,269.213,320.213,267.179z"
			/>
	</g>
</g>
<g>
	<g>
		<path d="M414.202,230.889l1.399-4.477c0,0,2.658-1.539,4.757,0.56c2.099,2.099,0,3.638,0,3.638S416.163,232.923,414.202,230.889z"
			/>
	</g>
</g>
<g>
	<g>
		<path d="M320.358,245.181l1.399-4.477c0,0,2.658-1.539,4.757,0.56c2.099,2.099,0,3.638,0,3.638S322.32,247.215,320.358,245.181z"
			/>
	</g>
</g>
<g>
	<g>
		<path d="M380.208,219.933l1.399-4.477c0,0,2.658-1.539,4.757,0.56c2.099,2.099,0,3.638,0,3.638S382.169,221.967,380.208,219.933z"
			/>
	</g>
</g>
<g>
	<g>
		<path d="M338.906,262.184l1.399-4.477c0,0,2.658-1.539,4.757,0.56s0,3.638,0,3.638S340.867,264.218,338.906,262.184z"/>
	</g>
</g>
<g>
	<g>
		<path d="M368.615,197.113l1.399-4.477c0,0,2.658-1.539,4.757,0.56c2.099,2.099,0,3.638,0,3.638S370.577,199.147,368.615,197.113z"
			/>
	</g>
</g>
<g>
	<g>
		<path d="M363.772,263.835l1.399-4.477c0,0,2.658-1.539,4.757,0.56s0,3.638,0,3.638S365.733,265.869,363.772,263.835z"/>
	</g>
</g>
<g>
	<g>
		<path d="M426.631,177.92l1.399-4.477c0,0,2.658-1.539,4.757,0.56c2.099,2.099,0,3.638,0,3.638S428.592,179.954,426.631,177.92z"/>
	</g>
</g>
<g>
	<g>
		<path d="M401.963,209.977l1.399-4.477c0,0,2.658-1.539,4.757,0.56c2.099,2.099,0,3.638,0,3.638S403.924,212.011,401.963,209.977z"
			/>
	</g>
</g>
<g>
	<g>
		<path d="M378.055,142.898l1.399-4.477c0,0,2.658-1.539,4.757,0.56s0,3.638,0,3.638S380.017,144.933,378.055,142.898z"/>
	</g>
</g>
<g>
	<g>
		<path d="M281.22,228.147l1.399-4.477c0,0,2.658-1.539,4.757,0.56c2.099,2.099,0,3.638,0,3.638S283.181,230.181,281.22,228.147z"/>
	</g>
</g>
<g>
	<g>
		<path d="M402.972,122.496l1.399-4.477c0,0,2.658-1.539,4.757,0.56c2.099,2.099,0,3.638,0,3.638S404.933,124.53,402.972,122.496z"
			/>
	</g>
</g>
<g>
	<g>
		<path d="M243.55,223.346l1.399-4.477c0,0,2.658-1.539,4.757,0.56c2.099,2.099,0,3.638,0,3.638S245.511,225.381,243.55,223.346z"/>
	</g>
</g>
<g>
	<g>
		<path d="M491.584,65.256l1.399-4.477c0,0,2.658-1.539,4.757,0.56c2.099,2.099,0,3.638,0,3.638S493.545,67.29,491.584,65.256z"/>
	</g>
</g>
<g>
	<g>
		<path d="M284.799,90.97l1.399-4.477c0,0,2.658-1.539,4.757,0.56c2.099,2.099,0,3.638,0,3.638S286.76,93.004,284.799,90.97z"/>
	</g>
</g>
<g>
	<g>
		<path d="M323.211,101.06l1.399-4.477c0,0,2.658-1.539,4.757,0.56c2.099,2.099,0,3.638,0,3.638S325.172,103.094,323.211,101.06z"/>
	</g>
</g>
<g>
	<g>
		<path d="M239.295,180.175l1.399-4.477c0,0,2.658-1.539,4.757,0.56c2.099,2.099,0,3.638,0,3.638S241.257,182.209,239.295,180.175z"
			/>
	</g>
</g>
<g>
	<g>
		<path d="M374.61,131.095l1.399-4.477c0,0,2.658-1.539,4.757,0.56s0,3.638,0,3.638S376.571,133.129,374.61,131.095z"/>
	</g>
</g>
<g>
	<g>
		<path d="M237.676,136.815l1.399-4.477c0,0,2.658-1.539,4.757,0.56c2.099,2.099,0,3.638,0,3.638S239.637,138.849,237.676,136.815z"
			/>
	</g>
</g>
<g>
	<g>
		<path d="M311.799,204.785l1.399-4.477c0,0,2.658-1.539,4.757,0.56c2.099,2.099,0,3.638,0,3.638S313.761,206.819,311.799,204.785z"
			/>
	</g>
</g>
<g>
	<g>
		<path d="M256.586,195.442l1.399-4.477c0,0,2.658-1.539,4.757,0.56s0,3.638,0,3.638S258.547,197.476,256.586,195.442z"/>
	</g>
</g>
<g>
	<g>
		<path d="M354.158,212.628l1.399-4.477c0,0,2.658-1.539,4.757,0.56c2.099,2.099,0,3.638,0,3.638S356.119,214.662,354.158,212.628z"
			/>
	</g>
</g>
<g>
	<g>
		<path d="M202.019,150.491l1.399-4.477c0,0,2.658-1.539,4.757,0.56s0,3.638,0,3.638S203.98,152.525,202.019,150.491z"/>
	</g>
</g>
<g>
	<g>
		<path d="M161.04,272.598l1.399-4.477c0,0,2.658-1.539,4.757,0.56c2.099,2.099,0,3.638,0,3.638S163.001,274.632,161.04,272.598z"/>
	</g>
</g>
<g>
	<g>
		<path d="M94.52,122.146l1.399-4.477c0,0,2.658-1.539,4.757,0.56c2.099,2.099,0,3.638,0,3.638S96.481,124.18,94.52,122.146z"/>
	</g>
</g>
<g>
	<g>
		<path d="M71.315,223.041l1.399-4.477c0,0,2.658-1.539,4.757,0.56c2.099,2.099,0,3.638,0,3.638S73.276,225.075,71.315,223.041z"/>
	</g>
</g>
<g>
	<g>
		<path d="M63.928,131.561l1.399-4.477c0,0,2.658-1.539,4.757,0.56s0,3.638,0,3.638S65.889,133.595,63.928,131.561z"/>
	</g>
</g>
<g>
	<g>
		<path d="M71.053,188.002l1.399-4.477c0,0,2.658-1.539,4.757,0.56s0,3.638,0,3.638S73.014,190.036,71.053,188.002z"/>
	</g>
</g>
<g>
	<g>
		<path d="M80.183,87.51l1.399-4.477c0,0,2.658-1.539,4.757,0.56c2.099,2.099,0,3.638,0,3.638S82.145,89.544,80.183,87.51z"/>
	</g>
</g>
<g>
	<g>
		<path d="M76.892,141.049l1.399-4.477c0,0,2.658-1.539,4.757,0.56c2.099,2.099,0,3.638,0,3.638S78.853,143.083,76.892,141.049z"/>
	</g>
</g>
<g>
	<g>
		<path d="M31.577,46.756l1.399-4.477c0,0,2.658-1.539,4.757,0.56c2.099,2.099,0,3.638,0,3.638S33.539,48.79,31.577,46.756z"/>
	</g>
</g>
<g>
	<g>
		<path d="M13.325,79.207l1.399-4.477c0,0,2.658-1.539,4.757,0.56s0,3.638,0,3.638S15.286,81.241,13.325,79.207z"/>
	</g>
</g>
<g>
	<g>
		<path d="M0.079,62.051l1.399-4.477c0,0,2.658-1.539,4.757,0.56c2.099,2.099,0,3.638,0,3.638S2.04,64.085,0.079,62.051z"/>
	</g>
</g>
<g>
	<g>
		<path d="M23.687,102.857l1.399-4.477c0,0,2.658-1.539,4.757,0.56c2.099,2.099,0,3.638,0,3.638S25.649,104.891,23.687,102.857z"/>
	</g>
</g>
<g>
	<g>
		<path d="M68.174,102.215l1.399-4.477c0,0,2.658-1.539,4.757,0.56c2.099,2.099,0,3.638,0,3.638S70.135,104.249,68.174,102.215z"/>
	</g>
</g>
<g>
	<g>
		<path d="M34.181,137.979l1.399-4.477c0,0,2.658-1.539,4.757,0.56c2.099,2.099,0,3.638,0,3.638S36.142,140.014,34.181,137.979z"/>
	</g>
</g>
<g>
	<g>
		<path d="M6.125,159.779l1.399-4.477c0,0,2.658-1.539,4.757,0.56c2.099,2.099,0,3.638,0,3.638S8.086,161.813,6.125,159.779z"/>
	</g>
</g>
<g>
	<g>
		<path d="M14.202,201.77l1.399-4.477c0,0,2.658-1.539,4.757,0.56c2.099,2.099,0,3.638,0,3.638S16.164,203.804,14.202,201.77z"/>
	</g>
</g>
<g>
	<g>
		<path d="M-2.472,225.262l1.399-4.477c0,0,2.658-1.539,4.757,0.56c2.099,2.099,0,3.638,0,3.638S-0.51,227.296-2.472,225.262z"/>
	</g>
</g>
<g>
	<g>
		<path d="M37.745,201.665l1.399-4.477c0,0,2.658-1.539,4.757,0.56c2.099,2.099,0,3.638,0,3.638S39.706,203.699,37.745,201.665z"/>
	</g>
</g>
<g>
	<g>
		<path d="M43.48,145.456l1.399-4.477c0,0,2.658-1.539,4.757,0.56c2.099,2.099,0,3.638,0,3.638S45.441,147.49,43.48,145.456z"/>
	</g>
</g>
<g>
	<g>
		<path d="M1.656,114.789l1.399-4.477c0,0,2.658-1.539,4.757,0.56c2.099,2.099,0,3.638,0,3.638S3.617,116.824,1.656,114.789z"/>
	</g>
</g>
<g>
	<g>
		<path d="M66.096,4.873l1.399-4.477c0,0,2.658-1.539,4.757,0.56s0,3.638,0,3.638S68.057,6.907,66.096,4.873z"/>
	</g>
</g>
<g>
	<g>
		<path d="M10.255,88.388l1.399-4.477c0,0,2.658-1.539,4.757,0.56c2.099,2.099,0,3.638,0,3.638S12.216,90.422,10.255,88.388z"/>
	</g>
</g>
<g>
	<g>
		<path d="M107.422,53.971l1.399-4.477c0,0,2.658-1.539,4.757,0.56c2.099,2.099,0,3.638,0,3.638S109.383,56.005,107.422,53.971z"/>
	</g>
</g>
<g>
	<g>
		<path d="M25.562,180.964l1.399-4.477c0,0,2.658-1.539,4.757,0.56c2.099,2.099,0,3.638,0,3.638S27.523,182.998,25.562,180.964z"/>
	</g>
</g>
<g>
	<g>
		<path d="M82.138,106.359l1.399-4.477c0,0,2.658-1.539,4.757,0.56c2.099,2.099,0,3.638,0,3.638S84.099,108.394,82.138,106.359z"/>
	</g>
</g>
<g>
	<g>
		<path d="M239.188,125.847l1.399-4.477c0,0,2.658-1.539,4.757,0.56s0,3.638,0,3.638S241.149,127.881,239.188,125.847z"/>
	</g>
</g>
<g>
	<g>
		<path d="M125.814,155.15l1.399-4.477c0,0,2.658-1.539,4.757,0.56c2.099,2.099,0,3.638,0,3.638S127.775,157.184,125.814,155.15z"/>
	</g>
</g>
<g>
	<g>
		<path d="M367.821,119.925l1.399-4.477c0,0,2.658-1.539,4.757,0.56c2.099,2.099,0,3.638,0,3.638S369.782,121.959,367.821,119.925z"
			/>
	</g>
</g>
<g>
	<g>
		<path d="M155.94,209.867l1.399-4.477c0,0,2.658-1.539,4.757,0.56c2.099,2.099,0,3.638,0,3.638S157.902,211.901,155.94,209.867z"/>
	</g>
</g>
<g>
	<g>
		<path d="M424.004,105.787l1.399-4.477c0,0,2.658-1.539,4.757,0.56s0,3.638,0,3.638S425.965,107.821,424.004,105.787z"/>
	</g>
</g>
<g>
	<g>
		<path d="M153.104,158.584l1.399-4.477c0,0,2.658-1.539,4.757,0.56c2.099,2.099,0,3.638,0,3.638S155.065,160.619,153.104,158.584z"
			/>
	</g>
</g>
<g>
	<g>
		<path d="M190.404,127.911l1.399-4.477c0,0,2.658-1.539,4.757,0.56c2.099,2.099,0,3.638,0,3.638S192.365,129.945,190.404,127.911z"
			/>
	</g>
</g>
<g>
	<g>
		<path d="M215.143,108.61l1.399-4.477c0,0,2.658-1.539,4.757,0.56s0,3.638,0,3.638S217.104,110.644,215.143,108.61z"/>
	</g>
</g>
<g>
	<g>
		<path d="M91.277,96.495l1.399-4.477c0,0,2.658-1.539,4.757,0.56s0,3.638,0,3.638S93.238,98.529,91.277,96.495z"/>
	</g>
</g>
<g>
	<g>
		<path d="M90.414,155.354l1.399-4.477c0,0,2.658-1.539,4.757,0.56s0,3.638,0,3.638S92.375,157.388,90.414,155.354z"/>
	</g>
</g>
<g>
	<g>
		<path d="M200.529,40.815l1.399-4.477c0,0,2.658-1.539,4.757,0.56c2.099,2.099,0,3.638,0,3.638S202.49,42.849,200.529,40.815z"/>
	</g>
</g>
<g>
	<g>
		<path d="M262.178,7.93l1.399-4.477c0,0,2.658-1.539,4.757,0.56s0,3.638,0,3.638S264.139,9.964,262.178,7.93z"/>
	</g>
</g>
<g>
	<g>
		<path d="M218.876,75.874l1.399-4.477c0,0,2.658-1.539,4.757,0.56c2.099,2.099,0,3.638,0,3.638S220.838,77.908,218.876,75.874z"/>
	</g>
</g>
<g>
	<g>
		<path d="M228.324,108.009l1.399-4.477c0,0,2.658-1.539,4.757,0.56c2.099,2.099,0,3.638,0,3.638S230.285,110.043,228.324,108.009z"
			/>
	</g>
</g>
<g>
	<g>
		<path d="M366.08,137.004l1.399-4.477c0,0,2.658-1.539,4.757,0.56s0,3.638,0,3.638S368.041,139.038,366.08,137.004z"/>
	</g>
</g>
<g>
	<g>
		<path d="M351.041,188.057l1.399-4.477c0,0,2.658-1.539,4.757,0.56s0,3.638,0,3.638S353.002,190.091,351.041,188.057z"/>
	</g>
</g>
<g>
	<g>
		<path d="M487.918,103.153l1.399-4.477c0,0,2.658-1.539,4.757,0.56c2.099,2.099,0,3.638,0,3.638S489.879,105.187,487.918,103.153z"
			/>
	</g>
</g>
<g>
	<g>
		<path d="M488.328,235.133l1.399-4.477c0,0,2.658-1.539,4.757,0.56c2.099,2.099,0,3.638,0,3.638S490.289,237.167,488.328,235.133z"
			/>
	</g>
</g>
<g>
	<g>
		<path d="M411.698,279.489l1.399-4.477c0,0,2.658-1.539,4.757,0.56c2.099,2.099,0,3.638,0,3.638S413.659,281.523,411.698,279.489z"
			/>
	</g>
</g>
<g>
	<g>
		<path d="M431.906,162.161l1.399-4.477c0,0,2.658-1.539,4.757,0.56c2.099,2.099,0,3.638,0,3.638S433.867,164.195,431.906,162.161z"
			/>
	</g>
</g>
<g>
	<g>
		<path d="M136.721,288.831l1.399-4.477c0,0,2.658-1.539,4.757,0.56s0,3.638,0,3.638S138.682,290.866,136.721,288.831z"/>
	</g>
</g>
<g>
	<g>
		<path d="M247.324,237.375l1.399-4.477c0,0,2.658-1.539,4.757,0.56c2.099,2.099,0,3.638,0,3.638S249.285,239.41,247.324,237.375z"
			/>
	</g>
</g>
<g>
	<g>
		<path d="M341.65,203.461l1.399-4.477c0,0,2.658-1.539,4.757,0.56c2.099,2.099,0,3.638,0,3.638S343.612,205.495,341.65,203.461z"/>
	</g>
</g>
<g>
	<g>
		<path d="M232.291,259.59l1.399-4.477c0,0,2.658-1.539,4.757,0.56c2.099,2.099,0,3.638,0,3.638S234.252,261.624,232.291,259.59z"/>
	</g>
</g>
<g>
	<g>
		<path d="M299.177,218.743l1.399-4.477c0,0,2.658-1.539,4.757,0.56c2.099,2.099,0,3.638,0,3.638S301.138,220.777,299.177,218.743z"
			/>
	</g>
</g>
<g>
	<g>
		<path d="M250.049,251.076l1.399-4.477c0,0,2.658-1.539,4.757,0.56c2.099,2.099,0,3.638,0,3.638S252.011,253.11,250.049,251.076z"
			/>
	</g>
</g>
<g>
	<g>
		<path d="M282.754,205.992l1.399-4.477c0,0,2.658-1.539,4.757,0.56c2.099,2.099,0,3.638,0,3.638S284.715,208.026,282.754,205.992z"
			/>
	</g>
</g>
<g>
	<g>
		<path d="M251.636,205.879l1.399-4.477c0,0,2.658-1.539,4.757,0.56c2.099,2.099,0,3.638,0,3.638S253.597,207.914,251.636,205.879z"
			/>
	</g>
</g>
<g>
	<g>
		<path d="M222.496,186.167l1.399-4.477c0,0,2.658-1.539,4.757,0.56c2.099,2.099,0,3.638,0,3.638S224.457,188.202,222.496,186.167z"
			/>
	</g>
</g>
<g>
	<g>
		<path d="M228.18,172.678l1.399-4.477c0,0,2.658-1.539,4.757,0.56s0,3.638,0,3.638S230.142,174.712,228.18,172.678z"/>
	</g>
</g>
<g>
	<g>
		<path d="M127.167,193.573l1.399-4.477c0,0,2.658-1.539,4.757,0.56c2.099,2.099,0,3.638,0,3.638S129.129,195.607,127.167,193.573z"
			/>
	</g>
</g>
<g>
	<g>
		<path d="M286.169,143.004l1.399-4.477c0,0,2.658-1.539,4.757,0.56c2.099,2.099,0,3.638,0,3.638S288.13,145.038,286.169,143.004z"
			/>
	</g>
</g>
<g>
	<g>
		<path d="M168.613,176.79l1.399-4.477c0,0,2.658-1.539,4.757,0.56c2.099,2.099,0,3.638,0,3.638S170.574,178.824,168.613,176.79z"/>
	</g>
</g>
<g>
	<g>
		<path d="M378.721,108.329l1.399-4.477c0,0,2.658-1.539,4.757,0.56c2.099,2.099,0,3.638,0,3.638S380.682,110.363,378.721,108.329z"
			/>
	</g>
</g>
<g>
	<g>
		<path d="M270.791,137.702l1.399-4.477c0,0,2.658-1.539,4.757,0.56c2.099,2.099,0,3.638,0,3.638S272.752,139.736,270.791,137.702z"
			/>
	</g>
</g>
<g>
	<g>
		<path d="M186.183,107.713l1.399-4.477c0,0,2.658-1.539,4.757,0.56c2.099,2.099,0,3.638,0,3.638S188.144,109.747,186.183,107.713z"
			/>
	</g>
</g>
<g>
	<g>
		<path d="M144.622,118.541l1.399-4.477c0,0,2.658-1.539,4.757,0.56c2.099,2.099,0,3.638,0,3.638S146.583,120.575,144.622,118.541z"
			/>
	</g>
</g>
<g>
	<g>
		<path d="M81.178,131.012l1.399-4.477c0,0,2.658-1.539,4.757,0.56c2.099,2.099,0,3.638,0,3.638S83.139,133.046,81.178,131.012z"/>
	</g>
</g>
<g>
	<g>
		<path d="M168.032,104.349l1.399-4.477c0,0,2.658-1.539,4.757,0.56c2.099,2.099,0,3.638,0,3.638S169.993,106.383,168.032,104.349z"
			/>
	</g>
</g>
<g>
	<g>
		<path d="M98.382,85.611l1.399-4.477c0,0,2.658-1.539,4.757,0.56c2.099,2.099,0,3.638,0,3.638S100.343,87.645,98.382,85.611z"/>
	</g>
</g>
<g>
	<g>
		<path d="M124.817,102.865l1.399-4.477c0,0,2.658-1.539,4.757,0.56c2.099,2.099,0,3.638,0,3.638S126.778,104.899,124.817,102.865z"
			/>
	</g>
</g>
<g>
	<g>
		<path d="M126.647,113.171l1.399-4.477c0,0,2.658-1.539,4.757,0.56c2.099,2.099,0,3.638,0,3.638S128.608,115.205,126.647,113.171z"
			/>
	</g>
</g>
<g>
	<g>
		<path d="M183.521,77.538l1.399-4.477c0,0,2.658-1.539,4.757,0.56c2.099,2.099,0,3.638,0,3.638S185.482,79.572,183.521,77.538z"/>
	</g>
</g>
<g>
	<g>
		<path d="M151.646,126.078l1.399-4.477c0,0,2.658-1.539,4.757,0.56s0,3.638,0,3.638S153.608,128.112,151.646,126.078z"/>
	</g>
</g>
<g>
	<g>
		<path d="M171.218,70.385l1.399-4.477c0,0,2.658-1.539,4.757,0.56c2.099,2.099,0,3.638,0,3.638S173.179,72.419,171.218,70.385z"/>
	</g>
</g>
<g>
	<g>
		<path d="M162.202,114.16l1.399-4.477c0,0,2.658-1.539,4.757,0.56c2.099,2.099,0,3.638,0,3.638S164.163,116.194,162.202,114.16z"/>
	</g>
</g>
<g>
	<g>
		<path d="M148.212,144.838l1.399-4.477c0,0,2.658-1.539,4.757,0.56c2.099,2.099,0,3.638,0,3.638S150.173,146.873,148.212,144.838z"
			/>
	</g>
</g>
<g>
	<g>
		<path d="M183.37,234.124l1.399-4.477c0,0,2.658-1.539,4.757,0.56c2.099,2.099,0,3.638,0,3.638S185.331,236.158,183.37,234.124z"/>
	</g>
</g>
<g>
	<g>
		<path d="M304.12,188.613l1.399-4.477c0,0,2.658-1.539,4.757,0.56s0,3.638,0,3.638S306.081,190.648,304.12,188.613z"/>
	</g>
</g>
<g>
	<g>
		<path d="M378.688,262.817l1.399-4.477c0,0,2.658-1.539,4.757,0.56c2.099,2.099,0,3.638,0,3.638S380.649,264.851,378.688,262.817z"
			/>
	</g>
</g>
<g>
	<g>
		<path d="M487.846,80.251l1.399-4.477c0,0,2.658-1.539,4.757,0.56c2.099,2.099,0,3.638,0,3.638S489.807,82.285,487.846,80.251z"/>
	</g>
</g>
<g>
	<g>
		<path d="M469.071,103.105l1.399-4.477c0,0,2.658-1.539,4.757,0.56s0,3.638,0,3.638S471.032,105.139,469.071,103.105z"/>
	</g>
</g>
<g>
	<g>
		<path d="M476.271,126.767l1.399-4.477c0,0,2.658-1.539,4.757,0.56c2.099,2.099,0,3.638,0,3.638S478.233,128.801,476.271,126.767z"
			/>
	</g>
</g>
<g>
	<g>
		<path d="M418.264,220.218l1.399-4.477c0,0,2.658-1.539,4.757,0.56s0,3.638,0,3.638S420.225,222.252,418.264,220.218z"/>
	</g>
</g>
<g>
	<g>
		<path d="M429.444,96.672l1.399-4.477c0,0,2.658-1.539,4.757,0.56c2.099,2.099,0,3.638,0,3.638S431.405,98.706,429.444,96.672z"/>
	</g>
</g>
<g>
	<g>
		<path d="M232.871,202.233l1.399-4.477c0,0,2.658-1.539,4.757,0.56c2.099,2.099,0,3.638,0,3.638S234.832,204.268,232.871,202.233z"
			/>
	</g>
</g>
<g>
	<g>
		<path d="M132.61,202.554l1.399-4.477c0,0,2.658-1.539,4.757,0.56c2.099,2.099,0,3.638,0,3.638S134.571,204.588,132.61,202.554z"/>
	</g>
</g>
<g>
	<g>
		<path d="M60.9,281.31l1.399-4.477c0,0,2.658-1.539,4.757,0.56c2.099,2.099,0,3.638,0,3.638S62.861,283.344,60.9,281.31z"/>
	</g>
</g>
<g>
	<g>
		<path d="M46.01,160.361l1.399-4.477c0,0,2.658-1.539,4.757,0.56c2.099,2.099,0,3.638,0,3.638S47.972,162.395,46.01,160.361z"/>
	</g>
</g>
<g>
	<g>
		<path d="M111.489,20.182l1.399-4.477c0,0,2.658-1.539,4.757,0.56s0,3.638,0,3.638S113.45,22.216,111.489,20.182z"/>
	</g>
</g>
<g>
	<g>
		<path d="M95.161,18.359l1.399-4.477c0,0,2.658-1.539,4.757,0.56c2.099,2.099,0,3.638,0,3.638S97.122,20.394,95.161,18.359z"/>
	</g>
</g>
<g>
	<g>
		<path d="M54.104,32.215l1.399-4.477c0,0,2.658-1.539,4.757,0.56c2.099,2.099,0,3.638,0,3.638S56.065,34.249,54.104,32.215z"/>
	</g>
</g>
<g>
	<g>
		<path d="M83.219,22.516l1.399-4.477c0,0,2.658-1.539,4.757,0.56s0,3.638,0,3.638S85.18,24.55,83.219,22.516z"/>
	</g>
</g>
<g>
	<g>
		<path d="M125.351,42.15l1.399-4.477c0,0,2.658-1.539,4.757,0.56c2.099,2.099,0,3.638,0,3.638S127.313,44.184,125.351,42.15z"/>
	</g>
</g>
<g>
	<g>
		<path d="M135.637,47.312l1.399-4.477c0,0,2.658-1.539,4.757,0.56c2.099,2.099,0,3.638,0,3.638S137.598,49.347,135.637,47.312z"/>
	</g>
</g>
<g>
	<g>
		<path d="M152.692,70.513l1.399-4.477c0,0,2.658-1.539,4.757,0.56c2.099,2.099,0,3.638,0,3.638S154.653,72.547,152.692,70.513z"/>
	</g>
</g>
</svg>
